<svg width="141" height="141" viewBox="0 0 141 141" fill="none" xmlns="http://www.w3.org/2000/svg">
<path d="M118.563 59.2636C118.185 57.8778 118.689 55.7046 119.161 53.6258C119.886 50.5077 120.705 46.9802 119.035 44.1455C117.366 41.2479 113.87 40.177 110.783 39.2636C108.768 38.6337 106.657 38.0038 105.681 37.0274C104.705 36.051 104.043 33.9408 103.445 31.925C102.5 28.8384 101.461 25.3424 98.563 23.6731C97.4291 23.0117 96.1063 22.6967 94.563 22.6967C92.7677 22.6967 90.878 23.1376 89.0827 23.5471C87.4449 23.925 85.9016 24.2715 84.5787 24.2715C84.1378 24.2715 83.7598 24.24 83.4134 24.1455C82.122 23.7991 80.5472 22.3187 79.0354 20.9014C76.6732 18.6652 73.9646 16.1455 70.5315 16.1455C67.0984 16.1455 64.4213 18.6652 62.0276 20.9014C60.5158 22.3187 58.9409 23.7991 57.6496 24.1455C57.3346 24.24 56.9252 24.2715 56.4843 24.2715C55.1929 24.2715 53.6181 23.925 51.9803 23.5471C50.1535 23.1376 48.2953 22.6967 46.5 22.6967C44.9252 22.6967 43.6339 23.0117 42.5 23.6731C39.6024 25.3424 38.5315 28.8384 37.6181 31.925C36.9882 33.9408 36.3583 36.051 35.3819 37.0274C34.4055 38.0038 32.2953 38.6652 30.2795 39.2636C27.1929 40.2085 23.6969 41.2479 22.0276 44.1455C20.3583 47.0117 21.1772 50.5392 21.9016 53.6258C22.374 55.7046 22.878 57.8778 22.5 59.2636C22.1535 60.555 20.6732 62.1298 19.2559 63.6416C17.0197 66.0038 14.5 68.7124 14.5 72.1455C14.5 75.5786 17.0197 78.2558 19.2559 80.6495C20.6732 82.1613 22.1535 83.7361 22.5 85.0274C22.878 86.4132 22.374 88.5865 21.9016 90.6652C21.1772 93.7833 20.3583 97.3109 22.0276 100.146C23.6969 103.043 27.1929 104.114 30.2795 105.027C32.2953 105.657 34.4055 106.287 35.3819 107.264C36.3583 108.24 37.0197 110.35 37.6181 112.366C38.563 115.453 39.6024 118.949 42.5 120.618C43.6339 121.279 44.9567 121.594 46.5 121.594C48.2953 121.594 50.185 121.153 51.9803 120.744C53.6181 120.366 55.1614 120.02 56.4843 120.02C56.9252 120.02 57.3032 120.051 57.6496 120.146C58.9409 120.492 60.5158 121.972 62.0276 123.39C64.3898 125.626 67.0984 128.146 70.5315 128.146C73.9646 128.146 76.6417 125.626 79.0354 123.39C80.5472 121.972 82.122 120.492 83.4134 120.146C83.7283 120.051 84.1378 120.02 84.5787 120.02C85.8701 120.02 87.4449 120.366 89.0827 120.744C90.9095 121.153 92.7677 121.594 94.563 121.594C96.1378 121.594 97.4291 121.279 98.563 120.618C101.461 118.949 102.532 115.453 103.445 112.366C104.075 110.35 104.705 108.24 105.681 107.264C106.657 106.287 108.768 105.626 110.783 105.027C113.87 104.083 117.366 103.043 119.035 100.146C120.705 97.2794 119.886 93.7518 119.161 90.6652C118.689 88.5865 118.185 86.4132 118.563 85.0274C118.909 83.7361 120.39 82.1613 121.807 80.6495C124.043 78.2872 126.563 75.5786 126.563 72.1455C126.563 68.7124 124.043 66.0353 121.807 63.6416C120.39 62.1298 118.909 60.555 118.563 59.2636ZM118.343 77.4054C116.516 79.3581 114.657 81.3424 113.996 83.7991C113.303 86.3502 113.965 89.0904 114.563 91.7361C115.098 94.0983 115.665 96.555 114.941 97.8148C114.185 99.1061 111.76 99.8306 109.398 100.555C106.815 101.342 104.138 102.161 102.311 103.988C100.484 105.815 99.6654 108.492 98.878 111.075C98.1535 113.437 97.4291 115.862 96.1378 116.618C95.7283 116.838 95.1929 116.964 94.5 116.964C93.2402 116.964 91.6969 116.618 90.0591 116.24C88.2323 115.831 86.3425 115.39 84.5157 115.39C83.6339 115.39 82.878 115.484 82.1535 115.673C79.6969 116.334 77.7126 118.193 75.7598 120.02C73.9331 121.72 72.0433 123.484 70.5 123.484C68.9567 123.484 67.0669 121.72 65.2402 120.02C63.2874 118.193 61.3032 116.334 58.8465 115.673C58.122 115.484 57.3346 115.39 56.4843 115.39C54.6575 115.39 52.7677 115.831 50.9409 116.24C49.3032 116.618 47.7913 116.964 46.5 116.964C45.8071 116.964 45.2717 116.838 44.8622 116.618C43.5709 115.862 42.8465 113.437 42.1221 111.075C41.3347 108.492 40.5157 105.815 38.689 103.988C36.8622 102.161 34.185 101.342 31.6024 100.555C29.2402 99.8306 26.815 99.1061 26.0591 97.8148C25.3346 96.555 25.9016 94.1298 26.437 91.7361C27.0354 89.0904 27.6969 86.3502 27.0039 83.7991C26.3425 81.3424 24.4843 79.3581 22.6575 77.4054C20.9567 75.5786 19.1929 73.6888 19.1929 72.1455C19.1929 70.5707 20.9567 68.7124 22.6575 66.8857C24.4843 64.9329 26.3425 62.9487 27.0039 60.492C27.6969 57.9408 27.0354 55.2006 26.437 52.555C25.9016 50.1928 25.3346 47.7361 26.0591 46.4762C26.815 45.1849 29.2402 44.4605 31.6024 43.7361C34.185 42.9487 36.8622 42.1298 38.689 40.303C40.5157 38.4762 41.3347 35.7991 42.1221 33.2164C42.8465 30.8542 43.5709 28.429 44.8622 27.6731C45.2717 27.4526 45.8071 27.3266 46.5 27.3266C47.7598 27.3266 49.3032 27.6731 50.9409 28.051C52.7677 28.4605 54.6575 28.9014 56.4843 28.9014C57.3661 28.9014 58.122 28.8069 58.8465 28.618C61.3032 27.9565 63.2874 26.0983 65.2402 24.2715C67.0669 22.5707 68.9567 20.8069 70.5 20.8069C72.0433 20.8069 73.9331 22.5707 75.7598 24.2715C77.7126 26.0983 79.6969 27.9565 82.1535 28.618C82.878 28.8069 83.6654 28.9014 84.5157 28.9014C86.3425 28.9014 88.2323 28.4605 90.0591 28.051C91.6969 27.6731 93.2087 27.3266 94.5 27.3266C95.1929 27.3266 95.7283 27.4526 96.1378 27.6731C97.4291 28.429 98.1535 30.8542 98.878 33.2164C99.6654 35.7991 100.484 38.4762 102.311 40.303C104.138 42.1298 106.815 42.9487 109.398 43.7361C111.76 44.4605 114.185 45.1849 114.941 46.4762C115.665 47.7361 115.098 50.1613 114.563 52.555C113.965 55.2006 113.303 57.9408 113.996 60.492C114.657 62.9487 116.516 64.9329 118.343 66.8857C120.043 68.7124 121.807 70.6022 121.807 72.1455C121.839 73.7203 120.075 75.5786 118.343 77.4054Z" fill="#455999"/>
<path d="M52.5472 65.4047C58.7519 65.4047 63.7598 60.3653 63.7598 54.1921C63.7598 47.9874 58.7204 42.9795 52.5472 42.9795C46.3425 42.9795 41.3346 48.0189 41.3346 54.1921C41.3346 60.3653 46.374 65.4047 52.5472 65.4047ZM52.5472 47.6724C56.1377 47.6724 59.0354 50.6015 59.0354 54.1606C59.0354 57.7511 56.1062 60.6488 52.5472 60.6488C48.9881 60.6488 46.059 57.7197 46.059 54.1606C46.059 50.6015 48.9881 47.6724 52.5472 47.6724Z" fill="#455999"/>
<path d="M88.5157 78.8857C82.311 78.8857 77.3031 83.9251 77.3031 90.0983C77.3031 96.3031 82.3425 101.311 88.5157 101.311C94.7204 101.311 99.7283 96.2716 99.7283 90.0983C99.7283 83.9251 94.6889 78.8857 88.5157 78.8857ZM88.5157 96.618C84.9252 96.618 82.0275 93.6889 82.0275 90.1298C82.0275 86.5708 84.9566 83.6417 88.5157 83.6417C92.0748 83.6417 95.0039 86.5708 95.0039 90.1298C95.0039 93.6889 92.0748 96.618 88.5157 96.618Z" fill="#455999"/>
<path d="M96.6732 46.0044C95.7598 45.091 94.248 45.091 93.3346 46.0044L44.3898 94.9178C43.4764 95.8312 43.4764 97.343 44.3898 98.2564C44.8622 98.7288 45.4606 98.9493 46.059 98.9493C46.6575 98.9493 47.2559 98.7288 47.7283 98.2564L96.6732 49.3745C97.5866 48.4296 97.5866 46.9493 96.6732 46.0044Z" fill="#455999"/>
</svg>
