<svg width="141" height="141" viewBox="0 0 141 141" fill="none" xmlns="http://www.w3.org/2000/svg">
<g clip-path="url(#clip0_1266_6917)">
<path d="M111.273 42.0439C111.29 42.0061 111.305 41.9674 111.32 41.9287C111.333 41.896 111.345 41.8634 111.356 41.8307C111.367 41.796 111.377 41.7606 111.387 41.7249C111.398 41.6868 111.408 41.6487 111.417 41.6103C111.424 41.5789 111.429 41.5468 111.435 41.5148C111.443 41.4715 111.45 41.4283 111.455 41.3847C111.458 41.3557 111.461 41.3264 111.463 41.297C111.467 41.2505 111.469 41.2039 111.47 41.1573C111.47 41.144 111.472 41.131 111.472 41.1174C111.472 18.5254 93.092 0.145508 70.5 0.145508C47.908 0.145508 29.5281 18.5254 29.5281 41.1174C29.5281 41.1307 29.5299 41.144 29.5302 41.1573C29.5311 41.2039 29.5335 41.2505 29.5371 41.297C29.5396 41.3264 29.5417 41.3557 29.5453 41.3847C29.5505 41.4283 29.5574 41.4715 29.5653 41.5148C29.571 41.5468 29.5765 41.5786 29.5837 41.6103C29.5922 41.6487 29.6025 41.6868 29.613 41.7249C29.623 41.7603 29.633 41.7957 29.6445 41.8304C29.6554 41.8634 29.6681 41.896 29.6805 41.929C29.6953 41.9677 29.7107 42.0061 29.7276 42.0439C29.7406 42.0726 29.7546 42.1008 29.7688 42.1292C29.7887 42.1691 29.8093 42.2084 29.8317 42.2468C29.8389 42.2592 29.8444 42.2719 29.8516 42.2843L54.5847 83.506C54.1548 83.7812 53.7508 84.1035 53.3813 84.473C52.039 85.8149 51.2997 87.5995 51.2997 89.4976C51.2997 91.3956 52.0387 93.1802 53.381 94.5221C54.4 95.5412 57.7246 97.467 61.1702 99.3248H48.7289C46.1445 99.3248 44.0421 101.427 44.0421 104.012V111.269C44.0421 112.521 45.0572 113.536 46.3099 113.536H46.4611V135.459C46.4611 138.043 48.5635 140.146 51.1479 140.146H89.852C92.4365 140.146 94.5389 138.043 94.5389 135.459V113.536H94.6901C95.9428 113.536 96.9579 112.521 96.9579 111.269V104.012C96.9579 101.427 94.8555 99.3248 92.2711 99.3248H79.8304C83.276 97.4667 86.6003 95.5412 87.6193 94.5221C88.9615 93.1802 89.7009 91.3956 89.7009 89.4976C89.7009 87.5995 88.9619 85.8149 87.6196 84.473C87.2498 84.1032 86.8455 83.7811 86.4158 83.5057L111.149 42.284C111.156 42.2716 111.162 42.2589 111.169 42.2465C111.191 42.2081 111.212 42.1685 111.232 42.1286C111.246 42.1005 111.26 42.0723 111.273 42.0439ZM79.646 83.0303L92.0152 41.7996C92.0174 41.7929 92.0192 41.786 92.0213 41.7793L92.0243 41.7691C92.0282 41.7561 92.0304 41.7427 92.034 41.7294C92.05 41.672 92.0651 41.6145 92.0766 41.5556C92.0836 41.5196 92.0878 41.4839 92.093 41.4482C92.0984 41.411 92.1051 41.3745 92.1087 41.3367C92.1144 41.2783 92.1162 41.2202 92.1174 41.1619C92.1177 41.1471 92.1196 41.1325 92.1196 41.1174C92.1196 40.4567 94.6668 38.5472 99.5278 38.5472C103.689 38.5472 106.149 39.9448 106.772 40.7621L81.7644 82.4416C81.0257 82.5269 80.3127 82.7259 79.646 83.0303ZM59.2353 82.4413L34.2276 40.7618C34.8511 39.9445 37.3106 38.5469 41.4719 38.5469C46.3329 38.5469 48.8801 40.4564 48.8801 41.1171C48.8801 41.1322 48.8819 41.1468 48.8822 41.1616C48.8835 41.2196 48.8853 41.278 48.891 41.3364C48.8946 41.3741 48.9013 41.4107 48.9067 41.4479C48.9122 41.4839 48.9161 41.5196 48.9231 41.5553C48.9346 41.6142 48.9497 41.672 48.9657 41.7291C48.9693 41.7421 48.9714 41.7554 48.9754 41.7688L48.9784 41.7793C48.9805 41.786 48.9823 41.7926 48.9844 41.7993L61.3534 83.03C60.6873 82.7259 59.974 82.5269 59.2353 82.4413ZM72.7678 41.1174C72.7678 40.4567 75.315 38.5472 80.176 38.5472C84.6699 38.5472 87.1815 40.1773 87.5358 40.946L72.7678 90.1728V41.1174ZM68.2322 90.1731L53.4641 40.946C53.8185 40.1773 56.3301 38.5472 60.824 38.5472C65.685 38.5472 68.2322 40.4567 68.2322 41.1174V90.1731ZM70.5 4.68115C88.5975 4.68115 103.653 17.9443 106.463 35.2601C104.533 34.4682 102.156 34.0116 99.5281 34.0116C95.4581 34.0116 91.9868 35.1029 89.852 36.8461C87.7173 35.1029 84.246 34.0116 80.176 34.0116C76.106 34.0116 72.6348 35.1029 70.5 36.8461C68.3652 35.1029 64.8939 34.0116 60.824 34.0116C56.754 34.0116 53.2827 35.1029 51.1479 36.8461C49.0132 35.1029 45.5419 34.0116 41.4719 34.0116C38.8437 34.0116 36.467 34.4682 34.5369 35.2601C37.3472 17.9443 52.4025 4.68115 70.5 4.68115ZM55.8348 89.4976C55.8348 88.8112 56.1021 88.1659 56.5877 87.6803C57.073 87.195 57.7183 86.9274 58.405 86.9274C59.0917 86.9274 59.7366 87.1947 60.2222 87.6803H60.2225C60.9092 88.3715 63.0023 92.0644 65.2704 96.3627C60.9715 94.0949 57.2789 92.0018 56.5874 91.3145C56.1021 90.8292 55.8348 90.184 55.8348 89.4976ZM48.5778 104.012C48.5778 103.928 48.6458 103.86 48.7289 103.86H68.2322V109.001H48.5778V104.012ZM50.9968 135.459V113.536H68.2322V135.61H51.1479C51.0648 135.61 50.9968 135.542 50.9968 135.459ZM90.0032 135.459C90.0032 135.542 89.9352 135.61 89.852 135.61H72.7678V113.536H90.0032V135.459ZM92.4222 104.012V109.001H72.7678V103.86H92.2711C92.3542 103.86 92.4222 103.928 92.4222 104.012ZM84.4123 91.3148C83.7214 92.0018 80.0285 94.0946 75.7299 96.3627C77.998 92.0641 80.0908 88.3715 80.7775 87.6803H80.7777C81.2631 87.195 81.9083 86.9274 82.595 86.9274C83.2817 86.9274 83.9267 87.1947 84.4126 87.6803C84.8979 88.1656 85.1652 88.8112 85.1652 89.4976C85.1652 90.184 84.8979 90.8292 84.4123 91.3148Z" fill="#455999"/>
</g>
<defs>
<clipPath id="clip0_1266_6917">
<rect width="140" height="140" fill="white" transform="translate(0.5 0.145508)"/>
</clipPath>
</defs>
</svg>
