<svg width="431" height="427" viewBox="0 0 431 427" fill="none" xmlns="http://www.w3.org/2000/svg">
<path d="M430.5 213.5C430.5 331.137 335.137 426.5 217.5 426.5C118.045 426.5 34.5105 358.337 11.0644 266.179C38.5731 343.309 112.107 398.5 198.5 398.5C308.406 398.5 397.5 309.18 397.5 199C397.5 95.6138 319.054 10.5939 218.576 0.502662C335.718 1.08225 430.5 96.2223 430.5 213.5ZM0.5 199C0.5 90.0112 88.1153 1.53979 196.584 0.509099C88.2112 11.0213 3.5 102.368 3.5 213.5C3.5 224.04 4.26194 234.401 5.73374 244.533C2.31069 229.912 0.5 214.668 0.5 199ZM198.5 397.5C108.743 397.5 32.9344 337.625 8.64819 255.542C5.92734 241.95 4.5 227.892 4.5 213.5C4.5 99.1074 94.6762 5.77657 207.82 0.716032C312.844 5.59501 396.5 92.5024 396.5 199C396.5 308.63 307.851 397.5 198.5 397.5Z" stroke="#EFDAF5"/>
</svg>
