<svg width="141" height="141" viewBox="0 0 141 141" fill="none" xmlns="http://www.w3.org/2000/svg">
<g clip-path="url(#clip0_1266_6907)">
<path d="M116.461 94.79C114.044 94.79 112.077 96.757 112.077 99.1745C112.077 101.592 114.044 103.559 116.461 103.559C118.879 103.559 120.846 101.592 120.846 99.1745C120.846 96.757 118.879 94.79 116.461 94.79Z" fill="#455999"/>
<path d="M29.377 94.79C26.9595 94.79 24.9925 96.757 24.9925 99.1745C24.9925 101.592 26.9595 103.559 29.377 103.559C31.7945 103.559 33.7614 101.592 33.7614 99.1745C33.7614 96.757 31.7945 94.79 29.377 94.79Z" fill="#455999"/>
<path d="M134.844 66.1582L118.163 58.7442L105.952 32.2881C104.401 28.9266 101.006 26.7549 97.304 26.7549H7.60585C3.68765 26.7549 0.5 29.9425 0.5 33.8607V94.336C0.5 98.2542 3.68765 101.442 7.60585 101.442H15.1949C16.2856 108.288 22.2291 113.537 29.377 113.537C36.5248 113.537 42.4683 108.288 43.559 101.442H102.279C103.37 108.288 109.313 113.537 116.461 113.537C123.609 113.537 129.552 108.288 130.643 101.442H133.394C137.312 101.442 140.5 98.2542 140.5 94.336V74.8621C140.5 71.1017 138.28 67.6852 134.844 66.1582ZM106.079 43.3856L112.917 58.202H92.1201V43.3856H106.079ZM29.377 109.001C23.9584 109.001 19.5497 104.593 19.5497 99.174C19.5497 93.7552 23.9584 89.3468 29.377 89.3468C34.7955 89.3468 39.2042 93.7552 39.2042 99.174C39.2042 104.593 34.7955 109.001 29.377 109.001ZM116.461 109.001C111.043 109.001 106.634 104.593 106.634 99.174C106.634 93.7552 111.043 89.3468 116.461 89.3468C121.88 89.3468 126.289 93.7552 126.289 99.174C126.289 104.593 121.88 109.001 116.461 109.001ZM135.965 87.2302H133.394C132.142 87.2302 131.127 88.2453 131.127 89.498C131.127 90.7507 132.142 91.7658 133.394 91.7658H135.965V94.336C135.965 95.7533 134.812 96.9062 133.394 96.9062H130.643C129.553 90.0604 123.609 84.8112 116.461 84.8112C109.313 84.8112 103.37 90.0604 102.279 96.9062H43.559C42.4683 90.0604 36.5248 84.8112 29.377 84.8112C22.2291 84.8112 16.2856 90.0604 15.1949 96.9062H7.60585C6.18861 96.9062 5.03565 95.7533 5.03565 94.336V91.7658H12.4439C13.6963 91.7658 14.7117 90.7507 14.7117 89.498C14.7117 88.2453 13.6963 87.2302 12.4439 87.2302H5.03565V33.8607C5.03565 32.4435 6.18861 31.2905 7.60585 31.2905H97.304C99.2432 31.2905 101.021 32.4284 101.834 34.1888L103.985 38.8499H82.5952C80.0108 38.8499 77.9084 40.9524 77.9084 43.5368V53.2128C77.9084 58.4648 82.1813 62.7377 87.4332 62.7377H115.98L130.063 68.9969L129.707 69.2134C127.599 70.4933 126.289 72.8207 126.289 75.2872V79.8219C126.289 81.0747 127.304 82.0898 128.556 82.0898H135.965V87.2302ZM87.5844 43.3856V58.202H87.4332C84.6822 58.202 82.444 55.9638 82.444 53.2128V43.5368C82.444 43.4536 82.5118 43.3856 82.5952 43.3856H87.5844ZM135.965 77.5541H130.824V75.2875C130.824 74.3955 131.298 73.5537 132.06 73.0904L134.666 71.5087C135.484 72.4104 135.965 73.5984 135.965 74.8618V77.5541Z" fill="#455999"/>
<path d="M99.5283 87.2305H46.3101C45.0576 87.2305 44.0422 88.2455 44.0422 89.4983C44.0422 90.751 45.0576 91.7661 46.3101 91.7661H99.5283C100.781 91.7661 101.796 90.751 101.796 89.4983C101.796 88.2455 100.781 87.2305 99.5283 87.2305Z" fill="#455999"/>
</g>
<defs>
<clipPath id="clip0_1266_6907">
<rect width="140" height="140" fill="white" transform="translate(0.5 0.145508)"/>
</clipPath>
</defs>
</svg>
