<svg width="141" height="141" viewBox="0 0 141 141" fill="none" xmlns="http://www.w3.org/2000/svg">
<g clip-path="url(#clip0_1266_6930)">
<path d="M71.708 56.5342C71.6785 56.5342 71.6491 56.5342 71.6491 56.5342H62.0447C60.8368 56.5342 59.8351 57.5359 59.8351 58.7438V83.2556H56.7711C55.5632 83.2556 54.5615 84.2572 54.5615 85.4652C54.5615 86.6731 55.5632 87.6748 56.7711 87.6748H59.8351V91.4753H56.7711C55.5632 91.4753 54.5615 92.4769 54.5615 93.6848C54.5615 94.8928 55.5632 95.8944 56.7711 95.8944H59.8351V107.384C59.8351 108.592 60.8368 109.594 62.0447 109.594C63.2526 109.594 64.2543 108.592 64.2543 107.384V95.8944H78.2779C79.4858 95.8944 80.4874 94.8928 80.4874 93.6848C80.4874 92.4769 79.4858 91.4753 78.2779 91.4753H64.2543V87.6748H71.6491C79.8098 87.6748 86.4386 80.7514 86.4386 72.2076C86.4386 63.6933 79.9866 56.7993 71.708 56.5342ZM71.6491 83.2556H64.2543V60.9534H71.6196C77.4529 61.1596 82.0194 66.1091 82.0194 72.2076C82.0194 78.3061 77.3646 83.2556 71.6491 83.2556Z" fill="#455999"/>
<path d="M130.984 77.8055L88.0295 34.9098C91.1524 30.7558 92.6844 25.6884 92.3309 20.4738C91.9479 14.9351 89.5321 9.77935 85.4664 6.00831C81.4007 2.2078 76.0388 0.145508 70.3822 0.145508C64.814 0.145508 59.511 2.23727 55.4748 6.06724C51.4386 9.8972 49.0228 15.0824 48.6398 20.7389C48.5514 21.9469 49.4942 23.0075 50.7021 23.0959C51.91 23.1842 52.9706 22.2415 53.059 21.0336C53.6777 11.6649 61.1314 4.59417 70.3822 4.59417C79.7804 4.59417 87.3225 11.5765 87.9411 20.8273C88.2063 24.893 87.0573 28.7229 84.9066 31.8164L72.1794 19.1186C71.325 18.2642 69.9108 18.2642 69.0565 19.1186L10.0161 77.8644C9.60361 78.2768 9.36792 78.8366 9.36792 79.4258C9.36792 80.015 9.60361 80.5748 10.0161 80.9873L69.0565 139.497C69.4984 139.91 70.0582 140.146 70.6179 140.146C71.1777 140.146 71.7374 139.939 72.1794 139.497L130.984 80.9873C131.397 80.5748 131.632 80.015 131.632 79.4258C131.632 78.7777 131.397 78.2179 130.984 77.8055ZM70.6179 134.754L14.7299 79.3669L70.6179 23.744L81.9016 35.0277C81.0177 35.7937 80.0161 36.4713 78.9849 37.031C77.4824 33.8492 74.3006 31.6691 70.6179 31.6691C65.256 31.6691 61.0725 35.8526 61.0725 41.2145C61.0725 46.3408 65.3443 50.5243 70.6179 50.5243C75.6558 50.5243 79.7509 46.5176 79.9277 41.5092C81.7837 40.6548 83.4925 39.5352 85.0245 38.1506L126.3 79.3669L70.6179 134.754ZM70.7063 41.4502C70.8241 42.5698 71.7964 43.4241 72.8864 43.4241C72.9748 43.4241 73.0632 43.4241 73.1221 43.4241C73.7703 43.3652 74.4479 43.2474 75.096 43.1C74.33 44.8383 72.5918 46.1051 70.5885 46.1051C67.7012 46.1051 65.4622 43.9544 65.4622 41.2145C65.4622 38.2979 67.6718 36.0883 70.5885 36.0883C72.4151 36.0883 74.006 37.09 74.8309 38.6219C74.1238 38.7987 73.3873 38.9166 72.6507 39.0049C71.4428 39.1522 70.5885 40.2423 70.7063 41.4502Z" fill="#455999"/>
</g>
<defs>
<clipPath id="clip0_1266_6930">
<rect width="140" height="140" fill="white" transform="translate(0.5 0.145508)"/>
</clipPath>
</defs>
</svg>
