<svg width="24" height="24" viewBox="0 0 24 24" fill="none" xmlns="http://www.w3.org/2000/svg">
<path opacity="0.935" fill-rule="evenodd" clip-rule="evenodd" d="M15.3516 0.820023C16.721 0.797828 17.8382 1.31345 18.7031 2.3669C18.7836 2.77075 18.6196 2.95044 18.2109 2.90596C17.6164 2.24118 16.882 1.80369 16.0078 1.59346C15.8047 1.56221 15.6016 1.56221 15.3984 1.59346C14.7992 1.75235 14.1899 1.8461 13.5703 1.87471C13.5238 2.80083 13.5082 3.73052 13.5234 4.66377C13.8832 4.65597 14.2426 4.66379 14.6016 4.68721C14.6687 4.70901 14.7233 4.7481 14.7656 4.8044C14.827 5.72207 14.8583 6.64396 14.8594 7.57002C16.8044 8.20284 17.945 9.53094 18.2813 11.5544C18.3125 14.3669 18.3125 17.1794 18.2813 19.9919C17.9611 21.7496 16.922 22.7886 15.1641 23.1091C12.8985 23.1404 10.6328 23.1404 8.3672 23.1091C7.06778 22.9186 6.12245 22.2389 5.53126 21.07C5.39968 20.769 5.30593 20.4565 5.25001 20.1325C5.21875 17.2419 5.21875 14.3513 5.25001 11.4606C5.59984 9.47971 6.73262 8.18287 8.64845 7.57002C8.6875 6.66416 8.71093 5.75793 8.71876 4.85127C8.77567 4.77866 8.84598 4.72401 8.9297 4.68721C9.28871 4.66379 9.64811 4.65597 10.0078 4.66377C10.0078 3.6794 10.0078 2.69502 10.0078 1.71065C9.67459 1.69987 9.34647 1.66081 9.02345 1.59346C8.81598 1.33839 8.84725 1.11964 9.1172 0.93721C10.3579 1.0146 11.6001 1.08491 12.8438 1.14815C13.7029 1.16605 14.5389 1.05668 15.3516 0.820023ZM10.7578 1.8044C11.4296 1.83738 12.1015 1.86863 12.7734 1.89815C12.7734 2.82002 12.7734 3.7419 12.7734 4.66377C12.1016 4.66377 11.4297 4.66377 10.7578 4.66377C10.7578 3.71065 10.7578 2.75752 10.7578 1.8044ZM9.44532 5.41377C10.9922 5.41377 12.5391 5.41377 14.0859 5.41377C14.0859 6.08563 14.0859 6.75754 14.0859 7.4294C12.5391 7.4294 10.9922 7.4294 9.44532 7.4294C9.44532 6.75754 9.44532 6.08563 9.44532 5.41377ZM9.44532 8.1794C10.9923 8.17157 12.5392 8.1794 14.0859 8.20284C16.0314 8.55454 17.1798 9.70298 17.5313 11.6481C17.5625 14.4138 17.5625 17.1794 17.5313 19.945C17.2578 21.281 16.4531 22.0857 15.1172 22.3591C12.8828 22.3904 10.6485 22.3904 8.41407 22.3591C7.11976 22.096 6.31506 21.3226 6.00001 20.0388C5.96875 17.195 5.96875 14.3513 6.00001 11.5075C6.40646 9.62446 7.5549 8.51507 9.44532 8.1794Z" fill="#222222"/>
<path opacity="0.932" fill-rule="evenodd" clip-rule="evenodd" d="M8.78907 11.4609C10.7735 11.4531 12.7579 11.4609 14.7422 11.4844C15.6407 11.6953 16.1953 12.25 16.4063 13.1484C16.4375 14.5703 16.4375 15.9922 16.4063 17.4141C16.1966 18.3113 15.6419 18.8659 14.7422 19.0781C12.7578 19.1094 10.7734 19.1094 8.78907 19.0781C7.81318 18.8366 7.24286 18.2194 7.07814 17.2266C7.04687 15.9297 7.04687 14.6328 7.07814 13.3359C7.25162 12.3424 7.82195 11.7174 8.78907 11.4609ZM8.88282 12.2109C8.29018 12.4053 7.93862 12.8116 7.82814 13.4297C7.79687 14.6641 7.79687 15.8985 7.82814 17.1328C7.92967 17.7501 8.28123 18.1485 8.88282 18.3281C10.7891 18.3594 12.6953 18.3594 14.6016 18.3281C15.1511 18.2005 15.5027 17.8645 15.6563 17.3203C15.6875 15.9609 15.6875 14.6016 15.6563 13.2422C15.5078 12.7187 15.1719 12.3828 14.6484 12.2344C12.7266 12.2109 10.8047 12.2031 8.88282 12.2109Z" fill="#222222"/>
</svg>
