<svg width="188" height="42" viewBox="0 0 188 42" fill="none" xmlns="http://www.w3.org/2000/svg">
<path fill-rule="evenodd" clip-rule="evenodd" d="M13.6664 6.63694C13.5853 6.46471 13.4232 6.3634 13.2307 6.3634H7.38511C7.19262 6.3634 7.03052 6.47485 6.94947 6.64707L0.050201 21.7627C-0.0207166 21.9146 -0.0105836 22.0869 0.0805961 22.2287C0.171776 22.3705 0.323742 22.4516 0.48584 22.4516H3.80883C4.00133 22.4516 4.16342 22.3401 4.24447 22.1679L5.38928 19.7263C5.47033 19.5541 5.64256 19.4426 5.82492 19.4426H15.1658C15.3583 19.4426 15.5204 19.5439 15.6014 19.7263L16.7158 22.1578C16.7969 22.33 16.9691 22.4414 17.1515 22.4414H20.4846C20.6568 22.4414 20.7987 22.3604 20.8898 22.2186C20.981 22.0767 20.9912 21.9045 20.9202 21.7525L13.6664 6.63694ZM13.4536 15.5827C13.3625 15.7245 13.2206 15.8056 13.0484 15.8056H7.99297C7.82074 15.8056 7.67891 15.7245 7.58773 15.5827C7.49655 15.4409 7.48642 15.2686 7.55734 15.1167L10.5055 8.805H10.5967L13.4942 15.1065C13.5549 15.2686 13.5448 15.4307 13.4536 15.5827Z" fill="#25356F"/>
<path fill-rule="evenodd" clip-rule="evenodd" d="M39.0455 6.3634H24.173C23.9096 6.3634 23.6867 6.57616 23.6867 6.8497V16.15C23.6867 16.7376 23.6563 17.2341 23.5854 17.6292C23.5145 18.0142 23.4132 18.3181 23.2815 18.5106C23.0586 18.8449 22.6027 19.0475 21.9442 19.0982C21.6909 19.1184 21.4984 19.3312 21.4984 19.5845V21.9653C21.4984 22.2287 21.7213 22.4516 21.9847 22.4516H23.0991C23.7982 22.4516 24.4263 22.33 24.9632 22.097C25.5002 21.864 25.9662 21.4993 26.3411 21.0231C27.0908 20.0708 27.4555 18.5916 27.4555 16.5857V10.1828C27.4555 9.91942 27.6784 9.69653 27.9418 9.69653H35.3071C35.5705 9.69653 35.7934 9.90928 35.7934 10.1828V21.9653C35.7934 22.2287 36.0163 22.4516 36.2797 22.4516H39.0657C39.3291 22.4516 39.552 22.2287 39.552 21.9653V6.8497C39.5317 6.58629 39.3089 6.3634 39.0455 6.3634Z" fill="#25356F"/>
<path fill-rule="evenodd" clip-rule="evenodd" d="M175.177 5.03635H180.921C181.184 5.03635 181.407 4.8236 181.407 4.55006V3.48629C181.407 3.22288 181.194 3 180.921 3H175.177C174.913 3 174.69 3.22288 174.69 3.48629V4.55006C174.69 4.81346 174.903 5.03635 175.177 5.03635Z" fill="#25356F"/>
<path fill-rule="evenodd" clip-rule="evenodd" d="M166.039 7.34623C165.228 6.56613 163.84 6.18115 161.865 6.18115H155.229C154.185 6.18115 153.294 6.28246 152.564 6.48508C151.825 6.68771 151.257 7.00177 150.842 7.41715C150.427 7.83252 150.113 8.42012 149.91 9.17995C149.707 9.92965 149.606 10.8516 149.606 11.9356V16.9302C149.606 17.9231 149.718 18.764 149.93 19.4731C150.143 20.1823 150.477 20.7598 150.903 21.1853C151.764 22.0363 153.213 22.4517 155.239 22.4517H161.875C162.928 22.4517 163.81 22.3504 164.529 22.1477C165.259 21.9451 165.816 21.6311 166.211 21.2258C166.606 20.8104 166.91 20.2532 167.102 19.5238C167.295 18.8146 167.396 17.9433 167.396 16.9302V11.9356C167.396 10.8415 167.285 9.90939 167.062 9.14956C166.839 8.3796 166.495 7.78186 166.039 7.34623ZM163.638 16.5149C163.638 17.0518 163.597 17.4874 163.506 17.842C163.415 18.1865 163.293 18.4398 163.121 18.6019C162.949 18.764 162.675 18.8957 162.31 18.9767C161.936 19.0679 161.459 19.1084 160.882 19.1084H156.1C155.553 19.1084 155.097 19.0679 154.732 18.9767C154.368 18.8855 154.094 18.7538 153.912 18.5816C153.729 18.4094 153.588 18.1561 153.496 17.8218C153.405 17.4773 153.355 17.0518 153.355 16.5453V12.3003C153.355 11.7431 153.405 11.2771 153.496 10.9022C153.588 10.5375 153.729 10.264 153.922 10.0816C154.114 9.89926 154.388 9.75743 154.763 9.66625C155.138 9.57507 155.614 9.52441 156.171 9.52441H160.821C161.378 9.52441 161.834 9.57507 162.209 9.66625C162.574 9.75743 162.858 9.89926 163.05 10.0816C163.243 10.264 163.384 10.5375 163.486 10.8921C163.587 11.267 163.638 11.7229 163.638 12.2801V16.5149Z" fill="#25356F"/>
<path fill-rule="evenodd" clip-rule="evenodd" d="M147.275 7.67031C146.86 7.23468 146.303 6.90035 145.614 6.6876C144.925 6.47484 144.104 6.3634 143.142 6.3634H132.98C132.717 6.3634 132.494 6.57616 132.494 6.8497V21.9653C132.494 22.2287 132.717 22.4516 132.98 22.4516H135.766C136.03 22.4516 136.253 22.2287 136.253 21.9653V18.4093C136.253 18.1459 136.476 17.923 136.739 17.923H143.193C144.135 17.923 144.955 17.8115 145.634 17.5886C146.323 17.3658 146.87 17.0314 147.286 16.5857C147.701 16.15 148.005 15.5219 148.207 14.7519C148.42 13.9719 148.522 13.0398 148.522 12.0166C148.522 11.0034 148.42 10.1423 148.218 9.41286C148.005 8.69355 147.691 8.10595 147.275 7.67031ZM144.631 13.2728C144.55 13.6071 144.429 13.8807 144.277 14.0428C144.115 14.215 143.892 14.3568 143.598 14.448C143.294 14.5392 142.929 14.5898 142.494 14.5898H136.739C136.476 14.5898 136.253 14.367 136.253 14.1036V10.1828C136.253 9.91942 136.476 9.69653 136.739 9.69653H142.494C142.939 9.69653 143.324 9.74719 143.628 9.8485C143.932 9.94981 144.165 10.0916 144.337 10.2943C144.479 10.4564 144.591 10.6894 144.662 10.973C144.733 11.2567 144.773 11.6113 144.773 12.0267C144.763 12.4826 144.712 12.9081 144.631 13.2728Z" fill="#25356F"/>
<path fill-rule="evenodd" clip-rule="evenodd" d="M130.428 6.3634H115.029C114.765 6.3634 114.542 6.57616 114.542 6.8497V9.22037C114.542 9.48378 114.765 9.70666 115.029 9.70666H120.368C120.631 9.70666 120.854 9.91941 120.854 10.193V21.9754C120.854 22.2388 121.077 22.4617 121.34 22.4617H124.126C124.39 22.4617 124.613 22.2388 124.613 21.9754V10.1828C124.613 9.91941 124.835 9.69653 125.099 9.69653H130.438C130.701 9.69653 130.924 9.47365 130.924 9.21024V6.8497C130.914 6.58629 130.691 6.3634 130.428 6.3634Z" fill="#25356F"/>
<path fill-rule="evenodd" clip-rule="evenodd" d="M186.514 6.3634H181.094C180.921 6.3634 180.769 6.44445 180.678 6.59642L173.374 18.8753C173.283 19.0273 173.131 19.1083 172.958 19.1083H172.847V6.8497C172.847 6.58629 172.634 6.3634 172.361 6.3634H169.575C169.311 6.3634 169.088 6.57616 169.088 6.8497V21.9653C169.088 22.2287 169.311 22.4516 169.575 22.4516H175.126C175.299 22.4516 175.461 22.3604 175.542 22.2084L182.715 9.93968C182.806 9.78771 182.958 9.69653 183.13 9.69653H183.241V21.9653C183.241 22.2287 183.464 22.4516 183.728 22.4516H186.514C186.777 22.4516 187 22.2287 187 21.9653V6.8497C187 6.58629 186.787 6.3634 186.514 6.3634Z" fill="#25356F"/>
<path fill-rule="evenodd" clip-rule="evenodd" d="M84.017 6.63694C83.9359 6.46471 83.7738 6.3634 83.5813 6.3634H77.7357C77.5432 6.3634 77.3811 6.47485 77.3001 6.64707L70.4008 21.7627C70.3299 21.9146 70.34 22.0869 70.4312 22.2287C70.5224 22.3705 70.6743 22.4516 70.8364 22.4516H74.4228H74.4634L74.4836 22.411V22.4009L75.7399 19.7263C75.8209 19.5541 75.9932 19.4426 76.1755 19.4426H85.5164C85.7089 19.4426 85.871 19.5541 85.952 19.7263L87.0664 22.1578C87.1475 22.33 87.3197 22.4414 87.5021 22.4414H90.8352C91.0074 22.4414 91.1493 22.3604 91.2404 22.2186C91.3316 22.0767 91.3417 21.9045 91.2708 21.7525L84.017 6.63694ZM83.8042 15.5827C83.713 15.7245 83.5712 15.8056 83.399 15.8056H78.3436C78.1713 15.8056 78.0295 15.7245 77.9383 15.5827C77.8471 15.4409 77.837 15.2686 77.9079 15.1167L80.8561 8.805H80.9473L83.8447 15.1065C83.9055 15.2686 83.8954 15.4307 83.8042 15.5827Z" fill="#25356F"/>
<path fill-rule="evenodd" clip-rule="evenodd" d="M73.7339 9.22037V6.8497C73.7339 6.58629 73.5211 6.3634 73.2476 6.3634H57.8484C57.5849 6.3634 57.3621 6.57616 57.3621 6.8497V9.22037C57.3621 9.48378 57.5849 9.70666 57.8484 9.70666H63.1874C63.4508 9.70666 63.6737 9.91941 63.6737 10.193V21.9754C63.6737 22.2388 63.8966 22.4617 64.16 22.4617H66.9461C67.2095 22.4617 67.4324 22.2388 67.4324 21.9754V10.1828C67.4324 9.91941 67.6552 9.69653 67.9187 9.69653H73.2577C73.511 9.69653 73.7339 9.48378 73.7339 9.22037Z" fill="#25356F"/>
<path fill-rule="evenodd" clip-rule="evenodd" d="M55.9234 11.3378C55.5181 11.0136 54.9711 10.7603 54.2821 10.5982C53.6034 10.4361 52.7726 10.3551 51.8203 10.3551H45.7923C45.5289 10.3551 45.306 10.1322 45.306 9.86876V6.8497C45.306 6.58629 45.0932 6.3634 44.8197 6.3634H42.0337C41.7702 6.3634 41.5474 6.57616 41.5474 6.8497V21.9653C41.5474 22.2287 41.7702 22.4516 42.0337 22.4516H51.9115C53.8262 22.4516 55.1838 22.1172 55.9943 21.4486C56.1969 21.2764 56.3793 21.0535 56.5414 20.7799C57.1492 19.7364 57.4228 18.0243 57.4025 16.3324C57.3823 14.6405 57.0479 12.9486 56.4502 11.9558C56.2881 11.7025 56.1159 11.4897 55.9234 11.3378ZM53.269 18.7132C53.2589 18.7335 53.2386 18.7436 53.2285 18.7639C53.1069 18.8753 52.9043 18.9665 52.6105 19.0171C52.3167 19.0779 51.9317 19.1083 51.4657 19.1083H45.7822C45.5187 19.1083 45.2959 18.8854 45.2959 18.622V14.1643C45.2959 13.9009 45.5187 13.678 45.7822 13.678H51.5974C52.033 13.678 52.3978 13.7186 52.6814 13.7895C52.955 13.8604 53.1677 13.9617 53.2893 14.0934C53.2994 14.1036 53.2994 14.1137 53.3096 14.1238C53.4919 14.3872 53.6135 15.3598 53.6236 16.3527C53.6338 17.3556 53.5324 18.3687 53.269 18.7132Z" fill="#25356F"/>
<path fill-rule="evenodd" clip-rule="evenodd" d="M113.691 16.7783H110.895C110.642 16.7783 110.429 16.9809 110.409 17.224C110.388 17.5178 110.338 17.7812 110.267 18.0041C110.165 18.3081 110.014 18.5309 109.801 18.693C109.618 18.8349 109.345 18.9362 108.99 19.0071C108.626 19.078 108.16 19.1186 107.602 19.1186H104.583C104.036 19.1186 103.58 19.078 103.216 18.9868C102.851 18.9058 102.577 18.7741 102.385 18.612C102.172 18.4195 102.01 18.1358 101.909 17.761C101.797 17.376 101.747 16.8998 101.747 16.3122V12.3712C101.747 11.7634 101.797 11.2568 101.878 10.8617C101.969 10.4767 102.101 10.2032 102.273 10.0411C102.446 9.86887 102.729 9.73716 103.104 9.65612C103.489 9.56494 103.986 9.52441 104.583 9.52441H107.602C108.119 9.52441 108.555 9.57507 108.929 9.66625C109.294 9.75743 109.578 9.88913 109.791 10.0715C110.003 10.2437 110.155 10.4869 110.267 10.7705C110.338 10.9732 110.388 11.2062 110.409 11.4696C110.429 11.7229 110.642 11.9153 110.895 11.9153H113.691C113.823 11.9153 113.944 11.8647 114.036 11.7634C114.127 11.6621 114.177 11.5405 114.167 11.4088C114.137 10.5173 114.005 9.73716 113.782 9.07864C113.519 8.31881 113.114 7.72108 112.587 7.27531C112.141 6.91059 111.564 6.63705 110.844 6.45469C110.135 6.27233 109.284 6.18115 108.301 6.18115H103.915C102.79 6.18115 101.848 6.28246 101.078 6.49522C100.298 6.70797 99.7001 7.02203 99.2746 7.44754C98.8491 7.87304 98.5249 8.49104 98.3121 9.2914C98.0994 10.0816 97.998 11.0643 97.998 12.2294V16.7479C97.998 17.8218 98.0994 18.7336 98.302 19.4833C98.5046 20.233 98.8085 20.8206 99.2138 21.2258C99.619 21.6311 100.186 21.9451 100.916 22.1477C101.645 22.3504 102.527 22.4517 103.58 22.4517H108.686C109.781 22.4517 110.702 22.3605 111.432 22.168C112.171 21.9755 112.729 21.6817 113.093 21.2967C113.458 20.9118 113.742 20.3444 113.924 19.5947C114.086 18.9565 114.167 18.1764 114.188 17.2747C114.188 17.143 114.147 17.0214 114.046 16.9201C113.944 16.8289 113.823 16.7783 113.691 16.7783Z" fill="#25356F"/>
<path fill-rule="evenodd" clip-rule="evenodd" d="M184.639 25.1769H2.35041C1.05363 25.1769 0 26.2406 0 27.5374V35.7233C0 37.0201 1.05363 38.0839 2.35041 38.0839H184.639C185.936 38.0839 186.989 37.0201 186.989 35.7233V27.5374C186.989 26.2305 185.936 25.1769 184.639 25.1769Z" fill="#C63F1B"/>
<path fill-rule="evenodd" clip-rule="evenodd" d="M62.4683 29.4015C62.4278 29.3812 62.367 29.3711 62.286 29.3711C62.2151 29.361 62.1138 29.361 62.0023 29.361C61.8909 29.361 61.7896 29.361 61.7186 29.3711C61.6376 29.3812 61.5869 29.3914 61.5363 29.4015C61.4958 29.4217 61.4654 29.4319 61.4451 29.4623C61.4248 29.4825 61.4147 29.5129 61.4147 29.5433V31.1035H59.7329V29.5433C59.7329 29.5129 59.7228 29.4825 59.7026 29.4623C59.6823 29.442 59.6519 29.4217 59.6114 29.4015C59.5607 29.3812 59.5101 29.3711 59.429 29.3711C59.3581 29.361 59.2568 29.361 59.1453 29.361C59.0339 29.361 58.9326 29.361 58.8617 29.3711C58.7908 29.3812 58.73 29.3914 58.6793 29.4015C58.6287 29.4217 58.5983 29.4319 58.5881 29.4623C58.5679 29.4825 58.5577 29.5129 58.5577 29.5433V33.7072C58.5577 33.7376 58.5679 33.768 58.5881 33.7882C58.6084 33.8085 58.6388 33.8288 58.6793 33.849C58.7198 33.8693 58.7806 33.8794 58.8617 33.8794C58.9326 33.8896 59.0339 33.8896 59.1453 33.8896C59.2568 33.8896 59.3581 33.8896 59.429 33.8794C59.4999 33.8693 59.5607 33.8592 59.6114 33.849C59.6519 33.8389 59.6924 33.8186 59.7026 33.7882C59.7228 33.768 59.7329 33.7376 59.7329 33.7072V32.066H61.4147V33.7072C61.4147 33.7376 61.4248 33.768 61.4451 33.7882C61.4654 33.8085 61.4958 33.8288 61.5363 33.849C61.5768 33.8693 61.6376 33.8794 61.7186 33.8794C61.7997 33.8896 61.8909 33.8896 62.0023 33.8896C62.1138 33.8896 62.2049 33.8896 62.286 33.8794C62.367 33.8693 62.4278 33.8592 62.4683 33.849C62.5089 33.8389 62.5393 33.8186 62.5595 33.7882C62.5798 33.768 62.5899 33.7376 62.5899 33.7072V29.5433C62.5899 29.5129 62.5798 29.4825 62.5595 29.4623C62.5393 29.4319 62.5089 29.4116 62.4683 29.4015Z" fill="white"/>
<path fill-rule="evenodd" clip-rule="evenodd" d="M55.2853 29.8373H52.2156C52.0433 29.8373 51.9015 29.9791 51.9015 30.1513V32.8563C51.9015 33.0286 52.0433 33.1704 52.2156 33.1704H55.2853C55.4575 33.1704 55.5993 33.0286 55.5993 32.8563V30.1513C55.5993 29.969 55.4575 29.8373 55.2853 29.8373Z" fill="white"/>
<path fill-rule="evenodd" clip-rule="evenodd" d="M66.8755 29.6651C66.7235 29.5334 66.5412 29.4321 66.3081 29.3713C66.0751 29.3105 65.8016 29.2802 65.4774 29.2802C65.295 29.2802 65.1127 29.2903 64.9404 29.3207C64.7682 29.3511 64.6061 29.3916 64.4643 29.4321C64.3225 29.4828 64.1907 29.5334 64.0793 29.5841C63.9679 29.6347 63.8969 29.6854 63.8564 29.7361C63.8159 29.7766 63.7855 29.8272 63.7652 29.888C63.745 29.9387 63.745 30.0197 63.745 30.1109C63.745 30.1818 63.745 30.2527 63.7551 30.3034C63.7652 30.3642 63.7754 30.4148 63.7956 30.4554C63.8159 30.4959 63.8362 30.5263 63.8564 30.5465C63.8868 30.5668 63.9172 30.5769 63.9476 30.5769C63.9983 30.5769 64.059 30.5567 64.1401 30.5161C64.2211 30.4756 64.3225 30.425 64.4339 30.3743C64.5555 30.3237 64.6872 30.273 64.8391 30.2325C64.9911 30.1919 65.1633 30.1717 65.366 30.1717C65.5179 30.1717 65.6395 30.1818 65.7408 30.2223C65.8421 30.2527 65.9232 30.3034 65.984 30.3642C66.0447 30.425 66.0853 30.506 66.1157 30.6073C66.146 30.7086 66.1562 30.8201 66.1562 30.9518V31.2051H65.7509C65.3862 31.2051 65.062 31.2354 64.7783 31.2861C64.4947 31.3469 64.2617 31.4279 64.0793 31.5394C63.8868 31.661 63.7551 31.8028 63.6538 31.9851C63.5626 32.1675 63.512 32.3701 63.512 32.6133C63.512 32.8362 63.5525 33.0287 63.6234 33.2009C63.6943 33.3731 63.8058 33.5048 63.9375 33.6264C64.0692 33.7378 64.2313 33.829 64.4136 33.8797C64.596 33.9405 64.7986 33.9607 65.0215 33.9607C65.2849 33.9607 65.5281 33.9101 65.7509 33.8087C65.9637 33.7074 66.1663 33.5656 66.3385 33.3832V33.7176C66.3385 33.7581 66.3487 33.7986 66.3791 33.8189C66.4095 33.8391 66.45 33.8594 66.5108 33.8695C66.5716 33.8797 66.6729 33.8898 66.8147 33.8898C66.9464 33.8898 67.0477 33.8797 67.1085 33.8695C67.1794 33.8594 67.2199 33.8391 67.2503 33.8189C67.2807 33.7986 67.301 33.7581 67.301 33.7176V30.9214C67.301 30.6377 67.2706 30.3844 67.1997 30.1818C67.1389 29.9691 67.0275 29.7968 66.8755 29.6651ZM66.1562 32.6437C66.0143 32.8058 65.8725 32.9273 65.7307 33.0084C65.5888 33.0894 65.4369 33.13 65.2748 33.13C65.0823 33.13 64.9303 33.0793 64.8189 32.978C64.7074 32.8767 64.6568 32.745 64.6568 32.5626C64.6568 32.4613 64.677 32.3701 64.7176 32.2891C64.7581 32.208 64.8189 32.1472 64.8999 32.0865C64.981 32.0257 65.0924 31.9852 65.2241 31.9649C65.3558 31.9345 65.5179 31.9244 65.7104 31.9244H66.1562V32.6437Z" fill="white"/>
<path fill-rule="evenodd" clip-rule="evenodd" d="M72.0729 29.3811H68.8005C68.6891 29.3811 68.608 29.4115 68.5574 29.4824C68.5067 29.5432 68.4763 29.6445 68.4763 29.7661V33.7071C68.4763 33.7375 68.4864 33.7679 68.5067 33.7881C68.527 33.8084 68.5574 33.8287 68.5979 33.8489C68.6384 33.8692 68.6992 33.8793 68.7803 33.8793C68.8512 33.8894 68.9525 33.8894 69.0639 33.8894C69.1754 33.8894 69.2767 33.8894 69.3476 33.8793C69.4185 33.8692 69.4793 33.859 69.53 33.8489C69.5705 33.8388 69.611 33.8185 69.6313 33.7881C69.6515 33.7679 69.6617 33.7375 69.6617 33.7071V30.3537H71.232V33.7071C71.232 33.7375 71.2421 33.7679 71.2624 33.7881C71.2826 33.8084 71.313 33.8287 71.3535 33.8489C71.4042 33.8692 71.465 33.8793 71.5359 33.8793C71.6068 33.8894 71.7081 33.8894 71.8196 33.8894C71.931 33.8894 72.0323 33.8894 72.1032 33.8793C72.1742 33.8692 72.235 33.859 72.2856 33.8489C72.3363 33.8388 72.3667 33.8185 72.3768 33.7881C72.3971 33.7679 72.4072 33.7375 72.4072 33.7071V29.7661C72.4072 29.6445 72.3768 29.5432 72.3261 29.4824C72.2552 29.4115 72.1742 29.3811 72.0729 29.3811Z" fill="white"/>
<path fill-rule="evenodd" clip-rule="evenodd" d="M82.052 29.3917H79.6408C79.5293 29.3917 79.4584 29.4221 79.4077 29.4829C79.3571 29.5437 79.3368 29.645 79.3267 29.7666C79.2862 30.1921 79.2355 30.5568 79.195 30.881C79.1443 31.2052 79.1038 31.4787 79.043 31.7016C78.9924 31.9346 78.9316 32.1271 78.8708 32.269C78.81 32.4209 78.7391 32.5425 78.6783 32.6337C78.6074 32.7249 78.5365 32.7856 78.4554 32.8262C78.3744 32.8566 78.2933 32.8768 78.2021 32.8768C78.1717 32.8768 78.1414 32.8869 78.1211 32.8971C78.1008 32.9072 78.0806 32.9376 78.0704 32.9781C78.0603 33.0187 78.0502 33.0693 78.04 33.1402C78.04 33.2111 78.0299 33.3023 78.0299 33.4239C78.0299 33.5353 78.0299 33.6265 78.04 33.6974C78.0502 33.7684 78.0603 33.819 78.0704 33.8595C78.0907 33.8899 78.111 33.9203 78.1312 33.9304C78.1616 33.9406 78.192 33.9507 78.2325 33.9507C78.4149 33.9507 78.5871 33.9304 78.7492 33.8899C78.9113 33.8494 79.0633 33.7684 79.2051 33.667C79.3469 33.5657 79.4685 33.4239 79.5901 33.2517C79.7117 33.0794 79.813 32.8566 79.9143 32.583C80.0156 32.3196 80.0966 31.9954 80.1676 31.6307C80.2385 31.266 80.2993 30.8303 80.3499 30.344H81.1908V33.7076C81.1908 33.738 81.2009 33.7684 81.2212 33.7886C81.2415 33.8089 81.2719 33.8291 81.3124 33.8494C81.363 33.8697 81.4137 33.8798 81.4947 33.8798C81.5758 33.8899 81.667 33.8899 81.7784 33.8899C81.8899 33.8899 81.981 33.8899 82.0621 33.8798C82.1431 33.8697 82.2039 33.8595 82.2444 33.8494C82.285 33.8393 82.3154 33.819 82.3356 33.7886C82.3559 33.7684 82.366 33.738 82.366 33.7076V29.7767C82.366 29.645 82.3457 29.5538 82.285 29.493C82.2444 29.4221 82.1634 29.3917 82.052 29.3917Z" fill="white"/>
<path fill-rule="evenodd" clip-rule="evenodd" d="M16.0781 29.4015C16.0376 29.3812 15.9768 29.3711 15.8957 29.3711C15.8248 29.361 15.7235 29.361 15.6121 29.361C15.5006 29.361 15.3993 29.361 15.3284 29.3711C15.2473 29.3812 15.1967 29.3914 15.146 29.4015C15.1055 29.4217 15.0751 29.4319 15.0548 29.4623C15.0346 29.4825 15.0244 29.5129 15.0244 29.5433V31.1035H13.3427V29.5433C13.3427 29.5129 13.3326 29.4825 13.3123 29.4623C13.292 29.442 13.2616 29.4217 13.2211 29.4015C13.1705 29.3812 13.1198 29.3711 13.0388 29.3711C12.9678 29.361 12.8665 29.361 12.7551 29.361C12.6436 29.361 12.5423 29.361 12.4714 29.3711C12.4005 29.3812 12.3397 29.3914 12.2891 29.4015C12.2384 29.4217 12.208 29.4319 12.1979 29.4623C12.1776 29.4825 12.1675 29.5129 12.1675 29.5433V33.7072C12.1675 33.7376 12.1776 33.768 12.1979 33.7882C12.2181 33.8085 12.2485 33.8288 12.2891 33.849C12.3296 33.8693 12.3904 33.8794 12.4714 33.8794C12.5423 33.8896 12.6436 33.8896 12.7551 33.8896C12.8665 33.8896 12.9678 33.8896 13.0388 33.8794C13.1097 33.8693 13.1705 33.8592 13.2211 33.849C13.2616 33.8389 13.3022 33.8186 13.3123 33.7882C13.3326 33.768 13.3427 33.7376 13.3427 33.7072V32.066H15.0244V33.7072C15.0244 33.7376 15.0346 33.768 15.0548 33.7882C15.0751 33.8085 15.1055 33.8288 15.146 33.849C15.1865 33.8693 15.2473 33.8794 15.3284 33.8794C15.4094 33.8896 15.5006 33.8896 15.6121 33.8896C15.7235 33.8896 15.8147 33.8896 15.8957 33.8794C15.9768 33.8693 16.0274 33.8592 16.0781 33.849C16.1186 33.8389 16.149 33.8186 16.1693 33.7882C16.1895 33.768 16.1997 33.7376 16.1997 33.7072V29.5433C16.1997 29.5129 16.1895 29.4825 16.1693 29.4623C16.149 29.4319 16.1186 29.4116 16.0781 29.4015Z" fill="white"/>
<path fill-rule="evenodd" clip-rule="evenodd" d="M20.4037 29.4925C20.3935 29.452 20.3733 29.4216 20.3429 29.4115C20.3226 29.3912 20.2922 29.3811 20.2618 29.3811H16.9996C16.9692 29.3811 16.9388 29.3912 16.9186 29.4115C16.8983 29.4318 16.878 29.452 16.8679 29.4925C16.8477 29.5331 16.8375 29.5837 16.8274 29.6445C16.8173 29.7053 16.8173 29.7863 16.8173 29.8775C16.8173 29.9788 16.8173 30.07 16.8274 30.1409C16.8375 30.2119 16.8477 30.2726 16.8578 30.3132C16.8679 30.3537 16.8882 30.3841 16.9186 30.4043C16.9388 30.4246 16.9692 30.4347 16.9996 30.4347H18.0431V33.7071C18.0431 33.7375 18.0533 33.7679 18.0735 33.7881C18.0938 33.8084 18.1242 33.8287 18.1647 33.8489C18.2154 33.8692 18.266 33.8793 18.3471 33.8793C18.418 33.8894 18.5193 33.8894 18.6307 33.8894C18.7422 33.8894 18.8435 33.8894 18.9144 33.8793C18.9954 33.8692 19.0461 33.859 19.0968 33.8489C19.1373 33.8388 19.1677 33.8185 19.1879 33.7881C19.2082 33.7679 19.2183 33.7375 19.2183 33.7071V30.4347H20.272C20.3024 30.4347 20.3226 30.4246 20.353 30.4145C20.3733 30.3942 20.3935 30.3739 20.4138 30.3334C20.4341 30.2929 20.4442 30.2422 20.4442 30.1713C20.4543 30.1004 20.4543 30.0194 20.4543 29.918C20.4543 29.8167 20.4543 29.7357 20.4442 29.6749C20.4341 29.5837 20.4239 29.5331 20.4037 29.4925Z" fill="white"/>
<path fill-rule="evenodd" clip-rule="evenodd" d="M24.4053 29.8576C24.2432 29.6753 24.0405 29.5334 23.7974 29.4321C23.5542 29.3308 23.2503 29.2802 22.9059 29.2802C22.5817 29.2802 22.2777 29.3308 22.0143 29.4422C21.7509 29.5537 21.528 29.7057 21.3457 29.9184C21.1633 30.121 21.0215 30.3743 20.9303 30.6782C20.829 30.972 20.7885 31.3064 20.7885 31.6812C20.7885 32.0662 20.8391 32.4107 20.9202 32.6943C21.0113 32.978 21.1532 33.2211 21.3355 33.4136C21.5179 33.6061 21.7509 33.748 22.0346 33.8391C22.3081 33.9303 22.6323 33.981 23.0072 33.981C23.2098 33.981 23.4023 33.9708 23.5846 33.9405C23.767 33.9202 23.919 33.8797 24.0608 33.8493C24.2026 33.8087 24.3141 33.7784 24.4053 33.7378C24.4964 33.6973 24.5471 33.6669 24.5674 33.6467C24.5876 33.6264 24.6079 33.6061 24.618 33.5757C24.6281 33.5555 24.6383 33.5251 24.6484 33.4947C24.6585 33.4643 24.6585 33.4136 24.6585 33.3731C24.6585 33.3225 24.6585 33.2617 24.6585 33.2009C24.6585 33.1198 24.6585 33.059 24.6484 33.0084C24.6484 32.9577 24.6383 32.9172 24.618 32.8868C24.6079 32.8564 24.5876 32.8362 24.5674 32.826C24.5471 32.8159 24.5268 32.8058 24.4964 32.8058C24.4458 32.8058 24.3951 32.8159 24.3141 32.8463C24.2432 32.8767 24.1418 32.9071 24.0304 32.9476C23.919 32.9881 23.7873 33.0185 23.6252 33.0489C23.4732 33.0793 23.2908 33.0894 23.0882 33.0894C22.8856 33.0894 22.7134 33.059 22.5715 33.0084C22.4297 32.9577 22.3081 32.8767 22.2169 32.7754C22.1258 32.6741 22.0548 32.5525 22.0143 32.4107C21.9738 32.2688 21.9535 32.1067 21.9535 31.9244H24.4863C24.5977 31.9244 24.6889 31.894 24.7497 31.8231C24.8105 31.7521 24.8409 31.6508 24.8409 31.509V31.3165C24.8409 31.0227 24.8004 30.7492 24.7294 30.506C24.6788 30.2527 24.5572 30.04 24.4053 29.8576ZM21.9738 31.1645C21.9839 31.0227 22.0042 30.8809 22.0447 30.7492C22.0852 30.6175 22.1359 30.506 22.2169 30.4148C22.2879 30.3237 22.379 30.2426 22.4905 30.1919C22.6019 30.1413 22.7336 30.1109 22.8755 30.1109C23.1693 30.1109 23.3921 30.2021 23.534 30.3946C23.6758 30.5871 23.7366 30.8403 23.7265 31.1747H21.9738V31.1645Z" fill="white"/>
<path fill-rule="evenodd" clip-rule="evenodd" d="M6.5852 32.6235C6.57507 32.583 6.55481 32.5526 6.54468 32.5425C6.52442 32.5222 6.50415 32.5222 6.47376 32.5222C6.43323 32.5222 6.38258 32.5425 6.32179 32.5931C6.26101 32.6438 6.19009 32.6944 6.09891 32.7552C6.01786 32.816 5.90642 32.8667 5.79498 32.9173C5.67341 32.968 5.5417 32.9883 5.3796 32.9883C5.21751 32.9883 5.0858 32.9579 4.96423 32.9072C4.84265 32.8464 4.74134 32.7654 4.67043 32.6438C4.58938 32.5324 4.52859 32.3905 4.48807 32.2183C4.44754 32.0461 4.42728 31.8536 4.42728 31.6307C4.42728 31.1748 4.50833 30.8303 4.67043 30.5973C4.83252 30.3643 5.06554 30.2427 5.36947 30.2427C5.52144 30.2427 5.65314 30.263 5.77471 30.3035C5.88616 30.344 5.97734 30.3947 6.05839 30.4453C6.13944 30.496 6.21035 30.5467 6.27114 30.5872C6.33192 30.6277 6.38258 30.648 6.44337 30.648C6.49402 30.648 6.53455 30.6074 6.56494 30.5365C6.59533 30.4656 6.6156 30.3339 6.6156 30.1515C6.6156 30.0705 6.6156 30.0097 6.60546 29.9489C6.60546 29.8983 6.59533 29.8476 6.5852 29.8071C6.57507 29.7666 6.56494 29.7362 6.55481 29.7159C6.54468 29.6956 6.51428 29.6653 6.48389 29.6247C6.4535 29.5943 6.39271 29.5538 6.31166 29.5032C6.23062 29.4525 6.13943 29.412 6.02799 29.3816C5.92668 29.3411 5.81524 29.3107 5.69367 29.2904C5.57209 29.2701 5.45052 29.26 5.32895 29.26C5.02501 29.26 4.74135 29.3107 4.48807 29.4018C4.23479 29.493 4.01191 29.645 3.82955 29.8476C3.64719 30.0502 3.49522 30.2934 3.39391 30.5973C3.2926 30.9012 3.24194 31.266 3.24194 31.6813C3.24194 32.0461 3.28247 32.3601 3.37365 32.6438C3.4547 32.9275 3.5864 33.1605 3.7485 33.353C3.92073 33.5455 4.12335 33.6974 4.36649 33.7987C4.60964 33.9001 4.89331 33.9507 5.21751 33.9507C5.35934 33.9507 5.50118 33.9406 5.63288 33.9102C5.76458 33.8798 5.89629 33.8494 6.00773 33.8089C6.11917 33.7683 6.22048 33.7278 6.31166 33.667C6.40284 33.6164 6.46363 33.5759 6.50415 33.5353C6.54468 33.5049 6.56494 33.4745 6.57507 33.4442C6.5852 33.4239 6.59533 33.3935 6.60546 33.353C6.6156 33.3124 6.61559 33.2719 6.62573 33.2111C6.62573 33.1605 6.63586 33.0896 6.63586 33.0085C6.63586 32.9072 6.63586 32.8262 6.62573 32.7552C6.60546 32.7248 6.59533 32.6641 6.5852 32.6235Z" fill="white"/>
<path fill-rule="evenodd" clip-rule="evenodd" d="M10.5767 29.6651C10.4247 29.5334 10.2423 29.4321 10.0093 29.3713C9.7763 29.3105 9.50276 29.2802 9.16843 29.2802C8.98607 29.2802 8.80372 29.2903 8.63149 29.3207C8.45926 29.3511 8.29716 29.3916 8.15532 29.4321C8.01349 29.4828 7.88179 29.5334 7.77034 29.5841C7.6589 29.6347 7.58798 29.6854 7.54746 29.7361C7.50694 29.7766 7.47654 29.8272 7.45628 29.888C7.43602 29.9387 7.43602 30.0197 7.43602 30.1109C7.43602 30.1818 7.43602 30.2527 7.44615 30.3034C7.45628 30.3642 7.46641 30.4148 7.48667 30.4554C7.50693 30.4959 7.5272 30.5263 7.54746 30.5465C7.57785 30.5668 7.60825 30.5769 7.63864 30.5769C7.68929 30.5769 7.75008 30.5567 7.83113 30.5161C7.91218 30.4756 8.01349 30.425 8.12493 30.3743C8.24651 30.3237 8.37821 30.273 8.53018 30.2325C8.68214 30.1919 8.85437 30.1717 9.05699 30.1717C9.20896 30.1717 9.33053 30.1818 9.43184 30.2223C9.53315 30.2527 9.6142 30.3034 9.67499 30.3642C9.73577 30.425 9.7763 30.506 9.80669 30.6073C9.83709 30.7086 9.84722 30.8201 9.84722 30.9518V31.2051H9.44197C9.07726 31.2051 8.75306 31.2354 8.46939 31.2861C8.18572 31.3469 7.9527 31.4279 7.77034 31.5394C7.58798 31.661 7.44615 31.8028 7.34484 31.9851C7.25366 32.1675 7.203 32.3701 7.203 32.6133C7.203 32.8362 7.24353 33.0287 7.31445 33.2009C7.38536 33.3731 7.49681 33.5048 7.62851 33.6264C7.76021 33.7378 7.92231 33.829 8.10467 33.8797C8.28703 33.9405 8.48965 33.9607 8.71253 33.9607C8.97594 33.9607 9.21909 33.9101 9.44197 33.8087C9.65473 33.7074 9.85735 33.5656 10.0296 33.3832V33.7176C10.0296 33.7581 10.0397 33.7986 10.0701 33.8189C10.1005 33.8391 10.141 33.8594 10.2018 33.8695C10.2626 33.8797 10.3639 33.8898 10.5057 33.8898C10.6374 33.8898 10.7388 33.8797 10.7995 33.8695C10.8705 33.8594 10.911 33.8391 10.9414 33.8189C10.9718 33.7986 10.992 33.7581 10.992 33.7176V30.9214C10.992 30.6377 10.9616 30.3844 10.8907 30.1818C10.8299 29.9691 10.7286 29.7968 10.5767 29.6651ZM9.85735 32.6437C9.71551 32.8058 9.57368 32.9273 9.43184 33.0084C9.29001 33.0894 9.13804 33.13 8.97594 33.13C8.78345 33.13 8.63149 33.0793 8.52004 32.978C8.4086 32.8767 8.35795 32.745 8.35795 32.5626C8.35795 32.4613 8.37821 32.3701 8.41873 32.2891C8.45926 32.208 8.52004 32.1472 8.60109 32.0865C8.68214 32.0257 8.79358 31.9852 8.92529 31.9649C9.05699 31.9345 9.21909 31.9244 9.41158 31.9244H9.85735V32.6437Z" fill="white"/>
<path fill-rule="evenodd" clip-rule="evenodd" d="M44.5264 33.6464C44.5264 33.6262 44.5163 33.5958 44.496 33.5654C44.4859 33.535 44.4657 33.5046 44.4555 33.4641L44.0503 32.532C43.9794 32.38 43.9084 32.2483 43.8375 32.1369C43.7666 32.0254 43.6957 31.9343 43.6248 31.8633C43.5437 31.7924 43.4627 31.7316 43.3816 31.681C43.3006 31.6303 43.2094 31.5898 43.1081 31.5493V31.5391C43.179 31.5088 43.2499 31.4784 43.331 31.4378C43.412 31.3973 43.4829 31.3365 43.564 31.2656C43.645 31.1947 43.716 31.1035 43.7869 30.9921C43.8578 30.8806 43.9287 30.7489 43.9895 30.5868L44.3238 29.7966C44.3542 29.7257 44.3745 29.6649 44.3846 29.6244C44.3947 29.5838 44.4049 29.5433 44.4049 29.5129C44.4049 29.4825 44.3947 29.4623 44.3846 29.4521C44.3745 29.4319 44.3441 29.4217 44.3036 29.4116C44.263 29.4015 44.2022 29.3914 44.1313 29.3812C44.0604 29.3711 43.9692 29.3711 43.8477 29.3711C43.716 29.3711 43.6146 29.3711 43.5336 29.3812C43.4525 29.3914 43.3918 29.4015 43.3512 29.4116C43.3006 29.4217 43.2702 29.442 43.2499 29.4623C43.2297 29.4825 43.2094 29.5129 43.1993 29.5433L42.8548 30.445C42.8042 30.5767 42.7535 30.6881 42.7028 30.7793C42.6522 30.8705 42.5914 30.9414 42.5205 30.9921C42.4597 31.0427 42.3888 31.0832 42.3077 31.1035C42.2267 31.1238 42.1456 31.1339 42.0443 31.1339H41.8012V29.5129C41.8012 29.4927 41.7911 29.4724 41.7708 29.4521C41.7505 29.4319 41.7201 29.4116 41.6695 29.4015C41.6188 29.3914 41.5682 29.3711 41.4871 29.3711C41.4162 29.361 41.325 29.361 41.2136 29.361C41.1021 29.361 41.011 29.361 40.94 29.3711C40.8691 29.3812 40.8083 29.3914 40.7577 29.4015C40.707 29.4116 40.6766 29.4319 40.6564 29.4521C40.6361 29.4724 40.626 29.4927 40.626 29.5129V33.7275C40.626 33.7477 40.6361 33.768 40.6564 33.7882C40.6766 33.8085 40.707 33.8288 40.7577 33.8389C40.8083 33.8592 40.8691 33.8693 40.94 33.8693C41.011 33.8794 41.1021 33.8794 41.2136 33.8794C41.3149 33.8794 41.4061 33.8794 41.4871 33.8693C41.558 33.8592 41.6188 33.849 41.6695 33.8389C41.7201 33.8288 41.7505 33.8085 41.7708 33.7882C41.7911 33.768 41.8012 33.7477 41.8012 33.7275V32.0254H42.0443C42.1558 32.0254 42.2469 32.0356 42.328 32.0558C42.409 32.0761 42.4901 32.1166 42.5509 32.1673C42.6117 32.2179 42.6725 32.2888 42.7332 32.38C42.7839 32.4712 42.8346 32.5826 42.8852 32.7144L43.2702 33.7072C43.2803 33.7376 43.3006 33.768 43.3208 33.7882C43.3411 33.8085 43.3816 33.8288 43.4222 33.8389C43.4728 33.849 43.5336 33.8592 43.6248 33.8693C43.7058 33.8794 43.8173 33.8794 43.949 33.8794C44.0604 33.8794 44.1617 33.8794 44.2326 33.8693C44.3137 33.8592 44.3745 33.849 44.415 33.8389C44.4555 33.8288 44.4859 33.8085 44.5062 33.7984C44.5264 33.7781 44.5366 33.7579 44.5366 33.7376C44.5366 33.7275 44.5366 33.7072 44.5366 33.6971C44.5467 33.6971 44.5366 33.6768 44.5264 33.6464Z" fill="white"/>
<path fill-rule="evenodd" clip-rule="evenodd" d="M39.3594 29.3916C39.3189 29.3815 39.2581 29.3612 39.1872 29.3612C39.1163 29.3511 39.0251 29.3511 38.9137 29.3511C38.8124 29.3511 38.7414 29.3511 38.6807 29.3612C38.6199 29.3713 38.5692 29.3815 38.5287 29.3916C38.4882 29.4017 38.4476 29.422 38.4274 29.4423C38.397 29.4625 38.3767 29.4929 38.3463 29.5233L36.928 31.4381C36.8368 31.5495 36.7558 31.6711 36.6848 31.7927C36.6038 31.9142 36.5329 32.0358 36.4518 32.1675C36.4721 32.0358 36.4822 31.9041 36.4923 31.7724C36.5025 31.6306 36.5025 31.4989 36.5025 31.3773V29.5334C36.5025 29.4726 36.462 29.4321 36.3708 29.4017C36.2796 29.3713 36.1276 29.3511 35.9047 29.3511C35.7933 29.3511 35.7021 29.3511 35.6312 29.3612C35.5603 29.3713 35.4995 29.3815 35.459 29.3916C35.4185 29.4119 35.3779 29.422 35.3678 29.4524C35.3475 29.4726 35.3374 29.503 35.3374 29.5334V33.7074C35.3374 33.7378 35.3475 33.7682 35.3678 33.7885C35.3881 33.8088 35.4185 33.829 35.459 33.8391C35.4995 33.8493 35.5603 33.8594 35.6211 33.8695C35.692 33.8797 35.7832 33.8797 35.8946 33.8797C35.9858 33.8797 36.0668 33.8797 36.1175 33.8695C36.1783 33.8695 36.2289 33.8594 36.2695 33.8391C36.31 33.829 36.3404 33.8088 36.3606 33.7784C36.3809 33.7581 36.4113 33.7277 36.4417 33.6973L37.8398 31.7927C37.931 31.6711 38.0221 31.5394 38.1032 31.4178C38.1944 31.2962 38.2754 31.1645 38.3463 31.0328C38.3261 31.1645 38.3159 31.3064 38.3159 31.4482C38.3058 31.59 38.3058 31.7217 38.3058 31.8535V33.7074C38.3058 33.7378 38.3159 33.7682 38.3362 33.7885C38.3565 33.8088 38.3869 33.829 38.4375 33.8391C38.4882 33.8493 38.549 33.8594 38.6199 33.8695C38.7009 33.8797 38.7921 33.8797 38.9035 33.8797C39.015 33.8797 39.1062 33.8797 39.1771 33.8695C39.248 33.8594 39.3088 33.8493 39.3493 33.8391C39.3898 33.829 39.4202 33.8088 39.4405 33.7885C39.4608 33.7682 39.4709 33.7378 39.4709 33.7074V29.5334C39.4709 29.503 39.4608 29.4726 39.4506 29.4524C39.4304 29.4321 39.4 29.4119 39.3594 29.3916Z" fill="white"/>
<path fill-rule="evenodd" clip-rule="evenodd" d="M48.3455 29.6651C48.1935 29.5334 48.0111 29.4321 47.7781 29.3713C47.5451 29.3105 47.2716 29.2802 46.9372 29.2802C46.7549 29.2802 46.5725 29.2903 46.4003 29.3207C46.2281 29.3511 46.066 29.3916 45.9241 29.4321C45.7823 29.4828 45.6506 29.5334 45.5391 29.5841C45.4277 29.6347 45.3568 29.6854 45.3163 29.7361C45.2757 29.7766 45.2453 29.8272 45.2251 29.888C45.2048 29.9387 45.2048 30.0197 45.2048 30.1109C45.2048 30.1818 45.2048 30.2527 45.215 30.3034C45.2251 30.3642 45.2352 30.4148 45.2555 30.4554C45.2757 30.4959 45.296 30.5263 45.3163 30.5465C45.3467 30.5668 45.377 30.5769 45.4074 30.5769C45.4581 30.5769 45.5189 30.5567 45.5999 30.5161C45.681 30.4756 45.7823 30.425 45.8937 30.3743C46.0153 30.3237 46.147 30.273 46.299 30.2325C46.4509 30.1919 46.6232 30.1717 46.8258 30.1717C46.9778 30.1717 47.0993 30.1818 47.2006 30.2223C47.302 30.2527 47.383 30.3034 47.4438 30.3642C47.5046 30.425 47.5451 30.506 47.5755 30.6073C47.6059 30.7086 47.616 30.8201 47.616 30.9518V31.2051H47.2108C46.8461 31.2051 46.5219 31.2354 46.2382 31.2861C45.9545 31.3469 45.7215 31.4279 45.5391 31.5394C45.3467 31.661 45.215 31.8028 45.1136 31.9851C45.0225 32.1675 44.9718 32.3701 44.9718 32.6133C44.9718 32.8362 45.0123 33.0287 45.0832 33.2009C45.1542 33.3731 45.2656 33.5048 45.3973 33.6264C45.529 33.7378 45.6911 33.829 45.8735 33.8797C46.0558 33.9405 46.2585 33.9607 46.4813 33.9607C46.7447 33.9607 46.9879 33.9101 47.2108 33.8087C47.4235 33.7074 47.6261 33.5656 47.7984 33.3832V33.7176C47.7984 33.7581 47.8085 33.7986 47.8389 33.8189C47.8693 33.8391 47.9098 33.8594 47.9706 33.8695C48.0314 33.8797 48.1327 33.8898 48.2745 33.8898C48.4062 33.8898 48.5076 33.8797 48.5683 33.8695C48.6393 33.8594 48.6798 33.8391 48.7102 33.8189C48.7406 33.7986 48.7608 33.7581 48.7608 33.7176V30.9214C48.7608 30.6377 48.7304 30.3844 48.6595 30.1818C48.6089 29.9691 48.4974 29.7968 48.3455 29.6651ZM47.6261 32.6437C47.4843 32.8058 47.3425 32.9273 47.2006 33.0084C47.0588 33.0894 46.9068 33.13 46.7447 33.13C46.5523 33.13 46.4003 33.0793 46.2888 32.978C46.1774 32.8767 46.1267 32.745 46.1267 32.5626C46.1267 32.4613 46.147 32.3701 46.1875 32.2891C46.2281 32.208 46.2888 32.1472 46.3699 32.0865C46.4509 32.0257 46.5624 31.9852 46.6941 31.9649C46.8258 31.9345 46.9879 31.9244 47.1804 31.9244H47.6261V32.6437Z" fill="white"/>
<path fill-rule="evenodd" clip-rule="evenodd" d="M28.2255 31.5394L29.2589 29.6449C29.2893 29.5841 29.3095 29.5334 29.3095 29.4929C29.3095 29.4524 29.2893 29.422 29.2589 29.4017C29.2183 29.3815 29.1677 29.3713 29.0765 29.3612C28.9955 29.3511 28.884 29.3511 28.7523 29.3511C28.6307 29.3511 28.5396 29.3511 28.4686 29.3612C28.3977 29.3713 28.3471 29.3815 28.3065 29.3916C28.266 29.4017 28.2356 29.422 28.2154 29.4423C28.1951 29.4625 28.185 29.4828 28.1748 29.503L27.4353 30.891L26.6957 29.503C26.6754 29.4726 26.6653 29.4423 26.645 29.422C26.6248 29.4017 26.5944 29.3916 26.5437 29.3815C26.4931 29.3713 26.4323 29.3612 26.3512 29.3612C26.2702 29.3612 26.1588 29.3511 26.027 29.3511C25.8751 29.3511 25.7535 29.3511 25.6623 29.3612C25.5712 29.3713 25.5104 29.3815 25.4698 29.4119C25.4293 29.4321 25.4091 29.4625 25.4091 29.503C25.4091 29.5436 25.4293 29.5841 25.4496 29.6449L26.5133 31.5698L25.3584 33.6163C25.328 33.6669 25.3179 33.7074 25.3179 33.748C25.3179 33.7784 25.3381 33.8088 25.3787 33.829C25.4192 33.8493 25.4698 33.8695 25.5509 33.8695C25.6319 33.8797 25.7434 33.8797 25.8751 33.8797C26.0068 33.8797 26.1081 33.8797 26.1891 33.8695C26.2702 33.8695 26.331 33.8594 26.3816 33.8391C26.4222 33.829 26.4627 33.8088 26.4829 33.7885C26.5032 33.7682 26.5235 33.748 26.5336 33.7074L27.3036 32.2283L28.0735 33.7277C28.0837 33.7581 28.1039 33.7885 28.1242 33.8088C28.1444 33.829 28.185 33.8493 28.2255 33.8594C28.2761 33.8695 28.3369 33.8797 28.4281 33.8898C28.5092 33.8898 28.6307 33.8999 28.7624 33.8999C28.9144 33.8999 29.036 33.8999 29.117 33.8898C29.2082 33.8797 29.2791 33.8695 29.3197 33.8493C29.3602 33.829 29.3906 33.7986 29.3906 33.7682C29.3906 33.7378 29.3804 33.6872 29.3602 33.6365L28.2255 31.5394Z" fill="white"/>
<path fill-rule="evenodd" clip-rule="evenodd" d="M34.0407 29.4015C34.0002 29.3812 33.9394 29.3711 33.8584 29.3711C33.7874 29.361 33.6861 29.361 33.5747 29.361C33.4633 29.361 33.3619 29.361 33.291 29.3711C33.21 29.3812 33.1593 29.3914 33.1087 29.4015C33.0681 29.4217 33.0377 29.4319 33.0175 29.4623C32.9972 29.4825 32.9871 29.5129 32.9871 29.5433V31.1035H31.3053V29.5433C31.3053 29.5129 31.2952 29.4825 31.2749 29.4623C31.2547 29.442 31.2243 29.4217 31.1838 29.4015C31.1331 29.3812 31.0825 29.3711 31.0014 29.3711C30.9305 29.361 30.8292 29.361 30.7177 29.361C30.6063 29.361 30.505 29.361 30.4341 29.3711C30.3631 29.3812 30.3024 29.3914 30.2517 29.4015C30.201 29.4217 30.1707 29.4319 30.1605 29.4623C30.1403 29.4825 30.1301 29.5129 30.1301 29.5433V33.7072C30.1301 33.7376 30.1403 33.768 30.1605 33.7882C30.1808 33.8085 30.2112 33.8288 30.2517 33.849C30.2922 33.8693 30.353 33.8794 30.4341 33.8794C30.505 33.8896 30.6063 33.8896 30.7177 33.8896C30.8292 33.8896 30.9305 33.8896 31.0014 33.8794C31.0723 33.8693 31.1331 33.8592 31.1838 33.849C31.2243 33.8389 31.2648 33.8186 31.2749 33.7882C31.2952 33.768 31.3053 33.7376 31.3053 33.7072V32.066H32.9871V33.7072C32.9871 33.7376 32.9972 33.768 33.0175 33.7882C33.0377 33.8085 33.0681 33.8288 33.1087 33.849C33.1492 33.8693 33.21 33.8794 33.291 33.8794C33.3721 33.8896 33.4633 33.8896 33.5747 33.8896C33.6861 33.8896 33.7773 33.8896 33.8584 33.8794C33.9394 33.8693 33.9901 33.8592 34.0407 33.849C34.0813 33.8389 34.1116 33.8186 34.1319 33.7882C34.1522 33.768 34.1623 33.7376 34.1623 33.7072V29.5433C34.1623 29.5129 34.1522 29.4825 34.1319 29.4623C34.1116 29.4319 34.0813 29.4116 34.0407 29.4015Z" fill="white"/>
<path fill-rule="evenodd" clip-rule="evenodd" d="M77.2397 29.8673C77.0573 29.6748 76.8345 29.5228 76.5609 29.4215C76.2874 29.3202 75.9632 29.2695 75.5883 29.2695C75.2034 29.2695 74.869 29.3303 74.5854 29.4418C74.3017 29.5532 74.0687 29.7153 73.8762 29.9281C73.6837 30.1408 73.5419 30.3941 73.4507 30.6879C73.3595 30.9817 73.3088 31.3059 73.3088 31.6605C73.3088 32.0252 73.3494 32.3595 73.4405 32.6432C73.5317 32.9269 73.6634 33.17 73.8458 33.3625C74.0282 33.555 74.251 33.7069 74.5246 33.8083C74.7981 33.9096 75.1223 33.9602 75.487 33.9602C75.872 33.9602 76.2063 33.8994 76.49 33.788C76.7737 33.6766 77.0168 33.5145 77.1992 33.3017C77.3917 33.089 77.5335 32.8357 77.6247 32.5419C77.7159 32.2481 77.7665 31.9239 77.7665 31.5693C77.7665 31.2046 77.726 30.8702 77.6348 30.5866C77.5538 30.313 77.4221 30.0699 77.2397 29.8673ZM76.5001 32.2177C76.4596 32.3899 76.3988 32.5419 76.3178 32.6634C76.2367 32.785 76.1253 32.8762 75.9936 32.937C75.8619 32.9978 75.7099 33.0383 75.5275 33.0383C75.3351 33.0383 75.173 33.0079 75.0413 32.937C74.9095 32.8661 74.8082 32.7648 74.7272 32.6432C74.6461 32.5115 74.5955 32.3595 74.5651 32.1974C74.5347 32.0252 74.5144 31.8327 74.5144 31.6301C74.5144 31.4072 74.5347 31.2147 74.5752 31.0425C74.6157 30.8702 74.6765 30.7183 74.7677 30.5967C74.8488 30.4751 74.9602 30.3839 75.0919 30.313C75.2236 30.2522 75.3756 30.2219 75.5478 30.2219C75.7403 30.2219 75.9024 30.2624 76.0341 30.3333C76.1658 30.4042 76.2671 30.5055 76.3482 30.6271C76.4292 30.7588 76.4799 30.9006 76.5103 31.0729C76.5407 31.2451 76.5609 31.4376 76.5609 31.6402C76.5609 31.8428 76.5407 32.0454 76.5001 32.2177Z" fill="white"/>
<path fill-rule="evenodd" clip-rule="evenodd" d="M160.031 29.3811H156.759C156.647 29.3811 156.566 29.4115 156.516 29.4824C156.465 29.5432 156.434 29.6445 156.434 29.7661V33.7071C156.434 33.7375 156.445 33.7679 156.465 33.7881C156.485 33.8084 156.515 33.8287 156.556 33.8489C156.597 33.8692 156.657 33.8793 156.738 33.8793C156.809 33.8894 156.911 33.8894 157.022 33.8894C157.133 33.8894 157.235 33.8894 157.306 33.8793C157.377 33.8692 157.437 33.859 157.488 33.8489C157.529 33.8388 157.569 33.8185 157.589 33.7881C157.61 33.7679 157.62 33.7375 157.62 33.7071V30.3537H159.19V33.7071C159.19 33.7375 159.2 33.7679 159.22 33.7881C159.241 33.8084 159.271 33.8287 159.312 33.8489C159.362 33.8692 159.423 33.8793 159.494 33.8793C159.565 33.8894 159.666 33.8894 159.778 33.8894C159.889 33.8894 159.99 33.8894 160.061 33.8793C160.132 33.8692 160.193 33.859 160.244 33.8489C160.294 33.8388 160.325 33.8185 160.335 33.7881C160.355 33.7679 160.365 33.7375 160.365 33.7071V29.7661C160.365 29.6445 160.335 29.5432 160.284 29.4824C160.223 29.4115 160.142 29.3811 160.031 29.3811Z" fill="white"/>
<path fill-rule="evenodd" clip-rule="evenodd" d="M165.056 29.3917H162.644C162.533 29.3917 162.462 29.4221 162.411 29.4829C162.361 29.5437 162.34 29.645 162.33 29.7666C162.29 30.1921 162.239 30.5568 162.199 30.881C162.148 31.2052 162.107 31.4787 162.047 31.7016C161.996 31.9346 161.935 32.1271 161.874 32.269C161.814 32.4209 161.743 32.5425 161.682 32.6337C161.611 32.7249 161.54 32.7856 161.459 32.8262C161.378 32.8566 161.297 32.8768 161.206 32.8768C161.175 32.8768 161.145 32.8869 161.125 32.8971C161.104 32.9072 161.084 32.9376 161.074 32.9781C161.064 33.0187 161.054 33.0693 161.044 33.1402C161.044 33.2111 161.034 33.3023 161.034 33.4239C161.034 33.5353 161.034 33.6265 161.044 33.6974C161.054 33.7684 161.064 33.819 161.074 33.8595C161.094 33.8899 161.115 33.9203 161.135 33.9304C161.165 33.9406 161.196 33.9507 161.236 33.9507C161.419 33.9507 161.591 33.9304 161.753 33.8899C161.915 33.8494 162.067 33.7684 162.209 33.667C162.351 33.5657 162.472 33.4239 162.594 33.2517C162.715 33.0794 162.817 32.8566 162.918 32.583C163.019 32.3196 163.1 31.9954 163.171 31.6307C163.242 31.266 163.303 30.8303 163.354 30.344H164.194V33.7076C164.194 33.738 164.205 33.7684 164.225 33.7886C164.245 33.8089 164.276 33.8291 164.316 33.8494C164.367 33.8697 164.427 33.8798 164.498 33.8798C164.579 33.8899 164.671 33.8899 164.782 33.8899C164.894 33.8899 164.985 33.8899 165.066 33.8798C165.147 33.8697 165.197 33.8595 165.248 33.8494C165.289 33.8393 165.319 33.819 165.339 33.7886C165.36 33.7684 165.37 33.738 165.37 33.7076V29.7767C165.37 29.645 165.349 29.5538 165.289 29.493C165.238 29.4221 165.157 29.3917 165.056 29.3917Z" fill="white"/>
<path fill-rule="evenodd" clip-rule="evenodd" d="M137.084 29.4925C137.074 29.452 137.053 29.4216 137.023 29.4115C137.003 29.3912 136.972 29.3811 136.942 29.3811H133.68C133.649 29.3811 133.619 29.3912 133.599 29.4115C133.578 29.4318 133.558 29.452 133.548 29.4925C133.528 29.5331 133.518 29.5837 133.507 29.6445C133.497 29.7053 133.497 29.7863 133.497 29.8775C133.497 29.9788 133.497 30.07 133.507 30.1409C133.518 30.2119 133.528 30.2726 133.538 30.3132C133.548 30.3537 133.568 30.3841 133.599 30.4043C133.619 30.4246 133.649 30.4347 133.68 30.4347H134.723V33.7071C134.723 33.7375 134.733 33.7679 134.754 33.7881C134.774 33.8084 134.804 33.8287 134.845 33.8489C134.895 33.8692 134.946 33.8793 135.027 33.8793C135.098 33.8894 135.199 33.8894 135.311 33.8894C135.422 33.8894 135.523 33.8894 135.594 33.8793C135.675 33.8692 135.726 33.859 135.777 33.8489C135.817 33.8388 135.848 33.8185 135.868 33.7881C135.888 33.7679 135.898 33.7375 135.898 33.7071V30.4347H136.942C136.972 30.4347 136.992 30.4246 137.023 30.4145C137.043 30.3942 137.063 30.3739 137.084 30.3334C137.104 30.2929 137.114 30.2422 137.114 30.1713C137.124 30.1004 137.124 30.0194 137.124 29.918C137.124 29.8167 137.124 29.7357 137.114 29.6749C137.114 29.5837 137.094 29.5331 137.084 29.4925Z" fill="white"/>
<path fill-rule="evenodd" clip-rule="evenodd" d="M141.785 29.3916C141.744 29.3815 141.684 29.3612 141.613 29.3612C141.542 29.3511 141.451 29.3511 141.339 29.3511C141.238 29.3511 141.167 29.3511 141.106 29.3612C141.045 29.3713 140.995 29.3815 140.954 29.3916C140.914 29.4017 140.873 29.422 140.853 29.4423C140.822 29.4625 140.802 29.4929 140.772 29.5233L139.353 31.4381C139.262 31.5495 139.181 31.6711 139.11 31.7927C139.029 31.9142 138.958 32.0358 138.877 32.1675C138.897 32.0358 138.908 31.9041 138.918 31.7724C138.928 31.6306 138.928 31.4989 138.928 31.3773V29.5334C138.928 29.4726 138.887 29.4321 138.796 29.4017C138.705 29.3713 138.553 29.3511 138.33 29.3511C138.219 29.3511 138.128 29.3511 138.057 29.3612C137.986 29.3713 137.925 29.3815 137.884 29.3916C137.844 29.4119 137.803 29.422 137.793 29.4524C137.773 29.4726 137.763 29.503 137.763 29.5334V33.7074C137.763 33.7378 137.773 33.7682 137.793 33.7885C137.813 33.8088 137.844 33.829 137.884 33.8391C137.925 33.8493 137.986 33.8594 138.046 33.8695C138.117 33.8797 138.209 33.8797 138.32 33.8797C138.411 33.8797 138.492 33.8797 138.543 33.8695C138.604 33.8695 138.654 33.8594 138.695 33.8391C138.735 33.829 138.766 33.8088 138.786 33.7784C138.806 33.7581 138.837 33.7277 138.867 33.6973L140.265 31.7927C140.356 31.6711 140.448 31.5394 140.529 31.4178C140.62 31.2962 140.701 31.1645 140.772 31.0328C140.751 31.1645 140.741 31.3064 140.741 31.4482C140.731 31.59 140.731 31.7217 140.731 31.8535V33.7074C140.731 33.7378 140.741 33.7682 140.762 33.7885C140.782 33.8088 140.812 33.829 140.863 33.8391C140.914 33.8493 140.974 33.8594 141.045 33.8695C141.126 33.8797 141.218 33.8797 141.329 33.8797C141.44 33.8797 141.532 33.8797 141.603 33.8695C141.673 33.8594 141.734 33.8493 141.775 33.8391C141.815 33.829 141.846 33.8088 141.866 33.7885C141.886 33.7682 141.896 33.7378 141.896 33.7074V29.5334C141.896 29.503 141.886 29.4726 141.876 29.4524C141.856 29.4321 141.825 29.4119 141.785 29.3916Z" fill="white"/>
<path fill-rule="evenodd" clip-rule="evenodd" d="M146.344 29.3916C146.253 29.3815 146.152 29.3713 146.03 29.3713C145.919 29.3612 145.797 29.3612 145.676 29.3511C145.554 29.3409 145.442 29.3409 145.321 29.3409C145.199 29.3409 145.098 29.3409 144.997 29.3409C144.652 29.3409 144.348 29.3713 144.085 29.4423C143.822 29.503 143.609 29.6043 143.426 29.7259C143.254 29.8475 143.122 29.9995 143.031 30.1717C142.94 30.3439 142.9 30.5465 142.9 30.7694C142.9 31.0632 142.981 31.3064 143.153 31.4989C143.325 31.6812 143.558 31.8129 143.842 31.8737C143.69 31.9345 143.548 32.0358 143.426 32.1675C143.305 32.2992 143.204 32.4613 143.122 32.6538L142.839 33.3123C142.778 33.4542 142.727 33.5555 142.707 33.6264C142.687 33.6872 142.677 33.7378 142.677 33.7784C142.677 33.8088 142.687 33.8391 142.707 33.8594C142.727 33.8797 142.758 33.8898 142.808 33.8999C142.859 33.9101 142.92 33.9202 142.991 33.9202C143.062 33.9202 143.153 33.9202 143.264 33.9202C143.386 33.9202 143.487 33.9202 143.568 33.9101C143.649 33.8999 143.72 33.8898 143.771 33.8797C143.822 33.8594 143.862 33.8391 143.882 33.8087C143.913 33.7784 143.933 33.7378 143.953 33.6973L144.227 32.9881C144.288 32.826 144.348 32.6943 144.399 32.593C144.46 32.4917 144.521 32.4005 144.591 32.3397C144.662 32.279 144.743 32.2283 144.824 32.208C144.906 32.1776 145.027 32.1675 145.169 32.1675H145.473V33.7378C145.473 33.7682 145.483 33.7986 145.493 33.829C145.513 33.8493 145.544 33.8695 145.584 33.8898C145.635 33.9101 145.686 33.9202 145.767 33.9202C145.838 33.9303 145.939 33.9303 146.05 33.9303C146.172 33.9303 146.273 33.9303 146.354 33.9202C146.435 33.9101 146.486 33.8999 146.527 33.8898C146.567 33.8695 146.597 33.8594 146.608 33.829C146.618 33.8088 146.628 33.7784 146.628 33.7378V29.7766C146.628 29.6753 146.608 29.5942 146.557 29.5233C146.516 29.4321 146.445 29.4017 146.344 29.3916ZM145.483 31.3672H144.976C144.794 31.3672 144.652 31.357 144.541 31.3266C144.429 31.2962 144.348 31.2658 144.277 31.2051C144.206 31.1544 144.156 31.0936 144.125 31.0126C144.095 30.9417 144.075 30.8505 144.075 30.7593C144.075 30.6681 144.085 30.5871 144.115 30.506C144.146 30.425 144.196 30.3642 144.257 30.3034C144.328 30.2426 144.419 30.2021 144.521 30.1717C144.632 30.1413 144.764 30.121 144.936 30.121C145.017 30.121 145.098 30.121 145.199 30.1312C145.291 30.1413 145.382 30.1514 145.473 30.1616V31.3672H145.483Z" fill="white"/>
<path fill-rule="evenodd" clip-rule="evenodd" d="M152.939 29.8373H149.869C149.697 29.8373 149.555 29.9791 149.555 30.1513V32.8563C149.555 33.0286 149.697 33.1704 149.869 33.1704H152.939C153.111 33.1704 153.253 33.0286 153.253 32.8563V30.1513C153.253 29.969 153.111 29.8373 152.939 29.8373Z" fill="white"/>
<path fill-rule="evenodd" clip-rule="evenodd" d="M170.578 29.3916C170.537 29.3815 170.476 29.3612 170.405 29.3612C170.334 29.3511 170.243 29.3511 170.132 29.3511C170.03 29.3511 169.96 29.3511 169.899 29.3612C169.838 29.3713 169.787 29.3815 169.747 29.3916C169.706 29.4017 169.666 29.422 169.646 29.4423C169.615 29.4625 169.595 29.4929 169.564 29.5233L168.146 31.4381C168.055 31.5495 167.974 31.6711 167.903 31.7927C167.822 31.9142 167.751 32.0358 167.67 32.1675C167.69 32.0358 167.7 31.9041 167.71 31.7724C167.721 31.6306 167.721 31.4989 167.721 31.3773V29.5334C167.721 29.4726 167.68 29.4321 167.589 29.4017C167.498 29.3713 167.346 29.3511 167.123 29.3511C167.011 29.3511 166.92 29.3511 166.849 29.3612C166.778 29.3713 166.718 29.3815 166.677 29.3916C166.637 29.4119 166.596 29.422 166.586 29.4524C166.566 29.4726 166.556 29.503 166.556 29.5334V33.7074C166.556 33.7378 166.566 33.7682 166.586 33.7885C166.606 33.8088 166.637 33.829 166.677 33.8391C166.718 33.8493 166.778 33.8594 166.839 33.8695C166.91 33.8797 167.001 33.8797 167.113 33.8797C167.204 33.8797 167.285 33.8797 167.336 33.8695C167.396 33.8695 167.447 33.8594 167.488 33.8391C167.528 33.829 167.559 33.8088 167.579 33.7784C167.599 33.7581 167.629 33.7277 167.66 33.6973L169.058 31.7927C169.149 31.6711 169.24 31.5394 169.321 31.4178C169.413 31.2962 169.494 31.1645 169.564 31.0328C169.544 31.1645 169.534 31.3064 169.534 31.4482C169.524 31.59 169.524 31.7217 169.524 31.8535V33.7074C169.524 33.7378 169.534 33.7682 169.554 33.7885C169.575 33.8088 169.615 33.829 169.656 33.8391C169.706 33.8493 169.767 33.8594 169.838 33.8695C169.919 33.8797 170.01 33.8797 170.122 33.8797C170.233 33.8797 170.324 33.8797 170.395 33.8695C170.466 33.8594 170.527 33.8493 170.567 33.8391C170.608 33.829 170.638 33.8088 170.659 33.7885C170.679 33.7682 170.689 33.7378 170.689 33.7074V29.5334C170.689 29.503 170.679 29.4726 170.669 29.4524C170.638 29.4321 170.618 29.4119 170.578 29.3916Z" fill="white"/>
<path fill-rule="evenodd" clip-rule="evenodd" d="M183.271 29.6651C183.119 29.5334 182.937 29.4321 182.704 29.3713C182.471 29.3105 182.197 29.2802 181.873 29.2802C181.691 29.2802 181.509 29.2903 181.336 29.3207C181.164 29.3511 181.002 29.3916 180.86 29.4321C180.718 29.4828 180.587 29.5334 180.475 29.5841C180.364 29.6347 180.293 29.6854 180.252 29.7361C180.212 29.7766 180.181 29.8272 180.161 29.888C180.141 29.9387 180.141 30.0197 180.141 30.1109C180.141 30.1818 180.141 30.2527 180.151 30.3034C180.161 30.3642 180.171 30.4148 180.192 30.4554C180.212 30.4959 180.232 30.5263 180.252 30.5465C180.283 30.5668 180.313 30.5769 180.343 30.5769C180.394 30.5769 180.455 30.5567 180.536 30.5161C180.617 30.4756 180.718 30.425 180.83 30.3743C180.951 30.3237 181.083 30.273 181.235 30.2325C181.387 30.1919 181.559 30.1717 181.762 30.1717C181.914 30.1717 182.035 30.1818 182.137 30.2223C182.238 30.2527 182.319 30.3034 182.38 30.3642C182.441 30.425 182.481 30.506 182.512 30.6073C182.542 30.7086 182.552 30.8201 182.552 30.9518V31.2051H182.147C181.782 31.2051 181.458 31.2354 181.174 31.2861C180.891 31.3469 180.658 31.4279 180.475 31.5394C180.283 31.661 180.151 31.8028 180.05 31.9851C179.959 32.1675 179.908 32.3701 179.908 32.6133C179.908 32.8362 179.948 33.0287 180.019 33.2009C180.09 33.3731 180.202 33.5048 180.333 33.6264C180.465 33.7378 180.627 33.829 180.81 33.8797C180.992 33.9405 181.194 33.9607 181.417 33.9607C181.681 33.9607 181.924 33.9101 182.147 33.8087C182.36 33.7074 182.562 33.5656 182.734 33.3832V33.7176C182.734 33.7581 182.745 33.7986 182.775 33.8189C182.805 33.8391 182.846 33.8594 182.907 33.8695C182.967 33.8797 183.069 33.8898 183.211 33.8898C183.342 33.8898 183.444 33.8797 183.504 33.8695C183.575 33.8594 183.616 33.8391 183.646 33.8189C183.677 33.7986 183.697 33.7581 183.697 33.7176V30.9214C183.697 30.6377 183.666 30.3844 183.596 30.1818C183.535 29.9691 183.423 29.7968 183.271 29.6651ZM182.552 32.6437C182.41 32.8058 182.268 32.9273 182.127 33.0084C181.985 33.0894 181.833 33.13 181.671 33.13C181.478 33.13 181.326 33.0793 181.215 32.978C181.103 32.8767 181.053 32.745 181.053 32.5626C181.053 32.4613 181.073 32.3701 181.113 32.2891C181.154 32.208 181.215 32.1472 181.296 32.0865C181.377 32.0257 181.488 31.9852 181.62 31.9649C181.752 31.9345 181.914 31.9244 182.106 31.9244H182.552V32.6437Z" fill="white"/>
<path fill-rule="evenodd" clip-rule="evenodd" d="M179.462 33.6464C179.462 33.6262 179.452 33.5958 179.432 33.5654C179.421 33.535 179.401 33.5046 179.391 33.4641L178.986 32.532C178.915 32.38 178.844 32.2483 178.773 32.1369C178.702 32.0254 178.631 31.9343 178.56 31.8633C178.479 31.7924 178.398 31.7316 178.317 31.681C178.236 31.6303 178.145 31.5898 178.044 31.5493V31.5391C178.114 31.5088 178.185 31.4784 178.266 31.4378C178.348 31.3973 178.418 31.3365 178.499 31.2656C178.581 31.1947 178.651 31.1035 178.722 30.9921C178.793 30.8806 178.864 30.7489 178.925 30.5868L179.259 29.7966C179.29 29.7257 179.31 29.6649 179.32 29.6244C179.33 29.5838 179.34 29.5433 179.34 29.5129C179.34 29.4825 179.33 29.4623 179.32 29.4521C179.31 29.4319 179.28 29.4217 179.239 29.4116C179.199 29.4015 179.138 29.3914 179.067 29.3812C178.996 29.3711 178.905 29.3711 178.783 29.3711C178.651 29.3711 178.55 29.3711 178.469 29.3812C178.388 29.3914 178.327 29.4015 178.287 29.4116C178.236 29.4217 178.206 29.442 178.185 29.4623C178.165 29.4825 178.145 29.5129 178.135 29.5433L177.79 30.445C177.74 30.5767 177.689 30.6881 177.638 30.7793C177.578 30.8705 177.527 30.9414 177.456 30.9921C177.395 31.0427 177.324 31.0832 177.243 31.1035C177.162 31.1238 177.081 31.1339 176.98 31.1339H176.737V29.5129C176.737 29.4927 176.727 29.4724 176.706 29.4521C176.686 29.4319 176.656 29.4116 176.605 29.4015C176.554 29.3914 176.504 29.3711 176.423 29.3711C176.352 29.361 176.261 29.361 176.149 29.361C176.038 29.361 175.946 29.361 175.876 29.3711C175.805 29.3812 175.744 29.3914 175.693 29.4015C175.643 29.4116 175.612 29.4319 175.592 29.4521C175.572 29.4724 175.561 29.4927 175.561 29.5129V33.7275C175.561 33.7477 175.572 33.768 175.592 33.7882C175.612 33.8085 175.643 33.8288 175.693 33.8389C175.744 33.8592 175.805 33.8693 175.876 33.8693C175.946 33.8794 176.038 33.8794 176.149 33.8794C176.261 33.8794 176.342 33.8794 176.423 33.8693C176.494 33.8592 176.554 33.849 176.605 33.8389C176.656 33.8288 176.686 33.8085 176.706 33.7882C176.727 33.768 176.737 33.7477 176.737 33.7275V32.0254H176.98C177.091 32.0254 177.182 32.0356 177.263 32.0558C177.345 32.0761 177.426 32.1166 177.486 32.1673C177.547 32.2179 177.608 32.2888 177.669 32.38C177.719 32.4712 177.77 32.5826 177.821 32.7144L178.206 33.7072C178.216 33.7376 178.236 33.768 178.256 33.7882C178.277 33.8085 178.317 33.8288 178.368 33.8389C178.418 33.849 178.479 33.8592 178.57 33.8693C178.651 33.8794 178.763 33.8794 178.895 33.8794C179.006 33.8794 179.107 33.8794 179.178 33.8693C179.259 33.8592 179.32 33.849 179.361 33.8389C179.401 33.8288 179.432 33.8085 179.452 33.7984C179.472 33.7781 179.482 33.7579 179.482 33.7376C179.482 33.7275 179.482 33.7072 179.482 33.6971C179.472 33.6971 179.462 33.6768 179.462 33.6464Z" fill="white"/>
<path fill-rule="evenodd" clip-rule="evenodd" d="M174.893 29.4925C174.883 29.452 174.862 29.4216 174.832 29.4115C174.812 29.3912 174.781 29.3811 174.751 29.3811H171.489C171.458 29.3811 171.428 29.3912 171.408 29.4115C171.388 29.4318 171.367 29.452 171.357 29.4925C171.337 29.5331 171.327 29.5837 171.317 29.6445C171.306 29.7053 171.306 29.7863 171.306 29.8775C171.306 29.9788 171.306 30.07 171.317 30.1409C171.327 30.2119 171.337 30.2726 171.347 30.3132C171.357 30.3537 171.377 30.3841 171.408 30.4043C171.428 30.4246 171.458 30.4347 171.489 30.4347H172.532V33.7071C172.532 33.7375 172.542 33.7679 172.563 33.7881C172.583 33.8084 172.613 33.8287 172.654 33.8489C172.705 33.8692 172.755 33.8793 172.836 33.8793C172.907 33.8894 173.008 33.8894 173.12 33.8894C173.231 33.8894 173.333 33.8894 173.404 33.8793C173.485 33.8692 173.535 33.859 173.586 33.8489C173.626 33.8388 173.657 33.8185 173.677 33.7881C173.697 33.7679 173.708 33.7375 173.708 33.7071V30.4347H174.751C174.781 30.4347 174.802 30.4246 174.832 30.4145C174.852 30.3942 174.873 30.3739 174.893 30.3334C174.913 30.2929 174.923 30.2422 174.923 30.1713C174.933 30.1004 174.933 30.0194 174.933 29.918C174.933 29.8167 174.933 29.7357 174.923 29.6749C174.913 29.5837 174.903 29.5331 174.893 29.4925Z" fill="white"/>
<path fill-rule="evenodd" clip-rule="evenodd" d="M125.93 29.9483C125.798 29.7356 125.626 29.5735 125.403 29.4519C125.19 29.3303 124.927 29.2695 124.623 29.2695C124.481 29.2695 124.339 29.2898 124.207 29.3202C124.076 29.3506 123.954 29.4012 123.832 29.462C123.711 29.5228 123.589 29.6039 123.478 29.695C123.366 29.7862 123.245 29.8977 123.123 30.0294V29.5431C123.123 29.5127 123.113 29.4823 123.103 29.462C123.083 29.4418 123.062 29.4215 123.022 29.4012C122.981 29.381 122.931 29.3708 122.87 29.3708C122.809 29.3607 122.728 29.3607 122.637 29.3607C122.536 29.3607 122.465 29.3607 122.394 29.3708C122.333 29.381 122.282 29.3911 122.242 29.4012C122.201 29.4215 122.181 29.4316 122.161 29.462C122.14 29.4823 122.141 29.5127 122.141 29.5431V35.3583C122.141 35.3887 122.151 35.4191 122.171 35.4394C122.191 35.4698 122.222 35.49 122.262 35.5001C122.303 35.5204 122.363 35.5305 122.444 35.5407C122.515 35.5508 122.617 35.5508 122.728 35.5508C122.84 35.5508 122.941 35.5508 123.012 35.5407C123.083 35.5305 123.143 35.5204 123.194 35.5001C123.235 35.4799 123.275 35.4596 123.285 35.4394C123.306 35.4191 123.316 35.3887 123.316 35.3583V33.403C123.417 33.5043 123.508 33.5854 123.61 33.6563C123.701 33.7272 123.802 33.788 123.893 33.8387C123.984 33.8893 124.086 33.9197 124.187 33.9501C124.288 33.9704 124.4 33.9805 124.521 33.9805C124.815 33.9805 125.068 33.9298 125.301 33.8184C125.524 33.7069 125.717 33.5448 125.869 33.3422C126.021 33.1295 126.132 32.8863 126.213 32.5824C126.294 32.2886 126.335 31.9543 126.335 31.5794C126.335 31.2654 126.304 30.9716 126.244 30.6879C126.173 30.3941 126.071 30.1509 125.93 29.9483ZM125.058 32.1164C125.028 32.2785 124.977 32.4203 124.906 32.5419C124.835 32.6634 124.754 32.7648 124.643 32.8458C124.531 32.9269 124.41 32.9572 124.258 32.9572C124.096 32.9572 123.944 32.8965 123.792 32.785C123.64 32.6736 123.488 32.5115 123.326 32.2987V30.931C123.417 30.8095 123.508 30.698 123.589 30.617C123.67 30.5359 123.751 30.465 123.832 30.4143C123.913 30.3637 123.994 30.3232 124.065 30.3029C124.146 30.2826 124.217 30.2725 124.298 30.2725C124.45 30.2725 124.582 30.313 124.683 30.384C124.785 30.465 124.876 30.5663 124.937 30.6879C124.997 30.8196 125.048 30.9614 125.068 31.1235C125.099 31.2856 125.109 31.4578 125.109 31.6301C125.099 31.8023 125.089 31.9644 125.058 32.1164Z" fill="white"/>
<path fill-rule="evenodd" clip-rule="evenodd" d="M103.621 29.8576C103.458 29.6753 103.256 29.5334 103.013 29.4321C102.77 29.3308 102.466 29.2802 102.121 29.2802C101.797 29.2802 101.493 29.3308 101.23 29.4422C100.966 29.5537 100.743 29.7057 100.561 29.9184C100.379 30.121 100.237 30.3743 100.146 30.6782C100.044 30.972 100.004 31.3064 100.004 31.6812C100.004 32.0662 100.054 32.4107 100.146 32.6943C100.237 32.978 100.379 33.2211 100.561 33.4136C100.753 33.6061 100.976 33.748 101.26 33.8391C101.534 33.9303 101.858 33.981 102.233 33.981C102.435 33.981 102.628 33.9708 102.81 33.9405C102.992 33.9202 103.144 33.8797 103.286 33.8493C103.428 33.8087 103.54 33.7784 103.631 33.7378C103.722 33.6973 103.773 33.6669 103.793 33.6467C103.813 33.6264 103.833 33.6061 103.843 33.5757C103.854 33.5555 103.864 33.5251 103.874 33.4947C103.884 33.4643 103.884 33.4136 103.884 33.3731C103.884 33.3225 103.884 33.2617 103.884 33.2009C103.884 33.1198 103.884 33.059 103.874 33.0084C103.874 32.9577 103.864 32.9172 103.843 32.8868C103.833 32.8564 103.813 32.8362 103.793 32.826C103.773 32.8159 103.752 32.8058 103.722 32.8058C103.671 32.8058 103.61 32.8159 103.54 32.8463C103.469 32.8767 103.367 32.9071 103.256 32.9476C103.144 32.9881 103.013 33.0185 102.851 33.0489C102.699 33.0793 102.516 33.0894 102.314 33.0894C102.111 33.0894 101.939 33.059 101.797 33.0084C101.655 32.9577 101.534 32.8767 101.442 32.7754C101.351 32.6741 101.28 32.5525 101.24 32.4107C101.199 32.2688 101.179 32.1067 101.179 31.9244H103.712C103.823 31.9244 103.914 31.894 103.975 31.8231C104.036 31.7521 104.066 31.6508 104.066 31.509V31.3165C104.066 31.0227 104.026 30.7492 103.955 30.506C103.904 30.2527 103.783 30.04 103.621 29.8576ZM101.199 31.1645C101.209 31.0227 101.23 30.8809 101.27 30.7492C101.311 30.6175 101.361 30.506 101.442 30.4148C101.513 30.3237 101.604 30.2426 101.716 30.1919C101.827 30.1413 101.959 30.1109 102.101 30.1109C102.395 30.1109 102.618 30.2021 102.759 30.3946C102.901 30.5871 102.962 30.8403 102.952 31.1747H101.199V31.1645Z" fill="white"/>
<path fill-rule="evenodd" clip-rule="evenodd" d="M98.9505 29.4015C98.91 29.3812 98.8492 29.3711 98.7783 29.3711C98.7073 29.361 98.606 29.361 98.4844 29.361C98.373 29.361 98.2818 29.361 98.2109 29.3711C98.14 29.3812 98.0792 29.3914 98.0286 29.4015C97.9779 29.4217 97.9475 29.4319 97.9374 29.4623C97.9171 29.4825 97.907 29.5129 97.907 29.5433V33.7072C97.907 33.7376 97.9171 33.768 97.9374 33.7882C97.9576 33.8085 97.988 33.8288 98.0286 33.849C98.0691 33.8693 98.1299 33.8794 98.2109 33.8794C98.2818 33.8896 98.373 33.8896 98.4844 33.8896C98.606 33.8896 98.6972 33.8896 98.7783 33.8794C98.8492 33.8693 98.91 33.8592 98.9505 33.849C98.991 33.8389 99.0214 33.8186 99.0417 33.7882C99.0619 33.768 99.0721 33.7376 99.0721 33.7072V29.5433C99.0721 29.5129 99.0619 29.4825 99.0417 29.4623C99.0214 29.4319 98.991 29.4116 98.9505 29.4015Z" fill="white"/>
<path fill-rule="evenodd" clip-rule="evenodd" d="M132.747 29.4015C132.707 29.3812 132.646 29.3711 132.575 29.3711C132.504 29.361 132.403 29.361 132.281 29.361C132.17 29.361 132.079 29.361 132.008 29.3711C131.937 29.3812 131.876 29.3914 131.825 29.4015C131.775 29.4217 131.744 29.4319 131.734 29.4623C131.714 29.4825 131.704 29.5129 131.704 29.5433V33.7072C131.704 33.7376 131.714 33.768 131.734 33.7882C131.755 33.8085 131.785 33.8288 131.825 33.849C131.866 33.8693 131.927 33.8794 132.008 33.8794C132.079 33.8896 132.17 33.8896 132.281 33.8896C132.403 33.8896 132.494 33.8896 132.575 33.8794C132.646 33.8693 132.707 33.8592 132.747 33.849C132.788 33.8389 132.818 33.8186 132.839 33.7882C132.859 33.768 132.869 33.7376 132.869 33.7072V29.5433C132.869 29.5129 132.859 29.4825 132.839 29.4623C132.818 29.4319 132.798 29.4116 132.747 29.4015Z" fill="white"/>
<path fill-rule="evenodd" clip-rule="evenodd" d="M92.1622 29.4015C92.1217 29.3812 92.0609 29.3711 91.9798 29.3711C91.9089 29.361 91.8076 29.361 91.6962 29.361C91.5847 29.361 91.4834 29.361 91.4125 29.3711C91.3314 29.3812 91.2808 29.3914 91.2301 29.4015C91.1896 29.4217 91.1592 29.4319 91.1389 29.4623C91.1187 29.4825 91.1085 29.5129 91.1085 29.5433V31.1035H89.4268V29.5433C89.4268 29.5129 89.4167 29.4825 89.3964 29.4623C89.3761 29.442 89.3457 29.4217 89.3052 29.4015C89.2546 29.3812 89.2039 29.3711 89.1229 29.3711C89.0519 29.361 88.9506 29.361 88.8392 29.361C88.7278 29.361 88.6264 29.361 88.5555 29.3711C88.4846 29.3812 88.4238 29.3914 88.3732 29.4015C88.3225 29.4217 88.2921 29.4319 88.282 29.4623C88.2617 29.4825 88.2516 29.5129 88.2516 29.5433V33.7072C88.2516 33.7376 88.2617 33.768 88.282 33.7882C88.3022 33.8085 88.3326 33.8288 88.3732 33.849C88.4137 33.8693 88.4745 33.8794 88.5555 33.8794C88.6264 33.8896 88.7278 33.8896 88.8392 33.8896C88.9506 33.8896 89.0519 33.8896 89.1229 33.8794C89.1938 33.8693 89.2546 33.8592 89.3052 33.849C89.3457 33.8389 89.3863 33.8186 89.3964 33.7882C89.4167 33.768 89.4268 33.7376 89.4268 33.7072V32.066H91.1085V33.7072C91.1085 33.7376 91.1187 33.768 91.1389 33.7882C91.1592 33.8085 91.1896 33.8288 91.2301 33.849C91.2707 33.8693 91.3314 33.8794 91.4125 33.8794C91.4935 33.8896 91.5847 33.8896 91.6962 33.8896C91.8076 33.8896 91.8988 33.8896 91.9798 33.8794C92.0609 33.8693 92.1217 33.8592 92.1622 33.849C92.2027 33.8389 92.2331 33.8186 92.2534 33.7882C92.2736 33.768 92.2838 33.7376 92.2838 33.7072V29.5433C92.2838 29.5129 92.2736 29.4825 92.2534 29.4623C92.2331 29.4319 92.2027 29.4116 92.1622 29.4015Z" fill="white"/>
<path fill-rule="evenodd" clip-rule="evenodd" d="M110.804 29.3811H107.531C107.42 29.3811 107.339 29.4115 107.288 29.4824C107.238 29.5432 107.207 29.6445 107.207 29.7661V33.7071C107.207 33.7375 107.217 33.7679 107.238 33.7881C107.258 33.8084 107.288 33.8287 107.329 33.8489C107.369 33.8692 107.43 33.8793 107.511 33.8793C107.582 33.8894 107.683 33.8894 107.795 33.8894C107.906 33.8894 108.008 33.8894 108.079 33.8793C108.149 33.8692 108.21 33.859 108.261 33.8489C108.301 33.8388 108.342 33.8185 108.362 33.7881C108.382 33.7679 108.393 33.7375 108.393 33.7071V30.3537H109.963V33.7071C109.963 33.7375 109.973 33.7679 109.993 33.7881C110.014 33.8084 110.044 33.8287 110.085 33.8489C110.135 33.8692 110.196 33.8793 110.267 33.8793C110.338 33.8894 110.439 33.8894 110.551 33.8894C110.662 33.8894 110.763 33.8894 110.834 33.8793C110.905 33.8692 110.966 33.859 111.017 33.8489C111.067 33.8388 111.098 33.8185 111.108 33.7881C111.128 33.7679 111.138 33.7375 111.138 33.7071V29.7661C111.138 29.6445 111.108 29.5432 111.057 29.4824C110.986 29.4115 110.905 29.3811 110.804 29.3811Z" fill="white"/>
<path fill-rule="evenodd" clip-rule="evenodd" d="M96.8226 31.1949C96.6605 31.0632 96.4579 30.9619 96.2046 30.891C95.9514 30.8201 95.6576 30.7897 95.3232 30.7897C95.1915 30.7897 95.0699 30.7897 94.9585 30.7998C94.8471 30.8099 94.7458 30.8099 94.6343 30.8201V29.5334C94.6343 29.4726 94.5837 29.422 94.4925 29.3916C94.4013 29.3612 94.2392 29.3409 94.0163 29.3409C93.9049 29.3409 93.8238 29.3409 93.7529 29.3511C93.682 29.3612 93.6212 29.3713 93.5807 29.3815C93.5402 29.4017 93.5098 29.4119 93.4895 29.4423C93.4692 29.4625 93.4591 29.4929 93.4591 29.5233V33.4238C93.4591 33.5757 93.4895 33.6872 93.5604 33.7581C93.6313 33.829 93.7326 33.8797 93.8846 33.8898C93.9657 33.8999 94.067 33.9101 94.1582 33.9101C94.2493 33.9202 94.3506 33.9202 94.4519 33.9303C94.5533 33.9303 94.6546 33.9405 94.7559 33.9405C94.8673 33.9405 94.9686 33.9405 95.07 33.9405C95.4549 33.9405 95.7893 33.8999 96.0628 33.8189C96.3363 33.7378 96.5694 33.6264 96.7517 33.4846C96.9341 33.3427 97.0658 33.1705 97.157 32.9577C97.2481 32.7551 97.2886 32.5322 97.2886 32.279C97.2886 32.0459 97.2481 31.8332 97.1671 31.6508C97.0962 31.4887 96.9847 31.3266 96.8226 31.1949ZM95.8804 32.8868C95.7386 33.0084 95.5056 33.0692 95.2016 33.0692C95.0902 33.0692 94.9889 33.0692 94.8977 33.059C94.8167 33.0489 94.7255 33.0489 94.6343 33.0388V31.7015C94.7154 31.6914 94.7964 31.6914 94.8876 31.6812C94.9788 31.6812 95.0699 31.6711 95.1814 31.6711C95.3536 31.6711 95.4954 31.6914 95.617 31.7217C95.7386 31.7521 95.8298 31.8028 95.9007 31.8636C95.9716 31.9244 96.0223 31.9953 96.0628 32.0865C96.0932 32.1675 96.1134 32.2688 96.1134 32.3803C96.1033 32.593 96.0324 32.7652 95.8804 32.8868Z" fill="white"/>
<path fill-rule="evenodd" clip-rule="evenodd" d="M86.9956 31.1949C86.8335 31.0632 86.6207 30.9619 86.3573 30.891C86.1041 30.8201 85.79 30.7897 85.4455 30.7897C85.3138 30.7897 85.1923 30.7897 85.0606 30.7998C84.939 30.81 84.8174 30.81 84.7161 30.8201V29.5334C84.7161 29.503 84.706 29.4726 84.6857 29.4524C84.6654 29.4321 84.6351 29.4119 84.5844 29.3916C84.5439 29.3713 84.4831 29.3612 84.402 29.3612C84.3311 29.3511 84.2298 29.3511 84.1184 29.3511C84.0069 29.3511 83.9157 29.3511 83.8448 29.3612C83.7739 29.3713 83.7131 29.3815 83.6625 29.3916C83.6118 29.4119 83.5814 29.422 83.5713 29.4524C83.551 29.4726 83.5409 29.503 83.5409 29.5334V33.4238C83.5409 33.5757 83.5713 33.6872 83.6422 33.7581C83.7131 33.829 83.8144 33.8797 83.9664 33.8898C84.0474 33.8999 84.1488 33.9101 84.2501 33.9101C84.3514 33.9202 84.4527 33.9202 84.5641 33.9303C84.6654 33.9303 84.7769 33.9405 84.8883 33.9405C84.9998 33.9405 85.1011 33.9405 85.2024 33.9405C85.5975 33.9405 85.9318 33.8999 86.2155 33.8189C86.4992 33.7378 86.7423 33.6264 86.9348 33.4846C87.1273 33.3427 87.2691 33.1705 87.3603 32.9577C87.4515 32.7551 87.5021 32.5322 87.5021 32.279C87.5021 32.0459 87.4616 31.8332 87.3806 31.6508C87.2793 31.4887 87.1577 31.3266 86.9956 31.1949ZM86.0331 32.8868C85.8812 33.0084 85.6482 33.0692 85.3341 33.0692C85.2226 33.0692 85.1112 33.0692 85.0099 33.0591C84.9086 33.0489 84.8174 33.0489 84.7262 33.0388V31.7015C84.8073 31.6914 84.8985 31.6914 84.9998 31.6812C85.1011 31.6812 85.2125 31.6711 85.3138 31.6711C85.4861 31.6711 85.638 31.6914 85.7495 31.7218C85.871 31.7521 85.9622 31.8028 86.0433 31.8636C86.1243 31.9244 86.175 31.9953 86.2054 32.0865C86.2358 32.1675 86.256 32.2688 86.256 32.3803C86.256 32.593 86.175 32.7653 86.0331 32.8868Z" fill="white"/>
<path fill-rule="evenodd" clip-rule="evenodd" d="M130.62 31.1949C130.458 31.0632 130.256 30.9619 130.002 30.891C129.749 30.8201 129.455 30.7897 129.121 30.7897C128.989 30.7897 128.868 30.7897 128.756 30.7998C128.645 30.8099 128.543 30.8099 128.432 30.8201V29.5334C128.432 29.4726 128.381 29.422 128.29 29.3916C128.199 29.3612 128.037 29.3409 127.814 29.3409C127.702 29.3409 127.621 29.3409 127.551 29.3511C127.48 29.3612 127.419 29.3713 127.378 29.3815C127.338 29.4017 127.307 29.4119 127.287 29.4423C127.267 29.4625 127.257 29.4929 127.257 29.5233V33.4238C127.257 33.5757 127.287 33.6872 127.358 33.7581C127.429 33.829 127.53 33.8797 127.682 33.8898C127.763 33.8999 127.865 33.9101 127.956 33.9101C128.047 33.9202 128.148 33.9202 128.25 33.9303C128.351 33.9303 128.452 33.9405 128.553 33.9405C128.655 33.9405 128.766 33.9405 128.868 33.9405C129.253 33.9405 129.587 33.8999 129.86 33.8189C130.134 33.7378 130.367 33.6264 130.549 33.4846C130.732 33.3427 130.863 33.1705 130.955 32.9577C131.046 32.7551 131.086 32.5322 131.086 32.279C131.086 32.0459 131.046 31.8332 130.965 31.6508C130.904 31.4887 130.782 31.3266 130.62 31.1949ZM129.688 32.8868C129.546 33.0084 129.313 33.0692 129.009 33.0692C128.898 33.0692 128.797 33.0692 128.705 33.059C128.624 33.0489 128.533 33.0489 128.442 33.0388V31.7015C128.523 31.6914 128.604 31.6914 128.695 31.6812C128.787 31.6812 128.878 31.6711 128.989 31.6711C129.161 31.6711 129.303 31.6914 129.425 31.7217C129.546 31.7521 129.638 31.8028 129.708 31.8636C129.779 31.9244 129.83 31.9953 129.871 32.0865C129.901 32.1675 129.921 32.2688 129.921 32.3803C129.901 32.593 129.83 32.7652 129.688 32.8868Z" fill="white"/>
<path fill-rule="evenodd" clip-rule="evenodd" d="M115.97 29.8673C115.788 29.6748 115.565 29.5228 115.292 29.4215C115.018 29.3202 114.694 29.2695 114.319 29.2695C113.934 29.2695 113.6 29.3303 113.316 29.4418C113.032 29.5532 112.799 29.7153 112.607 29.9281C112.414 30.1408 112.272 30.3941 112.181 30.6879C112.09 30.9817 112.039 31.3059 112.039 31.6605C112.039 32.0252 112.08 32.3595 112.171 32.6432C112.262 32.9269 112.394 33.17 112.576 33.3625C112.759 33.555 112.982 33.7069 113.255 33.8083C113.529 33.9096 113.853 33.9602 114.218 33.9602C114.603 33.9602 114.937 33.8994 115.221 33.788C115.504 33.6766 115.747 33.5145 115.93 33.3017C116.122 33.089 116.264 32.8357 116.355 32.5419C116.446 32.2481 116.497 31.9239 116.497 31.5693C116.497 31.2046 116.457 30.8702 116.365 30.5866C116.284 30.313 116.153 30.0699 115.97 29.8673ZM115.231 32.2177C115.19 32.3899 115.129 32.5419 115.048 32.6634C114.967 32.785 114.856 32.8762 114.724 32.937C114.592 32.9978 114.44 33.0383 114.258 33.0383C114.066 33.0383 113.904 33.0079 113.772 32.937C113.64 32.8661 113.539 32.7648 113.458 32.6432C113.377 32.5115 113.326 32.3595 113.296 32.1974C113.265 32.0252 113.245 31.8327 113.245 31.6301C113.245 31.4072 113.265 31.2147 113.306 31.0425C113.346 30.8702 113.407 30.7183 113.498 30.5967C113.579 30.4751 113.691 30.3839 113.822 30.313C113.954 30.2522 114.106 30.2219 114.278 30.2219C114.471 30.2219 114.633 30.2624 114.765 30.3333C114.896 30.4042 114.998 30.5055 115.079 30.6271C115.16 30.7588 115.21 30.9006 115.241 31.0729C115.271 31.2451 115.292 31.4376 115.292 31.6402C115.292 31.8428 115.271 32.0454 115.231 32.2177Z" fill="white"/>
<path fill-rule="evenodd" clip-rule="evenodd" d="M121.309 33.6464C121.309 33.6262 121.299 33.5958 121.279 33.5654C121.269 33.535 121.249 33.5046 121.238 33.4641L120.833 32.532C120.762 32.38 120.691 32.2483 120.62 32.1369C120.55 32.0254 120.479 31.9343 120.408 31.8633C120.327 31.7924 120.246 31.7316 120.165 31.681C120.084 31.6303 119.992 31.5898 119.891 31.5493V31.5391C119.962 31.5088 120.033 31.4784 120.114 31.4378C120.195 31.3973 120.266 31.3365 120.347 31.2656C120.428 31.1947 120.499 31.1035 120.57 30.9921C120.641 30.8806 120.712 30.7489 120.772 30.5868L121.107 29.7966C121.137 29.7257 121.157 29.6649 121.168 29.6244C121.178 29.5838 121.188 29.5433 121.188 29.5129C121.188 29.4825 121.178 29.4623 121.168 29.4521C121.157 29.4319 121.127 29.4217 121.087 29.4116C121.046 29.4015 120.985 29.3914 120.914 29.3812C120.843 29.3711 120.752 29.3711 120.631 29.3711C120.499 29.3711 120.398 29.3711 120.317 29.3812C120.236 29.3914 120.175 29.4015 120.134 29.4116C120.084 29.4217 120.053 29.442 120.033 29.4623C120.013 29.4825 119.992 29.5129 119.982 29.5433L119.638 30.445C119.587 30.5767 119.536 30.6881 119.486 30.7793C119.435 30.8705 119.374 30.9414 119.303 30.9921C119.243 31.0427 119.172 31.0832 119.091 31.1035C119.01 31.1238 118.929 31.1339 118.827 31.1339H118.584V29.5129C118.584 29.4927 118.574 29.4724 118.554 29.4521C118.533 29.4319 118.493 29.4116 118.452 29.4015C118.402 29.3914 118.341 29.3711 118.27 29.3711C118.199 29.361 118.108 29.361 117.997 29.361C117.885 29.361 117.794 29.361 117.723 29.3711C117.652 29.3812 117.591 29.3914 117.541 29.4015C117.49 29.4116 117.46 29.4319 117.439 29.4521C117.419 29.4724 117.409 29.4927 117.409 29.5129V33.7275C117.409 33.7477 117.419 33.768 117.439 33.7882C117.46 33.8085 117.49 33.8288 117.541 33.8389C117.591 33.8592 117.652 33.8693 117.723 33.8693C117.794 33.8794 117.885 33.8794 117.997 33.8794C118.098 33.8794 118.189 33.8794 118.27 33.8693C118.341 33.8592 118.402 33.849 118.452 33.8389C118.503 33.8288 118.533 33.8085 118.554 33.7882C118.574 33.768 118.584 33.7477 118.584 33.7275V32.0254H118.827C118.939 32.0254 119.03 32.0356 119.111 32.0558C119.192 32.0761 119.273 32.1166 119.334 32.1673C119.395 32.2179 119.455 32.2888 119.516 32.38C119.567 32.4712 119.618 32.5826 119.668 32.7144L120.053 33.7072C120.063 33.7376 120.084 33.768 120.104 33.7882C120.124 33.8085 120.165 33.8288 120.215 33.8389C120.266 33.849 120.327 33.8592 120.418 33.8693C120.499 33.8794 120.61 33.8794 120.742 33.8794C120.853 33.8794 120.955 33.8794 121.026 33.8693C121.107 33.8592 121.157 33.849 121.208 33.8389C121.249 33.8288 121.279 33.8085 121.299 33.7984C121.32 33.7781 121.33 33.7579 121.33 33.7376C121.33 33.7275 121.33 33.7072 121.33 33.6971C121.32 33.6971 121.32 33.6768 121.309 33.6464Z" fill="white"/>
</svg>
