<svg width="24" height="25" viewBox="0 0 24 25" fill="none" xmlns="http://www.w3.org/2000/svg">
<g clip-path="url(#clip0_1365_340628)">
<path d="M19.3121 7.28309C18.7511 6.64205 17.9899 6.2814 17.1485 6.2814H15.5859V4.75892C15.5859 4.27812 15.1852 3.87743 14.7044 3.87743H14.3838V3.11618H16.3872C17.0683 3.11618 17.5891 2.59534 17.5891 1.91419C17.5891 1.23305 17.0684 0.712158 16.3872 0.712158H10.7378C10.0967 0.712158 9.57583 1.233 9.57583 1.8741V3.87743H9.25528C8.77449 3.87743 8.37379 4.27807 8.37379 4.75892V6.28145H6.85126C6.00987 6.28145 5.20853 6.64205 4.68763 7.28314C4.16679 7.92423 3.92634 8.72552 4.04654 9.56696L4.70582 13.7217L4.68759 13.7339L6.17007 22.9493C6.33032 23.991 7.17176 24.7122 8.2135 24.7122H15.7461C16.2995 24.7122 16.7964 24.5087 17.1706 24.1617C17.2147 24.1209 17.257 24.078 17.2975 24.0334C17.3381 23.9887 17.3768 23.9421 17.4136 23.8937C17.4504 23.8453 17.4853 23.7952 17.5182 23.7433C17.5346 23.7173 17.5505 23.691 17.5659 23.6642C17.6893 23.4501 17.7794 23.2097 17.8295 22.9493L17.8335 22.9241L19.312 13.6137L19.311 13.6134L19.9531 9.56696C20.0734 8.76557 19.8329 7.92418 19.3121 7.28309ZM17.0684 7.08279C17.6693 7.08279 18.2303 7.36324 18.6309 7.80398C19.0316 8.24473 19.1919 8.84572 19.1117 9.44672L18.4421 13.6663C17.1679 14.7306 15.1823 14.9606 13.5825 14.3561V7.08279C14.4814 7.08279 15.0904 7.08279 15.5858 7.08279C15.9524 7.08279 17.0684 7.08279 17.0684 7.08279ZM12.2603 13.5736C11.9323 13.2915 11.5674 13.0565 11.1785 12.8668V7.08279C11.9622 7.08279 12.0014 7.08279 12.7812 7.08279V13.961C12.5973 13.8456 12.4227 13.7166 12.2603 13.5736ZM10.3772 1.83405C10.3772 1.6337 10.5374 1.47345 10.7378 1.47345H16.3872C16.6276 1.47345 16.7879 1.6337 16.7879 1.8741C16.7879 2.11449 16.6276 2.27474 16.3872 2.27474H13.5825V3.87743H10.3772V1.83405ZM9.17518 4.75892C9.17518 4.71886 9.21523 4.67877 9.25533 4.67877H9.57588H14.3839H14.7044C14.7445 4.67877 14.7846 4.71882 14.7846 4.75892V6.28145H9.17518V4.75892ZM5.24862 7.80398C5.64927 7.36324 6.21022 7.08279 6.81121 7.08279C6.81121 7.08279 7.97024 7.08279 8.37379 7.08279C8.8912 7.08279 9.46847 7.08279 10.3771 7.08279V12.5508C8.70928 12.0353 6.77961 12.2627 5.36854 13.2327L4.76778 9.44672C4.68768 8.84572 4.84798 8.24473 5.24862 7.80398ZM8.25364 23.9108C7.61255 23.9108 7.05166 23.4701 6.97151 22.829L5.56917 14.0945C6.84868 13.0334 8.85726 12.8234 10.4782 13.4638L10.6176 13.5335C11.0183 13.6938 11.3789 13.9342 11.6994 14.2147C12.0945 14.5308 12.5288 14.8075 13.0018 15.0073C13.0207 15.0156 13.0397 15.0237 13.0587 15.0319L13.5825 15.2564V15.2252C15.1171 15.707 16.8801 15.5472 18.2689 14.7585L16.9882 22.8291C16.868 23.4702 16.3471 23.9109 15.7061 23.9109H8.25364V23.9108Z" fill="black"/>
</g>
<defs>
<clipPath id="clip0_1365_340628">
<rect width="24" height="24" fill="white" transform="translate(0 0.712158)"/>
</clipPath>
</defs>
</svg>
