<svg width="24" height="24" viewBox="0 0 24 24" fill="none" xmlns="http://www.w3.org/2000/svg">
<path d="M10.3999 0.000244141V24.0002H23.9999V0.000244141H10.3999ZM23.1999 13.4002V23.2002H11.1999V0.800244H15.9999V1.60024H15.5999C14.4971 1.60024 13.5999 2.49744 13.5999 3.60024C13.5999 3.82144 13.7791 4.00024 13.9999 4.00024H18.7999C19.0207 4.00024 19.1999 3.82144 19.1999 3.60024C19.1999 2.49744 18.3027 1.60024 17.1999 1.60024H16.7999V0.800244H23.1999V13.4002ZM17.1999 2.40024C17.7215 2.40024 18.1663 2.73464 18.3315 3.20024H14.4687C14.6335 2.73464 15.0783 2.40024 15.5999 2.40024H17.1999Z" fill="black"/>
<path d="M13.2 10.4001C12.9792 10.4001 12.8 10.5789 12.8 10.8001V11.2001C12.8 11.4213 12.9792 11.6001 13.2 11.6001C13.4208 11.6001 13.6 11.4213 13.6 11.2001V10.8001C13.6 10.5789 13.4208 10.4001 13.2 10.4001Z" fill="black"/>
<path d="M13.2 8.80029C12.9792 8.80029 12.8 8.97909 12.8 9.20029V9.60029C12.8 9.82149 12.9792 10.0003 13.2 10.0003C13.4208 10.0003 13.6 9.82149 13.6 9.60029V9.20029C13.6 8.97909 13.4208 8.80029 13.2 8.80029Z" fill="black"/>
<path d="M13.2 12.0002C12.9792 12.0002 12.8 12.179 12.8 12.4002V12.8002C12.8 13.0214 12.9792 13.2002 13.2 13.2002C13.4208 13.2002 13.6 13.0214 13.6 12.8002V12.4002C13.6 12.179 13.4208 12.0002 13.2 12.0002Z" fill="black"/>
<path d="M13.2 5.60034C12.9792 5.60034 12.8 5.77914 12.8 6.00034V6.40034C12.8 6.62154 12.9792 6.80034 13.2 6.80034C13.4208 6.80034 13.6 6.62154 13.6 6.40034V6.00034C13.6 5.77914 13.4208 5.60034 13.2 5.60034Z" fill="black"/>
<path d="M13.2 7.2002C12.9792 7.2002 12.8 7.379 12.8 7.6002V8.0002C12.8 8.2214 12.9792 8.4002 13.2 8.4002C13.4208 8.4002 13.6 8.2214 13.6 8.0002V7.6002C13.6 7.379 13.4208 7.2002 13.2 7.2002Z" fill="black"/>
<path d="M13.2 18.4001C12.9792 18.4001 12.8 18.5789 12.8 18.8001V19.2001C12.8 19.4213 12.9792 19.6001 13.2 19.6001C13.4208 19.6001 13.6 19.4213 13.6 19.2001V18.8001C13.6 18.5789 13.4208 18.4001 13.2 18.4001Z" fill="black"/>
<path d="M13.2 20.0002C12.9792 20.0002 12.8 20.179 12.8 20.4002V20.8002C12.8 21.0214 12.9792 21.2002 13.2 21.2002C13.4208 21.2002 13.6 21.0214 13.6 20.8002V20.4002C13.6 20.179 13.4208 20.0002 13.2 20.0002Z" fill="black"/>
<path d="M13.2 13.6003C12.9792 13.6003 12.8 13.7791 12.8 14.0003V14.4003C12.8 14.6215 12.9792 14.8003 13.2 14.8003C13.4208 14.8003 13.6 14.6215 13.6 14.4003V14.0003C13.6 13.7791 13.4208 13.6003 13.2 13.6003Z" fill="black"/>
<path d="M13.2 16.8003C12.9792 16.8003 12.8 16.9791 12.8 17.2003V17.6003C12.8 17.8215 12.9792 18.0003 13.2 18.0003C13.4208 18.0003 13.6 17.8215 13.6 17.6003V17.2003C13.6 16.9791 13.4208 16.8003 13.2 16.8003Z" fill="black"/>
<path d="M13.2 15.2002C12.9792 15.2002 12.8 15.379 12.8 15.6002V16.0002C12.8 16.2214 12.9792 16.4002 13.2 16.4002C13.4208 16.4002 13.6 16.2214 13.6 16.0002V15.6002C13.6 15.379 13.4208 15.2002 13.2 15.2002Z" fill="black"/>
<path d="M14.7999 12.0002C14.5791 12.0002 14.3999 12.179 14.3999 12.4002V12.8002C14.3999 13.0214 14.5791 13.2002 14.7999 13.2002C15.0207 13.2002 15.1999 13.0214 15.1999 12.8002V12.4002C15.1999 12.179 15.0207 12.0002 14.7999 12.0002Z" fill="black"/>
<path d="M14.7999 10.4001C14.5791 10.4001 14.3999 10.5789 14.3999 10.8001V11.2001C14.3999 11.4213 14.5791 11.6001 14.7999 11.6001C15.0207 11.6001 15.1999 11.4213 15.1999 11.2001V10.8001C15.1999 10.5789 15.0207 10.4001 14.7999 10.4001Z" fill="black"/>
<path d="M14.7999 8.80029C14.5791 8.80029 14.3999 8.97909 14.3999 9.20029V9.60029C14.3999 9.82149 14.5791 10.0003 14.7999 10.0003C15.0207 10.0003 15.1999 9.82149 15.1999 9.60029V9.20029C15.1999 8.97909 15.0207 8.80029 14.7999 8.80029Z" fill="black"/>
<path d="M14.7999 7.2002C14.5791 7.2002 14.3999 7.379 14.3999 7.6002V8.0002C14.3999 8.2214 14.5791 8.4002 14.7999 8.4002C15.0207 8.4002 15.1999 8.2214 15.1999 8.0002V7.6002C15.1999 7.379 15.0207 7.2002 14.7999 7.2002Z" fill="black"/>
<path d="M14.7999 5.60034C14.5791 5.60034 14.3999 5.77914 14.3999 6.00034V6.40034C14.3999 6.62154 14.5791 6.80034 14.7999 6.80034C15.0207 6.80034 15.1999 6.62154 15.1999 6.40034V6.00034C15.1999 5.77914 15.0207 5.60034 14.7999 5.60034Z" fill="black"/>
<path d="M14.7999 18.4001C14.5791 18.4001 14.3999 18.5789 14.3999 18.8001V19.2001C14.3999 19.4213 14.5791 19.6001 14.7999 19.6001C15.0207 19.6001 15.1999 19.4213 15.1999 19.2001V18.8001C15.1999 18.5789 15.0207 18.4001 14.7999 18.4001Z" fill="black"/>
<path d="M14.7999 20.0002C14.5791 20.0002 14.3999 20.179 14.3999 20.4002V20.8002C14.3999 21.0214 14.5791 21.2002 14.7999 21.2002C15.0207 21.2002 15.1999 21.0214 15.1999 20.8002V20.4002C15.1999 20.179 15.0207 20.0002 14.7999 20.0002Z" fill="black"/>
<path d="M14.7999 16.8003C14.5791 16.8003 14.3999 16.9791 14.3999 17.2003V17.6003C14.3999 17.8215 14.5791 18.0003 14.7999 18.0003C15.0207 18.0003 15.1999 17.8215 15.1999 17.6003V17.2003C15.1999 16.9791 15.0207 16.8003 14.7999 16.8003Z" fill="black"/>
<path d="M14.7999 13.6003C14.5791 13.6003 14.3999 13.7791 14.3999 14.0003V14.4003C14.3999 14.6215 14.5791 14.8003 14.7999 14.8003C15.0207 14.8003 15.1999 14.6215 15.1999 14.4003V14.0003C15.1999 13.7791 15.0207 13.6003 14.7999 13.6003Z" fill="black"/>
<path d="M14.7999 15.2002C14.5791 15.2002 14.3999 15.379 14.3999 15.6002V16.0002C14.3999 16.2214 14.5791 16.4002 14.7999 16.4002C15.0207 16.4002 15.1999 16.2214 15.1999 16.0002V15.6002C15.1999 15.379 15.0207 15.2002 14.7999 15.2002Z" fill="black"/>
<path d="M16.4 18.4001C16.1792 18.4001 16 18.5789 16 18.8001V19.2001C16 19.4213 16.1792 19.6001 16.4 19.6001C16.6208 19.6001 16.8 19.4213 16.8 19.2001V18.8001C16.8 18.5789 16.6208 18.4001 16.4 18.4001Z" fill="black"/>
<path d="M16.4 8.80029C16.1792 8.80029 16 8.97909 16 9.20029V9.60029C16 9.82149 16.1792 10.0003 16.4 10.0003C16.6208 10.0003 16.8 9.82149 16.8 9.60029V9.20029C16.8 8.97909 16.6208 8.80029 16.4 8.80029Z" fill="black"/>
<path d="M16.4 7.2002C16.1792 7.2002 16 7.379 16 7.6002V8.0002C16 8.2214 16.1792 8.4002 16.4 8.4002C16.6208 8.4002 16.8 8.2214 16.8 8.0002V7.6002C16.8 7.379 16.6208 7.2002 16.4 7.2002Z" fill="black"/>
<path d="M16.4 10.4001C16.1792 10.4001 16 10.5789 16 10.8001V11.2001C16 11.4213 16.1792 11.6001 16.4 11.6001C16.6208 11.6001 16.8 11.4213 16.8 11.2001V10.8001C16.8 10.5789 16.6208 10.4001 16.4 10.4001Z" fill="black"/>
<path d="M16.4 5.60034C16.1792 5.60034 16 5.77914 16 6.00034V6.40034C16 6.62154 16.1792 6.80034 16.4 6.80034C16.6208 6.80034 16.8 6.62154 16.8 6.40034V6.00034C16.8 5.77914 16.6208 5.60034 16.4 5.60034Z" fill="black"/>
<path d="M16.4 20.0002C16.1792 20.0002 16 20.179 16 20.4002V20.8002C16 21.0214 16.1792 21.2002 16.4 21.2002C16.6208 21.2002 16.8 21.0214 16.8 20.8002V20.4002C16.8 20.179 16.6208 20.0002 16.4 20.0002Z" fill="black"/>
<path d="M16.4 12.0002C16.1792 12.0002 16 12.179 16 12.4002V12.8002C16 13.0214 16.1792 13.2002 16.4 13.2002C16.6208 13.2002 16.8 13.0214 16.8 12.8002V12.4002C16.8 12.179 16.6208 12.0002 16.4 12.0002Z" fill="black"/>
<path d="M16.4 15.2002C16.1792 15.2002 16 15.379 16 15.6002V16.0002C16 16.2214 16.1792 16.4002 16.4 16.4002C16.6208 16.4002 16.8 16.2214 16.8 16.0002V15.6002C16.8 15.379 16.6208 15.2002 16.4 15.2002Z" fill="black"/>
<path d="M16.4 16.8003C16.1792 16.8003 16 16.9791 16 17.2003V17.6003C16 17.8215 16.1792 18.0003 16.4 18.0003C16.6208 18.0003 16.8 17.8215 16.8 17.6003V17.2003C16.8 16.9791 16.6208 16.8003 16.4 16.8003Z" fill="black"/>
<path d="M16.4 13.6003C16.1792 13.6003 16 13.7791 16 14.0003V14.4003C16 14.6215 16.1792 14.8003 16.4 14.8003C16.6208 14.8003 16.8 14.6215 16.8 14.4003V14.0003C16.8 13.7791 16.6208 13.6003 16.4 13.6003Z" fill="black"/>
<path d="M18.0001 7.2002C17.7793 7.2002 17.6001 7.379 17.6001 7.6002V8.0002C17.6001 8.2214 17.7793 8.4002 18.0001 8.4002C18.2209 8.4002 18.4001 8.2214 18.4001 8.0002V7.6002C18.4001 7.379 18.2209 7.2002 18.0001 7.2002Z" fill="black"/>
<path d="M18.0001 8.80029C17.7793 8.80029 17.6001 8.97909 17.6001 9.20029V9.60029C17.6001 9.82149 17.7793 10.0003 18.0001 10.0003C18.2209 10.0003 18.4001 9.82149 18.4001 9.60029V9.20029C18.4001 8.97909 18.2209 8.80029 18.0001 8.80029Z" fill="black"/>
<path d="M18.0001 5.60034C17.7793 5.60034 17.6001 5.77914 17.6001 6.00034V6.40034C17.6001 6.62154 17.7793 6.80034 18.0001 6.80034C18.2209 6.80034 18.4001 6.62154 18.4001 6.40034V6.00034C18.4001 5.77914 18.2209 5.60034 18.0001 5.60034Z" fill="black"/>
<path d="M18.0001 12.0002C17.7793 12.0002 17.6001 12.179 17.6001 12.4002V12.8002C17.6001 13.0214 17.7793 13.2002 18.0001 13.2002C18.2209 13.2002 18.4001 13.0214 18.4001 12.8002V12.4002C18.4001 12.179 18.2209 12.0002 18.0001 12.0002Z" fill="black"/>
<path d="M18.0001 10.4001C17.7793 10.4001 17.6001 10.5789 17.6001 10.8001V11.2001C17.6001 11.4213 17.7793 11.6001 18.0001 11.6001C18.2209 11.6001 18.4001 11.4213 18.4001 11.2001V10.8001C18.4001 10.5789 18.2209 10.4001 18.0001 10.4001Z" fill="black"/>
<path d="M18.0001 18.4001C17.7793 18.4001 17.6001 18.5789 17.6001 18.8001V19.2001C17.6001 19.4213 17.7793 19.6001 18.0001 19.6001C18.2209 19.6001 18.4001 19.4213 18.4001 19.2001V18.8001C18.4001 18.5789 18.2209 18.4001 18.0001 18.4001Z" fill="black"/>
<path d="M18.0001 16.8003C17.7793 16.8003 17.6001 16.9791 17.6001 17.2003V17.6003C17.6001 17.8215 17.7793 18.0003 18.0001 18.0003C18.2209 18.0003 18.4001 17.8215 18.4001 17.6003V17.2003C18.4001 16.9791 18.2209 16.8003 18.0001 16.8003Z" fill="black"/>
<path d="M18.0001 20.0002C17.7793 20.0002 17.6001 20.179 17.6001 20.4002V20.8002C17.6001 21.0214 17.7793 21.2002 18.0001 21.2002C18.2209 21.2002 18.4001 21.0214 18.4001 20.8002V20.4002C18.4001 20.179 18.2209 20.0002 18.0001 20.0002Z" fill="black"/>
<path d="M18.0001 15.2002C17.7793 15.2002 17.6001 15.379 17.6001 15.6002V16.0002C17.6001 16.2214 17.7793 16.4002 18.0001 16.4002C18.2209 16.4002 18.4001 16.2214 18.4001 16.0002V15.6002C18.4001 15.379 18.2209 15.2002 18.0001 15.2002Z" fill="black"/>
<path d="M18.0001 13.6003C17.7793 13.6003 17.6001 13.7791 17.6001 14.0003V14.4003C17.6001 14.6215 17.7793 14.8003 18.0001 14.8003C18.2209 14.8003 18.4001 14.6215 18.4001 14.4003V14.0003C18.4001 13.7791 18.2209 13.6003 18.0001 13.6003Z" fill="black"/>
<path d="M19.6 15.2002C19.3792 15.2002 19.2 15.379 19.2 15.6002V16.0002C19.2 16.2214 19.3792 16.4002 19.6 16.4002C19.8208 16.4002 20 16.2214 20 16.0002V15.6002C20 15.379 19.8208 15.2002 19.6 15.2002Z" fill="black"/>
<path d="M19.6 13.6003C19.3792 13.6003 19.2 13.7791 19.2 14.0003V14.4003C19.2 14.6215 19.3792 14.8003 19.6 14.8003C19.8208 14.8003 20 14.6215 20 14.4003V14.0003C20 13.7791 19.8208 13.6003 19.6 13.6003Z" fill="black"/>
<path d="M19.6 8.80029C19.3792 8.80029 19.2 8.97909 19.2 9.20029V9.60029C19.2 9.82149 19.3792 10.0003 19.6 10.0003C19.8208 10.0003 20 9.82149 20 9.60029V9.20029C20 8.97909 19.8208 8.80029 19.6 8.80029Z" fill="black"/>
<path d="M19.6 12.0002C19.3792 12.0002 19.2 12.179 19.2 12.4002V12.8002C19.2 13.0214 19.3792 13.2002 19.6 13.2002C19.8208 13.2002 20 13.0214 20 12.8002V12.4002C20 12.179 19.8208 12.0002 19.6 12.0002Z" fill="black"/>
<path d="M19.6 10.4001C19.3792 10.4001 19.2 10.5789 19.2 10.8001V11.2001C19.2 11.4213 19.3792 11.6001 19.6 11.6001C19.8208 11.6001 20 11.4213 20 11.2001V10.8001C20 10.5789 19.8208 10.4001 19.6 10.4001Z" fill="black"/>
<path d="M19.2 6.40034C19.2 6.62154 19.3792 6.80034 19.6 6.80034C19.8208 6.80034 20 6.62154 20 6.40034V6.00034C20 5.77914 19.8208 5.60034 19.6 5.60034C19.3792 5.60034 19.2 5.77914 19.2 6.00034V6.40034Z" fill="black"/>
<path d="M19.6 18.4001C19.3792 18.4001 19.2 18.5789 19.2 18.8001V19.2001C19.2 19.4213 19.3792 19.6001 19.6 19.6001C19.8208 19.6001 20 19.4213 20 19.2001V18.8001C20 18.5789 19.8208 18.4001 19.6 18.4001Z" fill="black"/>
<path d="M19.6 7.2002C19.3792 7.2002 19.2 7.379 19.2 7.6002V8.0002C19.2 8.2214 19.3792 8.4002 19.6 8.4002C19.8208 8.4002 20 8.2214 20 8.0002V7.6002C20 7.379 19.8208 7.2002 19.6 7.2002Z" fill="black"/>
<path d="M19.6 20.0002C19.3792 20.0002 19.2 20.179 19.2 20.4002V20.8002C19.2 21.0214 19.3792 21.2002 19.6 21.2002C19.8208 21.2002 20 21.0214 20 20.8002V20.4002C20 20.179 19.8208 20.0002 19.6 20.0002Z" fill="black"/>
<path d="M19.6 16.8003C19.3792 16.8003 19.2 16.9791 19.2 17.2003V17.6003C19.2 17.8215 19.3792 18.0003 19.6 18.0003C19.8208 18.0003 20 17.8215 20 17.6003V17.2003C20 16.9791 19.8208 16.8003 19.6 16.8003Z" fill="black"/>
<path d="M21.7999 12.0002C21.0279 12.0002 20.3999 12.6282 20.3999 13.4002C20.3999 14.1722 21.0279 14.8002 21.7999 14.8002C22.5719 14.8002 23.1999 14.1722 23.1999 13.4002C23.1999 12.6282 22.5719 12.0002 21.7999 12.0002ZM21.7999 14.0002C21.4691 14.0002 21.1999 13.731 21.1999 13.4002C21.1999 13.0694 21.4691 12.8002 21.7999 12.8002C22.1307 12.8002 22.3999 13.0694 22.3999 13.4002C22.3999 13.731 22.1307 14.0002 21.7999 14.0002Z" fill="black"/>
<path d="M5.5999 18.4001H4.3999V19.2001H5.5999V18.4001Z" fill="black"/>
<path d="M5.5999 21.6003H4.3999V22.4003H5.5999V21.6003Z" fill="black"/>
<path d="M0 10.8002H2.472C2.586 11.0358 2.8256 11.2002 3.1048 11.2002H4V12.0002H1.2V13.6002H0V16.8002V20.0002V20.8002V24.0002H10V20.8002V20.0002V16.8002V13.6002H8.8V12.0002H6V11.2002H6.8952C7.1744 11.2002 7.414 11.0358 7.528 10.8002H10V0.000244141H0V10.8002ZM3.2 10.4002V10.0002H4V10.4002H3.2ZM9.2 23.2002H0.8V20.8002H9.2V23.2002ZM0.8 20.0002V17.6002H9.2V20.0002H0.8ZM9.2 14.4002V16.8002H0.8V14.4002H1.2V14.4238C1.2 15.5134 2.0868 16.4002 3.1764 16.4002H6.8232C7.9132 16.4002 8.8 15.5134 8.8 14.4238V14.4002H9.2ZM8 12.8002V13.6002V14.4238C8 15.0726 7.4724 15.6002 6.8236 15.6002H3.1764C2.5276 15.6002 2 15.0726 2 14.4238V13.6002V12.8002H4H6H8ZM4.8 12.0002V10.4954V10.0002H5.2V10.4954V12.0002H4.8ZM6 10.0002H6.8V10.4002H6V10.0002ZM0.8 0.800244H9.2V10.0002H7.6V9.90504C7.6 9.51624 7.2836 9.20024 6.8952 9.20024H6H5.9048H4.0952H4H3.1048C2.7164 9.20024 2.4 9.51624 2.4 9.90504V10.0002H0.8V0.800244Z" fill="black"/>
<path d="M1.60005 4.0002C1.70245 4.0002 1.80485 3.961 1.88285 3.883L3.48285 2.283C3.63925 2.1266 3.63925 1.8738 3.48285 1.7174C3.32645 1.561 3.07365 1.561 2.91725 1.7174L1.31725 3.3174C1.16085 3.4738 1.16085 3.7266 1.31725 3.883C1.39525 3.961 1.49765 4.0002 1.60005 4.0002Z" fill="black"/>
<path d="M2.68285 4.51745C2.52645 4.36105 2.27365 4.36105 2.11725 4.51745L1.31725 5.31745C1.16085 5.47385 1.16085 5.72665 1.31725 5.88305C1.39525 5.96105 1.49765 6.00025 1.60005 6.00025C1.70245 6.00025 1.80485 5.96105 1.88285 5.88305L2.68285 5.08305C2.83925 4.92665 2.83925 4.67385 2.68285 4.51745Z" fill="black"/>
<path d="M2.91605 3.71622C2.84405 3.79182 2.80005 3.89622 2.80005 4.00022C2.80005 4.10422 2.84405 4.20822 2.91605 4.28422C2.99205 4.35622 3.09605 4.40022 3.20005 4.40022C3.30405 4.40022 3.40805 4.35622 3.48405 4.28422C3.55605 4.20822 3.60005 4.10422 3.60005 4.00022C3.60005 3.89622 3.55605 3.79182 3.48405 3.71622C3.33205 3.56822 3.06405 3.56822 2.91605 3.71622Z" fill="black"/>
<path d="M3.71715 3.483C3.79515 3.561 3.89755 3.6002 3.99995 3.6002C4.10235 3.6002 4.20475 3.561 4.28275 3.483L5.48275 2.283C5.63915 2.1266 5.63915 1.8738 5.48275 1.7174C5.32635 1.561 5.07355 1.561 4.91715 1.7174L3.71715 2.9174C3.56075 3.0738 3.56075 3.3266 3.71715 3.483Z" fill="black"/>
</svg>
