<svg width="24" height="24" viewBox="0 0 24 24" fill="none" xmlns="http://www.w3.org/2000/svg">
<path d="M21.2606 7.12684C21.1966 7.04504 21.0985 6.99718 20.9945 6.99718H17.5206L17.7114 4.8301C17.7197 4.7357 17.6879 4.64209 17.6239 4.57215C17.5599 4.50221 17.4694 4.46242 17.3746 4.46242H14.9407C14.8459 4.46242 14.7555 4.50226 14.6914 4.57215C14.6274 4.64209 14.5956 4.73565 14.604 4.8301L14.7947 6.99718H13.4539V1.45384C13.4539 0.652275 12.8018 0.000244141 12.0003 0.000244141C11.1988 0.000244141 10.5467 0.652322 10.5467 1.45384V6.99718H9.20533L9.39611 4.8301C9.4044 4.7357 9.37267 4.64209 9.30869 4.57215C9.24461 4.50221 9.15419 4.46242 9.05936 4.46242H6.62542C6.53059 4.46242 6.44017 4.50226 6.37609 4.57215C6.31211 4.64209 6.28033 4.73565 6.28867 4.8301L6.47945 6.99718H3.00606C2.90219 6.99718 2.80403 7.04495 2.7399 7.12674C2.67578 7.20854 2.65295 7.31532 2.67779 7.41624C3.09508 9.1067 3.96953 10.655 5.20665 11.8937C6.37431 13.0628 7.81811 13.9086 9.39681 14.3521L8.46934 23.6285C8.45987 23.7236 8.491 23.8182 8.55503 23.889C8.61915 23.9598 8.71014 24.0002 8.80567 24.0002H15.1941C15.2896 24.0002 15.3807 23.9598 15.4448 23.889C15.5088 23.8182 15.54 23.7236 15.5305 23.6285L14.603 14.3523C15.8284 14.0094 16.9579 13.4325 17.9638 12.6339C19.6239 11.3166 20.8167 9.46356 21.3225 7.41624C21.3476 7.31546 21.3248 7.20868 21.2606 7.12684ZM17.0055 5.13849L16.8419 6.99718H15.4734L15.3098 5.13849H17.0055ZM11.2228 1.45384C11.2228 1.02512 11.5716 0.676322 12.0003 0.676322C12.429 0.676322 12.7778 1.02512 12.7778 1.45384V3.78578H11.2228V1.45384H11.2228ZM11.2228 4.46185H12.7778V6.99718H11.2228V4.46185ZM8.69022 5.13849L8.52662 6.99718H7.15806L6.99447 5.13849H8.69022ZM14.8208 23.3242H9.17931L10.0602 14.5129C10.6944 14.6433 11.345 14.7102 12.0002 14.7102C12.6553 14.7102 13.3059 14.6433 13.9397 14.5129L14.8208 23.3242ZM17.5436 12.1045C16.537 12.9037 15.3976 13.4645 14.1564 13.7715C13.4571 13.9458 12.7316 14.0342 12.0003 14.0342C11.2685 14.0342 10.543 13.9458 9.84325 13.7714C8.27317 13.3821 6.83528 12.5675 5.68515 11.4159C4.63806 10.3675 3.87048 9.08087 3.44875 7.67331H20.5517C20.0298 9.40909 18.973 10.9702 17.5436 12.1045Z" fill="black"/>
</svg>
