<svg width="24" height="24" viewBox="0 0 24 24" fill="none" xmlns="http://www.w3.org/2000/svg">
<path d="M22.9663 10.3452H4.96552V5.37927C4.96552 3.78228 6.26508 2.48314 7.86206 2.48314H12C12.2287 2.48314 12.4138 2.29785 12.4138 2.06933C12.4138 1.84081 12.2287 1.65552 12 1.65552H7.86206C5.80847 1.65552 4.13794 3.32605 4.13794 5.37927V10.3452H1.03369C0.463922 10.3452 0 10.8093 0 11.3797C0 11.9501 0.463922 12.4142 1.03369 12.4142H1.65516V17.7933C1.65516 19.3897 2.95434 20.6886 4.5518 20.6899L3.80695 21.6831C3.66956 21.866 3.70673 22.1254 3.88978 22.2624C3.96412 22.3183 4.05103 22.3452 4.13747 22.3452C4.26356 22.3452 4.38759 22.288 4.46883 22.1797L5.58614 20.69H18.8275L19.9448 22.1797C20.0261 22.288 20.1501 22.3452 20.2762 22.3452C20.3627 22.3452 20.4495 22.3183 20.5239 22.2624C20.7069 22.1254 20.7441 21.866 20.6067 21.6831L19.8394 20.6601C21.2518 20.467 22.3447 19.2566 22.3447 17.7933V12.4142H22.9662C23.536 12.4142 23.9999 11.9501 23.9999 11.3797C24 10.8093 23.5361 10.3452 22.9663 10.3452ZM21.5172 17.7933C21.5172 18.9343 20.5878 19.8624 19.4454 19.8624H4.55414C3.41217 19.8624 2.48273 18.9342 2.48273 17.7933V12.4142H21.5172V17.7933ZM22.9663 11.5865H21.931H2.06897H1.03369C0.918094 11.5865 0.827578 11.4956 0.827578 11.3796C0.827578 11.2655 0.920109 11.1727 1.03369 11.1727H22.9663C23.0819 11.1727 23.1724 11.2637 23.1724 11.3796C23.1724 11.4938 23.0799 11.5865 22.9663 11.5865Z" fill="black"/>
<path d="M13.6338 4.83486L13.22 3.59347C13.1476 3.37686 12.9153 3.25845 12.6967 3.33181C12.4801 3.40414 12.3629 3.63851 12.4352 3.85531L12.849 5.0967C12.9068 5.27005 13.068 5.37978 13.2414 5.37978C13.2846 5.37978 13.3287 5.37289 13.3723 5.35836C13.5889 5.28603 13.7061 5.05166 13.6338 4.83486Z" fill="black"/>
<path d="M11.3032 3.74554C11.0842 3.67241 10.8522 3.79059 10.7799 4.0072L10.3661 5.24859C10.2938 5.46538 10.411 5.69976 10.6276 5.77209C10.6712 5.78662 10.7153 5.79351 10.7585 5.79351C10.9318 5.79351 11.0931 5.68377 11.1509 5.51043L11.5647 4.26904C11.637 4.05224 11.5198 3.81787 11.3032 3.74554Z" fill="black"/>
<path d="M15.5399 3.38021L14.2985 2.55263C14.1073 2.42556 13.8507 2.47707 13.7247 2.66738C13.5978 2.85751 13.6491 3.11453 13.8394 3.24118L15.0808 4.06876C15.1515 4.11582 15.2311 4.13828 15.3099 4.13828C15.4437 4.13828 15.575 4.07363 15.6546 3.95401C15.7815 3.76388 15.7302 3.50687 15.5399 3.38021Z" fill="black"/>
</svg>
