<svg width="24" height="24" viewBox="0 0 24 24" fill="none" xmlns="http://www.w3.org/2000/svg">
<path d="M14.8316 0.000244141C11.5461 0.000244141 8.85259 2.58188 8.67226 5.82306C5.50159 6.07656 2.99902 8.73765 2.99902 11.9724C2.99902 12.2364 3.2131 12.4504 3.4771 12.4504H14.8595C15.1235 12.4504 15.3376 12.2364 15.3376 11.9724C15.3376 8.72603 12.8172 6.05743 9.63043 5.82034C9.81071 3.10806 12.0745 0.9564 14.8316 0.9564C17.7061 0.9564 20.0447 3.29499 20.0447 6.16951V23.299C20.0447 23.563 20.2588 23.7771 20.5228 23.7771C20.7868 23.7771 21.0009 23.563 21.0009 23.299V6.16956C21.0009 2.76779 18.2333 0.000244141 14.8316 0.000244141ZM14.3596 11.4943H3.97698C4.21923 8.84307 6.45507 6.75924 9.16834 6.75924C11.8816 6.75924 14.1174 8.84303 14.3596 11.4943Z" fill="black"/>
<path d="M4.64873 13.3354C4.38473 13.3354 4.17065 13.5495 4.17065 13.8135V17.5519C4.17065 17.8159 4.38473 18.03 4.64873 18.03C4.91273 18.03 5.12681 17.8159 5.12681 17.5519V13.8135C5.12686 13.5495 4.91283 13.3354 4.64873 13.3354Z" fill="black"/>
<path d="M4.64873 19.25C4.38473 19.25 4.17065 19.464 4.17065 19.7281V23.4665C4.17065 23.7305 4.38473 23.9445 4.64873 23.9445C4.91273 23.9445 5.12681 23.7305 5.12681 23.4665V19.7281C5.12686 19.464 4.91283 19.25 4.64873 19.25Z" fill="black"/>
<path d="M7.88506 14.1724C7.62106 14.1724 7.40698 14.3864 7.40698 14.6504V18.8352C7.40698 19.0992 7.62106 19.3132 7.88506 19.3132C8.14906 19.3132 8.36314 19.0992 8.36314 18.8352V14.6504C8.36314 14.3864 8.14906 14.1724 7.88506 14.1724Z" fill="black"/>
<path d="M7.88506 20.6448C7.62106 20.6448 7.40698 20.8588 7.40698 21.1229V22.4062C7.40698 22.6702 7.62106 22.8843 7.88506 22.8843C8.14906 22.8843 8.36314 22.6702 8.36314 22.4062V21.1229C8.36314 20.8588 8.14906 20.6448 7.88506 20.6448Z" fill="black"/>
<path d="M10.5633 14.1724C10.2993 14.1724 10.0852 14.3864 10.0852 14.6504V15.0968C10.0852 15.3608 10.2993 15.5749 10.5633 15.5749C10.8273 15.5749 11.0414 15.3608 11.0414 15.0968V14.6504C11.0414 14.3864 10.8273 14.1724 10.5633 14.1724Z" fill="black"/>
<path d="M10.5633 16.488C10.2993 16.488 10.0852 16.7021 10.0852 16.9661V19.3375C10.0852 19.6015 10.2993 19.8156 10.5633 19.8156C10.8273 19.8156 11.0414 19.6015 11.0414 19.3375V16.9661C11.0414 16.7021 10.8273 16.488 10.5633 16.488Z" fill="black"/>
<path d="M13.2415 13.7261C12.9775 13.7261 12.7634 13.9401 12.7634 14.2042V15.6548C12.7634 15.9189 12.9775 16.1329 13.2415 16.1329C13.5055 16.1329 13.7196 15.9189 13.7196 15.6548V14.2042C13.7196 13.9401 13.5055 13.7261 13.2415 13.7261Z" fill="black"/>
<path d="M13.2415 17.4644C12.9775 17.4644 12.7634 17.6784 12.7634 17.9424V23.5221C12.7634 23.7861 12.9775 24.0001 13.2415 24.0001C13.5055 24.0001 13.7196 23.7861 13.7196 23.5221V17.9424C13.7196 17.6784 13.5055 17.4644 13.2415 17.4644Z" fill="black"/>
</svg>
