<svg width="24" height="24" viewBox="0 0 24 24" fill="none" xmlns="http://www.w3.org/2000/svg">
<path d="M19.7241 12.0002C19.7241 11.3158 19.1672 10.7589 18.4828 10.7589H18.069V4.13818H18.4828C18.7112 4.13818 18.8966 3.95321 18.8966 3.72438V1.65542C18.8966 1.42659 18.7112 1.24162 18.4828 1.24162H13.5172V0.414037C13.5172 0.18521 13.3319 0.000244141 13.1034 0.000244141H10.6207C10.3923 0.000244141 10.2069 0.18521 10.2069 0.414037V1.24162H5.24138C5.01297 1.24162 4.82759 1.42659 4.82759 1.65542V3.72438C4.82759 3.95321 5.01297 4.13818 5.24138 4.13818H5.65517V10.7589H5.24138C4.55697 10.7589 4 11.3158 4 12.0002C4 12.539 4.34717 12.9942 4.82759 13.1655V16.1543C4.82759 18.6553 6.86221 20.6899 9.36276 20.6899H9.37931V23.5865C9.37931 23.8153 9.56469 24.0002 9.7931 24.0002H13.931C14.1594 24.0002 14.3448 23.8153 14.3448 23.5865V20.6899H14.3614C16.8619 20.6899 18.8966 18.6553 18.8966 16.1543V13.1655C19.377 12.9942 19.7241 12.539 19.7241 12.0002ZM11.0345 0.82783H12.6897V1.24162H11.0345V0.82783ZM5.65517 2.06921H10.6207H13.1034H18.069V3.31059H17.6552H6.06897H5.65517V2.06921ZM6.48276 4.13818H17.2414V10.7589H6.48276V4.13818ZM13.5172 23.1727H10.2069V20.6899H13.5172V23.1727ZM18.069 16.1543C18.069 18.1989 16.4055 19.8623 14.3614 19.8623H13.931H9.7931H9.36276C7.31862 19.8623 5.65517 18.1989 5.65517 16.1543V13.2416H18.069V16.1543ZM18.4828 12.414H5.24138C5.01338 12.414 4.82759 12.2287 4.82759 12.0002C4.82759 11.7718 5.01338 11.5865 5.24138 11.5865H6.06897H17.6552H18.4828C18.7108 11.5865 18.8966 11.7718 18.8966 12.0002C18.8966 12.2287 18.7108 12.414 18.4828 12.414Z" fill="black"/>
</svg>
