<svg width="24" height="24" viewBox="0 0 24 24" fill="none" xmlns="http://www.w3.org/2000/svg">
<g clip-path="url(#clip0_1365_248485)">
<path d="M21.3467 1.6523C19.1439 -0.55044 15.6195 -0.55044 13.4167 1.6523L2.96368 12.1454C2.8035 12.3056 2.8035 12.5459 2.96368 12.7061C3.12387 12.8663 3.36417 12.8663 3.5244 12.7061L13.9775 2.21301C15.8598 0.330645 18.9036 0.330645 20.786 2.21301C22.6684 4.09538 22.6684 7.13917 20.786 9.02154L7.60946 22.198C6.28781 23.5196 4.1251 23.5196 2.80345 22.198C1.4818 20.8763 1.4818 18.7136 2.80345 17.392L13.4167 6.73864C14.2177 5.97771 15.4593 5.93762 16.2603 6.73864C17.0212 7.53966 17.0212 8.82123 16.2603 9.58221L8.33036 17.5522C8.17017 17.7123 8.17017 17.9526 8.33036 18.1129C8.49054 18.2731 8.73084 18.2731 8.89108 18.1129L16.821 10.183C17.9023 9.10161 17.9023 7.29936 16.821 6.218C15.7396 5.13665 13.9374 5.13665 12.856 6.218L2.24278 16.8313C0.600713 18.4332 0.600713 21.1166 2.24278 22.7587C3.0438 23.5997 4.12515 24.0002 5.2065 24.0002C6.28785 24.0002 7.3692 23.5997 8.17022 22.7587L21.3467 9.58221C22.388 8.54089 22.9887 7.09909 22.9887 5.61725C22.9887 4.13542 22.3879 2.69361 21.3467 1.6523Z" fill="black"/>
</g>
<defs>
<clipPath id="clip0_1365_248485">
<rect width="24" height="24" fill="white" transform="translate(0 0.000244141)"/>
</clipPath>
</defs>
</svg>
