<svg width="24" height="24" viewBox="0 0 24 24" fill="none" xmlns="http://www.w3.org/2000/svg">
<g clip-path="url(#clip0_1181_303307)">
<path d="M23.5846 22.9916H23.1692V23.4236C23.1692 23.6636 22.9846 23.8556 22.7538 23.8556C22.5231 23.8556 22.3385 23.6636 22.3385 23.4236V22.9916H1.61538V23.4236C1.61538 23.6636 1.43077 23.8556 1.2 23.8556C0.969231 23.8556 0.784615 23.6636 0.784615 23.4236V22.9916H0.415385C0.184615 22.9916 0 22.7996 0 22.5596V8.06355V6.38355C0 6.14355 0.184615 5.95155 0.415385 5.95155H1.84615C1.70769 5.71155 1.61538 5.42355 1.61538 5.13555C1.61538 4.27155 2.26154 3.59955 3.04615 3.50355C2.90769 3.26355 2.81538 2.97555 2.81538 2.63955C2.81538 1.72755 3.55385 0.959555 4.43077 0.959555C5.30769 0.959555 6.04615 1.72755 6.04615 2.63955C6.04615 2.92755 5.95385 3.21555 5.81538 3.50355C6.6 3.59955 7.24615 4.27155 7.24615 5.13555C7.24615 5.42355 7.15385 5.71155 7.01538 5.95155H9.64615V3.88755C9.64615 3.64755 9.83077 3.45555 10.0615 3.45555H10.4769V2.25555C10.4769 2.01555 10.6615 1.82355 10.8923 1.82355H11.6769C11.9077 1.82355 12.0923 2.01555 12.0923 2.25555C12.0923 2.49555 11.9077 2.68755 11.6769 2.68755H11.2615V3.50355H11.6769C11.9077 3.50355 12.0923 3.69555 12.0923 3.93555V5.99955H13.4308L13.2 5.51955C13.0615 5.27955 13.1077 4.94355 13.2462 4.70356C13.2923 4.46355 13.5692 4.31955 13.8462 4.31955H17.5846V3.50355H17.1692C16.9385 3.50355 16.7538 3.31155 16.7538 3.07155C16.7538 2.83155 16.9385 2.63955 17.1692 2.63955H17.5846V1.39155C17.5846 0.719555 18.1385 0.143555 18.7846 0.143555C19.4308 0.143555 19.9846 0.719555 19.9846 1.39155C19.9846 1.63155 19.8 1.82355 19.5692 1.82355C19.3385 1.82355 19.1538 1.63155 19.1538 1.39155C19.1538 1.15155 18.9692 0.959555 18.7385 0.959555C18.5077 0.959555 18.3231 1.15155 18.3231 1.39155V2.63955H18.7385C18.9692 2.63955 19.1538 2.83155 19.1538 3.07155C19.1538 3.31155 18.9692 3.50355 18.7385 3.50355H18.3231V4.31955H21.2769C21.5538 4.31955 21.8308 4.46355 21.9692 4.70356C22.1077 4.94355 22.1077 5.23155 22.0154 5.51955L21.7846 5.99955H23.5385C23.7692 5.99955 23.9538 6.19155 23.9538 6.43155V8.11156V22.6556C24 22.7996 23.8154 22.9916 23.5846 22.9916ZM3.18462 4.31955C2.72308 4.31955 2.4 4.70355 2.4 5.13555C2.4 5.56755 2.76923 5.95155 3.18462 5.95155C3.6 5.95155 3.96923 5.56755 3.96923 5.13555C3.96923 4.70355 3.64615 4.31955 3.18462 4.31955ZM4.38461 1.82355C3.92308 1.82355 3.6 2.20755 3.6 2.63955C3.6 3.07155 3.96923 3.45555 4.38461 3.45555C4.8 3.45555 5.16923 3.07155 5.16923 2.63955C5.16923 2.20755 4.84615 1.82355 4.38461 1.82355ZM5.58462 4.31955C5.12308 4.31955 4.8 4.70355 4.8 5.13555C4.8 5.56755 5.16923 5.95155 5.58462 5.95155C6 5.95155 6.36923 5.56755 6.36923 5.13555C6.36923 4.70355 6.04615 4.31955 5.58462 4.31955ZM11.2154 4.31955H10.4308V5.99955H11.2154V4.31955ZM13.7538 6.81555H11.5846H9.96923H0.784615V7.63155H14.1692C14.1692 7.63155 14.1692 7.63156 14.1692 7.58356C14.1231 7.48756 14.0308 7.39155 13.9846 7.29555L13.7538 6.81555ZM13.8462 5.13555L14.7231 6.95955C14.9077 7.39155 15.3231 7.63155 15.7846 7.63155H19.3846C19.8462 7.63155 20.2615 7.34355 20.4462 6.95955L21.3231 5.13555H13.8462ZM23.2154 6.81555H21.4615L21.2308 7.34355C21.1846 7.43956 21.1385 7.53555 21.0462 7.63155C21.0462 7.63155 21.0462 7.63156 21.0462 7.67955H23.2154V6.81555ZM23.2154 8.49556H19.4308H15.8308H0.784615V22.1756H23.1692V8.49556H23.2154ZM1.98462 10.7516H10.8C11.0308 10.7516 11.2154 10.9436 11.2154 11.1836V15.3596V19.5356C11.2154 19.7756 11.0308 19.9676 10.8 19.9676H1.98462C1.75385 19.9676 1.56923 19.7756 1.56923 19.5356V15.3596V11.1836C1.61538 10.9436 1.8 10.7516 1.98462 10.7516ZM2.4 19.0556H10.3846V15.7436H2.4V19.0556ZM2.4 14.9276H10.3846V11.6156H2.4V14.9276ZM6.78462 13.2476H6C5.76923 13.2476 5.58462 13.0556 5.58462 12.8156C5.58462 12.5756 5.76923 12.3836 6 12.3836H6.78462C7.01538 12.3836 7.2 12.5756 7.2 12.8156C7.2 13.0556 7.01538 13.2476 6.78462 13.2476ZM6.78462 17.4236H6C5.76923 17.4236 5.58462 17.2316 5.58462 16.9916C5.58462 16.7516 5.76923 16.5596 6 16.5596H6.78462C7.01538 16.5596 7.2 16.7516 7.2 16.9916C7.2 17.2316 7.01538 17.4236 6.78462 17.4236ZM13.2 10.7516H22.0154C22.2462 10.7516 22.4308 10.9436 22.4308 11.1836V19.4876C22.4308 19.7276 22.2462 19.9196 22.0154 19.9196H13.2C12.9692 19.9196 12.7846 19.7276 12.7846 19.4876V11.1836C12.7846 10.9436 12.9692 10.7516 13.2 10.7516ZM13.6154 19.0556H21.6V11.5676H13.6154V19.0556ZM20.4 16.1756C20.1692 16.1756 19.9846 15.9836 19.9846 15.7436V14.9276C19.9846 14.6876 20.1692 14.4956 20.4 14.4956C20.6308 14.4956 20.8154 14.6876 20.8154 14.9276V15.7436C20.8154 15.9836 20.6308 16.1756 20.4 16.1756Z" fill="#222222"/>
</g>
<defs>
<clipPath id="clip0_1181_303307">
<rect width="24" height="24" fill="white"/>
</clipPath>
</defs>
</svg>
