<svg width="1667" height="735" viewBox="0 0 1667 735" fill="none" xmlns="http://www.w3.org/2000/svg">
<path d="M900.289 664.799C989 835.972 1196.32 901.031 1363.34 810.131C1530.36 719.23 1593.86 506.783 1505.15 335.609C1416.44 164.436 1209.12 99.3776 1042.1 190.278C875.077 281.178 811.578 493.625 900.289 664.799Z" stroke="#EFDAF5"/>
<path d="M948.229 595.829C1027.37 748.531 1212.31 806.568 1361.31 725.478C1510.31 644.388 1566.95 454.866 1487.82 302.164C1408.68 149.462 1223.73 91.4252 1074.74 172.515C925.739 253.606 869.091 443.127 948.229 595.829Z" stroke="#EFDAF5"/>
<path d="M161.289 314.799C250 485.972 457.317 551.031 624.339 460.131C791.36 369.23 854.859 156.783 766.148 -14.3906C677.438 -185.564 470.121 -250.622 303.099 -159.722C136.077 -68.8222 72.5781 143.625 161.289 314.799Z" stroke="#EFDAF5"/>
<path d="M209.229 245.829C288.368 398.531 473.312 456.568 622.309 375.478C771.306 294.388 827.954 104.866 748.816 -47.8357C669.677 -200.538 484.733 -258.575 335.736 -177.485C186.739 -96.3943 130.091 93.1271 209.229 245.829Z" stroke="#EFDAF5"/>
</svg>
