<svg width="32" height="32" viewBox="0 0 32 32" fill="none" xmlns="http://www.w3.org/2000/svg">
<path fill-rule="evenodd" clip-rule="evenodd" d="M15.0526 4.00012C14.1798 4.1572 13.3686 4.57718 12.7329 5.21291C11.9121 6.03374 11.4509 7.14703 11.4509 8.30786V10.134H7.29863H6.82084L6.79914 10.6113L6.02376 27.6698L6 28.1925H6.52324H25.1325H25.6557L25.632 27.6698L24.8566 10.6113L24.8349 10.134H24.3571H20.2048V9.85862H19.2048V10.134H12.4509V8.30786C12.4509 7.41224 12.8067 6.55331 13.44 5.92001C13.8872 5.47282 14.4469 5.164 15.0526 5.02112V4.00012ZM19.2048 13.7356V11.134H12.4509V13.7356C12.4509 14.0117 12.2271 14.2356 11.9509 14.2356C11.6748 14.2356 11.4509 14.0117 11.4509 13.7356V11.134H7.77642L7.04649 27.1925H24.6092L23.8793 11.134H20.2048V13.7356C20.2048 14.0117 19.9809 14.2356 19.7048 14.2356C19.4286 14.2356 19.2048 14.0117 19.2048 13.7356Z" fill="#455999"/>
</svg>
