<svg width="24" height="24" viewBox="0 0 24 24" fill="none" xmlns="http://www.w3.org/2000/svg">
<path d="M19.6961 4.00015C19.5338 4.00488 19.3797 4.0726 19.2664 4.18897L3.84877 19.6066C3.78879 19.6642 3.7409 19.7332 3.70791 19.8095C3.67491 19.8858 3.65749 19.968 3.65664 20.0512C3.65579 20.1343 3.67155 20.2168 3.70298 20.2938C3.73441 20.3708 3.78089 20.4407 3.8397 20.4995C3.8985 20.5583 3.96844 20.6048 4.04543 20.6362C4.12242 20.6677 4.20491 20.6834 4.28806 20.6826C4.37122 20.6817 4.45337 20.6643 4.5297 20.6313C4.60604 20.5983 4.67502 20.5504 4.73262 20.4904L9.04767 16.1754C9.78466 16.973 10.8329 17.4776 11.9995 17.4776C14.2205 17.4776 16.0289 15.669 16.0289 13.4522C16.0289 12.2856 15.5244 11.2343 14.7267 10.4963L16.6051 8.61795C18.6268 9.80168 20.1954 11.7134 20.7712 13.9519C20.8421 14.2353 21.0959 14.4232 21.3751 14.4232C21.4251 14.4232 21.4789 14.4187 21.5289 14.402C21.8664 14.3187 22.0665 13.9777 21.979 13.6443C21.3373 11.1431 19.6922 9.03662 17.5321 7.69098L20.1502 5.07281C20.2404 4.98499 20.302 4.87199 20.3269 4.74861C20.3518 4.62522 20.3388 4.4972 20.2898 4.38129C20.2407 4.26538 20.1578 4.16698 20.0518 4.09898C19.9459 4.03097 19.8219 3.99653 19.6961 4.00015ZM11.9954 6.08931C7.34098 6.08931 3.14512 9.26487 2.02005 13.6443C1.93254 13.9777 2.13259 14.3187 2.47011 14.402C2.80346 14.4895 3.14447 14.2895 3.2278 13.9519C4.1987 10.1809 7.97019 7.33939 11.9954 7.33939C12.708 7.33939 13.4119 7.42654 14.0911 7.59738L15.1166 6.57274C14.1207 6.25606 13.0705 6.08931 11.9954 6.08931ZM11.9995 9.42286C9.77854 9.42286 7.9742 11.2313 7.9742 13.4522C7.9742 13.5356 7.97817 13.6228 7.98233 13.7062L9.56202 12.1273C9.8162 11.6564 10.2078 11.2649 10.6786 11.0107L12.2575 9.43099C12.17 9.42683 12.087 9.42286 11.9995 9.42286ZM13.8437 11.3794C14.4148 11.8882 14.7788 12.6262 14.7788 13.4522C14.7788 14.9815 13.5329 16.2275 11.9995 16.2275C11.1767 16.2275 10.4394 15.8635 9.9307 15.2924L13.8437 11.3794Z" fill="#202734"/>
</svg>
