<svg width="28" height="28" viewBox="0 0 28 28" fill="none" xmlns="http://www.w3.org/2000/svg">
<path d="M14.14 1.16699C7.02844 1.16699 4.28313 5.75855 4.06 10.127V13.872C3.66844 14.3204 3.5 14.8936 3.5 15.622C3.5 16.9104 4.33344 17.967 5.565 18.247C7.02187 22.0554 9.43687 26.927 13.58 26.927C15.82 26.927 17.5569 25.4701 18.9 23.567H17.4475C16.2159 25.0786 14.9275 25.807 13.5275 25.807C10.8391 25.807 8.53344 23.112 6.405 17.512L6.3 17.1795L5.9675 17.127C5.23906 17.127 4.62 16.462 4.62 15.622C4.62 15.2939 4.68125 15.0182 4.7775 14.7995L6.615 15.6745C6.79 15.7598 6.99563 15.7489 7.15969 15.6439C7.32156 15.5411 7.42219 15.3617 7.42 15.167V11.1595C7.80719 11.1332 8.82656 11.0939 10.5175 10.687C12.2959 10.2604 14.3478 9.49699 15.7675 8.13199C17.2703 10.1117 19.2128 10.8795 19.74 11.0545V15.167C19.7378 15.3617 19.8384 15.5411 20.0003 15.6439C20.1644 15.7489 20.37 15.7598 20.545 15.6745L21.42 15.237V17.092C21.3303 17.1117 21.2341 17.127 21.14 17.127L20.8075 17.1795L20.685 17.512C20.125 18.9689 19.565 20.2114 19.005 21.2745C19.6766 21.1629 20.3066 20.8851 20.755 20.382C21.0919 19.6536 21.3675 18.9186 21.6475 18.247C21.7591 18.2186 21.8684 18.1726 21.98 18.1245V18.527C21.98 20.4148 20.5078 21.887 18.62 21.887H16.275C16.0409 21.2395 15.4241 20.767 14.7 20.767H13.58C12.6591 20.767 11.9 21.5261 11.9 22.447C11.9 23.3679 12.6591 24.127 13.58 24.127H14.7C15.4241 24.127 16.0409 23.6545 16.275 23.007H18.62C21.1006 23.007 23.1 21.0076 23.1 18.527V17.967C24.0209 17.967 24.78 17.2079 24.78 16.287V14.047C24.78 13.1261 24.0209 12.367 23.1 12.367V10.127C22.8769 5.19855 20.1359 2.39855 15.4875 2.28699L14.3675 1.16699H14.14ZM13.9125 2.28699L15.0325 3.40699H15.26C20.86 3.40699 21.8684 7.60699 21.98 10.127V12.367C21.9625 12.367 21.945 12.367 21.9275 12.367C21.6387 12.3932 21.4178 12.6361 21.42 12.927V13.977L20.86 14.257V10.687C20.8622 10.4354 20.6981 10.2145 20.4575 10.1445C20.4575 10.1445 17.6662 9.2673 16.2925 7.02949C16.1809 6.85012 15.9775 6.74949 15.7675 6.76699C15.6166 6.7823 15.4766 6.85668 15.3825 6.97699C14.2669 8.31574 12.1428 9.15355 10.2725 9.60199C8.40219 10.0504 6.825 10.127 6.825 10.127C6.52969 10.1445 6.3 10.3917 6.3 10.687V14.2745L5.1275 13.7145V10.127C5.46438 4.47012 9.82406 2.34387 13.9125 2.28699ZM22.54 13.487H23.1C23.4106 13.487 23.66 13.7364 23.66 14.047V16.287C23.66 16.5976 23.4106 16.847 23.1 16.847H22.645C22.61 16.8382 22.575 16.8317 22.54 16.8295V14.397C22.5487 14.3379 22.5487 14.2811 22.54 14.222V13.487ZM13.58 21.887H14.7C15.0106 21.887 15.26 22.1364 15.26 22.447C15.26 22.7576 15.0106 23.007 14.7 23.007H13.58C13.2694 23.007 13.02 22.7576 13.02 22.447C13.02 22.1364 13.2694 21.887 13.58 21.887Z" fill="#202734"/>
</svg>
