<svg width="28" height="28" viewBox="0 0 28 28" fill="none" xmlns="http://www.w3.org/2000/svg">
<path d="M4.8125 24.5002C4.44306 24.5002 4.13194 24.3739 3.87917 24.1211C3.62639 23.8683 3.5 23.5572 3.5 23.1877V19.2502C3.5 18.9391 3.59722 18.6669 3.79167 18.4336C3.98611 18.2002 4.22917 18.0544 4.52083 17.9961L7.99167 17.2377C8.24444 17.1794 8.49722 17.194 8.75 17.2815C9.00278 17.369 9.22639 17.5197 9.42083 17.7336L12.7273 21.0002C14.4384 20.0669 15.8715 18.6232 17.2229 17.2815C18.5743 15.9398 19.9111 14.5358 21 12.7275L17.5292 9.50858C17.3736 9.35302 17.2715 9.16344 17.2229 8.93983C17.1743 8.71622 17.1694 8.4683 17.2083 8.19608L17.9958 4.52108C18.0542 4.20997 18.1854 3.96205 18.3896 3.77733C18.5938 3.59261 18.8319 3.50024 19.1042 3.50024H23.1875C23.5569 3.50024 23.8681 3.62663 24.1208 3.87941C24.3736 4.13219 24.5 4.4433 24.5 4.81274C24.5 7.18497 23.9167 9.54261 22.75 11.8857C21.5833 14.2287 20.0667 16.3336 18.2 18.2002C16.3333 20.0669 14.2285 21.5836 11.8854 22.7502C9.54236 23.9169 7.18472 24.5002 4.8125 24.5002ZM21.4773 11.8857C22.2727 10.8184 22.2727 10.8184 23.1875 8.33263C23.4208 7.42846 23.5455 5.72752 23.5455 4.52108H19.0312L18.0966 8.90934L21.4773 11.8857ZM11.8854 21.5173L8.75 18.4336L4.52083 19.2502V23.3866C5.39583 23.3477 7.02917 23.2116 7.9625 22.9783C8.89583 22.7449 11.0882 21.8867 11.8854 21.5173Z" fill="#222222"/>
</svg>
