<svg width="28" height="28" viewBox="0 0 28 28" fill="none" xmlns="http://www.w3.org/2000/svg">
<path fill-rule="evenodd" clip-rule="evenodd" d="M2 3.3335H24.88C25.4323 3.3335 25.88 3.78121 25.88 4.3335V16.3335H18.3416C18.0375 16.1229 17.6725 16.0002 17.2799 16.0002C16.8874 16.0002 16.5223 16.1229 16.2182 16.3335H13.32H12.32V17.3335V22.0002H9.6V21.1668H2C1.44772 21.1668 1 20.7191 1 20.1668V10.0002H22.04H23.04V9.00016V7.00016V6.00016H22.04H1V4.3335C1 3.78121 1.44772 3.3335 2 3.3335ZM12.32 22.1668H2C0.895431 22.1668 0 21.2714 0 20.1668V10.0002V9.00016V7.00016V6.00016V4.3335C0 3.22893 0.895431 2.3335 2 2.3335H24.88C25.9846 2.3335 26.88 3.22893 26.88 4.3335V16.3335H27H28V17.3335V24.6668V25.6668H27H13.32H12.32V24.6668V22.1668ZM26.88 17.3335H27V24.6668H13.32V22.1668H24.88C25.9846 22.1668 26.88 21.2714 26.88 20.1668V17.3335ZM25.88 17.3335V20.1668C25.88 20.7191 25.4323 21.1668 24.88 21.1668H23.04V22.0002H13.32V17.3335H15.4692C15.3984 17.542 15.3599 17.7664 15.3599 18.0002C15.3599 19.1047 16.2196 20.0002 17.2799 20.0002C18.3403 20.0002 19.1999 19.1047 19.1999 18.0002C19.1999 17.7664 19.1614 17.542 19.0907 17.3335H25.88ZM1 7.00016V9.00016H22.04V7.00016H1ZM17.2799 19.0002C17.75 19.0002 18.1999 18.5913 18.1999 18.0002C18.1999 17.7341 18.1088 17.505 17.9658 17.3335H16.5941C16.4511 17.505 16.3599 17.7341 16.3599 18.0002C16.3599 18.5913 16.8099 19.0002 17.2799 19.0002Z" fill="#202734"/>
</svg>
