<svg width="28" height="28" viewBox="0 0 28 28" fill="none" xmlns="http://www.w3.org/2000/svg">
<path d="M13.9999 1.12012C6.89308 1.12012 1.11987 6.89332 1.11987 14.0001C1.11987 21.1069 6.89308 26.8801 13.9999 26.8801C21.1067 26.8801 26.8799 21.1069 26.8799 14.0001C26.8799 6.89332 21.1067 1.12012 13.9999 1.12012ZM13.9999 2.24012C20.5014 2.24012 25.7599 7.49862 25.7599 14.0001C25.7599 20.5016 20.5014 25.7601 13.9999 25.7601C7.49837 25.7601 2.23987 20.5016 2.23987 14.0001C2.23987 7.49862 7.49837 2.24012 13.9999 2.24012Z" fill="#202734"/>
<path d="M13.9859 4.25162C13.8247 4.25414 13.6711 4.3205 13.5588 4.43615C13.4465 4.55179 13.3847 4.70726 13.3869 4.86845V12.2775C12.9827 12.4223 12.6424 12.7049 12.426 13.0758C12.2095 13.4466 12.1307 13.8818 12.2033 14.305C12.276 14.7282 12.4955 15.1122 12.8232 15.3896C13.151 15.6669 13.566 15.8199 13.9954 15.8216C14.3726 15.8213 14.7406 15.7041 15.0485 15.4862C15.3565 15.2683 15.5894 14.9603 15.7151 14.6046H20.689C20.7696 14.6057 20.8496 14.5908 20.9245 14.5607C20.9993 14.5307 21.0674 14.486 21.1248 14.4294C21.1822 14.3728 21.2278 14.3053 21.259 14.2309C21.2901 14.1565 21.3061 14.0767 21.3061 13.9961C21.3061 13.9154 21.2901 13.8356 21.259 13.7612C21.2278 13.6868 21.1822 13.6193 21.1248 13.5627C21.0674 13.5061 20.9993 13.4614 20.9245 13.4314C20.8496 13.4013 20.7696 13.3864 20.689 13.3875H15.7163C15.6256 13.1309 15.4786 12.8978 15.2861 12.7054C15.0936 12.5129 14.8605 12.3659 14.6039 12.2751V4.86845C14.605 4.78703 14.5898 4.70623 14.5591 4.63081C14.5284 4.55539 14.4829 4.48689 14.4253 4.42938C14.3676 4.37186 14.2991 4.32649 14.2236 4.29596C14.1481 4.26543 14.0673 4.25035 13.9859 4.25162Z" fill="#202734"/>
</svg>
