<svg width="28" height="21" viewBox="0 0 28 21" fill="none" xmlns="http://www.w3.org/2000/svg">
<path d="M1.56844 0.140137C0.70875 0.140137 0 0.848887 0 1.70857V16.3801C0 17.3011 0.759063 18.0601 1.68 18.0601H3.9725C4.23938 19.6439 5.62188 20.8601 7.28 20.8601C8.93813 20.8601 10.3206 19.6439 10.5875 18.0601H19.0925C19.3594 19.6439 20.7419 20.8601 22.4 20.8601C24.0581 20.8601 25.4406 19.6439 25.7075 18.0601H26.32C26.7859 18.0601 27.1884 17.8436 27.4859 17.5461C27.7834 17.2486 28 16.8461 28 16.3801V11.0054C28 10.3754 27.7659 9.80232 27.5516 9.36264C27.335 8.92514 27.1163 8.61014 27.1163 8.61014L27.1097 8.60357L24.8041 5.51045L24.7975 5.50389C24.3009 4.88264 23.5047 4.06014 22.4 4.06014H17.92C17.7188 4.06014 17.5328 4.10607 17.36 4.17607V1.76545C17.36 0.868574 16.6316 0.140137 15.7347 0.140137H1.56844ZM1.56844 1.26014H15.7347C15.96 1.26014 16.24 1.54014 16.24 1.76545V16.9401H10.5875C10.3206 15.3564 8.93813 14.1401 7.28 14.1401C5.62188 14.1401 4.23938 15.3564 3.9725 16.9401H1.68C1.36938 16.9401 1.12 16.6908 1.12 16.3801V1.70857C1.12 1.44826 1.30813 1.26014 1.56844 1.26014ZM17.92 5.18014H20.16V10.2201C20.16 10.6861 20.3766 11.0886 20.6741 11.3861C20.9716 11.6836 21.3741 11.9001 21.84 11.9001H26.88V16.3801C26.88 16.4742 26.8166 16.6317 26.6941 16.7542C26.5716 16.8767 26.4141 16.9401 26.32 16.9401H25.7075C25.4406 15.3564 24.0581 14.1401 22.4 14.1401C20.7419 14.1401 19.3594 15.3564 19.0925 16.9401H17.36V5.74014C17.36 5.64607 17.4234 5.48857 17.5459 5.36607C17.6684 5.24357 17.8259 5.18014 17.92 5.18014ZM21.28 5.18014H22.4C22.8638 5.18014 23.5222 5.70295 23.9225 6.2017L26.1975 9.25326C26.1975 9.25326 26.3681 9.49826 26.5453 9.8592C26.6875 10.1479 26.7684 10.4848 26.8144 10.7801H21.84C21.7459 10.7801 21.5884 10.7167 21.4659 10.5942C21.3434 10.4717 21.28 10.3142 21.28 10.2201V5.18014ZM7.28 15.2601C8.52469 15.2601 9.52 16.2554 9.52 17.5001C9.52 18.7448 8.52469 19.7401 7.28 19.7401C6.03531 19.7401 5.04 18.7448 5.04 17.5001C5.04 16.2554 6.03531 15.2601 7.28 15.2601ZM22.4 15.2601C23.6447 15.2601 24.64 16.2554 24.64 17.5001C24.64 18.7448 23.6447 19.7401 22.4 19.7401C21.1553 19.7401 20.16 18.7448 20.16 17.5001C20.16 16.2554 21.1553 15.2601 22.4 15.2601Z" fill="#202734"/>
</svg>
