<svg width="405" height="405" viewBox="0 0 405 405" fill="none" xmlns="http://www.w3.org/2000/svg">
<g clip-path="url(#clip0_1564_350685)">
<path d="M404.495 85.4799L85.48 0L5.47264e-05 319.015L319.015 404.495L404.495 85.4799Z" fill="#FCD577"/>
<path d="M294.946 200.42L324.028 208.212C328.174 209.323 332.435 206.863 333.546 202.717L351.503 135.702C352.614 131.556 350.153 127.295 346.007 126.184L316.926 118.392C312.78 117.281 308.518 119.741 307.407 123.887L289.451 190.902C288.34 195.047 290.8 199.309 294.946 200.42Z" fill="#CFDCE5"/>
<path d="M107.125 240.388C97.7823 237.885 88.4962 239.503 81.8867 244.022L74.7283 270.738C78.1921 277.956 85.4256 284 94.7687 286.504C110.113 290.615 125.319 283.625 128.731 270.891C132.143 258.157 122.47 244.5 107.125 240.388Z" fill="white"/>
<path d="M93.5949 290.884C83.3708 288.145 74.7897 281.347 70.6396 272.7C69.5563 270.442 70.5084 267.734 72.7662 266.65C75.0245 265.567 77.7331 266.519 78.8164 268.777C81.8373 275.071 88.2396 280.06 95.9421 282.124C108.847 285.582 121.591 280.017 124.351 269.718C127.11 259.419 118.856 248.228 105.951 244.77C98.2487 242.706 90.2093 243.826 84.4461 247.766C82.3791 249.18 79.5567 248.65 78.1431 246.583C76.7296 244.516 77.2593 241.694 79.3265 240.28C87.2435 234.866 98.0743 233.27 108.298 236.01C126.034 240.762 137.165 256.937 133.111 272.066C129.058 287.194 111.33 295.636 93.5949 290.884Z" fill="#E25749"/>
<path d="M395.473 119.15L404.495 85.4799L85.48 0L0.000220596 319.015L211.2 375.606L218.005 350.21L31.9524 300.357L103.956 31.6364L372.677 103.64L300.673 372.361L266.115 363.101L259.311 388.497L319.016 404.495L389.783 140.387L395.473 119.15Z" fill="#415E72"/>
<path d="M76.9172 229.087L52.7817 222.62L38.8203 274.725L62.9558 281.192C68.7454 282.743 74.6959 279.308 76.2473 273.518L84.5912 242.378C86.1416 236.589 82.7056 230.638 76.9172 229.087Z" fill="white"/>
<path d="M170.829 54.2496L107.163 37.1903L77.052 149.565L108.37 157.956C126.236 162.743 144.599 152.141 149.386 134.276C149.386 134.276 170.829 54.2496 170.829 54.2496Z" fill="white"/>
<path d="M107.197 162.337L71.4981 152.771L103.956 31.6364L176.383 51.0431L153.767 135.45C148.339 155.701 127.449 167.763 107.197 162.337ZM82.6059 146.358L109.545 153.576C124.966 157.708 140.874 148.524 145.007 133.103L165.276 57.4564L110.369 42.7442L82.6059 146.358Z" fill="#CFDCE5"/>
<path d="M365.356 130.952L350.989 127.102L329.01 209.13L343.376 212.979L365.356 130.952Z" fill="#344F5E"/>
<path d="M326.332 138.268L346.413 143.649L333.112 193.29L313.031 187.91C309.647 187.003 307.715 183.235 308.718 179.494L318.389 143.4C319.392 139.659 322.948 137.362 326.332 138.268Z" fill="white"/>
<path d="M329.28 171.097C332.505 171.983 335.82 170.021 336.685 166.716C337.549 163.411 335.635 160.013 332.409 159.128C329.184 158.242 325.869 160.204 325.004 163.509C324.14 166.814 326.054 170.212 329.28 171.097Z" fill="#415E72"/>
<path d="M132.093 71.481C129.894 70.8918 128.589 68.6307 129.178 66.4319L135.014 44.6529C135.603 42.454 137.864 41.1486 140.063 41.7378C142.261 42.327 143.567 44.588 142.978 46.7869L137.142 68.5665C136.553 70.7654 134.292 72.0702 132.093 71.481Z" fill="#CFDCE5"/>
<path d="M150.823 63.6965C148.624 63.1073 147.319 60.8462 147.908 58.6474L150.543 48.814C151.132 46.6152 153.393 45.3097 155.592 45.8989C157.791 46.4881 159.096 48.7491 158.507 50.948L155.872 60.782C155.283 62.9802 153.022 64.2857 150.823 63.6965Z" fill="#CFDCE5"/>
<path d="M119.764 55.3742C117.565 54.785 116.26 52.524 116.849 50.3251L119.484 40.4917C120.073 38.2929 122.334 36.9875 124.533 37.5766C126.732 38.1658 128.037 40.4269 127.448 42.6257L124.813 52.4597C124.224 54.658 121.963 55.9634 119.764 55.3742Z" fill="#CFDCE5"/>
<path d="M115.915 129.978C119.141 130.842 122.456 128.928 123.32 125.703C124.185 122.477 122.271 119.162 119.045 118.298C115.82 117.434 112.504 119.348 111.64 122.573C110.776 125.799 112.69 129.114 115.915 129.978Z" fill="#415E72"/>
<path d="M96.1152 268.412C99.3406 269.277 102.656 267.363 103.52 264.137C104.384 260.912 102.47 257.596 99.2449 256.732C96.0195 255.868 92.7042 257.782 91.8399 261.007C90.9757 264.233 92.8898 267.548 96.1152 268.412Z" fill="#415E72"/>
</g>
<defs>
<clipPath id="clip0_1564_350685">
<rect width="330.269" height="330.269" fill="white" transform="translate(85.48) rotate(15)"/>
</clipPath>
</defs>
</svg>
