<svg width="48" height="48" viewBox="0 0 48 48" fill="none" xmlns="http://www.w3.org/2000/svg">
<path fill-rule="evenodd" clip-rule="evenodd" d="M23.8829 0.000296276C24.1164 -0.0067047 24.2725 0.110368 24.3512 0.351516C25.2487 3.35639 26.1464 6.36128 27.0439 9.36615C29.1512 6.79054 31.2585 4.21493 33.3659 1.63932C33.1479 4.56161 32.8746 7.48844 32.5463 10.4198C32.6243 10.771 32.7025 11.1222 32.7805 11.4735C35.5495 10.05 38.2813 8.56713 40.9756 7.02469C41.0536 7.10273 41.1318 7.18079 41.2098 7.25883C39.6672 9.95313 38.1844 12.6848 36.761 15.454C36.956 15.532 37.1513 15.6101 37.3463 15.6881C40.2579 15.2212 43.1848 15.0261 46.1268 15.1027C43.7507 17.1877 41.331 19.217 38.8683 21.1905C41.9255 22.1447 44.9694 23.1201 48 24.1174C44.9659 25.1158 41.922 26.0912 38.8683 27.0442C41.3563 28.9853 43.7758 31.0146 46.1268 33.132C43.3897 33.0927 40.6579 32.8974 37.9317 32.5466C37.5414 32.6246 37.1513 32.7028 36.761 32.7808C38.1844 35.5498 39.6672 38.2816 41.2098 40.9759C41.1318 41.0539 41.0536 41.1321 40.9756 41.2101C38.2813 39.6675 35.5495 38.1846 32.7805 36.7613C32.7025 37.1125 32.6243 37.4637 32.5463 37.8149C33.0004 40.5715 33.1954 43.3424 33.1317 46.1271C31.0143 43.7761 28.985 41.3566 27.0439 38.8686C26.0919 41.9198 25.1164 44.9637 24.1171 48.0003C23.1191 44.9672 22.1435 41.9233 21.1902 38.8686C19.2167 41.3313 17.1874 43.751 15.1024 46.1271C15.0568 43.3438 15.2519 40.5729 15.6878 37.8149C15.6098 37.4637 15.5317 37.1125 15.4537 36.7613C12.6846 38.1846 9.95284 39.6675 7.25854 41.2101C7.1805 41.1321 7.10243 41.0539 7.02439 40.9759C8.56683 38.2816 10.0497 35.5498 11.4732 32.7808C11.161 32.7028 10.8488 32.6246 10.5366 32.5466C7.56564 32.8721 4.59978 33.1454 1.63902 33.3661C4.21463 31.2588 6.79024 29.1515 9.36585 27.0442C6.21647 26.1374 3.09452 25.1617 0 24.1174C3.09375 23.0705 6.21572 22.0948 9.36585 21.1905C6.79024 19.0832 4.21463 16.9759 1.63902 14.8686C4.60444 15.0461 7.5703 15.3193 10.5366 15.6881C10.8488 15.6101 11.161 15.532 11.4732 15.454C10.0497 12.6848 8.56683 9.95313 7.02439 7.25883C7.10243 7.18079 7.1805 7.10273 7.25854 7.02469C9.95284 8.56713 12.6846 10.05 15.4537 11.4735C15.5317 11.1222 15.6098 10.771 15.6878 10.4198C15.3595 7.48844 15.0863 4.56161 14.8683 1.63932C16.9756 4.21493 19.0829 6.79054 21.1902 9.36615C22.1605 6.2605 23.0583 3.13854 23.8829 0.000296276Z" fill="#FF2F2F"/>
<path d="M20.2207 22.2273V21.7761C20.2207 21.4519 20.291 21.157 20.4316 20.8914C20.5723 20.6257 20.7734 20.4128 21.0352 20.2527C21.2969 20.0925 21.6074 20.0125 21.9668 20.0125C22.334 20.0125 22.6465 20.0925 22.9043 20.2527C23.166 20.4128 23.3672 20.6257 23.5078 20.8914C23.6484 21.157 23.7188 21.4519 23.7188 21.7761V22.2273C23.7188 22.5437 23.6484 22.8347 23.5078 23.1003C23.3711 23.366 23.1719 23.5789 22.9102 23.739C22.6523 23.8992 22.3418 23.9792 21.9785 23.9792C21.6152 23.9792 21.3008 23.8992 21.0352 23.739C20.7734 23.5789 20.5723 23.366 20.4316 23.1003C20.291 22.8347 20.2207 22.5437 20.2207 22.2273ZM21.0352 21.7761V22.2273C21.0352 22.407 21.0684 22.5769 21.1348 22.7371C21.2051 22.8972 21.3105 23.0281 21.4512 23.1296C21.5918 23.2273 21.7676 23.2761 21.9785 23.2761C22.1895 23.2761 22.3633 23.2273 22.5 23.1296C22.6367 23.0281 22.7383 22.8972 22.8047 22.7371C22.8711 22.5769 22.9043 22.407 22.9043 22.2273V21.7761C22.9043 21.5925 22.8691 21.4207 22.7988 21.2605C22.7324 21.0964 22.6289 20.9656 22.4883 20.8679C22.3516 20.7664 22.1777 20.7156 21.9668 20.7156C21.7598 20.7156 21.5859 20.7664 21.4453 20.8679C21.3086 20.9656 21.2051 21.0964 21.1348 21.2605C21.0684 21.4207 21.0352 21.5925 21.0352 21.7761ZM24.375 27.032V26.575C24.375 26.2546 24.4453 25.9617 24.5859 25.696C24.7266 25.4304 24.9277 25.2175 25.1895 25.0574C25.4512 24.8972 25.7617 24.8171 26.1211 24.8171C26.4883 24.8171 26.8008 24.8972 27.0586 25.0574C27.3203 25.2175 27.5215 25.4304 27.6621 25.696C27.8027 25.9617 27.873 26.2546 27.873 26.575V27.032C27.873 27.3523 27.8027 27.6453 27.6621 27.9109C27.5254 28.1765 27.3262 28.3894 27.0645 28.5496C26.8066 28.7097 26.4961 28.7898 26.1328 28.7898C25.7695 28.7898 25.457 28.7097 25.1953 28.5496C24.9336 28.3894 24.7305 28.1765 24.5859 27.9109C24.4453 27.6453 24.375 27.3523 24.375 27.032ZM25.1895 26.575V27.032C25.1895 27.2117 25.2227 27.3835 25.2891 27.5476C25.3594 27.7078 25.4648 27.8386 25.6055 27.9402C25.7461 28.0378 25.9219 28.0867 26.1328 28.0867C26.3438 28.0867 26.5176 28.0378 26.6543 27.9402C26.7949 27.8386 26.8984 27.7078 26.9648 27.5476C27.0312 27.3875 27.0645 27.2156 27.0645 27.032V26.575C27.0645 26.3914 27.0293 26.2195 26.959 26.0593C26.8926 25.8992 26.7891 25.7703 26.6484 25.6726C26.5117 25.571 26.3359 25.5203 26.1211 25.5203C25.9141 25.5203 25.7402 25.571 25.5996 25.6726C25.4629 25.7703 25.3594 25.8992 25.2891 26.0593C25.2227 26.2195 25.1895 26.3914 25.1895 26.575ZM26.3906 21.3484L22.2246 28.0164L21.6152 27.6296L25.7812 20.9617L26.3906 21.3484Z" fill="white"/>
</svg>
