<svg width="24" height="24" viewBox="0 0 24 24" fill="none" xmlns="http://www.w3.org/2000/svg">
<g clip-path="url(#clip0_1181_303348)">
<path d="M23.3538 0H0.73845C0.36922 0 0.0461426 0.288 0.0461426 0.672V23.376C0.0461426 23.76 0.323066 24.048 0.692296 24.048H23.3077C23.6769 24.048 23.9538 23.76 23.9538 23.376V0.672C24 0.288 23.7231 0 23.3538 0ZM21 23.184V22.8C21.2308 22.8 21.4615 22.752 21.6923 22.656C21.9231 22.752 22.1538 22.8 22.3846 22.8V23.184H21ZM9.59999 23.184V22.8C9.83076 22.8 10.0615 22.752 10.2923 22.656C10.5231 22.752 10.7538 22.8 10.9846 22.8V23.184H9.59999ZM20.8154 22.656C20.5846 22.656 20.4 22.608 20.1692 22.512V21.84C20.3538 21.744 20.5846 21.696 20.8154 21.696C20.8615 21.696 20.8615 21.696 20.9077 21.696C20.9538 21.696 20.9538 21.696 21 21.696C21.2308 21.696 21.4154 21.744 21.6461 21.84V22.512C21.4615 22.608 21.2308 22.656 21 22.656C20.9538 22.656 20.9538 22.656 20.9077 22.656C20.8615 22.656 20.8615 22.656 20.8154 22.656ZM19.2461 22.656C19.0154 22.656 18.8308 22.608 18.6 22.512V21.84C18.7846 21.744 19.0154 21.696 19.2461 21.696C19.2923 21.696 19.2923 21.696 19.3385 21.696C19.3846 21.696 19.3846 21.696 19.4308 21.696C19.6615 21.696 19.8461 21.744 20.0769 21.84V22.512C19.8923 22.608 19.6615 22.656 19.4308 22.656C19.3846 22.656 19.3846 22.656 19.3385 22.656C19.2923 22.656 19.2461 22.656 19.2461 22.656ZM17.6308 22.656C17.4 22.656 17.2154 22.608 16.9846 22.512V21.84C17.1692 21.744 17.4 21.696 17.6308 21.696C17.6769 21.696 17.6769 21.696 17.7231 21.696C17.7692 21.696 17.7692 21.696 17.8154 21.696C18.0461 21.696 18.2308 21.744 18.4615 21.84V22.512C18.2769 22.608 18.0461 22.656 17.8154 22.656C17.7692 22.656 17.7692 22.656 17.7231 22.656C17.7231 22.656 17.6769 22.656 17.6308 22.656ZM16.0615 22.656C15.8308 22.656 15.6461 22.608 15.4154 22.512V21.84C15.6 21.744 15.8308 21.696 16.0615 21.696C16.1077 21.696 16.1077 21.696 16.1538 21.696C16.2 21.696 16.2 21.696 16.2461 21.696C16.4769 21.696 16.6615 21.744 16.8923 21.84V22.512C16.7077 22.608 16.4769 22.656 16.2461 22.656C16.2 22.656 16.2 22.656 16.1538 22.656C16.1077 22.656 16.1077 22.656 16.0615 22.656ZM14.4923 22.656C14.2615 22.656 14.0769 22.608 13.8461 22.512V21.84C14.0308 21.744 14.2615 21.696 14.4923 21.696C14.5385 21.696 14.5385 21.696 14.5846 21.696C14.6308 21.696 14.6308 21.696 14.6769 21.696C14.9077 21.696 15.0923 21.744 15.3231 21.84V22.512C15.1385 22.608 14.9077 22.656 14.6769 22.656C14.6308 22.656 14.6308 22.656 14.5846 22.656C14.5385 22.656 14.4923 22.656 14.4923 22.656ZM9.41537 22.656C9.1846 22.656 8.99999 22.608 8.76922 22.512V21.84C8.95383 21.744 9.1846 21.696 9.41537 21.696C9.46153 21.696 9.46153 21.696 9.50768 21.696C9.55383 21.696 9.55383 21.696 9.59999 21.696C9.83076 21.696 10.0154 21.744 10.2461 21.84V22.512C10.0615 22.608 9.83076 22.656 9.59999 22.656C9.55383 22.656 9.55383 22.656 9.50768 22.656C9.46153 22.656 9.46153 22.656 9.41537 22.656ZM7.84614 22.656C7.61537 22.656 7.43076 22.608 7.19999 22.512V21.84C7.3846 21.744 7.61537 21.696 7.84614 21.696C7.8923 21.696 7.8923 21.696 7.93845 21.696C7.9846 21.696 7.9846 21.696 8.03076 21.696C8.26153 21.696 8.44614 21.744 8.67691 21.84V22.512C8.4923 22.608 8.26153 22.656 8.03076 22.656C7.9846 22.656 7.9846 22.656 7.93845 22.656C7.8923 22.656 7.84614 22.656 7.84614 22.656ZM6.23076 22.656C5.99999 22.656 5.81537 22.608 5.5846 22.512V21.84C5.76922 21.744 5.99999 21.696 6.23076 21.696C6.27691 21.696 6.27691 21.696 6.32307 21.696C6.36922 21.696 6.36922 21.696 6.41537 21.696C6.64614 21.696 6.83076 21.744 7.06153 21.84V22.512C6.87691 22.608 6.64614 22.656 6.41537 22.656C6.36922 22.656 6.36922 22.656 6.32307 22.656C6.32307 22.656 6.27691 22.656 6.23076 22.656ZM4.66153 22.656C4.43076 22.656 4.24614 22.608 4.01537 22.512V21.84C4.19999 21.744 4.43076 21.696 4.66153 21.696C4.70768 21.696 4.70768 21.696 4.75383 21.696C4.79999 21.696 4.79999 21.696 4.84614 21.696C5.07691 21.696 5.26153 21.744 5.4923 21.84V22.512C5.30768 22.608 5.07691 22.656 4.84614 22.656C4.79999 22.656 4.79999 22.656 4.75383 22.656C4.70768 22.656 4.70768 22.656 4.66153 22.656ZM3.0923 22.656C2.86153 22.656 2.67691 22.608 2.44614 22.512V21.84C2.63076 21.744 2.86153 21.696 3.0923 21.696C3.13845 21.696 3.13845 21.696 3.1846 21.696C3.23076 21.696 3.23076 21.696 3.27691 21.696C3.50768 21.696 3.6923 21.744 3.92307 21.84V22.512C3.64614 22.56 3.46153 22.608 3.23076 22.656C3.1846 22.656 3.1846 22.656 3.13845 22.656H3.0923ZM0.876912 1.344C1.10768 1.344 1.2923 1.392 1.52307 1.488V2.16C1.2923 2.208 1.10768 2.256 0.876912 2.256V1.344ZM2.4923 1.344C2.72307 1.344 2.90768 1.392 3.13845 1.488V2.16C2.90768 2.208 2.67691 2.256 2.4923 2.256C2.44614 2.256 2.44614 2.256 2.39999 2.256C2.35383 2.256 2.35383 2.256 2.30768 2.256C2.07691 2.256 1.8923 2.208 1.66153 2.112V1.44C1.8923 1.392 2.07691 1.344 2.30768 1.344C2.35383 1.344 2.35383 1.344 2.39999 1.344C2.39999 1.344 2.44614 1.344 2.4923 1.344ZM4.06153 1.344C4.2923 1.344 4.47691 1.392 4.70768 1.488V2.16C4.47691 2.208 4.24614 2.256 4.06153 2.256C4.01537 2.256 4.01537 2.256 3.96922 2.256C3.92307 2.256 3.92307 2.256 3.87691 2.256C3.6923 2.256 3.46153 2.208 3.27691 2.16V1.44C3.46153 1.392 3.6923 1.344 3.87691 1.344C3.92307 1.344 3.92307 1.344 3.96922 1.344C4.01537 1.344 4.01537 1.344 4.06153 1.344ZM5.63076 1.344C5.86153 1.344 6.04614 1.392 6.27691 1.488V2.16C6.0923 2.256 5.86153 2.304 5.63076 2.304C5.5846 2.304 5.5846 2.304 5.53845 2.304C5.4923 2.304 5.4923 2.304 5.44614 2.304C5.21537 2.304 5.03076 2.256 4.79999 2.16V1.44C4.9846 1.344 5.21537 1.296 5.44614 1.296C5.4923 1.296 5.4923 1.296 5.53845 1.296C5.5846 1.344 5.63076 1.344 5.63076 1.344ZM7.19999 1.344C7.43076 1.344 7.61537 1.392 7.84614 1.488V2.16C7.66153 2.256 7.43076 2.304 7.19999 2.304C7.15383 2.304 7.15383 2.304 7.10768 2.304C7.06153 2.304 7.06153 2.304 7.01537 2.304C6.7846 2.304 6.59999 2.256 6.36922 2.16V1.44C6.55383 1.344 6.7846 1.296 7.01537 1.296C7.06153 1.296 7.06153 1.296 7.10768 1.296C7.15383 1.344 7.19999 1.344 7.19999 1.344ZM8.81537 1.344C9.04614 1.344 9.23076 1.392 9.46153 1.488V2.16C9.27691 2.256 9.04614 2.304 8.81537 2.304C8.76922 2.304 8.76922 2.304 8.72307 2.304C8.67691 2.304 8.67691 2.304 8.63076 2.304C8.39999 2.304 8.21537 2.256 7.9846 2.16V1.44C8.16922 1.344 8.39999 1.296 8.63076 1.296C8.67691 1.296 8.67691 1.296 8.72307 1.296C8.76922 1.344 8.76922 1.344 8.81537 1.344ZM10.3846 1.344C10.6154 1.344 10.8 1.392 11.0308 1.488V2.16C10.8461 2.256 10.6154 2.304 10.3846 2.304C10.3385 2.304 10.3384 2.304 10.2923 2.304C10.2461 2.304 10.2461 2.304 10.2 2.304C9.96922 2.304 9.7846 2.256 9.55383 2.16V1.44C9.73845 1.344 9.96922 1.296 10.2 1.296C10.2461 1.296 10.2461 1.296 10.2923 1.296C10.3384 1.344 10.3846 1.344 10.3846 1.344ZM12.2769 1.344C12.5077 1.344 12.6923 1.392 12.9231 1.488V2.16C12.7385 2.256 12.5077 2.304 12.2769 2.304V1.344ZM13.8923 1.344C14.1231 1.344 14.3077 1.392 14.5385 1.488V2.16C14.3538 2.256 14.1231 2.304 13.8923 2.304C13.8461 2.304 13.8461 2.304 13.8 2.304C13.7538 2.304 13.7538 2.304 13.7077 2.304C13.4769 2.304 13.2923 2.256 13.0615 2.16V1.44C13.2461 1.344 13.4769 1.296 13.7077 1.296C13.7538 1.296 13.7538 1.296 13.8 1.296C13.8 1.344 13.8461 1.344 13.8923 1.344ZM15.4615 1.344C15.6923 1.344 15.8769 1.392 16.1077 1.488V2.16C15.9231 2.256 15.6923 2.304 15.4615 2.304C15.4154 2.304 15.4154 2.304 15.3692 2.304C15.3231 2.304 15.3231 2.304 15.2769 2.304C15.0461 2.304 14.8615 2.256 14.6308 2.16V1.44C14.8154 1.344 15.0461 1.296 15.2769 1.296C15.3231 1.296 15.3231 1.296 15.3692 1.296C15.4154 1.344 15.4154 1.344 15.4615 1.344ZM17.0308 1.344C17.2615 1.344 17.4461 1.392 17.6769 1.488V2.16C17.4923 2.256 17.2615 2.304 17.0308 2.304C16.9846 2.304 16.9846 2.304 16.9385 2.304C16.8923 2.304 16.8923 2.304 16.8461 2.304C16.6154 2.304 16.4308 2.256 16.2 2.16V1.44C16.3846 1.344 16.6154 1.296 16.8461 1.296C16.8923 1.296 16.8923 1.296 16.9385 1.296C16.9846 1.344 17.0308 1.344 17.0308 1.344ZM18.6 1.344C18.8308 1.344 19.0154 1.392 19.2461 1.488V2.16C19.0615 2.256 18.8308 2.304 18.6 2.304C18.5538 2.304 18.5538 2.304 18.5077 2.304C18.4615 2.304 18.4615 2.304 18.4154 2.304C18.1846 2.304 18 2.256 17.7692 2.16V1.44C17.9538 1.344 18.1846 1.296 18.4154 1.296C18.4615 1.296 18.4615 1.296 18.5077 1.296C18.5538 1.344 18.6 1.344 18.6 1.344ZM20.2154 1.344C20.4461 1.344 20.6308 1.392 20.8615 1.488V2.16C20.6769 2.256 20.4461 2.304 20.2154 2.304C20.1692 2.304 20.1692 2.304 20.1231 2.304C20.0769 2.304 20.0769 2.304 20.0308 2.304C19.8 2.304 19.6154 2.256 19.3846 2.16V1.44C19.5692 1.344 19.8 1.296 20.0308 1.296C20.0769 1.296 20.0769 1.296 20.1231 1.296C20.1692 1.344 20.1692 1.344 20.2154 1.344ZM21.7846 1.344C22.0154 1.344 22.2 1.392 22.4308 1.488V2.16C22.2461 2.256 22.0154 2.304 21.7846 2.304C21.7385 2.304 21.7385 2.304 21.6923 2.304C21.6461 2.304 21.6461 2.304 21.6 2.304C21.3692 2.304 21.1846 2.256 20.9538 2.16V1.44C21.1385 1.344 21.3692 1.296 21.6 1.296C21.6461 1.296 21.6461 1.296 21.6923 1.296C21.7385 1.344 21.7846 1.344 21.7846 1.344ZM23.1692 13.584C22.9846 13.68 22.7538 13.728 22.5231 13.728C22.4769 13.728 22.4769 13.728 22.4308 13.728C22.3846 13.728 22.3846 13.728 22.3385 13.728C22.1077 13.728 21.9231 13.68 21.6923 13.584V12.912C21.8769 12.816 22.1077 12.768 22.3385 12.768C22.3846 12.768 22.3846 12.768 22.4308 12.768C22.4769 12.768 22.4769 12.768 22.5231 12.768C22.7538 12.768 22.9385 12.816 23.1692 12.912V13.584ZM23.1692 15.36C22.9846 15.456 22.7538 15.504 22.5231 15.504C22.4769 15.504 22.4769 15.504 22.4308 15.504C22.3846 15.504 22.3846 15.504 22.3385 15.504C22.1077 15.504 21.9231 15.456 21.6923 15.36V14.688C21.8769 14.592 22.1077 14.544 22.3385 14.544C22.3846 14.544 22.3846 14.544 22.4308 14.544C22.4769 14.544 22.4769 14.544 22.5231 14.544C22.7538 14.544 22.9385 14.592 23.1692 14.688V15.36ZM23.1692 17.136C22.9846 17.232 22.7538 17.28 22.5231 17.28C22.4769 17.28 22.4769 17.28 22.4308 17.28C22.3846 17.28 22.3846 17.28 22.3385 17.28C22.1077 17.28 21.9231 17.232 21.6923 17.136V16.464C21.8769 16.368 22.1077 16.32 22.3385 16.32C22.3846 16.32 22.3846 16.32 22.4308 16.32C22.4769 16.32 22.4769 16.32 22.5231 16.32C22.7538 16.32 22.9385 16.368 23.1692 16.464V17.136ZM23.1692 18.912C22.9846 19.008 22.7538 19.056 22.5231 19.056C22.4769 19.056 22.4769 19.056 22.4308 19.056C22.3846 19.056 22.3846 19.056 22.3385 19.056C22.1077 19.056 21.9231 19.008 21.6923 18.912V18.24C21.8769 18.144 22.1077 18.096 22.3385 18.096C22.3846 18.096 22.3846 18.096 22.4308 18.096C22.4769 18.096 22.4769 18.096 22.5231 18.096C22.7538 18.096 22.9385 18.144 23.1692 18.24V18.912ZM0.876912 18.24C1.06153 18.144 1.2923 18.096 1.52307 18.096C1.56922 18.096 1.56922 18.096 1.61537 18.096C1.66153 18.096 1.66153 18.096 1.70768 18.096C1.93845 18.096 2.12307 18.144 2.35383 18.24V18.912C2.16922 19.008 1.93845 19.056 1.70768 19.056C1.66153 19.056 1.66153 19.056 1.61537 19.056C1.56922 19.056 1.56922 19.056 1.52307 19.056C1.2923 19.056 1.10768 19.008 0.876912 18.912V18.24ZM0.876912 16.464C1.06153 16.368 1.2923 16.32 1.47691 16.32C1.52307 16.32 1.52307 16.32 1.56922 16.32C1.61537 16.32 1.61537 16.32 1.66153 16.32C1.8923 16.32 2.07691 16.368 2.30768 16.464V17.136C2.07691 17.232 1.8923 17.28 1.66153 17.28C1.61537 17.28 1.61537 17.28 1.56922 17.28C1.52307 17.28 1.52307 17.28 1.47691 17.28C1.24614 17.28 1.06153 17.232 0.830758 17.136V16.464H0.876912ZM0.876912 14.688C1.06153 14.592 1.2923 14.544 1.52307 14.544C1.56922 14.544 1.56922 14.544 1.61537 14.544C1.66153 14.544 1.66153 14.544 1.70768 14.544C1.93845 14.544 2.12307 14.592 2.35383 14.688V15.36C2.16922 15.456 1.93845 15.504 1.70768 15.504C1.66153 15.504 1.66153 15.504 1.61537 15.504C1.56922 15.504 1.56922 15.504 1.52307 15.504C1.2923 15.504 1.10768 15.456 0.876912 15.36V14.688ZM0.876912 12.864C1.06153 12.768 1.2923 12.72 1.52307 12.72C1.56922 12.72 1.56922 12.72 1.61537 12.72C1.66153 12.72 1.66153 12.72 1.70768 12.72C1.93845 12.72 2.12307 12.768 2.35383 12.864V13.536C2.16922 13.632 1.93845 13.68 1.70768 13.68C1.66153 13.68 1.66153 13.68 1.61537 13.68C1.56922 13.68 1.56922 13.68 1.52307 13.68C1.2923 13.68 1.10768 13.632 0.876912 13.536V12.864ZM23.1692 4.224V4.752C22.9385 4.752 22.7077 4.8 22.4769 4.896C22.2461 4.8 22.0154 4.752 21.7846 4.752V4.224C22.0154 4.224 22.2461 4.176 22.4769 4.08C22.7077 4.176 22.9385 4.224 23.1692 4.224ZM22.5692 3.936V3.264C22.7538 3.168 22.9846 3.168 23.1692 3.12V4.08C22.9846 4.032 22.8 3.984 22.5692 3.936ZM22.5231 8.448C22.2923 8.352 22.0615 8.304 21.8308 8.304V7.776C22.0615 7.776 22.2923 7.728 22.5231 7.632C22.7538 7.728 22.9846 7.776 23.2154 7.776V8.304C22.9384 8.304 22.7077 8.352 22.5231 8.448ZM23.1692 8.496V9.456C22.9846 9.456 22.7538 9.408 22.5692 9.312V8.64C22.8 8.544 22.9846 8.496 23.1692 8.496ZM2.4923 7.776C2.72307 7.776 2.95384 7.728 3.1846 7.632C3.41537 7.728 3.64614 7.776 3.87691 7.776V8.304C3.64614 8.304 3.41537 8.352 3.1846 8.448C2.95384 8.352 2.72307 8.304 2.4923 8.304V7.776ZM2.39999 7.632C2.35383 7.632 2.35383 7.632 2.30768 7.632C2.07691 7.632 1.8923 7.584 1.66153 7.488V6.816C1.8923 6.72 2.07691 6.672 2.30768 6.672C2.35383 6.672 2.35383 6.672 2.39999 6.672C2.44614 6.672 2.44614 6.672 2.4923 6.672C2.72307 6.672 2.90768 6.72 3.13845 6.816V7.488C2.95384 7.584 2.72307 7.632 2.4923 7.632C2.44614 7.632 2.39999 7.632 2.39999 7.632ZM19.2461 14.4C19.0154 14.4 18.7846 14.448 18.5538 14.544C18.3231 14.448 18.0923 14.4 17.8615 14.4V13.872C18.0923 13.872 18.3231 13.824 18.5538 13.728C18.7846 13.824 19.0154 13.872 19.2461 13.872V14.4ZM19.2923 14.544C19.3385 14.544 19.3385 14.544 19.3846 14.544C19.6154 14.544 19.8 14.592 20.0308 14.688V15.36C19.8461 15.456 19.6154 15.504 19.3846 15.504C19.3385 15.504 19.3385 15.504 19.2923 15.504C19.2461 15.504 19.2461 15.504 19.2 15.504C18.9692 15.504 18.7846 15.456 18.5538 15.36V14.688C18.7385 14.592 18.9692 14.544 19.2 14.544C19.2461 14.544 19.2923 14.544 19.2923 14.544ZM4.84614 14.4V13.872C5.07691 13.872 5.30768 13.824 5.53845 13.728C5.76922 13.824 5.99999 13.872 6.23076 13.872V14.4C5.99999 14.4 5.76922 14.448 5.53845 14.544C5.30768 14.448 5.07691 14.4 4.84614 14.4ZM5.44614 14.688V15.36C5.26153 15.456 5.03076 15.504 4.79999 15.504C4.75383 15.504 4.75383 15.504 4.70768 15.504C4.66153 15.504 4.66153 15.504 4.61537 15.504C4.3846 15.504 4.19999 15.456 3.96922 15.36V14.688C4.15383 14.592 4.3846 14.544 4.61537 14.544C4.66153 14.544 4.66153 14.544 4.70768 14.544C4.75383 14.544 4.75383 14.544 4.79999 14.544C5.03076 14.544 5.26153 14.592 5.44614 14.688ZM5.63076 9.6C5.86153 9.6 6.0923 9.552 6.32307 9.456C6.55383 9.552 6.7846 9.6 7.01537 9.6V10.08C6.7846 10.08 6.55383 10.128 6.32307 10.224C6.0923 10.128 5.86153 10.08 5.63076 10.08V9.6ZM5.53845 9.408C5.4923 9.408 5.4923 9.408 5.44614 9.408C5.21537 9.408 5.03076 9.36 4.79999 9.264V8.592C4.9846 8.496 5.21537 8.448 5.44614 8.448C5.4923 8.448 5.4923 8.448 5.53845 8.448C5.5846 8.448 5.5846 8.448 5.63076 8.448C5.86153 8.448 6.04614 8.496 6.27691 8.592V9.264C6.0923 9.36 5.86153 9.408 5.63076 9.408C5.63076 9.408 5.5846 9.408 5.53845 9.408ZM18.4615 9.6V10.08C18.2308 10.08 18 10.128 17.7692 10.224C17.5385 10.128 17.3077 10.08 17.0769 10.08V9.6C17.3077 9.6 17.5385 9.552 17.7692 9.456C18 9.504 18.2308 9.552 18.4615 9.6ZM17.8154 9.312V8.64C18 8.544 18.2308 8.496 18.4615 8.496C18.5077 8.496 18.5077 8.496 18.5538 8.496C18.6 8.496 18.6 8.496 18.6461 8.496C18.8769 8.496 19.0615 8.544 19.2923 8.64V9.312C19.1077 9.408 18.8769 9.456 18.6461 9.456C18.6 9.456 18.6 9.456 18.5538 9.456C18.5077 9.456 18.5077 9.456 18.4615 9.456C18.2308 9.408 18.0461 9.36 17.8154 9.312ZM16.2461 12.768C16.4769 12.768 16.6615 12.816 16.8923 12.912V13.584C16.7077 13.68 16.4769 13.728 16.2461 13.728C16.2 13.728 16.2 13.728 16.1538 13.728C16.1077 13.728 16.1077 13.728 16.0615 13.728C15.8308 13.728 15.6461 13.68 15.4154 13.584V12.912C15.6 12.816 15.8308 12.768 16.0615 12.768C16.1077 12.768 16.1077 12.768 16.1538 12.768C16.1538 12.768 16.2 12.768 16.2461 12.768ZM16.0615 12.576C15.8308 12.576 15.6 12.624 15.3692 12.72C15.1385 12.624 14.9077 12.576 14.6769 12.576V12.24H16.1077V12.576H16.0615ZM8.63076 11.184C8.39999 11.184 8.21537 11.136 7.9846 11.04V10.368C8.16922 10.272 8.39999 10.224 8.63076 10.224C8.67691 10.224 8.67691 10.224 8.72307 10.224C8.76922 10.224 8.76922 10.224 8.81537 10.224C9.04614 10.224 9.23076 10.272 9.46153 10.368V11.04C9.27691 11.136 9.04614 11.184 8.81537 11.184C8.76922 11.184 8.76922 11.184 8.72307 11.184C8.72307 11.232 8.67691 11.232 8.63076 11.184ZM8.81537 11.376C9.04614 11.376 9.27691 11.328 9.50768 11.232C9.73845 11.328 9.96922 11.376 10.2 11.376V11.76H8.76922V11.376H8.81537ZM15.2769 11.184C15.0461 11.184 14.8615 11.136 14.6308 11.04V10.368C14.8154 10.272 15.0461 10.224 15.2769 10.224C15.3231 10.224 15.3231 10.224 15.3692 10.224C15.4154 10.224 15.4154 10.224 15.4615 10.224C15.6923 10.224 15.8769 10.272 16.1077 10.368V11.04C15.9231 11.136 15.6923 11.184 15.4615 11.184C15.4154 11.184 15.4154 11.184 15.3692 11.184C15.3692 11.232 15.3231 11.232 15.2769 11.184ZM15.2769 11.376V11.76H13.8461V11.376C14.0769 11.376 14.3077 11.328 14.5385 11.232C14.8154 11.328 15.0461 11.376 15.2769 11.376ZM14.4923 11.088C14.3077 11.184 14.0769 11.232 13.8461 11.232C13.8 11.232 13.8 11.232 13.7538 11.232C13.7077 11.232 13.7077 11.232 13.6615 11.232C13.4308 11.232 13.2461 11.184 13.0154 11.088V10.416C13.2 10.32 13.4308 10.272 13.6615 10.272C13.7077 10.272 13.7077 10.272 13.7538 10.272C13.8 10.272 13.8 10.272 13.8461 10.272C14.0769 10.272 14.2615 10.32 14.4923 10.416V11.088ZM13.7077 11.376V11.76H12.2769V11.376C12.5077 11.376 12.7385 11.328 12.9692 11.232C13.2461 11.328 13.4769 11.376 13.7077 11.376ZM12.9231 11.088C12.7385 11.184 12.5077 11.232 12.2769 11.232V10.272C12.5077 10.272 12.6923 10.32 12.9231 10.416V11.088ZM11.7692 11.184C11.5846 11.184 11.3538 11.136 11.1692 11.04V10.368C11.3538 10.272 11.5846 10.272 11.7692 10.224V11.184ZM11.7692 11.376V11.76H10.3846V11.376C10.6154 11.376 10.8461 11.328 11.0769 11.232C11.3077 11.28 11.5385 11.328 11.7692 11.376ZM11.0308 11.088C10.8461 11.184 10.6154 11.232 10.3846 11.232C10.3385 11.232 10.3384 11.232 10.2923 11.232C10.2461 11.232 10.2461 11.232 10.2 11.232C9.96922 11.232 9.7846 11.184 9.55383 11.088V10.416C9.73845 10.32 9.96922 10.272 10.2 10.272C10.2461 10.272 10.2461 10.272 10.2923 10.272C10.3384 10.272 10.3385 10.272 10.3846 10.272C10.6154 10.272 10.8 10.32 11.0308 10.416V11.088ZM7.9846 12.768C8.21537 12.768 8.39999 12.816 8.63076 12.912V13.584C8.44614 13.68 8.21537 13.728 7.9846 13.728C7.93845 13.728 7.93845 13.728 7.8923 13.728C7.84614 13.728 7.84614 13.728 7.79999 13.728C7.56922 13.728 7.3846 13.68 7.15383 13.584V12.912C7.33845 12.816 7.56922 12.768 7.79999 12.768C7.84614 12.768 7.84614 12.768 7.8923 12.768C7.93845 12.768 7.9846 12.768 7.9846 12.768ZM7.9846 12.576V12.24H9.41537V12.576C9.1846 12.576 8.95383 12.624 8.72307 12.72C8.4923 12.672 8.21537 12.624 7.9846 12.576ZM8.76922 12.864C8.95383 12.768 9.1846 12.72 9.41537 12.72C9.46153 12.72 9.46153 12.72 9.50768 12.72C9.55383 12.72 9.55383 12.72 9.59999 12.72C9.83076 12.72 10.0154 12.768 10.2461 12.864V13.536C10.0615 13.632 9.83076 13.68 9.59999 13.68C9.55383 13.68 9.55383 13.68 9.50768 13.68C9.46153 13.68 9.46153 13.68 9.41537 13.68C9.1846 13.68 8.99999 13.632 8.76922 13.536V12.864ZM9.59999 12.576V12.24H11.0308V12.576C10.8 12.576 10.5692 12.624 10.3385 12.72C10.0615 12.672 9.83076 12.624 9.59999 12.576ZM11.1692 12.24H11.8154V12.72C11.6308 12.672 11.4 12.624 11.1692 12.624V12.24ZM12.2769 12.24H12.9231V12.576C12.6923 12.576 12.5077 12.624 12.2769 12.672V12.24ZM13.0615 12.24H14.4923V12.576C14.2615 12.576 14.0308 12.624 13.8 12.72C13.5692 12.624 13.3385 12.576 13.1077 12.576V12.24H13.0615ZM13.8461 12.864C14.0308 12.768 14.2615 12.72 14.4923 12.72C14.5385 12.72 14.5385 12.72 14.5846 12.72C14.6308 12.72 14.6308 12.72 14.6769 12.72C14.9077 12.72 15.0923 12.768 15.3231 12.864V13.536C15.1385 13.632 14.9077 13.68 14.6769 13.68C14.6308 13.68 14.6308 13.68 14.5846 13.68C14.5385 13.68 14.5385 13.68 14.4923 13.68C14.2615 13.68 14.0769 13.632 13.8461 13.536V12.864ZM15.4615 11.76V11.376C15.6923 11.376 15.9231 11.328 16.1538 11.232C16.3846 11.328 16.6154 11.376 16.8461 11.376V11.76H15.4615ZM16.8923 11.184C16.6615 11.184 16.4769 11.136 16.2461 11.04V10.368C16.4308 10.272 16.6615 10.224 16.8923 10.224C16.9384 10.224 16.9384 10.224 16.9846 10.224C17.0308 10.224 17.0308 10.224 17.0769 10.224C17.3077 10.224 17.4923 10.272 17.7231 10.368V11.04C17.5385 11.136 17.3077 11.184 17.0769 11.184C17.0308 11.184 17.0308 11.184 16.9846 11.184C16.9384 11.232 16.8923 11.232 16.8923 11.184ZM17.6769 9.312C17.4923 9.408 17.2615 9.456 17.0308 9.456C16.9846 9.456 16.9846 9.456 16.9385 9.456C16.8923 9.456 16.8923 9.456 16.8461 9.456C16.6154 9.456 16.4308 9.408 16.2 9.312V8.64C16.3846 8.544 16.6154 8.496 16.8461 8.496C16.8923 8.496 16.8923 8.496 16.9385 8.496C16.9846 8.496 16.9846 8.496 17.0308 8.496C17.2615 8.496 17.4461 8.544 17.6769 8.64V9.312ZM16.8923 9.6V10.08C16.6615 10.08 16.4308 10.128 16.2 10.224C15.9692 10.128 15.7385 10.08 15.5077 10.08V9.6C15.7385 9.6 15.9692 9.552 16.2 9.456C16.3846 9.504 16.6615 9.552 16.8923 9.6ZM16.1077 9.312C15.9231 9.408 15.6923 9.456 15.4615 9.456C15.4154 9.456 15.4154 9.456 15.3692 9.456C15.3231 9.456 15.3231 9.456 15.2769 9.456C15.0461 9.456 14.8615 9.408 14.6308 9.312V8.64C14.8154 8.544 15.0461 8.496 15.2769 8.496C15.3231 8.496 15.3231 8.496 15.3692 8.496C15.4154 8.496 15.4154 8.496 15.4615 8.496C15.6923 8.496 15.8769 8.544 16.1077 8.64V9.312ZM15.2769 9.6V10.08C15.0461 10.08 14.8154 10.128 14.5846 10.224C14.3538 10.128 14.1231 10.08 13.8923 10.08V9.6C14.1231 9.6 14.3538 9.552 14.5846 9.456C14.8154 9.504 15.0461 9.552 15.2769 9.6ZM14.4923 9.312C14.3077 9.408 14.0769 9.456 13.8461 9.456C13.8 9.456 13.8 9.456 13.7538 9.456C13.7077 9.456 13.7077 9.456 13.6615 9.456C13.4308 9.456 13.2461 9.408 13.0154 9.312V8.64C13.2 8.544 13.4308 8.496 13.6615 8.496C13.7077 8.496 13.7077 8.496 13.7538 8.496C13.8 8.496 13.8 8.496 13.8461 8.496C14.0769 8.496 14.2615 8.544 14.4923 8.64V9.312ZM13.7077 9.6V10.08C13.4769 10.08 13.2461 10.128 13.0154 10.224C12.7846 10.128 12.5538 10.08 12.3231 10.08V9.6C12.5538 9.6 12.7846 9.552 13.0154 9.456C13.2461 9.504 13.4769 9.552 13.7077 9.6ZM12.9231 9.312C12.7385 9.408 12.5077 9.456 12.2769 9.456V8.496C12.5077 8.496 12.6923 8.544 12.9231 8.64V9.312ZM11.7692 9.408C11.5846 9.408 11.3538 9.36 11.1692 9.264V8.592C11.3538 8.496 11.5846 8.496 11.7692 8.448V9.408ZM11.7692 9.552V10.08C11.5385 10.08 11.3077 10.128 11.0769 10.224C10.8461 10.128 10.6154 10.08 10.3846 10.08V9.6C10.6154 9.6 10.8461 9.552 11.0769 9.456C11.3077 9.504 11.5385 9.552 11.7692 9.552ZM11.0308 9.312C10.8461 9.408 10.6154 9.456 10.3846 9.456C10.3385 9.456 10.3384 9.456 10.2923 9.456C10.2461 9.456 10.2461 9.456 10.2 9.456C9.96922 9.456 9.7846 9.408 9.55383 9.312V8.64C9.73845 8.544 9.96922 8.496 10.2 8.496C10.2461 8.496 10.2461 8.496 10.2923 8.496C10.3384 8.496 10.3385 8.496 10.3846 8.496C10.6154 8.496 10.8 8.544 11.0308 8.64V9.312ZM10.2461 9.6V10.08C10.0154 10.08 9.7846 10.128 9.55383 10.224C9.32307 10.128 9.0923 10.08 8.86153 10.08V9.6C9.0923 9.6 9.32307 9.552 9.55383 9.456C9.73845 9.504 9.96922 9.552 10.2461 9.6ZM9.46153 9.312C9.27691 9.408 9.04614 9.456 8.81537 9.456C8.76922 9.456 8.76922 9.456 8.72307 9.456C8.67691 9.456 8.67691 9.456 8.63076 9.456C8.39999 9.456 8.21537 9.408 7.9846 9.312V8.64C8.16922 8.544 8.39999 8.496 8.63076 8.496C8.67691 8.496 8.67691 8.496 8.72307 8.496C8.76922 8.496 8.76922 8.496 8.81537 8.496C9.04614 8.496 9.23076 8.544 9.46153 8.64V9.312ZM8.63076 9.6V10.08C8.39999 10.08 8.16922 10.128 7.93845 10.224C7.70768 10.128 7.47691 10.08 7.24614 10.08V9.6C7.47691 9.6 7.70768 9.552 7.93845 9.456C8.16922 9.504 8.39999 9.552 8.63076 9.6ZM7.84614 9.312C7.66153 9.408 7.43076 9.456 7.19999 9.456C7.15383 9.456 7.15383 9.456 7.10768 9.456C7.06153 9.456 7.06153 9.456 7.01537 9.456C6.7846 9.456 6.59999 9.408 6.36922 9.312V8.64C6.55383 8.544 6.7846 8.496 7.01537 8.496C7.06153 8.496 7.06153 8.496 7.10768 8.496C7.15383 8.496 7.15383 8.496 7.19999 8.496C7.43076 8.496 7.61537 8.544 7.84614 8.64V9.312ZM6.41537 10.368C6.59999 10.272 6.83076 10.224 7.06153 10.224C7.10768 10.224 7.10768 10.224 7.15383 10.224C7.19999 10.224 7.19999 10.224 7.24614 10.224C7.47691 10.224 7.66153 10.272 7.8923 10.368V11.04C7.70768 11.136 7.47691 11.184 7.24614 11.184C7.19999 11.184 7.19999 11.184 7.15383 11.184C7.10768 11.184 7.10768 11.184 7.06153 11.184C6.83076 11.184 6.64614 11.136 6.41537 11.04V10.368ZM7.19999 11.376C7.43076 11.376 7.66153 11.328 7.8923 11.232C8.12307 11.328 8.35384 11.376 8.5846 11.376V11.76H7.15383V11.376H7.19999ZM7.84614 12.24V12.576C7.61537 12.576 7.3846 12.624 7.15383 12.72C6.92307 12.624 6.6923 12.576 6.46153 12.576V12.24H7.84614ZM6.41537 12.768C6.64614 12.768 6.83076 12.816 7.06153 12.912V13.584C6.87691 13.68 6.64614 13.728 6.41537 13.728C6.36922 13.728 6.36922 13.728 6.32307 13.728C6.27691 13.728 6.27691 13.728 6.23076 13.728C5.99999 13.728 5.81537 13.68 5.5846 13.584V12.912C5.76922 12.816 5.99999 12.768 6.23076 12.768C6.27691 12.768 6.27691 12.768 6.32307 12.768C6.36922 12.768 6.36922 12.768 6.41537 12.768ZM5.63076 14.688C5.81537 14.592 6.04614 14.544 6.27691 14.544C6.32307 14.544 6.32307 14.544 6.36922 14.544C6.41537 14.544 6.41537 14.544 6.46153 14.544C6.6923 14.544 6.87691 14.592 7.10768 14.688V15.36C6.92307 15.456 6.6923 15.504 6.46153 15.504C6.41537 15.504 6.41537 15.504 6.36922 15.504C6.32307 15.504 6.32307 15.504 6.27691 15.504C6.04614 15.504 5.86153 15.456 5.63076 15.36V14.688ZM6.41537 14.4V13.872C6.64614 13.872 6.87691 13.824 7.10768 13.728C7.33845 13.824 7.56922 13.872 7.79999 13.872V14.4C7.56922 14.4 7.33845 14.448 7.10768 14.544C6.87691 14.448 6.64614 14.4 6.41537 14.4ZM7.19999 14.688C7.3846 14.592 7.61537 14.544 7.84614 14.544C7.8923 14.544 7.8923 14.544 7.93845 14.544C7.9846 14.544 7.9846 14.544 8.03076 14.544C8.26153 14.544 8.44614 14.592 8.67691 14.688V15.36C8.4923 15.456 8.26153 15.504 8.03076 15.504C7.9846 15.504 7.9846 15.504 7.93845 15.504C7.8923 15.504 7.8923 15.504 7.84614 15.504C7.61537 15.504 7.43076 15.456 7.19999 15.36V14.688ZM7.9846 14.4V13.872C8.21537 13.872 8.44614 13.824 8.67691 13.728C8.90768 13.824 9.13845 13.872 9.36922 13.872V14.4C9.13845 14.4 8.90768 14.448 8.67691 14.544C8.4923 14.448 8.21537 14.4 7.9846 14.4ZM8.76922 14.688C8.95383 14.592 9.1846 14.544 9.41537 14.544C9.46153 14.544 9.46153 14.544 9.50768 14.544C9.55383 14.544 9.55383 14.544 9.59999 14.544C9.83076 14.544 10.0154 14.592 10.2461 14.688V15.36C10.0615 15.456 9.83076 15.504 9.59999 15.504C9.55383 15.504 9.55383 15.504 9.50768 15.504C9.46153 15.504 9.46153 15.504 9.41537 15.504C9.1846 15.504 8.99999 15.456 8.76922 15.36V14.688ZM9.59999 14.4V13.872C9.83076 13.872 10.0615 13.824 10.2923 13.728C10.5231 13.824 10.7538 13.872 10.9846 13.872V14.4C10.7538 14.4 10.5231 14.448 10.2923 14.544C10.0615 14.448 9.83076 14.4 9.59999 14.4ZM10.3846 13.584V12.912C10.5692 12.816 10.8 12.768 11.0308 12.768C11.0769 12.768 11.0769 12.768 11.1231 12.768C11.1692 12.768 11.1692 12.768 11.2154 12.768C11.4461 12.768 11.6308 12.816 11.8615 12.912V13.584C11.6769 13.68 11.4461 13.728 11.2154 13.728C11.1692 13.728 11.1692 13.728 11.1231 13.728C11.0769 13.728 11.0769 13.728 11.0308 13.728C10.8 13.68 10.5692 13.632 10.3846 13.584ZM11.1692 13.872C11.4 13.872 11.5846 13.824 11.8154 13.776V14.544C11.6308 14.496 11.4 14.448 11.1692 14.448V13.872ZM12.2769 13.728C12.4615 13.776 12.6923 13.824 12.9231 13.824V14.4C12.6923 14.4 12.5077 14.448 12.2769 14.496V13.728ZM12.2769 13.584V12.912C12.4615 12.816 12.6923 12.768 12.9231 12.768C12.9692 12.768 12.9692 12.768 13.0154 12.768C13.0615 12.768 13.0615 12.768 13.1077 12.768C13.3385 12.768 13.5231 12.816 13.7538 12.912V13.584C13.5692 13.68 13.3385 13.728 13.1077 13.728C13.0615 13.728 13.0615 13.728 13.0154 13.728C12.9692 13.728 12.9692 13.728 12.9231 13.728C12.6923 13.68 12.4615 13.632 12.2769 13.584ZM13.0615 13.872C13.2923 13.872 13.5231 13.824 13.7538 13.728C13.9846 13.824 14.2154 13.872 14.4461 13.872V14.4C14.2154 14.4 13.9846 14.448 13.7538 14.544C13.5231 14.448 13.2923 14.4 13.0615 14.4V13.872ZM13.8461 14.688C14.0308 14.592 14.2615 14.544 14.4923 14.544C14.5385 14.544 14.5385 14.544 14.5846 14.544C14.6308 14.544 14.6308 14.544 14.6769 14.544C14.9077 14.544 15.0923 14.592 15.3231 14.688V15.36C15.1385 15.456 14.9077 15.504 14.6769 15.504C14.6308 15.504 14.6308 15.504 14.5846 15.504C14.5385 15.504 14.5385 15.504 14.4923 15.504C14.2615 15.504 14.0769 15.456 13.8461 15.36V14.688ZM14.6308 14.4V13.872C14.8615 13.872 15.0923 13.824 15.3231 13.728C15.5538 13.824 15.7846 13.872 16.0154 13.872V14.4C15.7846 14.4 15.5538 14.448 15.3231 14.544C15.1385 14.448 14.8615 14.4 14.6308 14.4ZM15.4154 14.688C15.6 14.592 15.8308 14.544 16.0615 14.544C16.1077 14.544 16.1077 14.544 16.1538 14.544C16.2 14.544 16.2 14.544 16.2461 14.544C16.4769 14.544 16.6615 14.592 16.8923 14.688V15.36C16.7077 15.456 16.4769 15.504 16.2461 15.504C16.2 15.504 16.2 15.504 16.1538 15.504C16.1077 15.504 16.1077 15.504 16.0615 15.504C15.8308 15.504 15.6461 15.456 15.4154 15.36V14.688ZM16.2461 14.4V13.872C16.4769 13.872 16.7077 13.824 16.9385 13.728C17.1692 13.824 17.4 13.872 17.6308 13.872V14.4C17.4 14.4 17.1692 14.448 16.9385 14.544C16.7077 14.448 16.4769 14.4 16.2461 14.4ZM17.0308 14.688C17.2154 14.592 17.4461 14.544 17.6769 14.544C17.7231 14.544 17.7231 14.544 17.7692 14.544C17.8154 14.544 17.8154 14.544 17.8615 14.544C18.0923 14.544 18.2769 14.592 18.5077 14.688V15.36C18.3231 15.456 18.0923 15.504 17.8615 15.504C17.8154 15.504 17.8154 15.504 17.7692 15.504C17.7231 15.504 17.7231 15.504 17.6769 15.504C17.4461 15.504 17.2615 15.456 17.0308 15.36V14.688ZM18.4615 13.584C18.2769 13.68 18.0461 13.728 17.8154 13.728C17.7692 13.728 17.7692 13.728 17.7231 13.728C17.6769 13.728 17.6769 13.728 17.6308 13.728C17.4 13.728 17.2154 13.68 16.9846 13.584V12.912C17.1692 12.816 17.4 12.768 17.6308 12.768C17.6769 12.768 17.6769 12.768 17.7231 12.768C17.7692 12.768 17.7692 12.768 17.8154 12.768C18.0461 12.768 18.2308 12.816 18.4615 12.912V13.584ZM17.6308 12.576C17.4 12.576 17.1692 12.624 16.9385 12.72C16.7077 12.624 16.4769 12.576 16.2461 12.576V12.24H17.6769V12.576H17.6308ZM17.0308 11.76V11.376C17.2615 11.376 17.4923 11.328 17.7231 11.232C17.9538 11.328 18.1846 11.376 18.4154 11.376V11.76H17.0308ZM18.4615 11.184C18.2308 11.184 18.0461 11.136 17.8154 11.04V10.368C18 10.272 18.2308 10.224 18.4615 10.224C18.5077 10.224 18.5077 10.224 18.5538 10.224C18.6 10.224 18.6 10.224 18.6461 10.224C18.8769 10.224 19.0615 10.272 19.2923 10.368V11.04C19.1077 11.136 18.8769 11.184 18.6461 11.184C18.6 11.184 18.6 11.184 18.5538 11.184C18.5077 11.232 18.5077 11.232 18.4615 11.184ZM18.6 10.08V9.6C18.8308 9.6 19.0615 9.552 19.2923 9.456C19.5231 9.552 19.7538 9.6 19.9846 9.6V10.08C19.7538 10.08 19.5231 10.128 19.2923 10.224C19.1077 10.176 18.8769 10.128 18.6 10.08ZM19.4308 9.312V8.64C19.6154 8.544 19.8461 8.496 20.0769 8.496C20.1231 8.496 20.1231 8.496 20.1692 8.496C20.2154 8.496 20.2154 8.496 20.2615 8.496C20.4923 8.496 20.6769 8.544 20.9077 8.64V9.312C20.7231 9.408 20.4923 9.456 20.2615 9.456C20.2154 9.456 20.2154 9.456 20.1692 9.456C20.1231 9.456 20.1231 9.456 20.0769 9.456C19.8461 9.408 19.6154 9.36 19.4308 9.312ZM20.1231 7.632C20.0769 7.632 20.0769 7.632 20.0308 7.632C19.8 7.632 19.6154 7.584 19.3846 7.488V6.816C19.5692 6.72 19.8 6.672 20.0308 6.672C20.0769 6.672 20.0769 6.672 20.1231 6.672C20.1692 6.672 20.1692 6.672 20.2154 6.672C20.4461 6.672 20.6308 6.72 20.8615 6.816V7.488C20.6769 7.584 20.4461 7.632 20.2154 7.632C20.1692 7.632 20.1692 7.632 20.1231 7.632ZM20.0308 7.776V8.304C19.8 8.304 19.5692 8.352 19.3385 8.448C19.1077 8.352 18.8769 8.304 18.6461 8.304V7.776C18.8769 7.776 19.1077 7.728 19.3385 7.632C19.5692 7.728 19.8 7.776 20.0308 7.776ZM19.2461 7.488C19.0615 7.584 18.8308 7.632 18.6 7.632C18.5538 7.632 18.5538 7.632 18.5077 7.632C18.4615 7.632 18.4615 7.632 18.4154 7.632C18.1846 7.632 18 7.584 17.7692 7.488V6.816C17.9538 6.72 18.1846 6.672 18.4154 6.672C18.4615 6.672 18.4615 6.672 18.5077 6.672C18.5538 6.672 18.5538 6.672 18.6 6.672C18.8308 6.672 19.0154 6.72 19.2461 6.816V7.488ZM18.4615 7.776V8.304C18.2308 8.304 18 8.352 17.7692 8.448C17.5385 8.352 17.3077 8.304 17.0769 8.304V7.776C17.3077 7.776 17.5385 7.728 17.7692 7.632C18 7.728 18.2308 7.776 18.4615 7.776ZM17.6769 7.488C17.4923 7.584 17.2615 7.632 17.0308 7.632C16.9846 7.632 16.9846 7.632 16.9385 7.632C16.8923 7.632 16.8923 7.632 16.8461 7.632C16.6154 7.632 16.4308 7.584 16.2 7.488V6.816C16.3846 6.72 16.6154 6.672 16.8461 6.672C16.8923 6.672 16.8923 6.672 16.9385 6.672C16.9846 6.672 16.9846 6.672 17.0308 6.672C17.2615 6.672 17.4461 6.72 17.6769 6.816V7.488ZM16.8923 7.776V8.304C16.6615 8.304 16.4308 8.352 16.2 8.448C15.9692 8.352 15.7385 8.304 15.5077 8.304V7.776C15.7385 7.776 15.9692 7.728 16.2 7.632C16.3846 7.728 16.6615 7.776 16.8923 7.776ZM16.1077 7.488C15.9231 7.584 15.6923 7.632 15.4615 7.632C15.4154 7.632 15.4154 7.632 15.3692 7.632C15.3231 7.632 15.3231 7.632 15.2769 7.632C15.0461 7.632 14.8615 7.584 14.6308 7.488V6.816C14.8154 6.72 15.0461 6.672 15.2769 6.672C15.3231 6.672 15.3231 6.672 15.3692 6.672C15.4154 6.672 15.4154 6.672 15.4615 6.672C15.6923 6.672 15.8769 6.72 16.1077 6.816V7.488ZM15.2769 7.776V8.304C15.0461 8.304 14.8154 8.352 14.5846 8.448C14.3538 8.352 14.1231 8.304 13.8923 8.304V7.776C14.1231 7.776 14.3538 7.728 14.5846 7.632C14.8154 7.728 15.0461 7.776 15.2769 7.776ZM14.4923 7.488C14.3077 7.584 14.0769 7.632 13.8461 7.632C13.8 7.632 13.8 7.632 13.7538 7.632C13.7077 7.632 13.7077 7.632 13.6615 7.632C13.4308 7.632 13.2461 7.584 13.0154 7.488V6.816C13.2 6.72 13.4308 6.672 13.6615 6.672C13.7077 6.672 13.7077 6.672 13.7538 6.672C13.8 6.672 13.8 6.672 13.8461 6.672C14.0769 6.672 14.2615 6.72 14.4923 6.816V7.488ZM13.7077 7.776V8.304C13.4769 8.304 13.2461 8.352 13.0154 8.448C12.7846 8.352 12.5538 8.304 12.3231 8.304V7.776C12.5538 7.776 12.7846 7.728 13.0154 7.632C13.2461 7.728 13.4769 7.776 13.7077 7.776ZM12.9231 7.488C12.7385 7.584 12.5077 7.632 12.2769 7.632V6.672C12.5077 6.672 12.6923 6.72 12.9231 6.816V7.488ZM11.7692 7.632C11.5846 7.632 11.3538 7.584 11.1692 7.488V6.816C11.3538 6.72 11.5846 6.72 11.7692 6.672V7.632ZM11.7692 7.776V8.304C11.5385 8.304 11.3077 8.352 11.0769 8.448C10.8461 8.352 10.6154 8.304 10.3846 8.304V7.776C10.6154 7.776 10.8461 7.728 11.0769 7.632C11.3077 7.728 11.5385 7.776 11.7692 7.776ZM11.0308 7.488C10.8461 7.584 10.6154 7.632 10.3846 7.632C10.3385 7.632 10.3384 7.632 10.2923 7.632C10.2461 7.632 10.2461 7.632 10.2 7.632C9.96922 7.632 9.7846 7.584 9.55383 7.488V6.816C9.73845 6.72 9.96922 6.672 10.2 6.672C10.2461 6.672 10.2461 6.672 10.2923 6.672C10.3384 6.672 10.3385 6.672 10.3846 6.672C10.6154 6.672 10.8 6.72 11.0308 6.816V7.488ZM10.2461 7.776V8.304C10.0154 8.304 9.7846 8.352 9.55383 8.448C9.32307 8.352 9.0923 8.304 8.86153 8.304V7.776C9.0923 7.776 9.32307 7.728 9.55383 7.632C9.73845 7.728 9.96922 7.776 10.2461 7.776ZM9.46153 7.488C9.27691 7.584 9.04614 7.632 8.81537 7.632C8.76922 7.632 8.76922 7.632 8.72307 7.632C8.67691 7.632 8.67691 7.632 8.63076 7.632C8.39999 7.632 8.21537 7.584 7.9846 7.488V6.816C8.16922 6.72 8.39999 6.672 8.63076 6.672C8.67691 6.672 8.67691 6.672 8.72307 6.672C8.76922 6.672 8.76922 6.672 8.81537 6.672C9.04614 6.672 9.23076 6.72 9.46153 6.816V7.488ZM8.63076 7.776V8.304C8.39999 8.304 8.16922 8.352 7.93845 8.448C7.70768 8.352 7.47691 8.304 7.24614 8.304V7.776C7.47691 7.776 7.70768 7.728 7.93845 7.632C8.16922 7.728 8.39999 7.776 8.63076 7.776ZM7.84614 7.488C7.66153 7.584 7.43076 7.632 7.19999 7.632C7.15383 7.632 7.15383 7.632 7.10768 7.632C7.06153 7.632 7.06153 7.632 7.01537 7.632C6.7846 7.632 6.59999 7.584 6.36922 7.488V6.816C6.55383 6.72 6.7846 6.672 7.01537 6.672C7.06153 6.672 7.06153 6.672 7.10768 6.672C7.15383 6.672 7.15383 6.672 7.19999 6.672C7.43076 6.672 7.61537 6.72 7.84614 6.816V7.488ZM7.06153 7.776V8.304C6.83076 8.304 6.59999 8.352 6.36922 8.448C6.13845 8.352 5.90768 8.304 5.67691 8.304V7.776C5.90768 7.776 6.13845 7.728 6.36922 7.632C6.59999 7.728 6.83076 7.776 7.06153 7.776ZM6.27691 7.488C6.0923 7.584 5.86153 7.632 5.63076 7.632C5.5846 7.632 5.5846 7.632 5.53845 7.632C5.4923 7.632 5.4923 7.632 5.44614 7.632C5.21537 7.632 5.03076 7.584 4.79999 7.488V6.816C4.9846 6.72 5.21537 6.672 5.44614 6.672C5.4923 6.672 5.4923 6.672 5.53845 6.672C5.5846 6.672 5.5846 6.672 5.63076 6.672C5.86153 6.672 6.04614 6.72 6.27691 6.816V7.488ZM5.4923 7.776V8.304C5.26153 8.304 5.03076 8.352 4.79999 8.448C4.56922 8.352 4.33845 8.304 4.10768 8.304V7.776C4.33845 7.776 4.56922 7.728 4.79999 7.632C4.9846 7.728 5.26153 7.776 5.4923 7.776ZM4.70768 7.488C4.52307 7.584 4.2923 7.632 4.06153 7.632C4.01537 7.632 4.01537 7.632 3.96922 7.632C3.92307 7.632 3.92307 7.632 3.87691 7.632C3.64614 7.632 3.46153 7.584 3.23076 7.488V6.816C3.46153 6.72 3.6923 6.672 3.87691 6.672C3.92307 6.672 3.92307 6.672 3.96922 6.672C4.01537 6.672 4.01537 6.672 4.06153 6.672C4.2923 6.672 4.47691 6.72 4.70768 6.816V7.488ZM3.27691 8.592C3.46153 8.496 3.6923 8.448 3.92307 8.448C3.96922 8.448 3.96922 8.448 4.01537 8.448C4.06153 8.448 4.06153 8.448 4.10768 8.448C4.33845 8.448 4.52307 8.496 4.75383 8.592V9.264C4.56922 9.36 4.33845 9.408 4.10768 9.408C4.06153 9.408 4.06153 9.408 4.01537 9.408C3.96922 9.408 3.96922 9.408 3.92307 9.408C3.6923 9.408 3.50768 9.36 3.27691 9.264V8.592ZM4.06153 9.6C4.2923 9.6 4.52307 9.552 4.75383 9.456C4.9846 9.552 5.21537 9.6 5.44614 9.6V10.08C5.21537 10.08 4.9846 10.128 4.75383 10.224C4.52307 10.128 4.2923 10.08 4.06153 10.08V9.6ZM4.84614 10.368C5.03076 10.272 5.26153 10.224 5.4923 10.224C5.53845 10.224 5.53845 10.224 5.5846 10.224C5.63076 10.224 5.63076 10.224 5.67691 10.224C5.90768 10.224 6.0923 10.272 6.32307 10.368V11.04C6.13845 11.136 5.90768 11.184 5.67691 11.184C5.63076 11.184 5.63076 11.184 5.5846 11.184C5.53845 11.184 5.53845 11.184 5.4923 11.184C5.26153 11.184 5.07691 11.136 4.84614 11.04V10.368ZM5.63076 11.376C5.86153 11.376 6.0923 11.328 6.32307 11.232C6.55383 11.328 6.7846 11.376 7.01537 11.376V11.76H5.5846V11.376H5.63076ZM6.23076 12.24V12.576C5.99999 12.576 5.76922 12.624 5.53845 12.72C5.30768 12.624 5.07691 12.576 4.84614 12.576V12.24H6.23076ZM4.84614 12.768C5.07691 12.768 5.26153 12.816 5.4923 12.912V13.584C5.30768 13.68 5.07691 13.728 4.84614 13.728C4.79999 13.728 4.79999 13.728 4.75383 13.728C4.70768 13.728 4.70768 13.728 4.66153 13.728C4.43076 13.728 4.24614 13.68 4.01537 13.584V12.912C4.19999 12.816 4.43076 12.768 4.66153 12.768C4.70768 12.768 4.70768 12.768 4.75383 12.768C4.75383 12.768 4.79999 12.768 4.84614 12.768ZM4.66153 13.872V14.4C4.43076 14.4 4.19999 14.448 3.96922 14.544C3.73845 14.448 3.46153 14.4 3.23076 14.4V13.872C3.46153 13.872 3.6923 13.824 3.92307 13.728C4.19999 13.824 4.43076 13.872 4.66153 13.872ZM3.87691 14.688V15.36C3.6923 15.456 3.46153 15.504 3.23076 15.504C3.1846 15.504 3.1846 15.504 3.13845 15.504C3.0923 15.504 3.0923 15.504 3.04614 15.504C2.81537 15.504 2.63076 15.456 2.39999 15.36V14.688C2.5846 14.592 2.81537 14.544 3.04614 14.544C3.0923 14.544 3.0923 14.544 3.13845 14.544C3.1846 14.544 3.1846 14.544 3.23076 14.544C3.46153 14.544 3.64614 14.592 3.87691 14.688ZM3.13845 16.32C3.1846 16.32 3.23076 16.32 3.23076 16.32C3.46153 16.32 3.64614 16.368 3.87691 16.464V17.136C3.64614 17.232 3.46153 17.28 3.23076 17.28C3.1846 17.28 3.1846 17.28 3.13845 17.28C3.0923 17.28 3.0923 17.28 3.04614 17.28C2.81537 17.28 2.63076 17.232 2.39999 17.136V16.464C2.63076 16.368 2.86153 16.32 3.0923 16.32H3.13845ZM3.23076 16.176V15.648C3.46153 15.648 3.6923 15.6 3.92307 15.504C4.15383 15.6 4.3846 15.648 4.61537 15.648V16.176C4.3846 16.176 4.15383 16.224 3.92307 16.32C3.73845 16.224 3.46153 16.176 3.23076 16.176ZM4.01537 16.464C4.19999 16.368 4.43076 16.32 4.66153 16.32C4.70768 16.32 4.70768 16.32 4.75383 16.32C4.79999 16.32 4.79999 16.32 4.84614 16.32C5.07691 16.32 5.26153 16.368 5.4923 16.464V17.136C5.30768 17.232 5.07691 17.28 4.84614 17.28C4.79999 17.28 4.79999 17.28 4.75383 17.28C4.70768 17.28 4.70768 17.28 4.66153 17.28C4.43076 17.28 4.24614 17.232 4.01537 17.136V16.464ZM4.84614 16.176V15.648C5.07691 15.648 5.30768 15.6 5.53845 15.504C5.76922 15.6 5.99999 15.648 6.23076 15.648V16.176C5.99999 16.176 5.76922 16.224 5.53845 16.32C5.30768 16.224 5.07691 16.176 4.84614 16.176ZM5.63076 16.464C5.81537 16.368 6.04614 16.32 6.27691 16.32C6.32307 16.32 6.32307 16.32 6.36922 16.32C6.41537 16.32 6.41537 16.32 6.46153 16.32C6.6923 16.32 6.87691 16.368 7.10768 16.464V17.136C6.92307 17.232 6.6923 17.28 6.46153 17.28C6.41537 17.28 6.41537 17.28 6.36922 17.28C6.32307 17.28 6.32307 17.28 6.27691 17.28C6.04614 17.28 5.86153 17.232 5.63076 17.136V16.464ZM6.41537 16.176V15.648C6.64614 15.648 6.87691 15.6 7.10768 15.504C7.33845 15.6 7.56922 15.648 7.79999 15.648V16.176C7.56922 16.176 7.33845 16.224 7.10768 16.32C6.87691 16.224 6.64614 16.176 6.41537 16.176ZM7.19999 16.464C7.3846 16.368 7.61537 16.32 7.84614 16.32C7.8923 16.32 7.8923 16.32 7.93845 16.32C7.9846 16.32 7.9846 16.32 8.03076 16.32C8.26153 16.32 8.44614 16.368 8.67691 16.464V17.136C8.4923 17.232 8.26153 17.28 8.03076 17.28C7.9846 17.28 7.9846 17.28 7.93845 17.28C7.8923 17.28 7.8923 17.28 7.84614 17.28C7.61537 17.28 7.43076 17.232 7.19999 17.136V16.464ZM7.9846 16.176V15.648C8.21537 15.648 8.44614 15.6 8.67691 15.504C8.90768 15.6 9.13845 15.648 9.36922 15.648V16.176C9.13845 16.176 8.90768 16.224 8.67691 16.32C8.4923 16.224 8.21537 16.176 7.9846 16.176ZM8.76922 16.464C8.95383 16.368 9.1846 16.32 9.41537 16.32C9.46153 16.32 9.46153 16.32 9.50768 16.32C9.55383 16.32 9.55383 16.32 9.59999 16.32C9.83076 16.32 10.0154 16.368 10.2461 16.464V17.136C10.0615 17.232 9.83076 17.28 9.59999 17.28C9.55383 17.28 9.55383 17.28 9.50768 17.28C9.46153 17.28 9.46153 17.28 9.41537 17.28C9.1846 17.28 8.99999 17.232 8.76922 17.136V16.464ZM9.59999 16.176V15.648C9.83076 15.648 10.0615 15.6 10.2923 15.504C10.5231 15.6 10.7538 15.648 10.9846 15.648V16.176C10.7538 16.176 10.5231 16.224 10.2923 16.32C10.0615 16.224 9.83076 16.176 9.59999 16.176ZM10.3846 15.36V14.688C10.5692 14.592 10.8 14.544 11.0308 14.544C11.0769 14.544 11.0769 14.544 11.1231 14.544C11.1692 14.544 11.1692 14.544 11.2154 14.544C11.4461 14.544 11.6308 14.592 11.8615 14.688V15.36C11.6769 15.456 11.4461 15.504 11.2154 15.504C11.1692 15.504 11.1692 15.504 11.1231 15.504C11.0769 15.504 11.0769 15.504 11.0308 15.504C10.8 15.504 10.5692 15.456 10.3846 15.36ZM11.1692 15.648C11.4 15.648 11.5846 15.6 11.8154 15.552V16.32C11.6308 16.272 11.4 16.224 11.1692 16.224V15.648ZM12.2769 15.504C12.4615 15.552 12.6923 15.6 12.9231 15.6V16.128C12.6923 16.128 12.5077 16.176 12.2769 16.224V15.504ZM12.2769 15.36V14.688C12.4615 14.592 12.6923 14.544 12.9231 14.544C12.9692 14.544 12.9692 14.544 13.0154 14.544C13.0615 14.544 13.0615 14.544 13.1077 14.544C13.3385 14.544 13.5231 14.592 13.7538 14.688V15.36C13.5692 15.456 13.3385 15.504 13.1077 15.504C13.0615 15.504 13.0615 15.504 13.0154 15.504C12.9692 15.504 12.9692 15.504 12.9231 15.504C12.6923 15.504 12.4615 15.456 12.2769 15.36ZM13.0615 15.648C13.2923 15.648 13.5231 15.6 13.7538 15.504C13.9846 15.6 14.2154 15.648 14.4461 15.648V16.176C14.2154 16.176 13.9846 16.224 13.7538 16.32C13.5231 16.224 13.2923 16.176 13.0615 16.176V15.648ZM13.8461 16.464C14.0308 16.368 14.2615 16.32 14.4923 16.32C14.5385 16.32 14.5385 16.32 14.5846 16.32C14.6308 16.32 14.6308 16.32 14.6769 16.32C14.9077 16.32 15.0923 16.368 15.3231 16.464V17.136C15.1385 17.232 14.9077 17.28 14.6769 17.28C14.6308 17.28 14.6308 17.28 14.5846 17.28C14.5385 17.28 14.5385 17.28 14.4923 17.28C14.2615 17.28 14.0769 17.232 13.8461 17.136V16.464ZM14.6308 16.176V15.648C14.8615 15.648 15.0923 15.6 15.3231 15.504C15.5538 15.6 15.7846 15.648 16.0154 15.648V16.176C15.7846 16.176 15.5538 16.224 15.3231 16.32C15.1385 16.224 14.8615 16.176 14.6308 16.176ZM15.4154 16.464C15.6 16.368 15.8308 16.32 16.0615 16.32C16.1077 16.32 16.1077 16.32 16.1538 16.32C16.2 16.32 16.2 16.32 16.2461 16.32C16.4769 16.32 16.6615 16.368 16.8923 16.464V17.136C16.7077 17.232 16.4769 17.28 16.2461 17.28C16.2 17.28 16.2 17.28 16.1538 17.28C16.1077 17.28 16.1077 17.28 16.0615 17.28C15.8308 17.28 15.6461 17.232 15.4154 17.136V16.464ZM16.2461 16.176V15.648C16.4769 15.648 16.7077 15.6 16.9385 15.504C17.1692 15.6 17.4 15.648 17.6308 15.648V16.176C17.4 16.176 17.1692 16.224 16.9385 16.32C16.7077 16.224 16.4769 16.176 16.2461 16.176ZM17.0308 16.464C17.2154 16.368 17.4461 16.32 17.6769 16.32C17.7231 16.32 17.7231 16.32 17.7692 16.32C17.8154 16.32 17.8154 16.32 17.8615 16.32C18.0923 16.32 18.2769 16.368 18.5077 16.464V17.136C18.3231 17.232 18.0923 17.28 17.8615 17.28C17.8154 17.28 17.8154 17.28 17.7692 17.28C17.7231 17.28 17.7231 17.28 17.6769 17.28C17.4461 17.28 17.2615 17.232 17.0308 17.136V16.464ZM17.8154 16.176V15.648C18.0461 15.648 18.2769 15.6 18.5077 15.504C18.7385 15.6 18.9692 15.648 19.2 15.648V16.176C18.9692 16.176 18.7385 16.224 18.5077 16.32C18.2769 16.224 18.0461 16.176 17.8154 16.176ZM18.6 16.464C18.7846 16.368 19.0154 16.32 19.2461 16.32C19.2923 16.32 19.2923 16.32 19.3385 16.32C19.3846 16.32 19.3846 16.32 19.4308 16.32C19.6615 16.32 19.8461 16.368 20.0769 16.464V17.136C19.8 17.232 19.6154 17.28 19.3846 17.28C19.3385 17.28 19.3385 17.28 19.2923 17.28C19.2461 17.28 19.2461 17.28 19.2 17.28C18.9692 17.28 18.7846 17.232 18.5538 17.136V16.464H18.6ZM19.3846 16.176V15.648C19.6154 15.648 19.8461 15.6 20.0769 15.504C20.3077 15.6 20.5385 15.648 20.7692 15.648V16.176C20.5385 16.176 20.3077 16.224 20.0769 16.32C19.8923 16.224 19.6154 16.176 19.3846 16.176ZM20.1692 16.464C20.3538 16.368 20.5846 16.32 20.8154 16.32C20.8615 16.32 20.8615 16.32 20.9077 16.32C20.9538 16.32 20.9538 16.32 21 16.32C21.2308 16.32 21.4154 16.368 21.6461 16.464V17.136C21.4615 17.232 21.2308 17.28 21 17.28C20.9538 17.28 20.9538 17.28 20.9077 17.28C20.8615 17.28 20.8615 17.28 20.8154 17.28C20.5846 17.28 20.4 17.232 20.1692 17.136V16.464ZM20.9077 15.504C20.8615 15.504 20.8615 15.504 20.8154 15.504C20.5846 15.504 20.4 15.456 20.1692 15.36V14.688C20.3538 14.592 20.5846 14.544 20.8154 14.544C20.8615 14.544 20.8615 14.544 20.9077 14.544C20.9538 14.544 20.9538 14.544 21 14.544C21.2308 14.544 21.4154 14.592 21.6461 14.688V15.36C21.4615 15.456 21.2308 15.504 21 15.504C20.9538 15.504 20.9077 15.504 20.9077 15.504ZM20.8154 14.4C20.5846 14.4 20.3538 14.448 20.1231 14.544C19.8923 14.448 19.6615 14.4 19.4308 14.4V13.872C19.6615 13.872 19.8923 13.824 20.1231 13.728C20.3538 13.824 20.5846 13.872 20.8154 13.872V14.4ZM20.0308 13.584C19.8461 13.68 19.6154 13.728 19.3846 13.728C19.3385 13.728 19.3385 13.728 19.2923 13.728C19.2461 13.728 19.2461 13.728 19.2 13.728C18.9692 13.728 18.7846 13.68 18.5538 13.584V12.912C18.7385 12.816 18.9692 12.768 19.2 12.768C19.2461 12.768 19.2461 12.768 19.2923 12.768C19.3385 12.768 19.3385 12.768 19.3846 12.768C19.6154 12.768 19.8 12.816 20.0308 12.912V13.584ZM19.2461 12.576C19.0154 12.576 18.7846 12.624 18.5538 12.72C18.3231 12.624 18.0923 12.576 17.8615 12.576V12.24H19.2923V12.576H19.2461ZM18.6 11.76V11.376C18.8308 11.376 19.0615 11.328 19.2923 11.232C19.5231 11.328 19.7538 11.376 19.9846 11.376V11.76H18.6ZM20.0308 11.184C19.8 11.184 19.6154 11.136 19.3846 11.04V10.368C19.5692 10.272 19.8 10.224 20.0308 10.224C20.0769 10.224 20.0769 10.224 20.1231 10.224C20.1692 10.224 20.1692 10.224 20.2154 10.224C20.4461 10.224 20.6308 10.272 20.8615 10.368V11.04C20.6769 11.136 20.4461 11.184 20.2154 11.184C20.1692 11.184 20.1692 11.184 20.1231 11.184C20.1231 11.232 20.0769 11.232 20.0308 11.184ZM20.2154 10.08V9.6C20.4461 9.6 20.6769 9.552 20.9077 9.456C21.1385 9.552 21.3692 9.6 21.6 9.6V10.08C21.3692 10.08 21.1385 10.128 20.9077 10.224C20.6769 10.176 20.4461 10.128 20.2154 10.08ZM20.2154 8.304V7.776C20.4461 7.776 20.6769 7.728 20.9077 7.632C21.1385 7.728 21.3692 7.776 21.6 7.776V8.304C21.3692 8.304 21.1385 8.352 20.9077 8.448C20.6769 8.352 20.4461 8.304 20.2154 8.304ZM21 7.488V6.816C21.1846 6.72 21.4154 6.672 21.6461 6.672C21.6923 6.672 21.6923 6.672 21.7385 6.672C21.7846 6.672 21.7846 6.672 21.8308 6.672C22.0615 6.672 22.2461 6.72 22.4769 6.816V7.488C22.2923 7.584 22.0615 7.632 21.8308 7.632C21.7846 7.632 21.7846 7.632 21.7385 7.632C21.6923 7.632 21.6923 7.632 21.6461 7.632C21.4154 7.632 21.1846 7.584 21 7.488ZM21.6923 5.856C21.6461 5.856 21.6461 5.856 21.6 5.856C21.3692 5.856 21.1846 5.808 20.9538 5.712V5.04C21.1385 4.944 21.3692 4.896 21.6 4.896C21.6461 4.896 21.6461 4.896 21.6923 4.896C21.7385 4.896 21.7385 4.896 21.7846 4.896C22.0154 4.896 22.2 4.944 22.4308 5.04V5.712C22.2461 5.808 22.0154 5.856 21.7846 5.856C21.7846 5.856 21.7385 5.856 21.6923 5.856ZM21.6461 6V6.528C21.4154 6.528 21.1846 6.576 20.9538 6.672C20.7231 6.576 20.4923 6.528 20.2615 6.528V6C20.4923 6 20.7231 5.952 20.9538 5.856C21.1385 5.952 21.3692 6 21.6461 6ZM20.8615 5.712C20.6769 5.808 20.4461 5.856 20.2154 5.856C20.1692 5.856 20.1692 5.856 20.1231 5.856C20.0769 5.856 20.0769 5.856 20.0308 5.856C19.8 5.856 19.6154 5.808 19.3846 5.712V5.04C19.5692 4.944 19.8 4.896 20.0308 4.896C20.0769 4.896 20.0769 4.896 20.1231 4.896C20.1692 4.896 20.1692 4.896 20.2154 4.896C20.4461 4.896 20.6308 4.944 20.8615 5.04V5.712ZM20.0308 6V6.528C19.8 6.528 19.5692 6.576 19.3385 6.672C19.1077 6.576 18.8769 6.528 18.6461 6.528V6C18.8769 6 19.1077 5.952 19.3385 5.856C19.5692 5.952 19.8 6 20.0308 6ZM19.2461 5.712C19.0615 5.808 18.8308 5.856 18.6 5.856C18.5538 5.856 18.5538 5.856 18.5077 5.856C18.4615 5.856 18.4615 5.856 18.4154 5.856C18.1846 5.856 18 5.808 17.7692 5.712V5.04C17.9538 4.944 18.1846 4.896 18.4154 4.896C18.4615 4.896 18.4615 4.896 18.5077 4.896C18.5538 4.896 18.5538 4.896 18.6 4.896C18.8308 4.896 19.0154 4.944 19.2461 5.04V5.712ZM18.4615 6V6.528C18.2308 6.528 18 6.576 17.7692 6.672C17.5385 6.576 17.3077 6.528 17.0769 6.528V6C17.3077 6 17.5385 5.952 17.7692 5.856C18 5.952 18.2308 6 18.4615 6ZM17.6769 5.712C17.4923 5.808 17.2615 5.856 17.0308 5.856C16.9846 5.856 16.9846 5.856 16.9385 5.856C16.8923 5.856 16.8923 5.856 16.8461 5.856C16.6154 5.856 16.4308 5.808 16.2 5.712V5.04C16.3846 4.944 16.6154 4.896 16.8461 4.896C16.8923 4.896 16.8923 4.896 16.9385 4.896C16.9846 4.896 16.9846 4.896 17.0308 4.896C17.2615 4.896 17.4461 4.944 17.6769 5.04V5.712ZM16.8923 6V6.528C16.6615 6.528 16.4308 6.576 16.2 6.672C15.9692 6.576 15.7385 6.528 15.5077 6.528V6C15.7385 6 15.9692 5.952 16.2 5.856C16.3846 5.952 16.6615 6 16.8923 6ZM16.1077 5.712C15.9231 5.808 15.6923 5.856 15.4615 5.856C15.4154 5.856 15.4154 5.856 15.3692 5.856C15.3231 5.856 15.3231 5.856 15.2769 5.856C15.0461 5.856 14.8615 5.808 14.6308 5.712V5.04C14.8154 4.944 15.0461 4.896 15.2769 4.896C15.3231 4.896 15.3231 4.896 15.3692 4.896C15.4154 4.896 15.4154 4.896 15.4615 4.896C15.6923 4.896 15.8769 4.944 16.1077 5.04V5.712ZM15.2769 6V6.528C15.0461 6.528 14.8154 6.576 14.5846 6.672C14.3538 6.576 14.1231 6.528 13.8923 6.528V6C14.1231 6 14.3538 5.952 14.5846 5.856C14.8154 5.952 15.0461 6 15.2769 6ZM14.4923 5.712C14.3077 5.808 14.0769 5.856 13.8461 5.856C13.8 5.856 13.8 5.856 13.7538 5.856C13.7077 5.856 13.7077 5.856 13.6615 5.856C13.4308 5.856 13.2461 5.808 13.0154 5.712V5.04C13.2 4.944 13.4308 4.896 13.6615 4.896C13.7077 4.896 13.7077 4.896 13.7538 4.896C13.8 4.896 13.8 4.896 13.8461 4.896C14.0769 4.896 14.2615 4.944 14.4923 5.04V5.712ZM13.7077 6V6.528C13.4769 6.528 13.2461 6.576 13.0154 6.672C12.7846 6.576 12.5538 6.528 12.3231 6.528V6C12.5538 6 12.7846 5.952 13.0154 5.856C13.2461 5.952 13.4769 6 13.7077 6ZM12.9231 5.712C12.7385 5.808 12.5077 5.856 12.2769 5.856V4.896C12.5077 4.896 12.6923 4.944 12.9231 5.04V5.712ZM11.7692 5.856C11.5846 5.856 11.3538 5.808 11.1692 5.712V5.04C11.3538 4.944 11.5846 4.944 11.7692 4.896V5.856ZM11.7692 6V6.528C11.5385 6.528 11.3077 6.576 11.0769 6.672C10.8461 6.576 10.6154 6.528 10.3846 6.528V6C10.6154 6 10.8461 5.952 11.0769 5.856C11.3077 5.952 11.5385 6 11.7692 6ZM11.0308 5.712C10.8461 5.808 10.6154 5.856 10.3846 5.856C10.3385 5.856 10.3384 5.856 10.2923 5.856C10.2461 5.856 10.2461 5.856 10.2 5.856C9.96922 5.856 9.7846 5.808 9.55383 5.712V5.04C9.73845 4.944 9.96922 4.896 10.2 4.896C10.2461 4.896 10.2461 4.896 10.2923 4.896C10.3384 4.896 10.3385 4.896 10.3846 4.896C10.6154 4.896 10.8 4.944 11.0308 5.04V5.712ZM10.2461 6V6.528C10.0154 6.528 9.7846 6.576 9.55383 6.672C9.32307 6.576 9.0923 6.528 8.86153 6.528V6C9.0923 6 9.32307 5.952 9.55383 5.856C9.73845 5.952 9.96922 6 10.2461 6ZM9.46153 5.712C9.27691 5.808 9.04614 5.856 8.81537 5.856C8.76922 5.856 8.76922 5.856 8.72307 5.856C8.67691 5.856 8.67691 5.856 8.63076 5.856C8.39999 5.856 8.21537 5.808 7.9846 5.712V5.04C8.16922 4.944 8.39999 4.896 8.63076 4.896C8.67691 4.896 8.67691 4.896 8.72307 4.896C8.76922 4.896 8.76922 4.896 8.81537 4.896C9.04614 4.896 9.23076 4.944 9.46153 5.04V5.712ZM8.63076 6V6.528C8.39999 6.528 8.16922 6.576 7.93845 6.672C7.70768 6.576 7.47691 6.528 7.24614 6.528V6C7.47691 6 7.70768 5.952 7.93845 5.856C8.16922 5.952 8.39999 6 8.63076 6ZM7.84614 5.712C7.66153 5.808 7.43076 5.856 7.19999 5.856C7.15383 5.856 7.15383 5.856 7.10768 5.856C7.06153 5.856 7.06153 5.856 7.01537 5.856C6.7846 5.856 6.59999 5.808 6.36922 5.712V5.04C6.55383 4.944 6.7846 4.896 7.01537 4.896C7.06153 4.896 7.06153 4.896 7.10768 4.896C7.15383 4.896 7.15383 4.896 7.19999 4.896C7.43076 4.896 7.61537 4.944 7.84614 5.04V5.712ZM7.06153 6V6.528C6.83076 6.528 6.59999 6.576 6.36922 6.672C6.13845 6.576 5.90768 6.528 5.67691 6.528V6C5.90768 6 6.13845 5.952 6.36922 5.856C6.59999 5.952 6.83076 6 7.06153 6ZM6.27691 5.712C6.0923 5.808 5.86153 5.856 5.63076 5.856C5.5846 5.856 5.5846 5.856 5.53845 5.856C5.4923 5.856 5.4923 5.856 5.44614 5.856C5.21537 5.856 5.03076 5.808 4.79999 5.712V5.04C4.9846 4.944 5.21537 4.896 5.44614 4.896C5.4923 4.896 5.4923 4.896 5.53845 4.896C5.5846 4.896 5.5846 4.896 5.63076 4.896C5.86153 4.896 6.04614 4.944 6.27691 5.04V5.712ZM5.4923 6V6.528C5.26153 6.528 5.03076 6.576 4.79999 6.672C4.56922 6.576 4.33845 6.528 4.10768 6.528V6C4.33845 6 4.56922 5.952 4.79999 5.856C4.9846 5.952 5.26153 6 5.4923 6ZM4.70768 5.712C4.52307 5.808 4.2923 5.856 4.06153 5.856C4.01537 5.856 4.01537 5.856 3.96922 5.856C3.92307 5.856 3.92307 5.856 3.87691 5.856C3.64614 5.856 3.46153 5.808 3.23076 5.712V5.04C3.41537 4.944 3.64614 4.896 3.87691 4.896C3.92307 4.896 3.92307 4.896 3.96922 4.896C4.01537 4.896 4.01537 4.896 4.06153 4.896C4.2923 4.896 4.47691 4.944 4.70768 5.04V5.712ZM3.87691 6V6.528C3.64614 6.528 3.41537 6.576 3.1846 6.672C2.95384 6.576 2.72307 6.528 2.4923 6.528V6C2.72307 6 2.95384 5.952 3.1846 5.856C3.41537 5.952 3.64614 6 3.87691 6ZM3.0923 5.712C2.90768 5.808 2.67691 5.856 2.44614 5.856C2.39999 5.856 2.39999 5.856 2.35383 5.856C2.30768 5.856 2.30768 5.856 2.26153 5.856C2.03076 5.856 1.84614 5.808 1.61537 5.712V5.04C1.79999 4.944 2.03076 4.896 2.26153 4.896C2.30768 4.896 2.30768 4.896 2.35383 4.896C2.39999 4.896 2.39999 4.896 2.44614 4.896C2.67691 4.896 2.86153 4.944 3.0923 5.04V5.712ZM2.30768 6V6.528C2.07691 6.528 1.84614 6.576 1.61537 6.672C1.3846 6.576 1.15383 6.528 0.923066 6.528V6C1.15383 6 1.3846 5.952 1.61537 5.856C1.84614 5.952 2.07691 6 2.30768 6ZM2.30768 7.776V8.304C2.07691 8.304 1.84614 8.352 1.61537 8.448C1.3846 8.352 1.15383 8.304 0.923066 8.304V7.776C1.15383 7.776 1.3846 7.728 1.61537 7.632C1.84614 7.728 2.07691 7.776 2.30768 7.776ZM1.66153 8.592C1.84614 8.496 2.07691 8.448 2.30768 8.448C2.35383 8.448 2.35383 8.448 2.39999 8.448C2.44614 8.448 2.44614 8.448 2.4923 8.448C2.72307 8.448 2.90768 8.496 3.13845 8.592V9.264C2.95384 9.36 2.72307 9.408 2.4923 9.408C2.44614 9.408 2.44614 9.408 2.39999 9.408C2.35383 9.408 2.35383 9.408 2.30768 9.408C2.07691 9.408 1.8923 9.36 1.66153 9.264V8.592ZM2.4923 9.6C2.72307 9.6 2.95384 9.552 3.1846 9.456C3.41537 9.552 3.64614 9.6 3.87691 9.6V10.08C3.64614 10.08 3.41537 10.128 3.1846 10.224C2.95384 10.128 2.72307 10.08 2.4923 10.08V9.6ZM3.27691 10.368C3.46153 10.272 3.6923 10.224 3.92307 10.224C3.96922 10.224 3.96922 10.224 4.01537 10.224C4.06153 10.224 4.06153 10.224 4.10768 10.224C4.33845 10.224 4.52307 10.272 4.75383 10.368V11.04C4.56922 11.136 4.33845 11.184 4.10768 11.184C4.06153 11.184 4.06153 11.184 4.01537 11.184C3.96922 11.184 3.96922 11.184 3.92307 11.184C3.6923 11.184 3.50768 11.136 3.27691 11.04V10.368ZM4.06153 11.376C4.2923 11.376 4.52307 11.328 4.75383 11.232C4.9846 11.328 5.21537 11.376 5.44614 11.376V11.76H4.06153V11.376ZM4.66153 12.24V12.576C4.43076 12.576 4.19999 12.624 3.96922 12.72C3.73845 12.624 3.50768 12.576 3.27691 12.576V12.24H4.66153ZM3.23076 12.768C3.46153 12.768 3.64614 12.816 3.87691 12.912V13.584C3.6923 13.68 3.46153 13.728 3.23076 13.728C3.1846 13.728 3.1846 13.728 3.13845 13.728C3.0923 13.728 3.0923 13.728 3.04614 13.728C2.81537 13.728 2.63076 13.68 2.39999 13.584V12.912C2.5846 12.816 2.81537 12.768 3.04614 12.768C3.0923 12.768 3.0923 12.768 3.13845 12.768C3.1846 12.768 3.23076 12.768 3.23076 12.768ZM3.0923 13.872V14.4C2.86153 14.4 2.63076 14.448 2.39999 14.544C2.16922 14.448 1.93845 14.4 1.70768 14.4V13.872C1.93845 13.872 2.16922 13.824 2.39999 13.728C2.5846 13.824 2.86153 13.872 3.0923 13.872ZM3.0923 15.648V16.176C2.86153 16.176 2.63076 16.224 2.39999 16.32C2.16922 16.224 1.93845 16.176 1.70768 16.176V15.648C1.93845 15.648 2.16922 15.6 2.39999 15.504C2.5846 15.6 2.86153 15.648 3.0923 15.648ZM3.0923 17.424V17.952C2.86153 17.952 2.63076 18 2.39999 18.096C2.16922 18 1.93845 17.952 1.70768 17.952V17.424C1.93845 17.424 2.16922 17.376 2.39999 17.28C2.5846 17.376 2.86153 17.424 3.0923 17.424ZM2.44614 18.24C2.63076 18.144 2.86153 18.096 3.0923 18.096C3.13845 18.096 3.13845 18.096 3.1846 18.096C3.23076 18.096 3.23076 18.096 3.27691 18.096C3.50768 18.096 3.6923 18.144 3.92307 18.24V18.912C3.73845 19.008 3.50768 19.056 3.27691 19.056C3.23076 19.056 3.23076 19.056 3.1846 19.056C3.13845 19.056 3.13845 19.056 3.0923 19.056C2.86153 19.056 2.67691 19.008 2.44614 18.912V18.24ZM3.23076 17.952V17.424C3.46153 17.424 3.6923 17.376 3.92307 17.28C4.15383 17.376 4.3846 17.424 4.61537 17.424V17.952C4.3846 17.952 4.15383 18 3.92307 18.096C3.73845 18 3.46153 17.952 3.23076 17.952ZM4.01537 18.24C4.19999 18.144 4.43076 18.096 4.66153 18.096C4.70768 18.096 4.70768 18.096 4.75383 18.096C4.79999 18.096 4.79999 18.096 4.84614 18.096C5.07691 18.096 5.26153 18.144 5.4923 18.24V18.912C5.30768 19.008 5.07691 19.056 4.84614 19.056C4.79999 19.056 4.79999 19.056 4.75383 19.056C4.70768 19.056 4.70768 19.056 4.66153 19.056C4.43076 19.056 4.24614 19.008 4.01537 18.912V18.24ZM4.84614 17.952V17.424C5.07691 17.424 5.30768 17.376 5.53845 17.28C5.76922 17.376 5.99999 17.424 6.23076 17.424V17.952C5.99999 17.952 5.76922 18 5.53845 18.096C5.30768 18 5.07691 17.952 4.84614 17.952ZM5.63076 18.24C5.81537 18.144 6.04614 18.096 6.27691 18.096C6.32307 18.096 6.32307 18.096 6.36922 18.096C6.41537 18.096 6.41537 18.096 6.46153 18.096C6.6923 18.096 6.87691 18.144 7.10768 18.24V18.912C6.92307 19.008 6.6923 19.056 6.46153 19.056C6.41537 19.056 6.41537 19.056 6.36922 19.056C6.32307 19.056 6.32307 19.056 6.27691 19.056C6.04614 19.056 5.86153 19.008 5.63076 18.912V18.24ZM6.41537 17.952V17.424C6.64614 17.424 6.87691 17.376 7.10768 17.28C7.33845 17.376 7.56922 17.424 7.79999 17.424V17.952C7.56922 17.952 7.33845 18 7.10768 18.096C6.87691 18 6.64614 17.952 6.41537 17.952ZM7.19999 18.24C7.3846 18.144 7.61537 18.096 7.84614 18.096C7.8923 18.096 7.8923 18.096 7.93845 18.096C7.9846 18.096 7.9846 18.096 8.03076 18.096C8.26153 18.096 8.44614 18.144 8.67691 18.24V18.912C8.4923 19.008 8.26153 19.056 8.03076 19.056C7.9846 19.056 7.9846 19.056 7.93845 19.056C7.8923 19.056 7.8923 19.056 7.84614 19.056C7.61537 19.056 7.43076 19.008 7.19999 18.912V18.24ZM7.9846 17.952V17.424C8.21537 17.424 8.44614 17.376 8.67691 17.28C8.90768 17.376 9.13845 17.424 9.36922 17.424V17.952C9.13845 17.952 8.90768 18 8.67691 18.096C8.4923 18 8.21537 17.952 7.9846 17.952ZM8.76922 18.24C8.95383 18.144 9.1846 18.096 9.41537 18.096C9.46153 18.096 9.46153 18.096 9.50768 18.096C9.55383 18.096 9.55383 18.096 9.59999 18.096C9.83076 18.096 10.0154 18.144 10.2461 18.24V18.912C10.0615 19.008 9.83076 19.056 9.59999 19.056C9.55383 19.056 9.55383 19.056 9.50768 19.056C9.46153 19.056 9.46153 19.056 9.41537 19.056C9.1846 19.056 8.99999 19.008 8.76922 18.912V18.24ZM9.59999 17.952V17.424C9.83076 17.424 10.0615 17.376 10.2923 17.28C10.5231 17.376 10.7538 17.424 10.9846 17.424V17.952C10.7538 17.952 10.5231 18 10.2923 18.096C10.0615 18 9.83076 17.952 9.59999 17.952ZM10.3846 17.136V16.464C10.5692 16.368 10.8 16.32 11.0308 16.32C11.0769 16.32 11.0769 16.32 11.1231 16.32C11.1692 16.32 11.1692 16.32 11.2154 16.32C11.4461 16.32 11.6308 16.368 11.8615 16.464V17.136C11.6769 17.232 11.4461 17.28 11.2154 17.28C11.1692 17.28 11.1692 17.28 11.1231 17.28C11.0769 17.28 11.0769 17.28 11.0308 17.28C10.8 17.28 10.5692 17.232 10.3846 17.136ZM11.1692 17.424C11.4 17.424 11.5846 17.376 11.8154 17.28V18.048C11.6308 18 11.4 17.952 11.1692 17.952V17.424ZM12.2769 17.328C12.4615 17.376 12.6923 17.424 12.9231 17.472V18C12.6923 18 12.5077 18.048 12.2769 18.096V17.328ZM12.2769 17.136V16.464C12.4615 16.368 12.6923 16.32 12.9231 16.32C12.9692 16.32 12.9692 16.32 13.0154 16.32C13.0615 16.32 13.0615 16.32 13.1077 16.32C13.3385 16.32 13.5231 16.368 13.7538 16.464V17.136C13.5692 17.232 13.3385 17.28 13.1077 17.28C13.0615 17.28 13.0615 17.28 13.0154 17.28C12.9692 17.28 12.9692 17.28 12.9231 17.28C12.6923 17.28 12.4615 17.232 12.2769 17.136ZM13.0615 17.424C13.2923 17.424 13.5231 17.376 13.7538 17.28C13.9846 17.376 14.2154 17.424 14.4461 17.424V17.952C14.2154 17.952 13.9846 18 13.7538 18.096C13.5231 18 13.2923 17.952 13.0615 17.952V17.424ZM13.8461 18.24C14.0308 18.144 14.2615 18.096 14.4923 18.096C14.5385 18.096 14.5385 18.096 14.5846 18.096C14.6308 18.096 14.6308 18.096 14.6769 18.096C14.9077 18.096 15.0923 18.144 15.3231 18.24V18.912C15.1385 19.008 14.9077 19.056 14.6769 19.056C14.6308 19.056 14.6308 19.056 14.5846 19.056C14.5385 19.056 14.5385 19.056 14.4923 19.056C14.2615 19.056 14.0769 19.008 13.8461 18.912V18.24ZM14.6308 17.952V17.424C14.8615 17.424 15.0923 17.376 15.3231 17.28C15.5538 17.376 15.7846 17.424 16.0154 17.424V17.952C15.7846 17.952 15.5538 18 15.3231 18.096C15.1385 18 14.8615 17.952 14.6308 17.952ZM15.4154 18.24C15.6 18.144 15.8308 18.096 16.0615 18.096C16.1077 18.096 16.1077 18.096 16.1538 18.096C16.2 18.096 16.2 18.096 16.2461 18.096C16.4769 18.096 16.6615 18.144 16.8923 18.24V18.912C16.7077 19.008 16.4769 19.056 16.2461 19.056C16.2 19.056 16.2 19.056 16.1538 19.056C16.1077 19.056 16.1077 19.056 16.0615 19.056C15.8308 19.056 15.6461 19.008 15.4154 18.912V18.24ZM16.2461 17.952V17.424C16.4769 17.424 16.7077 17.376 16.9385 17.28C17.1692 17.376 17.4 17.424 17.6308 17.424V17.952C17.4 17.952 17.1692 18 16.9385 18.096C16.7077 18 16.4769 17.952 16.2461 17.952ZM17.0308 18.24C17.2154 18.144 17.4461 18.096 17.6769 18.096C17.7231 18.096 17.7231 18.096 17.7692 18.096C17.8154 18.096 17.8154 18.096 17.8615 18.096C18.0923 18.096 18.2769 18.144 18.5077 18.24V18.912C18.3231 19.008 18.0923 19.056 17.8615 19.056C17.8154 19.056 17.8154 19.056 17.7692 19.056C17.7231 19.056 17.7231 19.056 17.6769 19.056C17.4461 19.056 17.2615 19.008 17.0308 18.912V18.24ZM17.8154 17.952V17.424C18.0461 17.424 18.2769 17.376 18.5077 17.28C18.7385 17.376 18.9692 17.424 19.2 17.424V17.952C18.9692 17.952 18.7385 18 18.5077 18.096C18.2769 18 18.0461 17.952 17.8154 17.952ZM18.6 18.24C18.7846 18.144 19.0154 18.096 19.2461 18.096C19.2923 18.096 19.2923 18.096 19.3385 18.096C19.3846 18.096 19.3846 18.096 19.4308 18.096C19.6615 18.096 19.8461 18.144 20.0769 18.24V18.912C19.8923 19.008 19.6615 19.056 19.4308 19.056C19.3846 19.056 19.3846 19.056 19.3385 19.056C19.2923 19.056 19.2923 19.056 19.2461 19.056C19.0154 19.056 18.8308 19.008 18.6 18.912V18.24ZM19.3846 17.952V17.424C19.6154 17.424 19.8461 17.376 20.0769 17.28C20.3077 17.376 20.5385 17.424 20.7692 17.424V17.952C20.5385 17.952 20.3077 18 20.0769 18.096C19.8923 18 19.6154 17.952 19.3846 17.952ZM20.1692 18.24C20.3538 18.144 20.5846 18.096 20.8154 18.096C20.8615 18.096 20.8615 18.096 20.9077 18.096C20.9538 18.096 20.9538 18.096 21 18.096C21.2308 18.096 21.4154 18.144 21.6461 18.24V18.912C21.4615 19.008 21.2308 19.056 21 19.056C20.9538 19.056 20.9538 19.056 20.9077 19.056C20.8615 19.056 20.8615 19.056 20.8154 19.056C20.5846 19.056 20.4 19.008 20.1692 18.912V18.24ZM21 17.952V17.424C21.2308 17.424 21.4615 17.376 21.6923 17.28C21.9231 17.376 22.1538 17.424 22.3846 17.424V17.952C22.1538 17.952 21.9231 18 21.6923 18.096C21.4615 18 21.2308 17.952 21 17.952ZM21 16.176V15.648C21.2308 15.648 21.4615 15.6 21.6923 15.504C21.9231 15.6 22.1538 15.648 22.3846 15.648V16.176C22.1538 16.176 21.9231 16.224 21.6923 16.32C21.4615 16.224 21.2308 16.176 21 16.176ZM21 14.4V13.872C21.2308 13.872 21.4615 13.824 21.6923 13.728C21.9231 13.824 22.1538 13.872 22.3846 13.872V14.4C22.1538 14.4 21.9231 14.448 21.6923 14.544C21.4615 14.448 21.2308 14.4 21 14.4ZM21.6 13.584C21.4154 13.68 21.1846 13.728 20.9538 13.728C20.9077 13.728 20.9077 13.728 20.8615 13.728C20.8154 13.728 20.8154 13.728 20.7692 13.728C20.5385 13.728 20.3538 13.68 20.1231 13.584V12.912C20.3077 12.816 20.5385 12.768 20.7692 12.768C20.8154 12.768 20.8154 12.768 20.8615 12.768C20.9077 12.768 20.9077 12.768 20.9538 12.768C21.1846 12.768 21.3692 12.816 21.6 12.912V13.584ZM20.8154 12.576C20.5846 12.576 20.3538 12.624 20.1231 12.72C19.8923 12.624 19.6615 12.576 19.4308 12.576V12.24H20.8615V12.576H20.8154ZM20.2154 11.76V11.376C20.4461 11.376 20.6769 11.328 20.9077 11.232C21.1385 11.328 21.3692 11.376 21.6 11.376V11.76H20.2154ZM21.6461 11.184C21.4154 11.184 21.2308 11.136 21 11.04V10.368C21.1846 10.272 21.4154 10.224 21.6461 10.224C21.6923 10.224 21.6923 10.224 21.7385 10.224C21.7846 10.224 21.7846 10.224 21.8308 10.224C22.0615 10.224 22.2461 10.272 22.4769 10.368V11.04C22.2923 11.136 22.0615 11.184 21.8308 11.184C21.7846 11.184 21.7846 11.184 21.7385 11.184C21.6923 11.232 21.6461 11.232 21.6461 11.184ZM21.6923 9.408C21.6461 9.408 21.6461 9.408 21.6 9.408C21.3692 9.408 21.1846 9.36 20.9538 9.264V8.592C21.1385 8.496 21.3692 8.448 21.6 8.448C21.6461 8.448 21.6461 8.448 21.6923 8.448C21.7385 8.448 21.7385 8.448 21.7846 8.448C22.0154 8.448 22.2 8.496 22.4308 8.592V9.264C22.2461 9.36 22.0154 9.408 21.7846 9.408C21.7846 9.408 21.7385 9.408 21.6923 9.408ZM22.5692 7.488V6.816C22.7538 6.72 22.9846 6.72 23.1692 6.672V7.632C22.9846 7.632 22.8 7.584 22.5692 7.488ZM22.5231 6.672C22.2923 6.576 22.0615 6.528 21.8308 6.528V6C22.0615 6 22.2923 5.952 22.5231 5.856C22.7538 5.952 22.9846 6 23.2154 6V6.528C22.9384 6.528 22.7077 6.576 22.5231 6.672ZM22.5692 5.712V5.04C22.7538 4.944 22.9846 4.944 23.1692 4.896V5.856C22.9846 5.856 22.8 5.808 22.5692 5.712ZM22.4308 3.936C22.2461 4.032 22.0154 4.08 21.7846 4.08C21.7385 4.08 21.7385 4.08 21.6923 4.08C21.6461 4.08 21.6461 4.08 21.6 4.08C21.3692 4.08 21.1846 4.032 20.9538 3.936V3.264C21.1385 3.168 21.3692 3.12 21.6 3.12C21.6461 3.12 21.6461 3.12 21.6923 3.12C21.7385 3.12 21.7385 3.12 21.7846 3.12C22.0154 3.12 22.2 3.168 22.4308 3.264V3.936ZM21.6461 4.224V4.752C21.4154 4.752 21.1846 4.8 20.9538 4.896C20.7231 4.8 20.4923 4.752 20.2615 4.752V4.224C20.4923 4.224 20.7231 4.176 20.9538 4.08C21.1385 4.176 21.3692 4.224 21.6461 4.224ZM20.8615 3.936C20.6769 4.032 20.4461 4.08 20.2154 4.08C20.1692 4.08 20.1692 4.08 20.1231 4.08C20.0769 4.08 20.0769 4.08 20.0308 4.08C19.8 4.08 19.6154 4.032 19.3846 3.936V3.264C19.5692 3.168 19.8 3.12 20.0308 3.12C20.0769 3.12 20.0769 3.12 20.1231 3.12C20.1692 3.12 20.1692 3.12 20.2154 3.12C20.4461 3.12 20.6308 3.168 20.8615 3.264V3.936ZM20.0308 4.224V4.752C19.8 4.752 19.5692 4.8 19.3385 4.896C19.1077 4.8 18.8769 4.752 18.6461 4.752V4.224C18.8769 4.224 19.1077 4.176 19.3385 4.08C19.5692 4.176 19.8 4.224 20.0308 4.224ZM19.2461 3.936C19.0615 4.032 18.8308 4.08 18.6 4.08C18.5538 4.08 18.5538 4.08 18.5077 4.08C18.4615 4.08 18.4615 4.08 18.4154 4.08C18.1846 4.08 18 4.032 17.7692 3.936V3.264C17.9538 3.168 18.1846 3.12 18.4154 3.12C18.4615 3.12 18.4615 3.12 18.5077 3.12C18.5538 3.12 18.5538 3.12 18.6 3.12C18.8308 3.12 19.0154 3.168 19.2461 3.264V3.936ZM18.4615 4.224V4.752C18.2308 4.752 18 4.8 17.7692 4.896C17.5385 4.8 17.3077 4.752 17.0769 4.752V4.224C17.3077 4.224 17.5385 4.176 17.7692 4.08C18 4.176 18.2308 4.224 18.4615 4.224ZM17.6769 3.936C17.4923 4.032 17.2615 4.08 17.0308 4.08C16.9846 4.08 16.9846 4.08 16.9385 4.08C16.8923 4.08 16.8923 4.08 16.8461 4.08C16.6154 4.08 16.4308 4.032 16.2 3.936V3.264C16.3846 3.168 16.6154 3.12 16.8461 3.12C16.8923 3.12 16.8923 3.12 16.9385 3.12C16.9846 3.12 16.9846 3.12 17.0308 3.12C17.2615 3.12 17.4461 3.168 17.6769 3.264V3.936ZM16.8923 4.224V4.752C16.6615 4.752 16.4308 4.8 16.2 4.896C15.9692 4.8 15.7385 4.752 15.5077 4.752V4.224C15.7385 4.224 15.9692 4.176 16.2 4.08C16.3846 4.176 16.6615 4.224 16.8923 4.224ZM16.1077 3.936C15.9231 4.032 15.6923 4.08 15.4615 4.08C15.4154 4.08 15.4154 4.08 15.3692 4.08C15.3231 4.08 15.3231 4.08 15.2769 4.08C15.0461 4.08 14.8615 4.032 14.6308 3.936V3.264C14.8154 3.168 15.0461 3.12 15.2769 3.12C15.3231 3.12 15.3231 3.12 15.3692 3.12C15.4154 3.12 15.4154 3.12 15.4615 3.12C15.6923 3.12 15.8769 3.168 16.1077 3.264V3.936ZM15.2769 4.224V4.752C15.0461 4.752 14.8154 4.8 14.5846 4.896C14.3538 4.8 14.1231 4.752 13.8923 4.752V4.224C14.1231 4.224 14.3538 4.176 14.5846 4.08C14.8154 4.176 15.0461 4.224 15.2769 4.224ZM14.4923 3.936C14.3077 4.032 14.0769 4.08 13.8461 4.08C13.8 4.08 13.8 4.08 13.7538 4.08C13.7077 4.08 13.7077 4.08 13.6615 4.08C13.4308 4.08 13.2461 4.032 13.0154 3.936V3.264C13.2 3.168 13.4308 3.12 13.6615 3.12C13.7077 3.12 13.7077 3.12 13.7538 3.12C13.8 3.12 13.8 3.12 13.8461 3.12C14.0769 3.12 14.2615 3.168 14.4923 3.264V3.936ZM13.7077 4.224V4.752C13.4769 4.752 13.2461 4.8 13.0154 4.896C12.7846 4.8 12.5538 4.752 12.3231 4.752V4.224C12.5538 4.224 12.7846 4.176 13.0154 4.08C13.2461 4.176 13.4769 4.224 13.7077 4.224ZM12.9231 3.936C12.7385 4.032 12.5077 4.08 12.2769 4.08V3.12C12.5077 3.12 12.6923 3.168 12.9231 3.264V3.936ZM11.7692 4.08C11.5846 4.08 11.3538 4.032 11.1692 3.936V3.264C11.3538 3.168 11.5846 3.168 11.7692 3.12V4.08ZM11.7692 4.224V4.752C11.5385 4.752 11.3077 4.8 11.0769 4.896C10.8461 4.8 10.6154 4.752 10.3846 4.752V4.224C10.6154 4.224 10.8461 4.176 11.0769 4.08C11.3077 4.176 11.5385 4.224 11.7692 4.224ZM11.0308 3.936C10.8461 4.032 10.6154 4.08 10.3846 4.08C10.3385 4.08 10.3384 4.08 10.2923 4.08C10.2461 4.08 10.2461 4.08 10.2 4.08C9.96922 4.08 9.7846 4.032 9.55383 3.936V3.264C9.73845 3.168 9.96922 3.12 10.2 3.12C10.2461 3.12 10.2461 3.12 10.2923 3.12C10.3384 3.12 10.3385 3.12 10.3846 3.12C10.6154 3.12 10.8 3.168 11.0308 3.264V3.936ZM10.2461 4.224V4.752C10.0154 4.752 9.7846 4.8 9.55383 4.896C9.32307 4.8 9.0923 4.752 8.86153 4.752V4.224C9.0923 4.224 9.32307 4.176 9.55383 4.08C9.73845 4.176 9.96922 4.224 10.2461 4.224ZM9.46153 3.936C9.27691 4.032 9.04614 4.08 8.81537 4.08C8.76922 4.08 8.76922 4.08 8.72307 4.08C8.67691 4.08 8.67691 4.08 8.63076 4.08C8.39999 4.08 8.21537 4.032 7.9846 3.936V3.264C8.16922 3.168 8.39999 3.12 8.63076 3.12C8.67691 3.12 8.67691 3.12 8.72307 3.12C8.76922 3.12 8.76922 3.12 8.81537 3.12C9.04614 3.12 9.23076 3.168 9.46153 3.264V3.936ZM8.63076 4.224V4.752C8.39999 4.752 8.16922 4.8 7.93845 4.896C7.70768 4.8 7.47691 4.752 7.24614 4.752V4.224C7.47691 4.224 7.70768 4.176 7.93845 4.08C8.16922 4.176 8.39999 4.224 8.63076 4.224ZM7.84614 3.936C7.66153 4.032 7.43076 4.08 7.19999 4.08C7.15383 4.08 7.15383 4.08 7.10768 4.08C7.06153 4.08 7.06153 4.08 7.01537 4.08C6.7846 4.08 6.59999 4.032 6.36922 3.936V3.264C6.55383 3.168 6.7846 3.12 7.01537 3.12C7.06153 3.12 7.06153 3.12 7.10768 3.12C7.15383 3.12 7.15383 3.12 7.19999 3.12C7.43076 3.12 7.61537 3.168 7.84614 3.264V3.936ZM7.06153 4.224V4.752C6.83076 4.752 6.59999 4.8 6.36922 4.896C6.13845 4.8 5.90768 4.752 5.67691 4.752V4.224C5.90768 4.224 6.13845 4.176 6.36922 4.08C6.59999 4.176 6.83076 4.224 7.06153 4.224ZM6.27691 3.936C6.0923 4.032 5.86153 4.08 5.63076 4.08C5.5846 4.08 5.5846 4.08 5.53845 4.08C5.4923 4.08 5.4923 4.08 5.44614 4.08C5.21537 4.08 5.03076 4.032 4.79999 3.936V3.264C4.9846 3.168 5.21537 3.12 5.44614 3.12C5.4923 3.12 5.4923 3.12 5.53845 3.12C5.5846 3.12 5.5846 3.12 5.63076 3.12C5.86153 3.12 6.04614 3.168 6.27691 3.264V3.936ZM5.4923 4.224V4.752C5.26153 4.752 5.03076 4.8 4.79999 4.896C4.56922 4.8 4.33845 4.752 4.10768 4.752V4.224C4.33845 4.224 4.56922 4.176 4.79999 4.08C4.9846 4.176 5.26153 4.224 5.4923 4.224ZM4.70768 3.936C4.47691 4.032 4.24614 4.032 4.06153 4.08C4.01537 4.08 4.01537 4.08 3.96922 4.08C3.92307 4.08 3.92307 4.08 3.87691 4.08C3.6923 4.032 3.46153 4.032 3.27691 3.936V3.264C3.46153 3.168 3.6923 3.12 3.87691 3.12C3.92307 3.12 3.92307 3.12 3.96922 3.12C4.01537 3.12 4.01537 3.12 4.06153 3.12C4.2923 3.12 4.47691 3.168 4.70768 3.264V3.936ZM3.87691 4.224V4.752C3.64614 4.752 3.41537 4.8 3.1846 4.896C2.95384 4.8 2.72307 4.752 2.4923 4.752V4.224C2.72307 4.224 2.95384 4.176 3.1846 4.08C3.41537 4.176 3.64614 4.224 3.87691 4.224ZM3.0923 3.936C2.90768 4.032 2.67691 4.032 2.4923 4.08C2.44614 4.08 2.44614 4.08 2.39999 4.08C2.35383 4.08 2.35383 4.08 2.30768 4.08C2.07691 4.08 1.8923 4.032 1.66153 3.936V3.264C1.8923 3.168 2.07691 3.12 2.30768 3.12C2.35383 3.12 2.35383 3.12 2.39999 3.12C2.44614 3.12 2.44614 3.12 2.4923 3.12C2.72307 3.12 2.90768 3.168 3.13845 3.264V3.936H3.0923ZM2.30768 4.224V4.752C2.07691 4.752 1.84614 4.8 1.61537 4.896C1.3846 4.8 1.10768 4.752 0.876912 4.752V4.224C1.10768 4.224 1.33845 4.176 1.56922 4.08C1.84614 4.176 2.07691 4.224 2.30768 4.224ZM1.52307 3.936C1.2923 4.032 1.10768 4.032 0.876912 4.08V3.12C1.10768 3.12 1.2923 3.168 1.52307 3.264V3.936ZM0.876912 4.896C1.10768 4.896 1.2923 4.944 1.52307 5.04V5.712C1.33845 5.808 1.10768 5.856 0.876912 5.856V4.896ZM0.876912 6.672C1.10768 6.672 1.2923 6.72 1.52307 6.816V7.488C1.33845 7.584 1.10768 7.632 0.876912 7.632V6.672ZM0.876912 8.448C1.10768 8.448 1.2923 8.496 1.52307 8.592V9.264C1.33845 9.36 1.10768 9.408 0.876912 9.408V8.448ZM0.876912 9.6C1.10768 9.6 1.33845 9.552 1.56922 9.456C1.84614 9.504 2.07691 9.552 2.30768 9.6V10.08C2.07691 10.08 1.84614 10.128 1.61537 10.224C1.3846 10.128 1.15383 10.08 0.923066 10.08V9.6H0.876912ZM1.66153 10.368C1.84614 10.272 2.07691 10.224 2.30768 10.224C2.35383 10.224 2.35383 10.224 2.39999 10.224C2.44614 10.224 2.44614 10.224 2.4923 10.224C2.72307 10.224 2.90768 10.272 3.13845 10.368V11.04C2.95384 11.136 2.72307 11.184 2.4923 11.184C2.44614 11.184 2.44614 11.184 2.39999 11.184C2.35383 11.184 2.35383 11.184 2.30768 11.184C2.07691 11.184 1.8923 11.136 1.66153 11.04V10.368ZM2.4923 11.376C2.72307 11.376 2.95384 11.328 3.1846 11.232C3.41537 11.328 3.64614 11.376 3.87691 11.376V11.76H2.4923V11.376ZM3.0923 12.24V12.576C2.86153 12.576 2.63076 12.624 2.39999 12.72C2.16922 12.624 1.93845 12.576 1.70768 12.576V12.24H3.0923ZM1.66153 19.2C1.8923 19.2 2.12307 19.152 2.35383 19.056C2.5846 19.152 2.81537 19.2 3.04614 19.2V19.728C2.81537 19.728 2.5846 19.776 2.35383 19.872C2.12307 19.776 1.8923 19.728 1.66153 19.728V19.2ZM2.44614 20.016C2.63076 19.92 2.86153 19.872 3.0923 19.872C3.13845 19.872 3.13845 19.872 3.1846 19.872C3.23076 19.872 3.23076 19.872 3.27691 19.872C3.50768 19.872 3.6923 19.92 3.92307 20.016V20.688C3.73845 20.784 3.50768 20.832 3.27691 20.832C3.23076 20.832 3.23076 20.832 3.1846 20.832C3.13845 20.832 3.13845 20.832 3.0923 20.832C2.86153 20.832 2.67691 20.784 2.44614 20.688V20.016ZM3.23076 19.728V19.2C3.46153 19.2 3.6923 19.152 3.92307 19.056C4.15383 19.152 4.3846 19.2 4.61537 19.2V19.728C4.3846 19.728 4.15383 19.776 3.92307 19.872C3.73845 19.776 3.46153 19.728 3.23076 19.728ZM4.01537 20.016C4.19999 19.92 4.43076 19.872 4.66153 19.872C4.70768 19.872 4.70768 19.872 4.75383 19.872C4.79999 19.872 4.79999 19.872 4.84614 19.872C5.07691 19.872 5.26153 19.92 5.4923 20.016V20.688C5.30768 20.784 5.07691 20.832 4.84614 20.832C4.79999 20.832 4.79999 20.832 4.75383 20.832C4.70768 20.832 4.70768 20.832 4.66153 20.832C4.43076 20.832 4.24614 20.784 4.01537 20.688V20.016ZM4.84614 19.728V19.2C5.07691 19.2 5.30768 19.152 5.53845 19.056C5.76922 19.152 5.99999 19.2 6.23076 19.2V19.728C5.99999 19.728 5.76922 19.776 5.53845 19.872C5.30768 19.776 5.07691 19.728 4.84614 19.728ZM5.63076 20.016C5.81537 19.92 6.04614 19.872 6.27691 19.872C6.32307 19.872 6.32307 19.872 6.36922 19.872C6.41537 19.872 6.41537 19.872 6.46153 19.872C6.6923 19.872 6.87691 19.92 7.10768 20.016V20.688C6.92307 20.784 6.6923 20.832 6.46153 20.832C6.41537 20.832 6.41537 20.832 6.36922 20.832C6.32307 20.832 6.32307 20.832 6.27691 20.832C6.04614 20.832 5.86153 20.784 5.63076 20.688V20.016ZM6.41537 19.728V19.2C6.64614 19.2 6.87691 19.152 7.10768 19.056C7.33845 19.152 7.56922 19.2 7.79999 19.2V19.728C7.56922 19.728 7.33845 19.776 7.10768 19.872C6.87691 19.776 6.64614 19.728 6.41537 19.728ZM7.19999 20.016C7.3846 19.92 7.61537 19.872 7.84614 19.872C7.8923 19.872 7.8923 19.872 7.93845 19.872C7.9846 19.872 7.9846 19.872 8.03076 19.872C8.26153 19.872 8.44614 19.92 8.67691 20.016V20.688C8.4923 20.784 8.26153 20.832 8.03076 20.832C7.9846 20.832 7.9846 20.832 7.93845 20.832C7.8923 20.832 7.8923 20.832 7.84614 20.832C7.61537 20.832 7.43076 20.784 7.19999 20.688V20.016ZM7.9846 19.728V19.2C8.21537 19.2 8.44614 19.152 8.67691 19.056C8.90768 19.152 9.13845 19.2 9.36922 19.2V19.728C9.13845 19.728 8.90768 19.776 8.67691 19.872C8.4923 19.776 8.21537 19.728 7.9846 19.728ZM8.76922 20.016C8.95383 19.92 9.1846 19.872 9.41537 19.872C9.46153 19.872 9.46153 19.872 9.50768 19.872C9.55383 19.872 9.55383 19.872 9.59999 19.872C9.83076 19.872 10.0154 19.92 10.2461 20.016V20.688C10.0615 20.784 9.83076 20.832 9.59999 20.832C9.55383 20.832 9.55383 20.832 9.50768 20.832C9.46153 20.832 9.46153 20.832 9.41537 20.832C9.1846 20.832 8.99999 20.784 8.76922 20.688V20.016ZM9.59999 19.728V19.2C9.83076 19.2 10.0615 19.152 10.2923 19.056C10.5231 19.152 10.7538 19.2 10.9846 19.2V19.728C10.7538 19.728 10.5231 19.776 10.2923 19.872C10.0615 19.776 9.83076 19.728 9.59999 19.728ZM10.3846 18.912V18.24C10.5692 18.144 10.8 18.096 11.0308 18.096C11.0769 18.096 11.0769 18.096 11.1231 18.096C11.1692 18.096 11.1692 18.096 11.2154 18.096C11.4461 18.096 11.6308 18.144 11.8615 18.24V18.912C11.6769 19.008 11.4461 19.056 11.2154 19.056C11.1692 19.056 11.1692 19.056 11.1231 19.056C11.0769 19.056 11.0769 19.056 11.0308 19.056C10.8 19.056 10.5692 19.008 10.3846 18.912ZM11.1692 19.2C11.4 19.2 11.5846 19.152 11.8154 19.056V19.824C11.6308 19.776 11.4 19.728 11.1692 19.728V19.2ZM12.2769 19.104C12.4615 19.152 12.6923 19.2 12.9231 19.248V19.776C12.6923 19.776 12.5077 19.824 12.2769 19.872V19.104ZM12.2769 18.912V18.24C12.4615 18.144 12.6923 18.096 12.9231 18.096C12.9692 18.096 12.9692 18.096 13.0154 18.096C13.0615 18.096 13.0615 18.096 13.1077 18.096C13.3385 18.096 13.5231 18.144 13.7538 18.24V18.912C13.5692 19.008 13.3385 19.056 13.1077 19.056C13.0615 19.056 13.0615 19.056 13.0154 19.056C12.9692 19.056 12.9692 19.056 12.9231 19.056C12.6923 19.056 12.4615 19.008 12.2769 18.912ZM13.0615 19.2C13.2923 19.2 13.5231 19.152 13.7538 19.056C13.9846 19.152 14.2154 19.2 14.4461 19.2V19.728C14.2154 19.728 13.9846 19.776 13.7538 19.872C13.5231 19.776 13.2923 19.728 13.0615 19.728V19.2ZM13.8461 20.016C14.0308 19.92 14.2615 19.872 14.4923 19.872C14.5385 19.872 14.5385 19.872 14.5846 19.872C14.6308 19.872 14.6308 19.872 14.6769 19.872C14.9077 19.872 15.0923 19.92 15.3231 20.016V20.688C15.1385 20.784 14.9077 20.832 14.6769 20.832C14.6308 20.832 14.6308 20.832 14.5846 20.832C14.5385 20.832 14.5385 20.832 14.4923 20.832C14.2615 20.832 14.0769 20.784 13.8461 20.688V20.016ZM14.6308 19.728V19.2C14.8615 19.2 15.0923 19.152 15.3231 19.056C15.5538 19.152 15.7846 19.2 16.0154 19.2V19.728C15.7846 19.728 15.5538 19.776 15.3231 19.872C15.1385 19.776 14.8615 19.728 14.6308 19.728ZM15.4154 20.016C15.6 19.92 15.8308 19.872 16.0615 19.872C16.1077 19.872 16.1077 19.872 16.1538 19.872C16.2 19.872 16.2 19.872 16.2461 19.872C16.4769 19.872 16.6615 19.92 16.8923 20.016V20.688C16.7077 20.784 16.4769 20.832 16.2461 20.832C16.2 20.832 16.2 20.832 16.1538 20.832C16.1077 20.832 16.1077 20.832 16.0615 20.832C15.8308 20.832 15.6461 20.784 15.4154 20.688V20.016ZM16.2461 19.728V19.2C16.4769 19.2 16.7077 19.152 16.9385 19.056C17.1692 19.152 17.4 19.2 17.6308 19.2V19.728C17.4 19.728 17.1692 19.776 16.9385 19.872C16.7077 19.776 16.4769 19.728 16.2461 19.728ZM17.0308 20.016C17.2154 19.92 17.4461 19.872 17.6769 19.872C17.7231 19.872 17.7231 19.872 17.7692 19.872C17.8154 19.872 17.8154 19.872 17.8615 19.872C18.0923 19.872 18.2769 19.92 18.5077 20.016V20.688C18.3231 20.784 18.0923 20.832 17.8615 20.832C17.8154 20.832 17.8154 20.832 17.7692 20.832C17.7231 20.832 17.7231 20.832 17.6769 20.832C17.4461 20.832 17.2615 20.784 17.0308 20.688V20.016ZM17.8154 19.728V19.2C18.0461 19.2 18.2769 19.152 18.5077 19.056C18.7385 19.152 18.9692 19.2 19.2 19.2V19.728C18.9692 19.728 18.7385 19.776 18.5077 19.872C18.2769 19.776 18.0461 19.728 17.8154 19.728ZM18.6 20.016C18.7846 19.92 19.0154 19.872 19.2461 19.872C19.2923 19.872 19.2923 19.872 19.3385 19.872C19.3846 19.872 19.3846 19.872 19.4308 19.872C19.6615 19.872 19.8461 19.92 20.0769 20.016V20.688C19.8923 20.784 19.6615 20.832 19.4308 20.832C19.3846 20.832 19.3846 20.832 19.3385 20.832C19.2923 20.832 19.2923 20.832 19.2461 20.832C19.0154 20.832 18.8308 20.784 18.6 20.688V20.016ZM19.3846 19.728V19.2C19.6154 19.2 19.8461 19.152 20.0769 19.056C20.3077 19.152 20.5385 19.2 20.7692 19.2V19.728C20.5385 19.728 20.3077 19.776 20.0769 19.872C19.8923 19.776 19.6154 19.728 19.3846 19.728ZM20.1692 20.016C20.3538 19.92 20.5846 19.872 20.8154 19.872C20.8615 19.872 20.8615 19.872 20.9077 19.872C20.9538 19.872 20.9538 19.872 21 19.872C21.2308 19.872 21.4154 19.92 21.6461 20.016V20.688C21.4615 20.784 21.2308 20.832 21 20.832C20.9538 20.832 20.9538 20.832 20.9077 20.832C20.8615 20.832 20.8615 20.832 20.8154 20.832C20.5846 20.832 20.4 20.784 20.1692 20.688V20.016ZM21 19.728V19.2C21.2308 19.2 21.4615 19.152 21.6923 19.056C21.9231 19.152 22.1538 19.2 22.3846 19.2V19.728C22.1538 19.728 21.9231 19.776 21.6923 19.872C21.4615 19.776 21.2308 19.728 21 19.728ZM22.3846 12.576C22.1538 12.576 21.9231 12.624 21.6923 12.72C21.4615 12.624 21.2308 12.576 21 12.576V12.24H22.4308V12.576H22.3846ZM21.7846 11.76V11.376C22.0154 11.376 22.2461 11.328 22.4769 11.232C22.7077 11.328 22.9385 11.376 23.1692 11.376V11.76H21.7846ZM21.7846 10.08V9.6C22.0154 9.6 22.2461 9.552 22.4769 9.456C22.7077 9.552 22.9385 9.6 23.1692 9.6V10.08C22.9385 10.08 22.7077 10.128 22.4769 10.224C22.2923 10.176 22.0154 10.128 21.7846 10.08ZM23.1692 2.256C22.9846 2.256 22.7538 2.208 22.5692 2.112V1.44C22.7538 1.344 22.9846 1.344 23.1692 1.296V2.256ZM23.1692 2.448V2.976C22.9385 2.976 22.7077 3.024 22.4769 3.12C22.2461 3.024 22.0154 2.976 21.7846 2.976V2.448C22.0154 2.448 22.2461 2.4 22.4769 2.304C22.7077 2.352 22.9385 2.4 23.1692 2.448ZM21.6461 2.448V2.976C21.4154 2.976 21.1846 3.024 20.9538 3.12C20.7231 3.024 20.4923 2.976 20.2615 2.976V2.448C20.4923 2.448 20.7231 2.4 20.9538 2.304C21.1385 2.352 21.3692 2.4 21.6461 2.448ZM20.0308 2.448V2.976C19.8 2.976 19.5692 3.024 19.3385 3.12C19.1077 3.024 18.8769 2.976 18.6461 2.976V2.448C18.8769 2.448 19.1077 2.4 19.3385 2.304C19.5692 2.352 19.8 2.4 20.0308 2.448ZM18.4615 2.448V2.976C18.2308 2.976 18 3.024 17.7692 3.12C17.5385 3.024 17.3077 2.976 17.0769 2.976V2.448C17.3077 2.448 17.5385 2.4 17.7692 2.304C18 2.352 18.2308 2.4 18.4615 2.448ZM16.8923 2.448V2.976C16.6615 2.976 16.4308 3.024 16.2 3.12C15.9692 3.024 15.7385 2.976 15.5077 2.976V2.448C15.7385 2.448 15.9692 2.4 16.2 2.304C16.3846 2.352 16.6615 2.4 16.8923 2.448ZM15.2769 2.448V2.976C15.0461 2.976 14.8154 3.024 14.5846 3.12C14.3538 3.024 14.1231 2.976 13.8923 2.976V2.448C14.1231 2.448 14.3538 2.4 14.5846 2.304C14.8154 2.352 15.0461 2.4 15.2769 2.448ZM13.7077 2.448V2.976C13.4769 2.976 13.2461 3.024 13.0154 3.12C12.7846 3.024 12.5538 2.976 12.3231 2.976V2.448C12.5538 2.448 12.7846 2.4 13.0154 2.304C13.2461 2.352 13.4769 2.4 13.7077 2.448ZM11.7692 2.256C11.5846 2.256 11.3538 2.208 11.1692 2.112V1.44C11.3538 1.344 11.5846 1.344 11.7692 1.296V2.256ZM11.7692 2.448V2.976C11.5385 2.976 11.3077 3.024 11.0769 3.12C10.8461 3.024 10.6154 2.976 10.3846 2.976V2.448C10.6154 2.448 10.8461 2.4 11.0769 2.304C11.3077 2.352 11.5385 2.4 11.7692 2.448ZM10.2461 2.448V2.976C10.0154 2.976 9.7846 3.024 9.55383 3.12C9.32307 3.024 9.0923 2.976 8.86153 2.976V2.448C9.0923 2.448 9.32307 2.4 9.55383 2.304C9.73845 2.352 9.96922 2.4 10.2461 2.448ZM8.63076 2.448V2.976C8.39999 2.976 8.16922 3.024 7.93845 3.12C7.70768 3.024 7.47691 2.976 7.24614 2.976V2.448C7.47691 2.448 7.70768 2.4 7.93845 2.304C8.16922 2.352 8.39999 2.4 8.63076 2.448ZM7.06153 2.448V2.976C6.83076 2.976 6.59999 3.024 6.36922 3.12C6.13845 3.024 5.90768 2.976 5.67691 2.976V2.448C5.90768 2.448 6.13845 2.4 6.36922 2.304C6.59999 2.352 6.83076 2.4 7.06153 2.448ZM5.4923 2.448V2.976C5.26153 2.976 5.03076 3.024 4.79999 3.12C4.56922 3.024 4.33845 2.976 4.10768 2.976V2.448C4.33845 2.448 4.56922 2.4 4.79999 2.304C4.9846 2.352 5.26153 2.4 5.4923 2.448ZM3.87691 2.448V2.976C3.64614 2.976 3.41537 3.024 3.1846 3.12C2.95384 3.024 2.72307 2.976 2.4923 2.976V2.448C2.72307 2.448 2.95384 2.4 3.1846 2.304C3.41537 2.352 3.64614 2.4 3.87691 2.448ZM2.30768 2.448V2.976C2.07691 2.976 1.84614 3.024 1.61537 3.12C1.3846 3.024 1.10768 2.976 0.876912 2.976V2.448C1.10768 2.448 1.33845 2.4 1.56922 2.304C1.84614 2.352 2.07691 2.4 2.30768 2.448ZM0.876912 10.272C1.10768 10.272 1.33845 10.32 1.52307 10.416V11.088C1.33845 11.184 1.10768 11.232 0.876912 11.232V10.272ZM0.876912 11.376C1.10768 11.376 1.33845 11.328 1.56922 11.232C1.79999 11.328 2.03076 11.376 2.26153 11.376V11.76H0.876912V11.376ZM1.47691 12.576C1.24614 12.576 1.06153 12.624 0.830758 12.672V12.192H1.47691V12.576ZM1.47691 13.872V14.4C1.24614 14.4 1.06153 14.448 0.830758 14.496V13.728C1.06153 13.824 1.2923 13.872 1.47691 13.872ZM1.47691 15.648V16.176C1.24614 16.176 1.06153 16.224 0.830758 16.272V15.504C1.06153 15.6 1.2923 15.648 1.47691 15.648ZM1.47691 17.424V17.952C1.24614 17.952 1.06153 18 0.830758 18.048V17.28C1.06153 17.376 1.2923 17.424 1.47691 17.424ZM1.47691 19.2V19.728C1.24614 19.728 1.06153 19.776 0.830758 19.824V19.056C1.06153 19.152 1.2923 19.2 1.47691 19.2ZM0.876912 20.736V20.064C1.06153 19.968 1.2923 19.92 1.52307 19.92C1.56922 19.92 1.56922 19.92 1.61537 19.92C1.66153 19.92 1.66153 19.92 1.70768 19.92C1.93845 19.92 2.12307 19.968 2.35383 20.064V20.736C2.16922 20.832 1.93845 20.88 1.70768 20.88C1.66153 20.88 1.66153 20.88 1.61537 20.88C1.56922 20.88 1.56922 20.88 1.52307 20.88C1.2923 20.832 1.06153 20.784 0.876912 20.736ZM1.47691 21.024V21.552C1.24614 21.552 1.06153 21.6 0.830758 21.648V20.88C1.06153 20.976 1.2923 20.976 1.47691 21.024ZM1.66153 21.024C1.8923 21.024 2.12307 20.976 2.35383 20.88C2.5846 20.976 2.81537 21.024 3.04614 21.024V21.552C2.81537 21.552 2.5846 21.6 2.35383 21.696C2.12307 21.6 1.8923 21.552 1.66153 21.552V21.024ZM3.23076 21.552V21.024C3.46153 21.024 3.6923 20.976 3.92307 20.88C4.15383 20.976 4.3846 21.024 4.61537 21.024V21.552C4.3846 21.552 4.15383 21.6 3.92307 21.696C3.73845 21.6 3.46153 21.552 3.23076 21.552ZM4.84614 21.552V21.024C5.07691 21.024 5.30768 20.976 5.53845 20.88C5.76922 20.976 5.99999 21.024 6.23076 21.024V21.552C5.99999 21.552 5.76922 21.6 5.53845 21.696C5.30768 21.6 5.07691 21.552 4.84614 21.552ZM6.41537 21.552V21.024C6.64614 21.024 6.87691 20.976 7.10768 20.88C7.33845 20.976 7.56922 21.024 7.79999 21.024V21.552C7.56922 21.552 7.33845 21.6 7.10768 21.696C6.87691 21.6 6.64614 21.552 6.41537 21.552ZM7.9846 21.552V21.024C8.21537 21.024 8.44614 20.976 8.67691 20.88C8.90768 20.976 9.13845 21.024 9.36922 21.024V21.552C9.13845 21.552 8.90768 21.6 8.67691 21.696C8.4923 21.6 8.21537 21.552 7.9846 21.552ZM9.59999 21.552V21.024C9.83076 21.024 10.0615 20.976 10.2923 20.88C10.5231 20.976 10.7538 21.024 10.9846 21.024V21.552C10.7538 21.552 10.5231 21.6 10.2923 21.696C10.0615 21.6 9.83076 21.552 9.59999 21.552ZM10.3846 20.736V20.064C10.5692 19.968 10.8 19.92 11.0308 19.92C11.0769 19.92 11.0769 19.92 11.1231 19.92C11.1692 19.92 11.1692 19.92 11.2154 19.92C11.4461 19.92 11.6308 19.968 11.8615 20.064V20.736C11.6769 20.832 11.4461 20.88 11.2154 20.88C11.1692 20.88 11.1692 20.88 11.1231 20.88C11.0769 20.88 11.0769 20.88 11.0308 20.88C10.8 20.832 10.5692 20.784 10.3846 20.736ZM12.2769 20.88C12.4615 20.928 12.6923 20.976 12.9231 20.976V21.504C12.6923 21.504 12.5077 21.552 12.2769 21.6V20.88ZM12.2769 20.736V20.064C12.4615 19.968 12.6923 19.92 12.9231 19.92C12.9692 19.92 12.9692 19.92 13.0154 19.92C13.0615 19.92 13.0615 19.92 13.1077 19.92C13.3385 19.92 13.5231 19.968 13.7538 20.064V20.736C13.5692 20.832 13.3385 20.88 13.1077 20.88C13.0615 20.88 13.0615 20.88 13.0154 20.88C12.9692 20.88 12.9692 20.88 12.9231 20.88C12.6923 20.832 12.4615 20.784 12.2769 20.736ZM13.0615 21.024C13.2923 21.024 13.5231 20.976 13.7538 20.88C13.9846 20.976 14.2154 21.024 14.4461 21.024V21.552C14.2154 21.552 13.9846 21.6 13.7538 21.696C13.5231 21.6 13.2923 21.552 13.0615 21.552V21.024ZM14.6308 21.552V21.024C14.8615 21.024 15.0923 20.976 15.3231 20.88C15.5538 20.976 15.7846 21.024 16.0154 21.024V21.552C15.7846 21.552 15.5538 21.6 15.3231 21.696C15.1385 21.6 14.8615 21.552 14.6308 21.552ZM16.2461 21.552V21.024C16.4769 21.024 16.7077 20.976 16.9385 20.88C17.1692 20.976 17.4 21.024 17.6308 21.024V21.552C17.4 21.552 17.1692 21.6 16.9385 21.696C16.7077 21.6 16.4769 21.552 16.2461 21.552ZM17.8154 21.552V21.024C18.0461 21.024 18.2769 20.976 18.5077 20.88C18.7385 20.976 18.9692 21.024 19.2 21.024V21.552C18.9692 21.552 18.7385 21.6 18.5077 21.696C18.2769 21.6 18.0461 21.552 17.8154 21.552ZM19.3846 21.552V21.024C19.6154 21.024 19.8461 20.976 20.0769 20.88C20.3077 20.976 20.5385 21.024 20.7692 21.024V21.552C20.5385 21.552 20.3077 21.6 20.0769 21.696C19.8923 21.6 19.6154 21.552 19.3846 21.552ZM21 21.552V21.024C21.2308 21.024 21.4615 20.976 21.6923 20.88C21.9231 20.976 22.1538 21.024 22.3846 21.024V21.552C22.1538 21.552 21.9231 21.6 21.6923 21.696C21.4615 21.6 21.2308 21.552 21 21.552ZM21.7846 20.736V20.064C21.9692 19.968 22.2 19.92 22.4308 19.92C22.4769 19.92 22.4769 19.92 22.5231 19.92C22.5692 19.92 22.5692 19.92 22.6154 19.92C22.8461 19.92 23.0308 19.968 23.2615 20.064V20.736C23.0769 20.832 22.8461 20.88 22.6154 20.88C22.5692 20.88 22.5692 20.88 22.5231 20.88C22.4769 20.88 22.4769 20.88 22.4308 20.88C22.2 20.832 21.9692 20.784 21.7846 20.736ZM22.5692 19.728V19.2C22.8 19.2 22.9846 19.152 23.2154 19.056V19.824C22.9846 19.776 22.7538 19.728 22.5692 19.728ZM22.5692 17.952V17.424C22.8 17.424 22.9846 17.376 23.2154 17.28V18.048C22.9846 18 22.7538 17.952 22.5692 17.952ZM22.5692 16.176V15.648C22.8 15.648 22.9846 15.6 23.2154 15.552V16.32C22.9846 16.224 22.7538 16.176 22.5692 16.176ZM22.5692 14.4V13.872C22.8 13.872 22.9846 13.824 23.2154 13.776V14.544C22.9846 14.448 22.7538 14.4 22.5692 14.4ZM23.1692 12.72C22.9846 12.672 22.7538 12.624 22.5231 12.624V12.288H23.1692V12.72ZM22.5692 11.088V10.416C22.7538 10.32 22.9846 10.32 23.1692 10.272V11.232C22.9846 11.184 22.8 11.136 22.5692 11.088ZM23.1692 1.152C22.9385 1.152 22.7077 1.2 22.4769 1.296C22.2461 1.2 22.0154 1.152 21.7846 1.152V0.816H23.1692V1.152ZM21.6461 1.152C21.4154 1.152 21.1846 1.2 20.9538 1.296C20.7231 1.2 20.4923 1.152 20.2615 1.152V0.816H21.6923V1.152H21.6461ZM20.0308 1.152C19.8 1.152 19.5692 1.2 19.3385 1.296C19.1077 1.2 18.8769 1.152 18.6461 1.152V0.816H20.0769V1.152H20.0308ZM18.4615 1.152C18.2308 1.152 18 1.2 17.7692 1.296C17.5385 1.2 17.3077 1.152 17.0769 1.152V0.816H18.4615V1.152ZM16.8923 1.152C16.6615 1.152 16.4308 1.2 16.2 1.296C15.9692 1.2 15.7385 1.152 15.5077 1.152V0.816H16.9385V1.152H16.8923ZM15.2769 1.152C15.0461 1.152 14.8154 1.2 14.5846 1.296C14.3538 1.2 14.1231 1.152 13.8923 1.152V0.816H15.3231V1.152H15.2769ZM13.7077 1.152C13.4769 1.152 13.2461 1.2 13.0154 1.296C12.7846 1.2 12.5538 1.152 12.3231 1.152V0.816H13.7538V1.152H13.7077ZM11.7692 1.152C11.5385 1.152 11.3077 1.2 11.0769 1.296C10.8461 1.2 10.6154 1.152 10.3846 1.152V0.816H11.7692V1.152ZM10.2461 1.152C10.0154 1.152 9.7846 1.2 9.55383 1.296C9.32307 1.2 9.0923 1.152 8.86153 1.152V0.816H10.2923V1.152H10.2461ZM8.63076 1.152C8.39999 1.152 8.16922 1.2 7.93845 1.296C7.70768 1.2 7.47691 1.152 7.24614 1.152V0.816H8.67691V1.152H8.63076ZM7.06153 1.152C6.83076 1.152 6.59999 1.2 6.36922 1.296C6.13845 1.2 5.90768 1.152 5.67691 1.152V0.816H7.10768V1.152H7.06153ZM5.4923 1.152C5.26153 1.152 5.03076 1.2 4.79999 1.296C4.56922 1.2 4.33845 1.152 4.10768 1.152V0.816H5.53845V1.152H5.4923ZM3.87691 1.152C3.64614 1.152 3.41537 1.2 3.1846 1.296C2.95384 1.2 2.72307 1.152 2.4923 1.152V0.816H3.92307V1.152H3.87691ZM2.30768 1.152C2.07691 1.152 1.84614 1.2 1.61537 1.296C1.3846 1.248 1.10768 1.152 0.876912 1.152V0.816H2.30768V1.152ZM0.876912 21.792C1.06153 21.696 1.2923 21.648 1.52307 21.648C1.56922 21.648 1.56922 21.648 1.61537 21.648C1.66153 21.648 1.66153 21.648 1.70768 21.648C1.93845 21.648 2.12307 21.696 2.35383 21.792V22.464C2.16922 22.56 1.93845 22.608 1.70768 22.608C1.66153 22.608 1.66153 22.608 1.61537 22.608C1.56922 22.608 1.56922 22.608 1.52307 22.608C1.2923 22.608 1.10768 22.56 0.876912 22.464V21.792ZM1.66153 22.8C1.8923 22.8 2.12307 22.752 2.35383 22.656C2.5846 22.752 2.81537 22.8 3.04614 22.8V23.184H1.66153V22.8ZM3.23076 22.8C3.46153 22.8 3.6923 22.752 3.92307 22.656C4.15383 22.752 4.3846 22.8 4.61537 22.8V23.184H3.23076V22.8ZM4.84614 22.8C5.07691 22.8 5.30768 22.752 5.53845 22.656C5.76922 22.752 5.99999 22.8 6.23076 22.8V23.184H4.79999V22.8H4.84614ZM6.41537 22.8C6.64614 22.8 6.87691 22.752 7.10768 22.656C7.33845 22.752 7.56922 22.8 7.79999 22.8V23.184H6.36922V22.8H6.41537ZM7.9846 22.8C8.21537 22.8 8.44614 22.752 8.67691 22.656C8.90768 22.752 9.13845 22.8 9.36922 22.8V23.184H7.93845V22.8H7.9846ZM10.9846 22.656C10.7538 22.656 10.5692 22.608 10.3385 22.512V21.84C10.5231 21.744 10.7538 21.696 10.9846 21.696C11.0308 21.696 11.0308 21.696 11.0769 21.696C11.1231 21.696 11.1231 21.696 11.1692 21.696C11.4 21.696 11.5846 21.744 11.8154 21.84V22.512C11.6308 22.608 11.4 22.656 11.1692 22.656C11.1231 22.656 11.1231 22.656 11.0769 22.656C11.0769 22.656 11.0308 22.656 10.9846 22.656ZM11.1692 21.552V21.024C11.4 21.024 11.5846 20.976 11.8154 20.928V21.696C11.5846 21.6 11.3538 21.552 11.1692 21.552ZM12.2769 21.792C12.4615 21.696 12.6923 21.648 12.9231 21.648C12.9692 21.648 12.9692 21.648 13.0154 21.648C13.0615 21.648 13.0615 21.648 13.1077 21.648C13.3385 21.648 13.5231 21.696 13.7538 21.792V22.464C13.5692 22.56 13.3385 22.608 13.1077 22.608C13.0615 22.608 13.0615 22.608 13.0154 22.608C12.9692 22.608 12.9692 22.608 12.9231 22.608C12.6923 22.608 12.5077 22.56 12.2769 22.464V21.792ZM13.0615 22.8C13.2923 22.8 13.5231 22.752 13.7538 22.656C13.9846 22.752 14.2154 22.8 14.4461 22.8V23.184H13.0154V22.8H13.0615ZM14.6308 22.8C14.8615 22.8 15.0923 22.752 15.3231 22.656C15.5538 22.752 15.7846 22.8 16.0154 22.8V23.184H14.5846V22.8H14.6308ZM16.2461 22.8C16.4769 22.8 16.7077 22.752 16.9385 22.656C17.1692 22.752 17.4 22.8 17.6308 22.8V23.184H16.2V22.8H16.2461ZM17.8154 22.8C18.0461 22.8 18.2769 22.752 18.5077 22.656C18.7385 22.752 18.9692 22.8 19.2 22.8V23.184H17.7692V22.8H17.8154ZM19.3846 22.8C19.6154 22.8 19.8461 22.752 20.0769 22.656C20.3077 22.752 20.5385 22.8 20.7692 22.8V23.184H19.3846V22.8ZM22.3846 22.656C22.1538 22.656 21.9692 22.608 21.7385 22.512V21.84C21.9231 21.744 22.1538 21.696 22.3846 21.696C22.4308 21.696 22.4308 21.696 22.4769 21.696C22.5231 21.696 22.5231 21.696 22.5692 21.696C22.8 21.696 22.9846 21.744 23.2154 21.84V22.512C23.0308 22.608 22.8 22.656 22.5692 22.656C22.5231 22.656 22.5231 22.656 22.4769 22.656C22.4769 22.656 22.4308 22.656 22.3846 22.656ZM22.5692 21.552V21.024C22.8 21.024 22.9846 20.976 23.2154 20.928V21.696C22.9846 21.6 22.7538 21.552 22.5692 21.552ZM0.876912 22.656C1.06153 22.704 1.2923 22.752 1.52307 22.752V23.136H0.876912V22.656ZM11.1692 23.184V22.8C11.4 22.8 11.5846 22.752 11.8154 22.704V23.232H11.1692V23.184ZM12.2769 22.656C12.4615 22.704 12.6923 22.752 12.9231 22.752V23.136H12.2769V22.656ZM22.5692 23.184V22.8C22.8 22.8 22.9846 22.752 23.2154 22.704V23.232H22.5692V23.184Z" fill="#222222"/>
</g>
<defs>
<clipPath id="clip0_1181_303348">
<rect width="24" height="24" fill="white"/>
</clipPath>
</defs>
</svg>
