<svg width="48" height="48" viewBox="0 0 48 48" fill="none" xmlns="http://www.w3.org/2000/svg">
<g clip-path="url(#clip0_1266_238336)">
<path d="M23.4469 4.05334C18.9024 4.13694 15.9994 5.97222 14.7531 8.82582C13.5637 11.5426 13.8297 14.9738 14.6923 18.5228C14.2287 19.0661 13.8601 19.7957 13.9931 20.8938C14.1375 22.0907 14.4681 22.9419 14.9354 23.5384C15.1938 23.8652 15.532 23.8956 15.8474 24.0552C16.0184 25.0735 16.3034 26.0919 16.7289 26.943C16.9721 27.4332 17.2495 27.8853 17.5193 28.2501C17.6409 28.4135 17.8157 28.5085 17.9448 28.6453C17.9524 29.846 17.9562 30.8453 17.8536 32.1106C17.5383 32.8744 16.8011 33.49 15.6042 34.0865C14.3693 34.7021 12.762 35.272 11.1357 35.9712C9.50941 36.6703 7.83752 37.5215 6.51521 38.859C5.1929 40.1965 4.25817 42.0318 4.11377 44.4522L4.05298 45.4857L24.8048 51.5552L43.0839 45.4857L43.0232 44.4522C42.8788 42.0318 41.9402 40.1965 40.6217 38.859C39.3032 37.5215 37.6503 36.6703 36.0316 35.9712C34.4129 35.272 32.8246 34.7021 31.5935 34.0865C30.4118 33.4938 29.6671 32.8934 29.3441 32.141C29.2377 30.8605 29.2453 29.8574 29.2529 28.6453C29.3821 28.5047 29.5569 28.4135 29.6784 28.2501C29.9444 27.8815 30.199 27.4294 30.4384 26.943C30.8526 26.0919 31.1528 25.0697 31.3199 24.0552C31.6239 23.8956 31.9507 23.8576 32.2015 23.5384C32.6688 22.9419 32.9994 22.0907 33.1438 20.8938C33.273 19.8299 32.9158 19.1269 32.4751 18.5836C32.95 17.0409 33.558 14.5482 33.3566 11.9872C33.2464 10.5889 32.8892 9.1944 32.0495 8.03548C31.2819 6.97155 30.0356 6.1964 28.4625 5.87722C27.4404 4.55111 25.6013 4.05334 23.4773 4.05334H23.4469ZM23.4773 5.99881C23.4887 5.99881 23.4963 5.99881 23.5077 5.99881C25.4645 6.00641 26.7336 6.58017 27.0946 7.21473L27.3378 7.6099L27.7938 7.6707C29.1465 7.85689 29.9216 8.40405 30.4688 9.1602C31.016 9.91635 31.3199 10.9727 31.4111 12.1392C31.5935 14.4722 30.921 17.1891 30.4992 18.462L30.256 19.2219L30.9248 19.6171C30.883 19.5905 31.2971 19.8717 31.1983 20.681C31.0844 21.6348 30.8564 22.1287 30.6816 22.3529C30.5068 22.5771 30.4156 22.5657 30.408 22.5657L29.5873 22.6265L29.4961 23.4168C29.4049 24.2566 29.0667 25.2863 28.6753 26.0919C28.4777 26.4946 28.2763 26.848 28.0978 27.095C27.9192 27.342 27.733 27.4788 27.8242 27.4294L27.3074 27.7029V28.2805C27.3074 29.6902 27.2504 30.8453 27.3986 32.4754V32.597L27.4594 32.7186C28.0142 34.2119 29.2985 35.1428 30.712 35.8496C32.1255 36.5563 33.748 37.0769 35.2717 37.7343C36.7954 38.3916 38.1899 39.1782 39.2234 40.2269C40.0442 41.059 40.5609 42.161 40.8345 43.5403L24.8048 49.1234L6.30243 43.5403C6.57601 42.1648 7.08897 41.059 7.91352 40.2269C8.95085 39.1782 10.3644 38.3916 11.8956 37.7343C13.4269 37.0769 15.038 36.5563 16.4553 35.8496C17.8726 35.1428 19.1836 34.2119 19.7383 32.7186L19.7991 32.4754C19.9473 30.8453 19.8903 29.6902 19.8903 28.2805V27.7029L19.3735 27.4294C19.4609 27.475 19.252 27.342 19.0696 27.095C18.8872 26.848 18.663 26.4946 18.4616 26.0919C18.0588 25.2863 17.7283 24.249 17.6409 23.4168L17.5497 22.6265L16.7289 22.5657C16.7213 22.5657 16.6301 22.5771 16.4553 22.3529C16.2806 22.1287 16.0526 21.6348 15.9386 20.681C15.8436 19.8717 16.254 19.5905 16.2122 19.6171L16.8505 19.2219L16.6681 18.5228C15.7524 14.9966 15.5928 11.7934 16.5465 9.61617C17.4965 7.44652 19.4343 6.08241 23.4773 5.99881Z" fill="white"/>
</g>
<defs>
<clipPath id="clip0_1266_238336">
<rect width="48.6367" height="48.6367" fill="white" transform="translate(0 0.000244141)"/>
</clipPath>
</defs>
</svg>
