<svg width="21" height="20" viewBox="0 0 21 20" fill="none" xmlns="http://www.w3.org/2000/svg">
<path d="M6.2 2.80005C3.33281 2.80005 1 5.13286 1 8.00005C1 13.9047 7.67813 16.8188 9.95 18.7125L10.2 18.925L10.45 18.7125C12.7219 16.8188 19.4 13.9047 19.4 8.00005C19.4 5.13286 17.0672 2.80005 14.2 2.80005C12.5781 2.80005 11.1531 3.57036 10.2 4.73755C9.24688 3.57036 7.82188 2.80005 6.2 2.80005ZM6.2 3.60005C7.73438 3.60005 9.075 4.38755 9.8625 5.57505L10.2 6.07505L10.5375 5.57505C11.325 4.38755 12.6656 3.60005 14.2 3.60005C16.6344 3.60005 18.6 5.56567 18.6 8.00005C18.6 13.1594 12.8375 15.8297 10.2 17.9125C7.5625 15.8297 1.8 13.1594 1.8 8.00005C1.8 5.56567 3.76563 3.60005 6.2 3.60005Z" fill="#455999"/>
</svg>
