<svg width="48" height="49" viewBox="0 0 48 49" fill="none" xmlns="http://www.w3.org/2000/svg">
<path fill-rule="evenodd" clip-rule="evenodd" d="M23.8829 0.334037C24.1164 0.327036 24.2725 0.444109 24.3512 0.685256C25.2487 3.69013 26.1464 6.69502 27.0439 9.69989C29.1512 7.12428 31.2585 4.54867 33.3659 1.97306C33.1479 4.89535 32.8746 7.82218 32.5463 10.7535C32.6243 11.1048 32.7025 11.456 32.7805 11.8072C35.5495 10.3838 38.2813 8.90087 40.9756 7.35843C41.0536 7.43647 41.1318 7.51453 41.2098 7.59257C39.6672 10.2869 38.1844 13.0186 36.761 15.7877C36.956 15.8657 37.1513 15.9438 37.3463 16.0218C40.258 15.555 43.1848 15.3598 46.1268 15.4365C43.7507 17.5215 41.331 19.5507 38.8683 21.5243C41.9255 22.4784 44.9694 23.4539 48 24.4511C44.9659 25.4495 41.922 26.425 38.8683 27.3779C41.3563 29.319 43.7758 31.3484 46.1268 33.4657C43.3897 33.4264 40.6579 33.2311 37.9317 32.8804C37.5414 32.9583 37.1513 33.0366 36.761 33.1145C38.1844 35.8835 39.6672 38.6153 41.2098 41.3096C41.1318 41.3876 41.0536 41.4658 40.9756 41.5438C38.2813 40.0012 35.5495 38.5184 32.7805 37.095C32.7025 37.4462 32.6243 37.7975 32.5463 38.1487C33.0004 40.9053 33.1954 43.6762 33.1317 46.4609C31.0143 44.1098 28.985 41.6904 27.0439 39.2023C26.0919 42.2535 25.1164 45.2974 24.1171 48.334C23.1191 45.3009 22.1435 42.257 21.1902 39.2023C19.2167 41.6651 17.1874 44.0847 15.1024 46.4609C15.0568 43.6776 15.2519 40.9067 15.6878 38.1487C15.6098 37.7975 15.5317 37.4462 15.4537 37.095C12.6846 38.5184 9.95284 40.0012 7.25854 41.5438C7.1805 41.4658 7.10243 41.3876 7.02439 41.3096C8.56683 38.6153 10.0497 35.8835 11.4732 33.1145C11.161 33.0366 10.8488 32.9583 10.5366 32.8804C7.56564 33.2058 4.59978 33.4791 1.63902 33.6999C4.21463 31.5926 6.79024 29.4853 9.36585 27.3779C6.21647 26.4711 3.09452 25.4954 0 24.4511C3.09375 23.4042 6.21572 22.4286 9.36585 21.5243C6.79024 19.417 4.21463 17.3096 1.63902 15.2023C4.60444 15.3799 7.5703 15.6531 10.5366 16.0218C10.8488 15.9438 11.161 15.8657 11.4732 15.7877C10.0497 13.0186 8.56683 10.2869 7.02439 7.59257C7.10243 7.51453 7.1805 7.43647 7.25854 7.35843C9.95284 8.90087 12.6846 10.3838 15.4537 11.8072C15.5317 11.456 15.6098 11.1048 15.6878 10.7535C15.3595 7.82218 15.0863 4.89535 14.8683 1.97306C16.9756 4.54867 19.0829 7.12428 21.1902 9.69989C22.1605 6.59424 23.0583 3.47228 23.8829 0.334037Z" fill="#94C01C"/>
<path d="M14.1855 20.4692L16.2363 23.7388L18.2871 20.4692H19.6055L16.9102 24.6938L19.6699 29.0005H18.3398L16.2363 25.6665L14.1328 29.0005H12.8027L15.5625 24.6938L12.8672 20.4692H14.1855ZM22.1543 27.0435L26.3555 20.4692H27.4863V29.0005H26.3555V22.4204L22.1543 29.0005H21.0293V20.4692H22.1543V27.0435ZM32.5195 20.4692V29.0005H31.4062V20.4692H32.5195ZM35.2617 20.4692V21.395H28.6699V20.4692H35.2617Z" fill="white"/>
</svg>
