<svg width="22" height="22" viewBox="0 0 22 22" fill="none" xmlns="http://www.w3.org/2000/svg">
<g clip-path="url(#clip0_1046_362906)">
<path d="M21.8107 10.0386L18.5385 7.00012V2.02227H14.7691V3.50025L10.9998 0L0.189164 10.0386C0.036881 10.1803 0.0278345 10.4189 0.169563 10.5716C0.310915 10.7239 0.549517 10.7326 0.702554 10.5912L1.95361 9.42949V22H7.98462H14.0156H20.0466V9.42911L21.2977 10.5908C21.3701 10.6583 21.4624 10.6915 21.5544 10.6915C21.6558 10.6915 21.7564 10.6511 21.8303 10.5712C21.972 10.4189 21.963 10.1803 21.8107 10.0386ZM15.523 2.77615H17.7846V6.30015L15.523 4.20022V2.77615ZM8.73812 21.2461V13.3067C8.73812 13.1118 8.89644 12.9535 9.09131 12.9535H12.9082C13.1031 12.9535 13.2614 13.1118 13.2614 13.3067V21.2461H8.73812V21.2461ZM19.2924 21.2461H14.0153V13.3067C14.0153 12.696 13.5188 12.1996 12.9082 12.1996H9.09131C8.48067 12.1996 7.98425 12.696 7.98425 13.3067V21.2461H2.70711V8.72914L10.9998 1.02866L16.3824 6.02687L18.5385 8.02878L19.2924 8.72876V21.2461V21.2461Z" fill="#455999"/>
</g>
<defs>
<clipPath id="clip0_1046_362906">
<rect width="22" height="22" fill="white"/>
</clipPath>
</defs>
</svg>
