<svg width="315" height="120" viewBox="0 0 315 120" fill="none" xmlns="http://www.w3.org/2000/svg">
<g clip-path="url(#clip0_687_291538)">
<path fill-rule="evenodd" clip-rule="evenodd" d="M15.9919 0.248834C9.96261 -1.05623 3.5607 2.85913 0.970638 9.95271C-1.62505 17.0408 1.16536 23.8475 7.19433 25.1526C13.2233 26.4634 20.2147 21.7718 22.8047 14.6781C25.4004 7.59018 22.0209 1.55411 15.9919 0.248871" fill="#0CA44D"/>
<path fill-rule="evenodd" clip-rule="evenodd" d="M213.102 0.248834C219.131 -1.05623 225.533 2.85913 228.123 9.95271C230.719 17.0408 227.929 23.8475 221.9 25.1526C215.871 26.4634 208.879 21.7718 206.284 14.6781C203.693 7.59018 207.073 1.55411 213.102 0.248871" fill="#0CA44D"/>
<path fill-rule="evenodd" clip-rule="evenodd" d="M0.635742 36.8856V115.917C0.63675 116.771 0.963678 117.59 1.54466 118.193C2.12565 118.797 2.91314 119.135 3.73407 119.135H19.3501C19.7562 119.135 20.1584 119.052 20.5337 118.89C20.909 118.729 21.25 118.492 21.5372 118.193C21.8244 117.894 22.0522 117.539 22.2076 117.149C22.363 116.758 22.4429 116.34 22.4428 115.917V36.8856C22.4429 36.4632 22.3629 36.0447 22.2075 35.6541C22.0522 35.2638 21.8243 34.9092 21.5372 34.6104C21.25 34.3116 20.909 34.0743 20.5337 33.9129C20.1584 33.7512 19.7562 33.6678 19.3501 33.6681H3.73407C2.91315 33.6675 2.12567 34.0062 1.54469 34.6095C0.963714 35.2131 0.63678 36.0315 0.635742 36.8856Z" fill="#181E20"/>
<path fill-rule="evenodd" clip-rule="evenodd" d="M205.421 36.8856V115.917C205.422 116.77 205.748 117.588 206.327 118.192C206.907 118.795 207.694 119.134 208.514 119.135H224.13C224.536 119.136 224.939 119.053 225.315 118.891C225.691 118.73 226.032 118.493 226.32 118.194C226.608 117.896 226.836 117.541 226.992 117.15C227.148 116.759 227.228 116.34 227.228 115.917V36.8856C227.228 36.4626 227.148 36.0438 226.992 35.6532C226.836 35.2623 226.608 34.9074 226.32 34.6086C226.032 34.3098 225.691 34.0728 225.315 33.9114C224.939 33.75 224.536 33.6672 224.13 33.6681H208.514C207.694 33.6687 206.907 34.008 206.327 34.6113C205.748 35.2146 205.422 36.0324 205.421 36.8856Z" fill="#181E20"/>
<path fill-rule="evenodd" clip-rule="evenodd" d="M273.395 66.9462C264.916 62.7891 258.244 59.8242 258.244 52.1682C258.244 40.2027 267.923 39.2748 270.81 39.2748C273.542 39.3501 276.229 40.0239 278.694 41.2521C281.159 42.48 283.348 44.235 285.117 46.4022C286.534 48.2361 288.454 48.6297 290.016 47.3922C291.482 46.2333 291.319 44.0337 290.227 42.6555C288.597 40.5798 286.613 38.8332 284.376 37.5027C279.614 34.6257 274.187 33.1533 268.68 33.2442C256.886 33.2442 240.254 37.7502 240.254 57.1803C240.254 67.1826 244.991 73.494 261.867 82.1349C278.634 90.7191 279.202 95.8215 279.202 100.85C279.202 107.95 274.487 113.704 264.792 113.704C255.119 113.704 248.932 107.899 245.202 104.805C243.947 103.765 242.292 102.87 240.767 104.175C240.437 104.484 240.173 104.861 239.99 105.282C239.807 105.703 239.709 106.159 239.704 106.621C239.699 107.083 239.787 107.541 239.96 107.966C240.134 108.392 240.39 108.775 240.714 109.092C244.095 112.613 248.12 115.393 252.553 117.266C256.985 119.14 261.733 120.069 266.517 119.999C277.893 119.999 298.262 116.096 298.262 94.3983C298.262 84.9924 291.731 75.9414 273.395 66.9462Z" fill="#181E20"/>
<path fill-rule="evenodd" clip-rule="evenodd" d="M122.004 37.4364V115.664C122.005 116.628 122.374 117.553 123.03 118.234C123.686 118.916 124.575 119.298 125.502 119.298H155.756C169.906 119.298 192.973 112.744 192.973 75.0594C192.973 38.061 165.64 33.7968 151.749 33.7968H125.502C124.575 33.7974 123.685 34.1811 123.029 34.8636C122.373 35.5461 122.005 36.4716 122.004 37.4364ZM143.8 39.6078H150.981C160.076 39.6078 164.201 41.0481 168.56 49.1262C171.966 55.2693 173.67 66.4524 173.67 75.858C173.67 85.5453 172.074 96.6666 168.771 103.085C164.467 111.608 160.341 113.38 150.981 113.38H143.8V39.6078Z" fill="#181E20"/>
<path fill-rule="evenodd" clip-rule="evenodd" d="M38.1941 36.7464V115.322C38.1944 115.777 38.2808 116.228 38.4485 116.648C38.6162 117.068 38.8616 117.449 39.1709 117.77C39.4802 118.091 39.8474 118.346 40.2512 118.52C40.6553 118.694 41.0882 118.783 41.5253 118.782H71.9786C86.129 118.782 109.191 112.229 109.191 74.5437C109.191 37.5453 81.8627 33.2814 67.9772 33.2814H41.5253C41.0876 33.2811 40.6544 33.3705 40.2503 33.5445C39.8459 33.7185 39.4787 33.9738 39.1694 34.2954C38.8598 34.6173 38.6147 34.9995 38.4473 35.4201C38.2799 35.8407 38.1941 36.2913 38.1944 36.7464H38.1941ZM60.0233 39.0924H67.1987C76.2989 39.0924 80.4191 40.5324 84.7829 48.6105C88.1894 54.7536 89.8928 65.9313 89.8928 75.3426C89.8928 85.0296 88.2974 96.1509 84.9938 102.57C80.6894 111.092 76.5638 112.864 67.1987 112.864H60.0233V39.0924Z" fill="#181E20"/>
<path d="M305.937 22.6124C304.146 22.6119 302.394 22.0587 300.906 21.0229C299.415 19.987 298.255 18.5149 297.569 16.7928C296.884 15.0707 296.705 13.1758 297.054 11.3477C297.404 9.5196 298.267 7.84041 299.534 6.52239C300.801 5.2044 302.415 4.30677 304.17 3.94299C305.928 3.57921 307.749 3.7656 309.405 4.47861C311.061 5.19165 312.477 6.39927 313.47 7.94883C314.466 9.49839 315 11.3203 315 13.1842C314.997 15.6838 314.04 18.0803 312.342 19.8478C310.644 21.6153 308.34 22.6096 305.937 22.6124ZM305.937 5.97804C304.566 5.97741 303.225 6.39975 302.085 7.19163C300.945 7.98351 300.057 9.10935 299.533 10.4267C299.008 11.7441 298.87 13.1939 299.138 14.5926C299.405 15.9913 300.066 17.2761 301.035 18.2845C302.004 19.2929 303.237 19.9796 304.584 20.2577C305.928 20.5358 307.32 20.3928 308.586 19.8469C309.852 19.3009 310.935 18.3764 311.697 17.1905C312.459 16.0045 312.864 14.6103 312.864 13.1842C312.861 11.274 312.129 9.44271 310.833 8.09187C309.534 6.74106 307.773 5.98089 305.937 5.97804Z" fill="#181E20"/>
<path d="M302.403 8.65524H304.404V17.3746H302.403V8.65524ZM306.549 14.2075H304.08V12.5873H306.219C306.396 12.5902 306.57 12.5655 306.738 12.5141C306.882 12.4711 307.014 12.3962 307.128 12.2947C307.233 12.1964 307.317 12.0729 307.365 11.9348C307.428 11.7775 307.455 11.6092 307.452 11.4398C307.458 11.2649 307.428 11.0907 307.365 10.9279C307.314 10.7939 307.233 10.6731 307.134 10.5734C307.023 10.4742 306.894 10.3979 306.756 10.3485C306.582 10.2943 306.402 10.2677 306.219 10.2696H304.08V8.65521H306.576C306.984 8.64579 307.389 8.70852 307.776 8.84079C308.109 8.95194 308.412 9.1383 308.664 9.38637C308.913 9.62889 309.105 9.92706 309.225 10.2583C309.366 10.6348 309.435 11.0361 309.426 11.4398C309.441 11.9303 309.318 12.4148 309.075 12.8348C308.847 13.2299 308.505 13.5422 308.1 13.7292C307.623 13.9545 307.101 14.0623 306.576 14.0442L306.549 14.2075ZM306.951 13.4086L309.762 17.3689H307.464L305.058 13.8698L306.951 13.4086Z" fill="#181E20"/>
</g>
<defs>
<clipPath id="clip0_687_291538">
<rect width="315" height="120" fill="white"/>
</clipPath>
</defs>
</svg>
