<svg width="40" height="40" viewBox="0 0 40 40" fill="none" xmlns="http://www.w3.org/2000/svg">
<rect y="0.000244141" width="40" height="40" rx="8" fill="url(#paint0_radial_1365_248414)"/>
<rect y="0.000244141" width="40" height="40" rx="8" fill="url(#paint1_radial_1365_248414)"/>
<path d="M28.9471 16.3052C28.937 15.5478 28.7952 14.798 28.5281 14.0892C28.2964 13.4914 27.9426 12.9484 27.4892 12.495C27.0359 12.0417 26.4929 11.6879 25.8951 11.4562C25.1954 11.1936 24.4562 11.0515 23.7091 11.0362C22.7471 10.9932 22.4421 10.9812 20.0001 10.9812C17.5581 10.9812 17.2451 10.9812 16.2901 11.0362C15.5432 11.0517 14.8044 11.1937 14.1051 11.4562C13.5071 11.6877 12.9641 12.0414 12.5107 12.4948C12.0573 12.9482 11.7036 13.4913 11.4721 14.0892C11.2089 14.7883 11.0672 15.5273 11.0531 16.2742C11.0101 17.2372 10.9971 17.5422 10.9971 19.9842C10.9971 22.4262 10.9971 22.7382 11.0531 23.6942C11.0681 24.4422 11.2091 25.1802 11.4721 25.8812C11.7039 26.479 12.058 27.0218 12.5115 27.475C12.965 27.9282 13.5081 28.2818 14.1061 28.5132C14.8035 28.7864 15.5424 28.9386 16.2911 28.9632C17.2541 29.0062 17.5591 29.0192 20.0011 29.0192C22.4431 29.0192 22.7561 29.0192 23.7111 28.9632C24.4582 28.9485 25.1974 28.8068 25.8971 28.5442C26.4948 28.3123 27.0376 27.9584 27.4909 27.505C27.9442 27.0517 28.2982 26.5089 28.5301 25.9112C28.7931 25.2112 28.9341 24.4732 28.9491 23.7242C28.9921 22.7622 29.0051 22.4572 29.0051 20.0142C29.0031 17.5722 29.0031 17.2622 28.9471 16.3052ZM19.9941 24.6022C17.4401 24.6022 15.3711 22.5332 15.3711 19.9792C15.3711 17.4252 17.4401 15.3562 19.9941 15.3562C21.2202 15.3562 22.396 15.8433 23.263 16.7102C24.13 17.5772 24.6171 18.7531 24.6171 19.9792C24.6171 21.2053 24.13 22.3812 23.263 23.2482C22.396 24.1151 21.2202 24.6022 19.9941 24.6022ZM24.8011 16.2632C24.2041 16.2632 23.7231 15.7812 23.7231 15.1852C23.7231 15.0437 23.7509 14.9036 23.8051 14.7729C23.8592 14.6421 23.9386 14.5233 24.0387 14.4233C24.1387 14.3232 24.2575 14.2439 24.3882 14.1897C24.519 14.1356 24.6591 14.1077 24.8006 14.1077C24.9421 14.1077 25.0822 14.1356 25.2129 14.1897C25.3436 14.2439 25.4624 14.3232 25.5625 14.4233C25.6625 14.5233 25.7419 14.6421 25.7961 14.7729C25.8502 14.9036 25.8781 15.0437 25.8781 15.1852C25.8781 15.7812 25.3961 16.2632 24.8011 16.2632Z" fill="white"/>
<path d="M19.994 22.9822C21.6525 22.9822 22.997 21.6377 22.997 19.9792C22.997 18.3207 21.6525 16.9762 19.994 16.9762C18.3355 16.9762 16.991 18.3207 16.991 19.9792C16.991 21.6377 18.3355 22.9822 19.994 22.9822Z" fill="white"/>
<defs>
<radialGradient id="paint0_radial_1365_248414" cx="0" cy="0" r="1" gradientUnits="userSpaceOnUse" gradientTransform="translate(33.8 45.4002) rotate(-115.776) scale(54.5473 81.133)">
<stop offset="0.24392" stop-color="#FF1B90"/>
<stop offset="0.436673" stop-color="#F80261"/>
<stop offset="0.688476" stop-color="#ED00C0"/>
<stop offset="0.776787" stop-color="#C500E9"/>
<stop offset="0.893155" stop-color="#7017FF"/>
</radialGradient>
<radialGradient id="paint1_radial_1365_248414" cx="0" cy="0" r="1" gradientUnits="userSpaceOnUse" gradientTransform="translate(14.5 38.6202) rotate(-57.4396) scale(23.6348 24.5836)">
<stop stop-color="#FFD600"/>
<stop offset="0.484375" stop-color="#FF6930"/>
<stop offset="0.734375" stop-color="#FE3B36"/>
<stop offset="1" stop-color="#FE3B36" stop-opacity="0"/>
</radialGradient>
</defs>
</svg>
