<svg width="22" height="22" viewBox="0 0 22 22" fill="none" xmlns="http://www.w3.org/2000/svg">
<g clip-path="url(#clip0_1033_53082)">
<path d="M21.9559 21.3917L17.5068 8.79935C17.4618 8.6106 17.2731 8.47129 17.0843 8.47129H15.035C15.6148 7.07364 15.9159 6.00405 15.9159 5.2895C15.9159 2.38634 13.6688 0 10.8601 0C8.09621 0 5.80424 2.3414 5.80424 5.2895C5.80424 6.08045 6.17275 7.22644 6.69856 8.47129H4.91442C4.72567 8.47129 4.54141 8.6106 4.49198 8.79935L0.0428686 21.3917C-0.100941 21.8546 0.325994 21.9984 0.465309 21.9984H21.5334C21.7222 22.0209 22.0952 21.8096 21.9559 21.3917ZM10.8601 0.930269C13.152 0.930269 14.9811 2.89417 14.9811 5.285C14.9811 7.82414 11.4218 13.4777 10.8601 14.4124C9.45341 12.0261 6.73901 7.15453 6.73901 5.285C6.73901 2.89866 8.56359 0.930269 10.8601 0.930269ZM1.12144 21.0636L5.24249 9.40605H7.11651C8.46023 12.2867 10.8601 16.1921 10.8601 16.1921C10.8601 16.1921 14.5182 9.64423 14.6261 9.40605H16.7562L20.8773 21.0636H1.12144Z" fill="#455999"/>
<path d="M14.0913 17.037H7.95691V17.9717H14.0913V17.037Z" fill="#455999"/>
<path d="M13.0127 4.86261C13.0127 3.69416 12.0285 2.70996 10.86 2.70996C9.6916 2.70996 8.7074 3.69416 8.7074 4.86261C8.7074 6.03106 9.64216 7.01526 10.86 7.01526C12.0779 7.01526 13.0127 6.03556 13.0127 4.86261ZM9.64216 4.81767C9.64216 4.16154 10.159 3.59978 10.86 3.59978C11.5611 3.59978 12.0779 4.16154 12.0779 4.81767C12.0779 5.4738 11.5611 6.03556 10.86 6.03556C10.2039 6.03556 9.64216 5.4738 9.64216 4.81767Z" fill="#455999"/>
</g>
<defs>
<clipPath id="clip0_1033_53082">
<rect width="22" height="22" fill="white"/>
</clipPath>
</defs>
</svg>
