<svg width="25" height="25" viewBox="0 0 25 25" fill="none" xmlns="http://www.w3.org/2000/svg">
<g clip-path="url(#clip0_1266_237716)">
<path d="M12.1 2.43161C8.91436 2.43161 6.33998 5.00598 6.33998 8.19161V10.5916H4.41998C3.63061 10.5916 2.97998 11.2422 2.97998 12.0316V23.5516C2.97998 24.341 3.63061 24.9916 4.41998 24.9916H19.78C20.5694 24.9916 21.22 24.341 21.22 23.5516V12.0316C21.22 11.2422 20.5694 10.5916 19.78 10.5916H17.86V8.19161C17.86 5.00598 15.2856 2.43161 12.1 2.43161ZM12.1 3.39161C14.7719 3.39161 16.9 5.51974 16.9 8.19161V10.5916H7.29998V8.19161C7.29998 5.51974 9.42811 3.39161 12.1 3.39161ZM4.41998 11.5516H19.78C20.0462 11.5516 20.26 11.7654 20.26 12.0316V23.5516C20.26 23.8179 20.0462 24.0316 19.78 24.0316H4.41998C4.15373 24.0316 3.93998 23.8179 3.93998 23.5516V12.0316C3.93998 11.7654 4.15373 11.5516 4.41998 11.5516ZM12.1 15.3916C11.2844 15.3916 10.66 16.016 10.66 16.8316C10.66 17.2629 10.8512 17.6416 11.14 17.8816V19.2316C11.14 19.7604 11.5712 20.1916 12.1 20.1916C12.6287 20.1916 13.06 19.7604 13.06 19.2316V17.8816C13.3487 17.6416 13.54 17.2629 13.54 16.8316C13.54 16.016 12.9156 15.3916 12.1 15.3916Z" fill="white"/>
</g>
<defs>
<clipPath id="clip0_1266_237716">
<rect width="24" height="24" fill="white" transform="translate(0.100098 0.991608)"/>
</clipPath>
</defs>
</svg>
