<svg width="48" height="49" viewBox="0 0 48 49" fill="none" xmlns="http://www.w3.org/2000/svg">
<path fill-rule="evenodd" clip-rule="evenodd" d="M23.8829 0.667533C24.1164 0.660532 24.2725 0.777605 24.3512 1.01875C25.2487 4.02362 26.1464 7.02852 27.0439 10.0334C29.1512 7.45778 31.2585 4.88217 33.3659 2.30656C33.1479 5.22884 32.8746 8.15567 32.5463 11.087C32.6243 11.4383 32.7025 11.7895 32.7805 12.1407C35.5495 10.7173 38.2813 9.23436 40.9756 7.69192C41.0536 7.76996 41.1318 7.84803 41.2098 7.92607C39.6672 10.6204 38.1844 13.3521 36.761 16.1212C36.956 16.1992 37.1513 16.2773 37.3463 16.3553C40.258 15.8884 43.1848 15.6933 46.1268 15.77C43.7507 17.855 41.331 19.8842 38.8683 21.8578C41.9255 22.8119 44.9694 23.7874 48 24.7846C44.9659 25.783 41.922 26.7585 38.8683 27.7114C41.3563 29.6525 43.7758 31.6819 46.1268 33.7992C43.3897 33.7599 40.6579 33.5646 37.9317 33.2139C37.5414 33.2918 37.1513 33.37 36.761 33.448C38.1844 36.217 39.6672 38.9488 41.2098 41.6431C41.1318 41.7211 41.0536 41.7993 40.9756 41.8773C38.2813 40.3347 35.5495 38.8519 32.7805 37.4285C32.7025 37.7797 32.6243 38.1309 32.5463 38.4822C33.0004 41.2388 33.1954 44.0097 33.1317 46.7944C31.0143 44.4433 28.985 42.0239 27.0439 39.5358C26.0919 42.587 25.1164 45.6309 24.1171 48.6675C23.1191 45.6344 22.1435 42.5905 21.1902 39.5358C19.2167 41.9986 17.1874 44.4182 15.1024 46.7944C15.0568 44.0111 15.2519 41.2402 15.6878 38.4822C15.6098 38.1309 15.5317 37.7797 15.4537 37.4285C12.6846 38.8519 9.95284 40.3347 7.25854 41.8773C7.1805 41.7993 7.10243 41.7211 7.02439 41.6431C8.56683 38.9488 10.0497 36.217 11.4732 33.448C11.161 33.37 10.8488 33.2918 10.5366 33.2139C7.56564 33.5393 4.59978 33.8126 1.63902 34.0334C4.21463 31.9261 6.79024 29.8188 9.36585 27.7114C6.21647 26.8046 3.09452 25.8289 0 24.7846C3.09375 23.7377 6.21572 22.762 9.36585 21.8578C6.79024 19.7505 4.21463 17.6431 1.63902 15.5358C4.60444 15.7134 7.5703 15.9866 10.5366 16.3553C10.8488 16.2773 11.161 16.1992 11.4732 16.1212C10.0497 13.3521 8.56683 10.6204 7.02439 7.92607C7.10243 7.84803 7.1805 7.76996 7.25854 7.69192C9.95284 9.23436 12.6846 10.7173 15.4537 12.1407C15.5317 11.7895 15.6098 11.4383 15.6878 11.087C15.3595 8.15567 15.0863 5.22884 14.8683 2.30656C16.9756 4.88217 19.0829 7.45778 21.1902 10.0334C22.1605 6.92774 23.0583 3.80577 23.8829 0.667533Z" fill="#FFD53F"/>
<path d="M18.5332 20.8027V29.334H17.3965L13.1016 22.7539V29.334H11.9707V20.8027H13.1016L17.4141 27.4004V20.8027H18.5332ZM25.957 28.4141V29.334H21.4395V28.4141H25.957ZM21.668 20.8027V29.334H20.5371V20.8027H21.668ZM25.3594 24.4707V25.3906H21.4395V24.4707H25.3594ZM25.8984 20.8027V21.7285H21.4395V20.8027H25.8984ZM29.6016 26.7559L31.2949 20.8027H32.1152L31.6406 23.1172L29.8184 29.334H29.0039L29.6016 26.7559ZM27.8496 20.8027L29.1973 26.6387L29.6016 29.334H28.793L26.7246 20.8027H27.8496ZM34.3066 26.6328L35.625 20.8027H36.7559L34.6934 29.334H33.8848L34.3066 26.6328ZM32.2383 20.8027L33.8848 26.7559L34.4824 29.334H33.668L31.9102 23.1172L31.4297 20.8027H32.2383Z" fill="white"/>
</svg>
