<svg width="40" height="40" viewBox="0 0 40 40" fill="none" xmlns="http://www.w3.org/2000/svg">
<rect y="0.000244141" width="40" height="40" rx="8" fill="#FF8800"/>
<path fill-rule="evenodd" clip-rule="evenodd" d="M24.6346 14.9943C24.6346 17.7465 22.3909 19.9902 19.6386 19.9902C16.8564 19.9902 14.6127 17.7465 14.6127 14.9943C14.6127 12.242 16.8564 9.99829 19.6386 9.99829C22.3909 9.99829 24.6346 12.242 24.6346 14.9943ZM21.7028 14.9943C21.7028 13.8574 20.7754 12.9301 19.6386 12.9301C18.4719 12.9301 17.5445 13.8574 17.5744 14.9943C17.5744 16.1311 18.5018 17.0584 19.6386 17.0584C20.7754 17.0584 21.7028 16.1311 21.7028 14.9943ZM24.545 22.8921C23.6474 23.4606 22.6602 23.8494 21.643 24.0888L24.485 26.8411C25.0534 27.4095 25.0534 28.3369 24.485 28.9054C23.9166 29.4737 22.9892 29.4737 22.4208 28.9054L19.6685 26.153L16.9162 28.9054C16.6171 29.1744 16.2581 29.3241 15.8692 29.3241C15.4803 29.3241 15.1213 29.2043 14.8221 28.9054C14.2538 28.3369 14.2538 27.4095 14.8221 26.8411L17.6043 24.059C16.5872 23.8195 15.5999 23.4307 14.7025 22.8622C14.0144 22.4434 13.805 21.5459 14.1939 20.8579C14.6426 20.1698 15.5402 19.9903 16.2282 20.4091C18.2625 21.6955 20.925 21.6955 22.9593 20.4091C23.6474 19.9603 24.5748 20.1698 24.9936 20.8579C25.4423 21.5459 25.2329 22.4733 24.545 22.8921Z" fill="white"/>
</svg>
