<svg width="24" height="24" viewBox="0 0 24 24" fill="none" xmlns="http://www.w3.org/2000/svg">
<path d="M11.9941 6C7.2776 6 3.12188 9.2691 2.01939 13.5528C1.97817 13.7134 2.00242 13.8838 2.08682 14.0265C2.17121 14.1692 2.30884 14.2725 2.46942 14.3137C2.63 14.3549 2.80038 14.3307 2.94307 14.2463C3.08577 14.1619 3.18909 14.0243 3.23032 13.8637C4.18031 10.1725 7.86061 7.24999 11.9941 7.24999C16.1275 7.24999 19.8195 10.1735 20.7692 13.8637C20.8104 14.0243 20.9137 14.1619 21.0564 14.2463C21.1991 14.3307 21.3695 14.3549 21.5301 14.3137C21.6907 14.2725 21.8283 14.1692 21.9127 14.0265C21.9971 13.8838 22.0213 13.7134 21.9801 13.5528C20.8774 9.26807 16.7105 6 11.9941 6ZM12.0006 9.3333C9.7839 9.3333 7.97392 11.1433 7.97392 13.3599C7.97392 15.5766 9.7839 17.3874 12.0006 17.3874C14.2172 17.3874 16.028 15.5766 16.028 13.3599C16.028 11.1433 14.2172 9.3333 12.0006 9.3333ZM12.0006 10.5833C13.5417 10.5833 14.778 11.8188 14.778 13.3599C14.778 14.9011 13.5417 16.1374 12.0006 16.1374C10.4594 16.1374 9.22391 14.9011 9.22391 13.3599C9.22391 11.8188 10.4594 10.5833 12.0006 10.5833Z" fill="#202734"/>
</svg>
