<svg width="159" height="25" viewBox="0 0 159 25" fill="none" xmlns="http://www.w3.org/2000/svg">
<g opacity="0.5" clip-path="url(#clip0_23_3665)">
<path d="M28.643 5.67993C25.576 5.67993 22.834 7.27293 22.834 10.2099C22.834 13.5779 27.695 13.8119 27.695 15.5029C27.695 16.2169 26.878 16.8529 25.485 16.8529C23.505 16.8529 22.025 15.9609 22.025 15.9609L21.39 18.9279C21.39 18.9279 23.094 19.6809 25.356 19.6809C28.712 19.6809 31.35 18.0109 31.35 15.0229C31.35 11.4629 26.467 11.2389 26.467 9.66393C26.467 9.10593 27.137 8.49193 28.53 8.49193C30.1 8.49193 31.38 9.14093 31.38 9.14093L32 6.27793C32 6.28193 30.607 5.68093 28.644 5.68093L28.643 5.67993ZM0.573 5.89793L0.5 6.32993C0.5 6.32993 1.789 6.56793 2.952 7.03893C4.449 7.57893 4.557 7.89493 4.808 8.87293L7.554 19.4599H11.234L16.91 5.89693H13.238L9.592 15.1179L8.104 7.30293C7.97 6.40793 7.277 5.89693 6.43 5.89693H0.574L0.573 5.89793ZM18.388 5.89793L15.508 19.4569H19.011L21.878 5.89693H18.388V5.89793ZM37.924 5.89793C37.081 5.89793 36.631 6.35193 36.302 7.13893L31.172 19.4569H34.845L35.555 17.4029H40.03L40.463 19.4569H43.707L40.878 5.89693H37.924V5.89793ZM38.404 9.56093L39.494 14.6509H36.574L38.404 9.56093Z" fill="#7B7B7B"/>
</g>
<g opacity="0.5" clip-path="url(#clip1_23_3665)">
<path d="M66.846 23.607C66.8461 23.4853 66.8733 23.3651 66.9255 23.2551C66.9777 23.1451 67.0536 23.0481 67.1478 22.971C67.242 22.8939 67.3522 22.8386 67.4703 22.8092C67.5885 22.7799 67.7117 22.777 67.831 22.801C67.9506 22.825 68.0633 22.8755 68.1609 22.9486C68.2585 23.0217 68.3386 23.1156 68.3953 23.2236C68.452 23.3315 68.4839 23.4508 68.4887 23.5727C68.4935 23.6945 68.4711 23.8159 68.423 23.928C68.3592 24.0778 68.2524 24.2054 68.116 24.2944C67.9796 24.3834 67.8199 24.4299 67.657 24.428C67.157 24.488 66.847 24.118 66.847 23.607H66.846ZM68.918 22.284H68.418V22.664C68.3155 22.5274 68.1826 22.4166 68.0299 22.3402C67.8772 22.2639 67.7088 22.2241 67.538 22.224C67.1902 22.2531 66.866 22.4121 66.63 22.6692C66.3939 22.9264 66.2633 23.2629 66.264 23.612C66.2644 23.9606 66.3953 24.2964 66.6309 24.5532C66.8665 24.8101 67.1898 24.9695 67.537 25C67.6946 25.0107 67.8524 24.9814 67.9957 24.915C68.139 24.8486 68.2633 24.7471 68.357 24.62V24.93H68.918V22.284ZM88.327 23.607C88.3275 23.445 88.3758 23.2868 88.4659 23.1522C88.556 23.0176 88.6839 22.9126 88.8335 22.8504C88.983 22.7883 89.1476 22.7717 89.3066 22.8027C89.4656 22.8338 89.6118 22.9111 89.727 23.025C89.8422 23.1398 89.9206 23.2863 89.9526 23.4457C89.9845 23.6052 89.9683 23.7705 89.9063 23.9208C89.8442 24.0712 89.7389 24.1997 89.6037 24.2901C89.4686 24.3806 89.3096 24.4289 89.147 24.429C88.577 24.489 88.327 24.118 88.327 23.607ZM90.408 23.607V21.21H89.838V22.663C89.7472 22.5287 89.6251 22.4186 89.4823 22.3419C89.3394 22.2653 89.1801 22.2245 89.018 22.223C88.8403 22.2266 88.665 22.2653 88.5023 22.3369C88.3396 22.4084 88.1926 22.5114 88.0697 22.6399C87.9469 22.7684 87.8507 22.9199 87.7865 23.0857C87.7224 23.2515 87.6916 23.4283 87.696 23.606C87.685 23.7866 87.7114 23.9676 87.7735 24.1375C87.8357 24.3074 87.9322 24.4627 88.0572 24.5936C88.1822 24.7244 88.3328 24.8281 88.4997 24.898C88.6666 24.968 88.8461 25.0027 89.027 25C89.1848 25.0109 89.3428 24.9818 89.4863 24.9154C89.6298 24.849 89.7542 24.7474 89.848 24.62V24.93H90.418L90.408 23.607ZM76.015 22.785C76.1893 22.7842 76.3576 22.8484 76.4871 22.9651C76.6166 23.0818 76.6978 23.2426 76.715 23.416H75.345C75.362 23.2478 75.4391 23.0913 75.5622 22.9754C75.6853 22.8595 75.8461 22.7919 76.015 22.785ZM76.085 22.223C75.7372 22.2524 75.4131 22.4116 75.1773 22.6689C74.9414 22.9263 74.811 23.2629 74.812 23.612C74.8124 23.9606 74.9433 24.2964 75.1789 24.5532C75.4145 24.8101 75.7378 24.9695 76.085 25C76.4746 24.9975 76.852 24.8637 77.156 24.62L76.906 24.178C76.6876 24.3437 76.4201 24.4317 76.146 24.428C76.0552 24.4365 75.9636 24.4269 75.8764 24.3998C75.7893 24.3727 75.7085 24.3285 75.6385 24.2699C75.5686 24.2113 75.511 24.1395 75.469 24.0585C75.427 23.9774 75.4015 23.8889 75.394 23.798H77.396V23.607C77.4068 23.2528 77.2774 22.9088 77.0358 22.6496C76.7942 22.3904 76.4601 22.2371 76.106 22.223H76.086H76.085ZM83.022 23.607C83.0225 23.445 83.0708 23.2868 83.1609 23.1522C83.251 23.0176 83.3789 22.9126 83.5285 22.8504C83.678 22.7883 83.8426 22.7717 84.0016 22.8027C84.1606 22.8338 84.3068 22.9111 84.422 23.025C84.5367 23.14 84.6147 23.2864 84.6464 23.4457C84.678 23.605 84.6618 23.7701 84.5998 23.9202C84.5378 24.0703 84.4327 24.1987 84.2979 24.2893C84.163 24.3798 84.0044 24.4284 83.842 24.429C83.282 24.489 83.022 24.118 83.022 23.607ZM85.164 23.607V22.284H84.594V22.664C84.503 22.5295 84.3806 22.4191 84.2374 22.3425C84.0942 22.2658 83.9344 22.2251 83.772 22.224C83.4243 22.2534 83.1004 22.4124 82.8646 22.6695C82.6288 22.9267 82.4983 23.2631 82.499 23.612C82.4992 23.9606 82.63 24.2966 82.8657 24.5535C83.1013 24.8104 83.4247 24.9697 83.772 25C83.9298 25.0108 84.0877 24.9817 84.2312 24.9153C84.3747 24.8488 84.4992 24.7473 84.593 24.62V24.93H85.163V23.607H85.164ZM79.809 23.607C79.7944 23.885 79.8677 24.1606 80.0184 24.3946C80.1692 24.6287 80.3898 24.8093 80.649 24.911C80.821 24.978 81.005 25.009 81.189 25C81.5355 25.0187 81.8761 24.9042 82.141 24.68L81.891 24.238C81.686 24.388 81.443 24.474 81.19 24.488C81.0819 24.4923 80.9741 24.4743 80.8733 24.4352C80.7725 24.3961 80.6808 24.3367 80.6039 24.2606C80.527 24.1845 80.4665 24.0935 80.4263 23.9931C80.3861 23.8927 80.3669 23.7851 80.37 23.677C80.3611 23.567 80.3762 23.4563 80.4143 23.3527C80.4523 23.2491 80.5124 23.155 80.5904 23.0768C80.6683 22.9987 80.7623 22.9384 80.8658 22.9001C80.9694 22.8618 81.08 22.8464 81.19 22.855C81.4468 22.8453 81.6975 22.9348 81.89 23.105L82.14 22.665C82.0335 22.5154 81.8899 22.396 81.7234 22.3185C81.5569 22.2411 81.3731 22.2081 81.19 22.223C81.0031 22.2117 80.8159 22.2394 80.6403 22.3043C80.4647 22.3692 80.3046 22.47 80.17 22.6001C80.0354 22.7303 79.9294 22.887 79.8586 23.0604C79.7879 23.2337 79.754 23.4198 79.759 23.607H79.809ZM87.175 22.223C87.0354 22.2126 86.8958 22.243 86.7732 22.3107C86.6507 22.3784 86.5505 22.4803 86.485 22.604V22.284H85.915V24.93H86.485V23.486C86.485 23.046 86.675 22.785 87.055 22.785C87.1824 22.7741 87.3104 22.7983 87.425 22.855L87.615 22.344C87.4589 22.2788 87.2936 22.2384 87.125 22.224H87.175V22.223ZM71.871 22.534C71.5494 22.3405 71.1751 22.253 70.801 22.284C70.11 22.284 69.729 22.604 69.729 23.105C69.729 23.607 70.039 23.797 70.609 23.857L70.86 23.927C71.18 23.987 71.3 24.047 71.3 24.178C71.3 24.308 71.11 24.488 70.67 24.488C70.3585 24.4927 70.0525 24.4057 69.79 24.238L69.539 24.679C69.867 24.916 70.267 25.029 70.67 25C71.43 25 71.871 24.62 71.871 24.118C71.871 23.617 71.551 23.416 70.871 23.356L70.62 23.296C70.37 23.226 70.18 23.226 70.18 23.046C70.18 22.865 70.37 22.724 70.68 22.724C70.971 22.733 71.255 22.819 71.5 22.975L71.871 22.535V22.534ZM79.238 22.224C79.0985 22.2133 78.9589 22.2436 78.8363 22.3111C78.7138 22.3786 78.6136 22.4804 78.548 22.604V22.284H77.977V24.93H78.547V23.486C78.547 23.046 78.737 22.785 79.117 22.785C79.2448 22.7739 79.3731 22.7981 79.488 22.855L79.678 22.283C79.438 22.283 79.318 22.223 79.188 22.223H79.238V22.224ZM74.323 22.284H73.383V21.462H72.812V22.284H72.312V22.854H72.812V24.058C72.812 24.689 73.062 25.06 73.762 25.06C74.006 25.062 74.245 24.996 74.454 24.87L74.264 24.358C74.1151 24.4536 73.9396 24.4992 73.763 24.488C73.443 24.488 73.383 24.298 73.383 24.048V22.855H74.323V22.283V22.284ZM65.775 24.93V23.296C65.7845 23.1588 65.7656 23.0211 65.7197 22.8915C65.6737 22.7619 65.6016 22.6431 65.5079 22.5425C65.4141 22.4419 65.3007 22.3616 65.1746 22.3067C65.0485 22.2517 64.9125 22.2232 64.775 22.223C64.5936 22.2205 64.4139 22.2588 64.2493 22.3352C64.0847 22.4115 63.9393 22.5239 63.824 22.664C63.7219 22.5268 63.589 22.4155 63.4359 22.3391C63.2829 22.2626 63.1141 22.2232 62.943 22.224C62.7952 22.2126 62.6471 22.2421 62.5148 22.3091C62.3826 22.3761 62.2713 22.4781 62.193 22.604V22.284H61.612V24.93H62.182V23.486C62.1706 23.3973 62.1785 23.3071 62.2052 23.2217C62.2318 23.1363 62.2765 23.0576 62.3363 22.9911C62.3961 22.9246 62.4696 22.8717 62.5517 22.8361C62.6338 22.8006 62.7226 22.7831 62.812 22.785C63.183 22.785 63.373 23.045 63.373 23.486V24.93H63.943V23.486C63.9316 23.3972 63.9395 23.3069 63.9662 23.2215C63.9929 23.136 64.0377 23.0573 64.0977 22.9907C64.1576 22.9242 64.2311 22.8713 64.3134 22.8358C64.3956 22.8003 64.4845 22.783 64.574 22.785C64.954 22.785 65.144 23.045 65.144 23.486V24.93H65.775ZM72.222 10.024C72.2189 8.50964 72.5585 7.01421 73.2154 5.64972C73.8722 4.28524 74.8294 3.08708 76.015 2.145C74.7728 1.16921 73.3152 0.504771 71.7639 0.207152C70.2125 -0.0904674 68.6125 -0.012626 67.0974 0.434177C65.5823 0.880979 64.196 1.68378 63.0544 2.77553C61.9128 3.86729 61.049 5.21633 60.535 6.71C60.019 8.20416 59.8669 9.79986 60.0912 11.3646C60.3156 12.9294 60.9099 14.418 61.825 15.707C62.7396 16.9945 63.9486 18.0448 65.3513 18.7705C66.754 19.4962 68.3097 19.8762 69.889 19.879C72.1078 19.8953 74.2668 19.1605 76.015 17.794C74.8193 16.8858 73.8533 15.7099 73.1946 14.3606C72.5358 13.0113 72.2027 11.5264 72.222 10.025V10.024ZM92.03 10.024C92.0388 11.887 91.5209 13.7146 90.536 15.296C89.8011 16.4783 88.8238 17.4912 87.6688 18.2682C86.5137 19.0451 85.207 19.5682 83.8349 19.8032C82.4628 20.0381 81.0565 19.9794 79.7087 19.631C78.361 19.2826 77.1024 18.6524 76.016 17.782C77.2039 16.8547 78.1622 15.6661 78.8166 14.3086C79.4709 12.951 79.8036 11.4609 79.789 9.954C79.8008 8.45013 79.4666 6.96369 78.8122 5.60962C78.1578 4.25555 77.2007 3.07012 76.015 2.145C77.7536 0.775033 79.8976 0.0206225 82.111 0C84.7435 0.0472362 87.2533 1.12128 89.105 2.993C90.9581 4.86657 92.0074 7.38894 92.03 10.024Z" fill="#7B7B7B"/>
<path d="M76.015 3.28809C75.0881 4.15198 74.3446 5.19355 73.8287 6.35079C73.3128 7.50803 73.035 8.75726 73.012 10.0241C73.0441 11.2923 73.3259 12.5417 73.8412 13.7009C74.3564 14.8601 75.0951 15.9065 76.015 16.7801C76.9366 15.9079 77.6765 14.8618 78.1919 13.7023C78.7073 12.5428 78.988 11.2927 79.018 10.0241C78.9978 8.75678 78.7213 7.50667 78.2052 6.34903C77.6891 5.19139 76.9441 4.15018 76.015 3.28809Z" fill="#7B7B7B"/>
</g>
<g opacity="0.5" clip-path="url(#clip2_23_3665)">
<path d="M136.405 7.15693L133.227 14.0049H132.905V5.68093H128.365V19.6809H132.13C133.151 19.6809 134.06 19.0939 134.494 18.1859L137.692 11.3559H138.013V19.6809H142.554V5.68093H138.732C137.749 5.68093 136.822 6.26693 136.405 7.15693ZM119.53 7.51593L117.657 14.0059H117.335L115.443 7.51593C115.287 6.98481 114.963 6.51868 114.519 6.18773C114.076 5.85678 113.537 5.67892 112.983 5.68093H108.5V19.6809H113.04V11.3569H113.362L115.973 19.6809H119L121.61 11.3569H121.932V19.6809H126.473V5.68093H121.989C120.854 5.68093 119.832 6.41893 119.529 7.51593H119.53ZM144.446 11.9239V19.6809H148.986V15.1409H153.868C154.87 15.1438 155.848 14.836 156.668 14.2599C157.488 13.6838 158.109 12.8677 158.446 11.9239H144.446ZM153.735 5.67993H143.632C144.257 9.00993 147.17 11.3569 150.67 11.3569H158.522C158.583 11.0325 158.615 10.7031 158.616 10.3729C158.616 7.66693 156.441 5.68093 153.736 5.68093L153.735 5.67993Z" fill="#7B7B7B"/>
</g>
<defs>
<clipPath id="clip0_23_3665">
<rect width="44" height="15" fill="white" transform="translate(0 5)"/>
</clipPath>
<clipPath id="clip1_23_3665">
<rect width="32" height="25" fill="white" transform="translate(60)"/>
</clipPath>
<clipPath id="clip2_23_3665">
<rect width="51" height="15" fill="white" transform="translate(108 5)"/>
</clipPath>
</defs>
</svg>
