<svg width="48" height="48" viewBox="0 0 48 48" fill="none" xmlns="http://www.w3.org/2000/svg">
<g clip-path="url(#clip0_1291_360790)">
<path d="M12 0.000244141C10.35 0.000244141 9 1.35024 9 3.00024V45.0002C9 46.6502 10.35 48.0002 12 48.0002H42C43.65 48.0002 45 46.6502 45 45.0002V12.0002L33 0.000244141H12Z" fill="#E2E5E7"/>
<path d="M36 12.0002H45L33 0.000244141V9.00024C33 10.6502 34.35 12.0002 36 12.0002Z" fill="#B0B7BD"/>
<path d="M45 21.0002L36 12.0002H45V21.0002Z" fill="#CAD1D8"/>
<path d="M39 39.0002C39 39.8252 38.325 40.5002 37.5 40.5002H4.5C3.675 40.5002 3 39.8252 3 39.0002V24.0002C3 23.1752 3.675 22.5002 4.5 22.5002H37.5C38.325 22.5002 39 23.1752 39 24.0002V39.0002Z" fill="#F15642"/>
<path d="M9.53857 28.4208C9.53857 28.0248 9.85057 27.5928 10.3531 27.5928H13.1236C14.6836 27.5928 16.0876 28.6368 16.0876 30.6378C16.0876 32.5338 14.6836 33.5898 13.1236 33.5898H11.1211V35.1738C11.1211 35.7018 10.7851 36.0003 10.3531 36.0003C9.95707 36.0003 9.53857 35.7018 9.53857 35.1738V28.4208V28.4208ZM11.1211 29.1033V32.0913H13.1236C13.9276 32.0913 14.5636 31.3818 14.5636 30.6378C14.5636 29.7993 13.9276 29.1033 13.1236 29.1033H11.1211Z" fill="white"/>
<path d="M18.4366 36.0003C18.0406 36.0003 17.6086 35.7843 17.6086 35.2578V28.4448C17.6086 28.0143 18.0406 27.7008 18.4366 27.7008H21.1831C26.6641 27.7008 26.5441 36.0003 21.2911 36.0003H18.4366V36.0003ZM19.1926 29.1648V34.5378H21.1831C24.4216 34.5378 24.5656 29.1648 21.1831 29.1648H19.1926V29.1648Z" fill="white"/>
<path d="M28.4882 29.2607V31.1672H31.5467C31.9787 31.1672 32.4107 31.5992 32.4107 32.0177C32.4107 32.4137 31.9787 32.7377 31.5467 32.7377H28.4882V35.2562C28.4882 35.6762 28.1897 35.9987 27.7697 35.9987C27.2417 35.9987 26.9192 35.6762 26.9192 35.2562V28.4432C26.9192 28.0127 27.2432 27.6992 27.7697 27.6992H31.9802C32.5082 27.6992 32.8202 28.0127 32.8202 28.4432C32.8202 28.8272 32.5082 29.2592 31.9802 29.2592H28.4882V29.2607Z" fill="white"/>
<path d="M37.5 40.5002H9V42.0002H37.5C38.325 42.0002 39 41.3252 39 40.5002V39.0002C39 39.8252 38.325 40.5002 37.5 40.5002Z" fill="#CAD1D8"/>
</g>
<defs>
<clipPath id="clip0_1291_360790">
<rect width="48" height="48" fill="white" transform="translate(0 0.000244141)"/>
</clipPath>
</defs>
</svg>
