<svg width="22" height="22" viewBox="0 0 22 22" fill="none" xmlns="http://www.w3.org/2000/svg">
<g clip-path="url(#clip0_1046_362923)">
<path d="M21.0632 15.4172L19.1425 13.4965C18.5625 12.9164 17.5312 12.9594 16.9984 13.5395C15.748 14.9274 15.2539 15.1035 15.1207 15.1508C14.8972 15.1938 14.6738 15.1938 14.4503 15.1938C12.6628 15.1938 10.291 13.8531 8.64097 11.7949C7.25308 10.0977 6.58276 8.26291 6.85347 6.87932C6.89644 6.78908 7.0769 6.25197 8.4648 5.00158C8.77847 4.73517 8.95464 4.33127 8.95464 3.92736C8.95464 3.52346 8.77417 3.12385 8.50776 2.85314L6.58706 0.93244C6.09722 0.442597 5.2894 0.352362 4.70933 0.751972C2.78433 2.13986 0.502686 4.0176 0.502686 5.35822C0.502686 11.0817 10.9183 21.4973 16.6417 21.4973C18.0296 21.4973 19.9031 19.2156 21.248 17.2949C21.6476 16.7149 21.5574 15.9113 21.0632 15.4172ZM20.5734 16.8481C18.9191 19.1727 17.398 20.6465 16.6847 20.6465C11.4082 20.6465 1.39644 10.6348 1.39644 5.35822C1.39644 4.59767 2.8273 3.12385 5.19487 1.46955C5.42261 1.32346 5.7105 1.33205 5.95542 1.60275L7.87612 3.52346C8.15112 3.81564 8.01362 4.25392 7.83315 4.41721C6.31206 5.8051 6.04565 6.42814 5.95542 6.78478C5.64175 8.43908 6.35933 10.493 7.92339 12.418C9.75815 14.6524 12.3062 16.1262 14.4031 16.1262C14.7167 16.1262 14.9832 16.0832 15.2539 16.036C15.6105 15.9457 16.2378 15.6793 17.6214 14.1582C17.8449 13.8918 18.2917 13.8918 18.5152 14.1153L20.4832 16.0832C20.7066 16.268 20.7539 16.6246 20.5734 16.8481V16.8481Z" fill="#455999"/>
<path d="M17.5785 4.64495C19.0523 6.11878 19.6796 8.21995 19.323 10.2309L20.1738 10.3641C20.5777 8.03948 19.8171 5.6719 18.2058 4.01761C16.4613 2.27308 13.9605 1.55979 11.5457 2.0969L11.7261 2.94768C13.823 2.45354 16.0144 3.08089 17.5785 4.64495Z" fill="#455999"/>
<path d="M16.9081 9.92151C17.1315 8.62385 16.7276 7.28322 15.7909 6.34651C14.8069 5.36252 13.4233 4.95862 12.0354 5.27229L12.2159 6.12307C13.2901 5.89963 14.4073 6.2133 15.1678 6.97385C15.9284 7.7344 16.242 8.76135 16.0616 9.7883L16.9081 9.92151Z" fill="#455999"/>
</g>
<defs>
<clipPath id="clip0_1046_362923">
<rect width="22" height="22" fill="white"/>
</clipPath>
</defs>
</svg>
