<svg width="24" height="24" viewBox="0 0 24 24" fill="none" xmlns="http://www.w3.org/2000/svg">
<g clip-path="url(#clip0_1181_303328)">
<path d="M22.5692 23.4235H1.43077C0.923075 23.4235 0.50769 22.9915 0.50769 22.4635V1.43949C0.50769 0.911492 0.923075 0.479492 1.43077 0.479492H22.5692C23.0769 0.479492 23.4923 0.911492 23.4923 1.43949V22.4635C23.4923 22.9915 23.0769 23.4235 22.5692 23.4235Z" stroke="#222222" stroke-miterlimit="10"/>
<path d="M0.50769 6.47964L6.32307 0.431641" stroke="#222222" stroke-miterlimit="10"/>
<path d="M0.461548 13.3915L12.7846 0.479492" stroke="#222222" stroke-miterlimit="10"/>
<path d="M0.461548 20.3995L19.5692 0.479492" stroke="#222222" stroke-miterlimit="10"/>
<path d="M3.9231 23.4717L23.3077 3.26367" stroke="#222222" stroke-miterlimit="10"/>
<path d="M10.1539 23.3761L23.5385 9.45605" stroke="#222222" stroke-miterlimit="10"/>
<path d="M16.3846 23.4718L23.3539 16.1758" stroke="#222222" stroke-miterlimit="10"/>
<path d="M14.1231 19.2959L17.2154 22.5599" stroke="#222222" stroke-miterlimit="10"/>
<path d="M14.3539 12.5752L17.1693 15.5032" stroke="#222222" stroke-miterlimit="10"/>
<path d="M16.7077 3.45605L19.8923 6.81605" stroke="#222222" stroke-miterlimit="10"/>
<path d="M7.84619 6.0957L10.8 9.1677" stroke="#222222" stroke-miterlimit="10"/>
<path d="M1.20001 6.0957L4.20001 9.1677" stroke="#222222" stroke-miterlimit="10"/>
<path d="M3.41541 17.3281L6.50771 20.5441" stroke="#222222" stroke-miterlimit="10"/>
</g>
<defs>
<clipPath id="clip0_1181_303328">
<rect width="24" height="24" fill="white"/>
</clipPath>
</defs>
</svg>
