<svg width="24" height="24" viewBox="0 0 24 24" fill="none" xmlns="http://www.w3.org/2000/svg">
<g clip-path="url(#clip0_1181_303322)">
<path d="M18.2769 18.7684H21.1846V22.3684C21.1846 23.2804 20.4462 24.0484 19.5692 24.0484C18.6923 24.0484 17.9538 23.2804 17.9538 22.3684V18.7684H16.2462V22.3684C16.2462 23.2804 15.5077 24.0484 14.6308 24.0484C13.7538 24.0484 13.0154 23.2804 13.0154 22.3684V18.7684H11.3077V22.3684C11.3077 23.2804 10.5692 24.0484 9.69231 24.0484C8.81538 24.0484 8.07692 23.2804 8.07692 22.3684V18.7684H6.36923V22.3684C6.36923 23.2804 5.63077 24.0484 4.75385 24.0484C3.87692 24.0484 3.13846 23.2804 3.13846 22.3684V7.96838H2.30769C2.12308 8.44838 1.70769 8.78438 1.2 8.78438C0.553846 8.78438 0 8.20838 0 7.53638V5.85638C0 5.18438 0.553846 4.60838 1.2 4.60838C1.70769 4.60838 2.16923 4.94438 2.30769 5.42438H3.18462V1.87238C3.18462 0.960383 3.92308 0.192383 4.8 0.192383C5.67692 0.192383 6.41538 0.960383 6.41538 1.87238V5.47238H8.12308V1.87238C8.12308 0.960383 8.86154 0.192383 9.73846 0.192383C10.6154 0.192383 11.3538 0.960383 11.3538 1.87238V5.47238H13.0615V1.87238C13.0615 0.960383 13.8 0.192383 14.6769 0.192383C15.5538 0.192383 16.2923 0.960383 16.2923 1.87238V5.47238H18V1.87238C18 0.960383 18.7385 0.192383 19.6154 0.192383C20.4923 0.192383 21.2308 0.960383 21.2308 1.87238V5.47238H18.3231H21.5077H22.8462C23.4923 5.47238 24.0462 6.04838 24.0462 6.72038C24.0462 7.39238 23.4923 7.96838 22.8462 7.96838H21.2308V16.2724H22.8462C23.4923 16.2724 24.0462 16.8484 24.0462 17.5204C24.0462 18.1924 23.4923 18.7684 22.8462 18.7684H21.5077H18.2769ZM1.61538 5.85638C1.61538 5.61638 1.43077 5.42438 1.2 5.42438C0.969231 5.42438 0.784615 5.61638 0.784615 5.85638V7.53638C0.784615 7.77638 0.969231 7.96838 1.2 7.96838C1.43077 7.96838 1.61538 7.77638 1.61538 7.53638V5.85638ZM3.18462 6.28838H2.4V7.10438H3.18462V6.28838ZM5.58462 1.87238C5.58462 1.39238 5.21538 1.05638 4.8 1.05638C4.38462 1.05638 4.01538 1.39238 4.01538 1.87238V22.3684C4.01538 22.8484 4.38462 23.1844 4.8 23.1844C5.21538 23.1844 5.58462 22.8004 5.58462 22.3684V1.87238ZM8.12308 6.28838H6.41538V7.10438H8.12308V6.28838ZM8.12308 7.92038H6.41538V16.2244H8.12308V7.92038ZM8.12308 17.0884H6.41538V17.9044H8.12308V17.0884ZM10.5231 1.87238C10.5231 1.39238 10.1538 1.05638 9.73846 1.05638C9.27692 1.05638 8.95385 1.44038 8.95385 1.87238V22.3684C8.95385 22.8484 9.32308 23.1844 9.73846 23.1844C10.2 23.1844 10.5231 22.8004 10.5231 22.3684V1.87238ZM13.0615 6.28838H11.3538V7.10438H13.0615V6.28838ZM13.0615 7.92038H11.3538V16.2244H13.0615V7.92038ZM13.0615 17.0884H11.3538V17.9044H13.0615V17.0884ZM15.4615 1.87238C15.4615 1.39238 15.0923 1.05638 14.6769 1.05638C14.2154 1.05638 13.8923 1.44038 13.8923 1.87238V22.3684C13.8923 22.8484 14.2615 23.1844 14.6769 23.1844C15.1385 23.1844 15.4615 22.8004 15.4615 22.3684V1.87238ZM17.9538 6.28838H16.2462V7.10438H17.9538V6.28838ZM17.9538 7.92038H16.2462V16.2244H17.9538V7.92038ZM17.9538 17.0884H16.2462V17.9044H17.9538V17.0884ZM20.3538 1.87238C20.3538 1.39238 19.9846 1.05638 19.5692 1.05638C19.1077 1.05638 18.7846 1.44038 18.7846 1.87238V22.3684C18.7846 22.8484 19.1538 23.1844 19.5692 23.1844C20.0308 23.1844 20.3538 22.8004 20.3538 22.3684V1.87238ZM18.4154 17.0884V17.9044V17.0884ZM22.8 17.9044C23.0308 17.9044 23.2154 17.7124 23.2154 17.4724C23.2154 17.2324 23.0308 17.0404 22.8 17.0404H21.1846V17.8564H22.8V17.9044ZM22.8 6.28838H21.1846V7.10438H22.8C23.0308 7.10438 23.2154 6.91238 23.2154 6.67238C23.2154 6.43238 23.0308 6.28838 22.8 6.28838Z" fill="#222222"/>
</g>
<defs>
<clipPath id="clip0_1181_303322">
<rect width="24" height="24" fill="white"/>
</clipPath>
</defs>
</svg>
