<svg width="24" height="24" viewBox="0 0 24 24" fill="none" xmlns="http://www.w3.org/2000/svg">
<g clip-path="url(#clip0_1181_303285)">
<path d="M0 14.1986C0.112353 13.8285 0.365728 13.721 0.724055 13.7215C5.38461 13.7287 10.0452 13.7263 14.7057 13.7263C14.8218 13.7263 14.9378 13.7263 15.0835 13.7263C15.0835 13.5616 15.0816 13.4253 15.0839 13.289C15.0904 12.8872 15.2827 12.6852 15.666 12.6847C16.9574 12.6832 18.2483 12.6832 19.5392 12.6847C19.9331 12.6852 20.1153 12.8752 20.1204 13.2842C20.1222 13.421 20.1208 13.5583 20.1208 13.7263C20.2341 13.7263 20.3257 13.7263 20.4177 13.7263C21.4173 13.7263 22.4169 13.7253 23.4165 13.7268C23.7101 13.7272 23.8992 13.8535 23.9741 14.0872C24.0772 14.4093 23.8631 14.7405 23.5247 14.7736C23.4086 14.7847 23.2907 14.7756 23.1678 14.7756C23.1479 18.1908 21.6915 20.5812 18.577 21.8368C18.7499 22.2775 18.927 22.7287 19.1041 23.1794C19.2461 23.5408 19.1536 23.8356 18.8591 23.9584C18.5738 24.0775 18.3237 23.9407 18.1799 23.5821C17.9958 23.1228 17.8197 22.6596 17.6273 22.2036C17.5987 22.1354 17.5016 22.0533 17.4368 22.0538C16.4927 22.0596 15.5486 22.0893 14.6049 22.0912C12.1489 22.0965 9.69238 22.0908 7.23634 22.0888C7.14988 22.0888 7.06296 22.0879 6.9765 22.0812C6.60291 22.0528 6.60292 22.0519 6.46467 22.4047C6.30747 22.805 6.15212 23.2063 5.99122 23.6052C5.85667 23.9397 5.59637 24.0732 5.31849 23.958C5.03322 23.8399 4.93196 23.5437 5.06512 23.2005C5.24081 22.7479 5.42114 22.2972 5.59591 21.8546C2.46668 20.6124 0.985287 18.2335 0.96032 14.7808C0.573327 14.7832 0.137323 14.8365 0.00046563 14.2965C3.2735e-06 14.2639 0 14.2312 0 14.1986ZM1.98582 14.7904C1.98582 15.0304 1.97704 15.258 1.98721 15.484C2.05286 16.9711 2.50181 18.3026 3.50883 19.3903C4.60461 20.573 5.98243 21.0549 7.53317 21.0573C10.5796 21.0626 13.6261 21.065 16.6726 21.0496C17.1326 21.0472 17.6015 20.9887 18.0504 20.8821C20.1999 20.3724 21.765 18.5671 22.059 16.276C22.1214 15.7874 22.133 15.2916 22.1686 14.7938C21.4524 14.7938 20.7954 14.7938 20.1199 14.7938C20.1199 14.9239 20.1199 15.0367 20.1199 15.1495C20.1204 16.2036 20.1213 17.2581 20.1208 18.3122C20.1204 18.7749 19.9507 18.9544 19.511 18.9544C18.2358 18.9554 16.9606 18.9559 15.685 18.9544C15.2666 18.954 15.0848 18.7629 15.0839 18.3228C15.0821 17.5629 15.0835 16.8031 15.0835 16.0428C15.0835 15.629 15.0835 15.2152 15.0835 14.7904C10.7022 14.7904 6.35324 14.7904 1.98582 14.7904ZM16.1127 13.7253C16.1127 14.4434 16.1127 15.1236 16.1127 15.8018C17.1215 15.8018 18.1133 15.8018 19.1221 15.8018C19.1221 15.1461 19.1258 14.5111 19.1152 13.8765C19.1143 13.8261 19.0167 13.7388 18.9599 13.7349C18.7093 13.7186 18.4573 13.7258 18.2058 13.7253C17.5155 13.7248 16.8252 13.7253 16.1127 13.7253ZM16.1099 17.9196C17.0873 17.9196 18.0379 17.9215 18.9885 17.9138C19.0329 17.9133 19.1129 17.8336 19.1147 17.7885C19.1263 17.49 19.1208 17.1909 19.1208 16.8784C18.0994 16.8784 17.1123 16.8784 16.1099 16.8784C16.1099 17.2231 16.1099 17.5538 16.1099 17.9196Z" fill="#222222"/>
<path d="M12.8091 10.0201C12.823 11.2513 11.7327 12.4018 10.5417 12.4129C9.35577 12.4239 8.2401 11.2916 8.22669 10.0633C8.21282 8.80424 9.31323 7.64696 10.5237 7.64648C11.7142 7.646 12.7952 8.76872 12.8091 10.0201ZM10.5348 8.69816C9.72612 8.69864 9.2411 9.1988 9.24018 10.034C9.23879 10.8471 9.73768 11.3646 10.5209 11.3626C11.3065 11.3607 11.8086 10.8457 11.8132 10.0364C11.8183 9.23048 11.3097 8.69768 10.5348 8.69816Z" fill="#222222"/>
<path d="M6.80589 6.40845C6.80912 7.35261 5.94498 8.25645 5.03737 8.25789C4.11174 8.25933 3.24482 7.36125 3.24806 6.40413C3.25129 5.45661 4.10804 4.55901 5.01842 4.55085C5.93203 4.54173 6.80265 5.44605 6.80589 6.40845ZM5.03275 7.21341C5.52516 7.20957 5.81089 6.91293 5.81136 6.40509C5.81182 5.89485 5.5284 5.60301 5.03368 5.60397C4.51676 5.60445 4.24721 5.88381 4.24813 6.41757C4.24859 6.92445 4.53757 7.21725 5.03275 7.21341Z" fill="#222222"/>
<path d="M8.04776 3.35089C7.23494 3.34369 6.44431 2.51713 6.44153 1.67185C6.43922 0.836171 7.24973 -0.00334995 8.05562 1.00523e-05C8.88139 0.00337005 9.68496 0.845291 9.67155 1.69249C9.65814 2.54257 8.85966 3.35761 8.04776 3.35089ZM8.06625 2.30113C8.47359 2.29873 8.66316 2.09329 8.659 1.66033C8.65484 1.25089 8.45463 1.04545 8.06024 1.04737C7.64227 1.04977 7.44901 1.25857 7.4541 1.70305C7.45872 2.10577 7.66169 2.30401 8.06625 2.30113Z" fill="#222222"/>
</g>
<defs>
<clipPath id="clip0_1181_303285">
<rect width="24" height="24" fill="white"/>
</clipPath>
</defs>
</svg>
