<svg width="21" height="20" viewBox="0 0 21 20" fill="none" xmlns="http://www.w3.org/2000/svg">
<path d="M18.6144 10.509L16.1144 4.25896C16.1135 4.25674 16.1122 4.2548 16.1112 4.25259C16.1088 4.24694 16.1059 4.24168 16.1032 4.23622C16.0976 4.22483 16.0913 4.2138 16.0843 4.20319C16.0807 4.19777 16.0771 4.19243 16.0732 4.18724C16.0649 4.1762 16.0558 4.16574 16.046 4.15592C16.043 4.15287 16.0403 4.14947 16.0372 4.14658C16.0242 4.13447 16.0101 4.12351 15.9952 4.11381C15.9909 4.11102 15.9863 4.10877 15.9819 4.10618C15.9707 4.09954 15.959 4.0936 15.9471 4.0884C15.9412 4.08592 15.9353 4.0836 15.9294 4.08146C15.9173 4.07719 15.905 4.07368 15.8926 4.07093C15.887 4.06967 15.8816 4.06807 15.8759 4.06712C15.8588 4.06413 15.8415 4.06259 15.8242 4.0625C15.8234 4.0625 15.8227 4.06266 15.8219 4.06269C15.8179 4.06273 15.8138 4.06342 15.8098 4.06361C15.7944 4.0643 15.7791 4.06612 15.764 4.06906C15.7615 4.06956 15.7589 4.0694 15.7564 4.06998L10.5117 5.23548V3.125C10.5117 3.04212 10.4788 2.96263 10.4202 2.90403C10.3616 2.84542 10.2821 2.8125 10.1992 2.8125C10.1163 2.8125 10.0369 2.84542 9.97825 2.90403C9.91964 2.96263 9.88672 3.04212 9.88672 3.125V5.37437L4.50643 6.56998C4.50349 6.57062 4.50098 6.572 4.49808 6.57272C4.48362 6.57638 4.46945 6.58105 4.45566 6.58672C4.45146 6.58844 4.44711 6.58981 4.44303 6.59172C4.42666 6.59928 4.41097 6.60824 4.39615 6.6185C4.39203 6.62136 4.38844 6.62468 4.38451 6.6277C4.37383 6.63586 4.36367 6.64469 4.35411 6.65413C4.34976 6.65848 4.34564 6.66287 4.3416 6.66744C4.33291 6.67724 4.32484 6.68757 4.31745 6.69838C4.31447 6.70273 4.31123 6.70685 4.30848 6.71135C4.29898 6.72648 4.29081 6.74241 4.28407 6.75896L4.28354 6.76026L4.28323 6.76102L1.78407 13.009C1.76931 13.0459 1.76172 13.0852 1.76172 13.125C1.76172 14.7186 3.48684 15.3125 4.57422 15.3125C5.6616 15.3125 7.38672 14.7186 7.38672 13.125C7.38671 13.0852 7.37913 13.0459 7.36436 13.009L5.00089 7.10026L9.88672 6.01452V16.5625H8.32422C8.24134 16.5625 8.16185 16.5954 8.10325 16.654C8.04464 16.7126 8.01172 16.7921 8.01172 16.875C8.01172 16.9579 8.04464 17.0374 8.10325 17.096C8.16185 17.1546 8.24134 17.1875 8.32422 17.1875H12.0742C12.1571 17.1875 12.2366 17.1546 12.2952 17.096C12.3538 17.0374 12.3867 16.9579 12.3867 16.875C12.3867 16.7921 12.3538 16.7126 12.2952 16.654C12.2366 16.5954 12.1571 16.5625 12.0742 16.5625H10.5117V5.87562L15.3143 4.80839L13.0341 10.509C13.0193 10.5459 13.0117 10.5852 13.0117 10.625C13.0117 12.2186 14.7368 12.8125 15.8242 12.8125C16.9116 12.8125 18.6367 12.2186 18.6367 10.625C18.6367 10.5852 18.6291 10.5459 18.6144 10.509ZM4.57422 14.6875C4.01533 14.6875 2.4357 14.409 2.38783 13.1824L4.57422 7.71645L6.76061 13.1824C6.71274 14.409 5.13311 14.6875 4.57422 14.6875ZM15.8242 12.1875C15.2653 12.1875 13.6857 11.909 13.6378 10.6824L15.8242 5.21645L18.0106 10.6824C17.9627 11.909 16.3831 12.1875 15.8242 12.1875Z" fill="#455999"/>
</svg>
