<svg width="32" height="32" viewBox="0 0 32 32" fill="none" xmlns="http://www.w3.org/2000/svg">
<path d="M29.4642 16.8145L25.4642 6.81445C25.4628 6.81091 25.4608 6.8078 25.4592 6.80426C25.4554 6.79523 25.4508 6.7868 25.4464 6.77808C25.4374 6.75986 25.4273 6.74221 25.4161 6.72522C25.4104 6.71655 25.4047 6.70801 25.3984 6.69971C25.3851 6.68205 25.3705 6.66531 25.3549 6.6496C25.35 6.64471 25.3458 6.63928 25.3408 6.63464C25.3199 6.61527 25.2974 6.59773 25.2736 6.58221C25.2667 6.57776 25.2594 6.57416 25.2523 6.57001C25.2343 6.55938 25.2157 6.54988 25.1965 6.54156C25.1872 6.5376 25.1778 6.53387 25.1682 6.53046C25.149 6.52363 25.1293 6.51801 25.1094 6.51361C25.1005 6.5116 25.0918 6.50903 25.0827 6.50751C25.0554 6.50274 25.0277 6.50027 25 6.50012C24.9987 6.50012 24.9976 6.50037 24.9963 6.50043C24.9899 6.50049 24.9834 6.50159 24.977 6.50189C24.9524 6.503 24.9278 6.50592 24.9036 6.51062C24.8996 6.51141 24.8956 6.51117 24.8915 6.51208L16.5 8.37689V5.00012C16.5 4.86751 16.4473 4.74034 16.3536 4.64657C16.2598 4.5528 16.1326 4.50012 16 4.50012C15.8674 4.50012 15.7402 4.5528 15.6464 4.64657C15.5527 4.74034 15.5 4.86751 15.5 5.00012V8.59912L6.89154 10.5121C6.88684 10.5131 6.88281 10.5153 6.87817 10.5165C6.85505 10.5223 6.83236 10.5298 6.8103 10.5389C6.80359 10.5416 6.79663 10.5438 6.7901 10.5469C6.7639 10.559 6.73881 10.5733 6.71508 10.5897C6.70849 10.5943 6.70275 10.5996 6.69647 10.6044C6.67938 10.6175 6.66313 10.6316 6.64782 10.6467C6.64086 10.6537 6.63427 10.6607 6.6278 10.668C6.6139 10.6837 6.601 10.7002 6.58917 10.7175C6.58441 10.7245 6.57922 10.7311 6.57482 10.7383C6.55962 10.7625 6.54655 10.788 6.53576 10.8145L6.53491 10.8165L6.53442 10.8178L2.53577 20.8145C2.51215 20.8735 2.50001 20.9365 2.5 21.0001C2.5 23.5499 5.26019 24.5001 7 24.5001C8.73981 24.5001 11.5 23.5499 11.5 21.0001C11.5 20.9365 11.4879 20.8735 11.4642 20.8145L7.68268 11.3605L15.5 9.62335V26.5001H13C12.8674 26.5001 12.7402 26.5528 12.6464 26.6466C12.5527 26.7403 12.5 26.8675 12.5 27.0001C12.5 27.1327 12.5527 27.2599 12.6464 27.3537C12.7402 27.4474 12.8674 27.5001 13 27.5001H19C19.1326 27.5001 19.2598 27.4474 19.3536 27.3537C19.4473 27.2599 19.5 27.1327 19.5 27.0001C19.5 26.8675 19.4473 26.7403 19.3536 26.6466C19.2598 26.5528 19.1326 26.5001 19 26.5001H16.5V9.40112L24.1841 7.69354L20.5358 16.8145C20.5121 16.8735 20.5 16.9365 20.5 17.0001C20.5 19.5499 23.2602 20.5001 25 20.5001C26.7398 20.5001 29.5 19.5499 29.5 17.0001C29.5 16.9365 29.4879 16.8735 29.4642 16.8145ZM7 23.5001C6.10577 23.5001 3.57837 23.0546 3.50177 21.0919L7 12.3464L10.4982 21.0919C10.4216 23.0546 7.89423 23.5001 7 23.5001ZM25 19.5001C24.1058 19.5001 21.5784 19.0546 21.5018 17.0919L25 8.34644L28.4982 17.0919C28.4216 19.0546 25.8942 19.5001 25 19.5001Z" fill="#455999"/>
</svg>
