<svg width="24" height="24" viewBox="0 0 24 24" fill="none" xmlns="http://www.w3.org/2000/svg">
<g clip-path="url(#clip0_14_986)">
<path d="M11.9963 0C5.37722 0 0 5.37722 0 11.9963C0 18.6153 5.37722 23.9926 11.9963 23.9926C15.7974 23.9926 19.1863 22.2181 21.3847 19.4553V23.471C21.3837 23.5401 21.3965 23.6087 21.4222 23.6729C21.448 23.737 21.4863 23.7954 21.5348 23.8446C21.5833 23.8938 21.6412 23.9329 21.7049 23.9596C21.7687 23.9863 21.8371 24 21.9063 24C21.9754 24 22.0438 23.9863 22.1076 23.9596C22.1714 23.9329 22.2292 23.8938 22.2777 23.8446C22.3262 23.7954 22.3645 23.737 22.3903 23.6729C22.416 23.6087 22.4288 23.5401 22.4278 23.471V17.7336H21.6404H21.5884H16.6905C16.6214 17.7327 16.5527 17.7454 16.4886 17.7712C16.4245 17.797 16.3661 17.8352 16.3169 17.8838C16.2677 17.9323 16.2286 17.9901 16.2019 18.0539C16.1752 18.1177 16.1615 18.1861 16.1615 18.2552C16.1615 18.3243 16.1752 18.3928 16.2019 18.4565C16.2286 18.5203 16.2677 18.5781 16.3169 18.6267C16.3661 18.6752 16.4245 18.7135 16.4886 18.7392C16.5527 18.765 16.6214 18.7778 16.6905 18.7768H20.5921C18.5865 21.3165 15.487 22.9494 11.9963 22.9494C5.94101 22.9494 1.04316 18.0516 1.04316 11.9963C1.04316 5.94101 5.94101 1.04316 11.9963 1.04316C18.0516 1.04316 22.9494 5.94101 22.9494 11.9963C22.9484 12.0654 22.9612 12.134 22.987 12.1982C23.0128 12.2623 23.051 12.3207 23.0995 12.3699C23.1481 12.4191 23.2059 12.4582 23.2697 12.4849C23.3334 12.5116 23.4019 12.5253 23.471 12.5253C23.5401 12.5253 23.6085 12.5116 23.6723 12.4849C23.7361 12.4582 23.7939 12.4191 23.8424 12.3699C23.891 12.3207 23.9292 12.2623 23.955 12.1982C23.9808 12.134 23.9935 12.0654 23.9926 11.9963C23.9926 5.37722 18.6153 0 11.9963 0ZM11.9881 3.64391C11.85 3.64607 11.7183 3.70296 11.6221 3.80208C11.5258 3.9012 11.4728 4.03446 11.4747 4.17262V10.5232C11.1282 10.6474 10.8366 10.8896 10.6511 11.2075C10.4655 11.5253 10.398 11.8984 10.4603 12.2611C10.5225 12.6238 10.7107 12.953 10.9916 13.1907C11.2725 13.4285 11.6283 13.5596 11.9963 13.561C12.3197 13.5608 12.635 13.4603 12.899 13.2735C13.163 13.0867 13.3626 12.8227 13.4704 12.5179H17.7336C17.8028 12.5188 17.8714 12.5061 17.9355 12.4803C17.9997 12.4545 18.058 12.4163 18.1072 12.3677C18.1565 12.3192 18.1956 12.2614 18.2222 12.1976C18.2489 12.1338 18.2626 12.0654 18.2626 11.9963C18.2626 11.9272 18.2489 11.8587 18.2222 11.795C18.1956 11.7312 18.1565 11.6734 18.1072 11.6248C18.058 11.5763 17.9997 11.538 17.9355 11.5123C17.8714 11.4865 17.8028 11.4737 17.7336 11.4747H13.4714C13.3936 11.2547 13.2676 11.0549 13.1026 10.89C12.9376 10.725 12.7378 10.599 12.5179 10.5212V4.17262C12.5188 4.10284 12.5058 4.03358 12.4795 3.96893C12.4532 3.90429 12.4142 3.84558 12.3648 3.79628C12.3154 3.74698 12.2566 3.70809 12.1919 3.68192C12.1272 3.65575 12.0579 3.64282 11.9881 3.64391Z" fill="#7B7B7B"/>
</g>
<defs>
<clipPath id="clip0_14_986">
<rect width="24" height="24" fill="white"/>
</clipPath>
</defs>
</svg>
