<svg width="24" height="24" viewBox="0 0 24 24" fill="none" xmlns="http://www.w3.org/2000/svg">
<g clip-path="url(#clip0_1365_149965)">
<path d="M18.8459 23.6103C17.6062 23.6103 16.3822 23.1273 15.4672 22.2138C14.1944 20.9403 13.7497 19.0458 14.3107 17.344L6.6554 9.69027C4.95215 10.2505 3.0599 9.80502 1.78715 8.53302C0.359152 7.10577 -0.0158481 4.92327 0.854152 3.10302C0.891652 3.02427 0.965152 2.96802 1.05215 2.95302C1.14065 2.93952 1.2269 2.96652 1.2884 3.02877L4.2899 6.03027C4.7699 6.50877 5.5499 6.50952 6.0299 6.03027C6.50915 5.55027 6.50915 4.77027 6.0299 4.29027L3.0284 1.28877C2.96615 1.22652 2.9384 1.13877 2.95265 1.05252C2.96765 0.966268 3.02315 0.892769 3.10265 0.854519C4.9229 -0.0162314 7.10465 0.359518 8.5319 1.78677C9.8054 3.06027 10.2509 4.95477 9.6884 6.65727L17.3429 14.311C19.0462 13.747 20.9399 14.194 22.2127 15.4675C23.6392 16.8948 24.0142 19.0765 23.1449 20.8975C23.1067 20.9763 23.0332 21.0325 22.9462 21.0468C22.8652 21.0633 22.7729 21.0333 22.7099 20.9718L19.7084 17.9703C19.2292 17.491 18.4484 17.491 17.9699 17.9703C17.4899 18.4503 17.4899 19.2303 17.9699 19.7088L20.9714 22.7103C21.0329 22.7725 21.0614 22.8603 21.0464 22.9465C21.0314 23.0328 20.9759 23.107 20.8972 23.1453C20.2432 23.458 19.5427 23.6103 18.8459 23.6103ZM6.7259 9.10977C6.7964 9.10977 6.8654 9.13752 6.9164 9.18852L14.8124 17.0815C14.8874 17.1565 14.9114 17.2675 14.8747 17.3665C14.3009 18.913 14.6834 20.6658 15.8497 21.8313C17.0227 23.0043 18.7717 23.3763 20.3062 22.81L17.5882 20.092C16.8989 19.402 16.8989 18.2793 17.5882 17.5885C18.2812 16.9 19.4032 16.9008 20.0917 17.5885L22.8097 20.3065C23.3759 18.7713 23.0047 17.023 21.8309 15.85C20.6654 14.6838 18.9142 14.3013 17.3662 14.875C17.2672 14.911 17.1569 14.8878 17.0812 14.8128L9.1874 6.91902C9.1124 6.84477 9.0884 6.73302 9.12515 6.63402C9.69965 5.08752 9.3164 3.33477 8.1509 2.16852C6.9779 0.995519 5.2289 0.623518 3.69365 1.19052L6.41165 3.90852C6.74465 4.24152 6.92765 4.68627 6.92765 5.16027C6.92765 5.63427 6.7439 6.07902 6.4109 6.41127C5.7449 7.07802 4.5734 7.07727 3.90815 6.41127L1.19015 3.69402C0.623902 5.22852 0.995152 6.97752 2.16815 8.15127C3.33365 9.31677 5.08715 9.69927 6.63215 9.12627C6.6629 9.11502 6.6944 9.10977 6.7259 9.10977ZM2.1434 23.4303C2.0744 23.4303 2.00465 23.4033 1.9529 23.3515L0.645652 22.0443C0.543652 21.9423 0.539902 21.7788 0.636652 21.6715L2.83865 19.2498C2.88815 19.195 2.9579 19.1635 3.03215 19.1613C3.0899 19.1613 3.1769 19.1883 3.2294 19.24L3.8024 19.813L9.4094 14.2053L9.79115 14.5878L4.18415 20.1955L4.7564 20.7678C4.8089 20.8203 4.8374 20.8915 4.83515 20.9658C4.8329 21.04 4.8014 21.109 4.74665 21.1593L2.3249 23.3613C2.2739 23.407 2.20865 23.4303 2.1434 23.4303ZM1.20965 21.844L2.1524 22.7875L4.17365 20.9493L3.04715 19.8228L1.20965 21.844ZM16.0207 10.8888L15.6382 10.507L22.6214 3.52377C22.9094 3.23652 23.0677 2.85477 23.0677 2.44902C23.0677 2.04327 22.9094 1.66152 22.6214 1.37427C22.0304 0.783268 21.0659 0.781768 20.4734 1.37427L13.4902 8.35752L13.1077 7.97577L20.0909 0.992518C20.8694 0.214018 22.2269 0.215518 23.0039 0.992518C23.3932 1.38177 23.6077 1.89852 23.6077 2.44902C23.6077 2.99952 23.3932 3.51627 23.0039 3.90552L16.0207 10.8888ZM14.7554 9.62352L14.3729 9.24177L21.3344 2.28027L21.7169 2.66202L14.7554 9.62352Z" fill="black"/>
</g>
<defs>
<clipPath id="clip0_1365_149965">
<rect width="24" height="24" fill="white" transform="translate(0 0.000244141)"/>
</clipPath>
</defs>
</svg>
