<svg width="24" height="24" viewBox="0 0 24 24" fill="none" xmlns="http://www.w3.org/2000/svg">
<path fill-rule="evenodd" clip-rule="evenodd" d="M2 3H21.04C21.5923 3 22.04 3.44772 22.04 4V6H1V4C1 3.44772 1.44772 3 2 3ZM1 7V9H22.04V7H1ZM22.04 10H1V17C1 17.5523 1.44772 18 2 18H9.6V19H2C0.895433 19 0 18.1046 0 17V10V9V7V6V4C0 2.89543 0.895431 2 2 2H21.04C22.1446 2 23.04 2.89543 23.04 4V6V7V9V10V13H22.04V10ZM23 15H11.56V21H23V15ZM11.56 14H10.56V15V21V22H11.56H23H24V21V15V14H23H11.56ZM17.2799 19C17.75 19 18.1999 18.5912 18.1999 18C18.1999 17.4088 17.75 17 17.2799 17C16.8099 17 16.3599 17.4088 16.3599 18C16.3599 18.5912 16.8099 19 17.2799 19ZM17.2799 20C18.3403 20 19.1999 19.1046 19.1999 18C19.1999 16.8954 18.3403 16 17.2799 16C16.2196 16 15.3599 16.8954 15.3599 18C15.3599 19.1046 16.2196 20 17.2799 20Z" fill="#202734"/>
</svg>
