<svg width="24" height="24" viewBox="0 0 24 24" fill="none" xmlns="http://www.w3.org/2000/svg">
<path d="M1.34437 3.12012C0.6075 3.12012 0 3.72762 0 4.46449V17.0401C0 17.8295 0.650625 18.4801 1.44 18.4801H3.405C3.63375 19.8376 4.81875 20.8801 6.24 20.8801C7.66125 20.8801 8.84625 19.8376 9.075 18.4801H16.365C16.5938 19.8376 17.7787 20.8801 19.2 20.8801C20.6213 20.8801 21.8063 19.8376 22.035 18.4801H22.56C22.9594 18.4801 23.3044 18.2945 23.5594 18.0395C23.8144 17.7845 24 17.4395 24 17.0401V12.4332C24 11.8932 23.7994 11.402 23.6156 11.0251C23.43 10.6501 23.2425 10.3801 23.2425 10.3801L23.2369 10.3745L21.2606 7.72324L21.255 7.71762C20.8294 7.18512 20.1469 6.48012 19.2 6.48012H15.36C15.1875 6.48012 15.0281 6.51949 14.88 6.57949V4.51324C14.88 3.74449 14.2556 3.12012 13.4869 3.12012H1.34437ZM1.34437 4.08012H13.4869C13.68 4.08012 13.92 4.32012 13.92 4.51324V17.5201H9.075C8.84625 16.1626 7.66125 15.1201 6.24 15.1201C4.81875 15.1201 3.63375 16.1626 3.405 17.5201H1.44C1.17375 17.5201 0.96 17.3064 0.96 17.0401V4.46449C0.96 4.24137 1.12125 4.08012 1.34437 4.08012ZM15.36 7.44012H17.28V11.7601C17.28 12.1595 17.4656 12.5045 17.7206 12.7595C17.9756 13.0145 18.3206 13.2001 18.72 13.2001H23.04V17.0401C23.04 17.1207 22.9856 17.2557 22.8806 17.3607C22.7756 17.4657 22.6406 17.5201 22.56 17.5201H22.035C21.8063 16.1626 20.6213 15.1201 19.2 15.1201C17.7787 15.1201 16.5938 16.1626 16.365 17.5201H14.88V7.92012C14.88 7.83949 14.9344 7.70449 15.0394 7.59949C15.1444 7.49449 15.2794 7.44012 15.36 7.44012ZM18.24 7.44012H19.2C19.5975 7.44012 20.1619 7.88824 20.505 8.31574L22.455 10.9314C22.455 10.9314 22.6013 11.1414 22.7531 11.4507C22.875 11.6982 22.9444 11.987 22.9837 12.2401H18.72C18.6394 12.2401 18.5044 12.1857 18.3994 12.0807C18.2944 11.9757 18.24 11.8407 18.24 11.7601V7.44012ZM6.24 16.0801C7.30688 16.0801 8.16 16.9332 8.16 18.0001C8.16 19.067 7.30688 19.9201 6.24 19.9201C5.17313 19.9201 4.32 19.067 4.32 18.0001C4.32 16.9332 5.17313 16.0801 6.24 16.0801ZM19.2 16.0801C20.2669 16.0801 21.12 16.9332 21.12 18.0001C21.12 19.067 20.2669 19.9201 19.2 19.9201C18.1331 19.9201 17.28 19.067 17.28 18.0001C17.28 16.9332 18.1331 16.0801 19.2 16.0801Z" fill="#202734"/>
</svg>
