<svg width="24" height="24" viewBox="0 0 24 24" fill="none" xmlns="http://www.w3.org/2000/svg">
<path d="M12.12 1C6.02437 1 3.67125 4.93563 3.48 8.68V11.89C3.14437 12.2744 3 12.7656 3 13.39C3 14.4944 3.71437 15.4 4.77 15.64C6.01875 18.9044 8.08875 23.08 11.64 23.08C13.56 23.08 15.0487 21.8312 16.2 20.2H14.955C13.8994 21.4956 12.795 22.12 11.595 22.12C9.29062 22.12 7.31437 19.81 5.49 15.01L5.4 14.725L5.115 14.68C4.49062 14.68 3.96 14.11 3.96 13.39C3.96 13.1088 4.0125 12.8725 4.095 12.685L5.67 13.435C5.82 13.5081 5.99625 13.4987 6.13687 13.4087C6.27562 13.3206 6.36187 13.1669 6.36 13V9.565C6.69187 9.5425 7.56562 9.50875 9.015 9.16C10.5394 8.79437 12.2981 8.14 13.515 6.97C14.8031 8.66687 16.4681 9.325 16.92 9.475V13C16.9181 13.1669 17.0044 13.3206 17.1431 13.4087C17.2837 13.4987 17.46 13.5081 17.61 13.435L18.36 13.06V14.65C18.2831 14.6669 18.2006 14.68 18.12 14.68L17.835 14.725L17.73 15.01C17.25 16.2587 16.77 17.3237 16.29 18.235C16.8656 18.1394 17.4056 17.9012 17.79 17.47C18.0787 16.8456 18.315 16.2156 18.555 15.64C18.6506 15.6156 18.7444 15.5763 18.84 15.535V15.88C18.84 17.4981 17.5781 18.76 15.96 18.76H13.95C13.7494 18.205 13.2206 17.8 12.6 17.8H11.64C10.8506 17.8 10.2 18.4506 10.2 19.24C10.2 20.0294 10.8506 20.68 11.64 20.68H12.6C13.2206 20.68 13.7494 20.275 13.95 19.72H15.96C18.0862 19.72 19.8 18.0063 19.8 15.88V15.4C20.5894 15.4 21.24 14.7494 21.24 13.96V12.04C21.24 11.2506 20.5894 10.6 19.8 10.6V8.68C19.6087 4.45562 17.2594 2.05563 13.275 1.96L12.315 1H12.12ZM11.925 1.96L12.885 2.92H13.08C17.88 2.92 18.7444 6.52 18.84 8.68V10.6C18.825 10.6 18.81 10.6 18.795 10.6C18.5475 10.6225 18.3581 10.8306 18.36 11.08V11.98L17.88 12.22V9.16C17.8819 8.94437 17.7412 8.755 17.535 8.695C17.535 8.695 15.1425 7.94312 13.965 6.025C13.8694 5.87125 13.695 5.785 13.515 5.8C13.3856 5.81313 13.2656 5.87687 13.185 5.98C12.2287 7.1275 10.4081 7.84562 8.805 8.23C7.20187 8.61437 5.85 8.68 5.85 8.68C5.59687 8.695 5.4 8.90687 5.4 9.16V12.235L4.395 11.755V8.68C4.68375 3.83125 8.42062 2.00875 11.925 1.96ZM19.32 11.56H19.8C20.0662 11.56 20.28 11.7738 20.28 12.04V13.96C20.28 14.2262 20.0662 14.44 19.8 14.44H19.41C19.38 14.4325 19.35 14.4269 19.32 14.425V12.34C19.3275 12.2894 19.3275 12.2406 19.32 12.19V11.56ZM11.64 18.76H12.6C12.8662 18.76 13.08 18.9737 13.08 19.24C13.08 19.5063 12.8662 19.72 12.6 19.72H11.64C11.3737 19.72 11.16 19.5063 11.16 19.24C11.16 18.9737 11.3737 18.76 11.64 18.76Z" fill="#202734"/>
</svg>
