<svg width="24" height="24" viewBox="0 0 24 24" fill="none" xmlns="http://www.w3.org/2000/svg">
<g clip-path="url(#clip0_1365_149880)">
<path d="M22.0851 2.04278H14.8872C14.6757 2.04278 14.5043 2.2142 14.5043 2.42574C14.5043 2.63729 14.6757 2.80871 14.8872 2.80871H22.0851C22.7186 2.80871 23.2341 3.32415 23.2341 3.95767V16.3406H15.4468V5.8981C15.4468 5.88287 15.4457 5.86792 15.444 5.8531C15.4435 5.84926 15.4428 5.84556 15.4422 5.84167C15.4405 5.83028 15.4384 5.81903 15.4357 5.80796C15.4348 5.80412 15.4339 5.80037 15.4328 5.79653C15.4295 5.78457 15.4256 5.77285 15.4213 5.76132C15.4203 5.75893 15.4196 5.75645 15.4186 5.75401C15.4129 5.7399 15.4065 5.72621 15.3991 5.71304C15.3986 5.71196 13.8265 2.88217 13.8265 2.88217C13.8255 2.88029 12.3348 0.197072 12.3348 0.197072C12.2672 0.075666 12.1391 0.000244141 12 0.000244141C11.8609 0.000244141 11.7328 0.075666 11.6652 0.197213L10.1745 2.88043C10.1734 2.88231 8.60133 5.7121 8.60133 5.7121C8.59355 5.72631 8.58713 5.74004 8.58141 5.75406C8.58042 5.75649 8.57967 5.75898 8.57869 5.76142C8.57428 5.7729 8.57048 5.78462 8.5672 5.79657C8.56612 5.80037 8.56523 5.80417 8.56425 5.80801C8.56158 5.81907 8.55947 5.83032 8.55778 5.84171C8.55722 5.84556 8.55652 5.84926 8.55605 5.85315C8.55431 5.86796 8.55319 5.88292 8.55319 5.89815V16.3407H0.765938V3.95771C0.765938 3.3242 1.28138 2.80876 1.91489 2.80876H9.11278C9.32433 2.80876 9.49575 2.63734 9.49575 2.42579C9.49575 2.21424 9.32433 2.04282 9.11278 2.04282H1.91489C0.858984 2.04278 0 2.90181 0 3.95771V18.2556C0 19.3115 0.858984 20.1705 1.91489 20.1705H13.9149V22.0854C13.9149 22.5161 14.0579 22.914 14.2989 23.2343H9.70111C9.94209 22.9141 10.0851 22.5161 10.0851 22.0854V21.3194C10.0851 21.1079 9.91369 20.9364 9.70214 20.9364C9.49059 20.9364 9.31917 21.1079 9.31917 21.3194V22.0854C9.31917 22.7189 8.80373 23.2343 8.17022 23.2343H5.10633C4.89478 23.2343 4.72336 23.4057 4.72336 23.6173C4.72336 23.8288 4.89478 24.0002 5.10633 24.0002H18.8936C19.1051 24.0002 19.2765 23.8288 19.2765 23.6173C19.2765 23.4057 19.1051 23.2343 18.8936 23.2343H15.8298C15.1963 23.2343 14.6808 22.7189 14.6808 22.0854V20.1705H22.0851C23.141 20.1705 24 19.3115 24 18.2556V3.95771C24 2.90181 23.141 2.04278 22.0851 2.04278ZM12 1.17179L12.8385 2.68107H11.1615L12 1.17179ZM10.736 3.44706H13.264L14.4129 5.51513H9.58702L10.736 3.44706ZM14.6808 6.28112V16.3407H12.383V6.28112H14.6808ZM9.31917 6.28112H11.617V16.3407H9.31917V6.28112ZM23.2341 18.2556C23.2341 18.8891 22.7186 19.4045 22.0851 19.4045H1.91489C1.28138 19.4045 0.765938 18.8891 0.765938 18.2556V17.1066H23.2341V18.2556Z" fill="black"/>
<path d="M12.0002 18.6385C12.2117 18.6385 12.3831 18.467 12.3831 18.2555C12.3831 18.044 12.2117 17.8726 12.0002 17.8726C11.7886 17.8726 11.6172 18.044 11.6172 18.2555C11.6172 18.467 11.7886 18.6385 12.0002 18.6385Z" fill="black"/>
</g>
<defs>
<clipPath id="clip0_1365_149880">
<rect width="24" height="24" fill="white" transform="translate(0 0.000244141)"/>
</clipPath>
</defs>
</svg>
