<svg width="24" height="24" viewBox="0 0 24 24" fill="none" xmlns="http://www.w3.org/2000/svg">
<g clip-path="url(#clip0_1365_158441)">
<path d="M4.86837 0.000244141C3.92864 0.000244141 3.15409 0.774798 3.15409 1.71453V4.57167H2.58266C2.3773 4.56944 2.18534 4.67658 2.08043 4.85515C1.97775 5.03373 1.97775 5.25248 2.08043 5.43105C2.18534 5.60962 2.3773 5.71676 2.58266 5.71453H4.86837C5.07373 5.71676 5.2657 5.60962 5.37061 5.43105C5.47328 5.25248 5.47328 5.03373 5.37061 4.85515C5.2657 4.67658 5.07373 4.56944 4.86837 4.57167H4.29694V1.71453C4.29694 1.39757 4.55141 1.1431 4.86837 1.1431H20.8684C21.1853 1.1431 21.4398 1.39757 21.4398 1.71453V22.286C21.4398 22.6029 21.1853 22.8574 20.8684 22.8574H4.86837C4.55141 22.8574 4.29694 22.6029 4.29694 22.286V20.0002H3.15409V22.286C3.15409 23.2257 3.92864 24.0002 4.86837 24.0002H20.8684C21.8081 24.0002 22.5827 23.2257 22.5827 22.286V1.71453C22.5827 0.774798 21.8081 0.000244141 20.8684 0.000244141H4.86837ZM13.7255 5.71453C12.2456 5.71453 11.1206 6.27257 10.5179 7.1431C9.98891 7.8998 9.95766 8.85069 10.2456 9.73908C10.1072 9.9489 10.0112 10.2034 10.0536 10.5315C10.1005 10.9087 10.2099 11.2056 10.3952 11.431C10.4577 11.5092 10.5514 11.5047 10.6295 11.5583C10.6853 11.8239 10.7456 12.0918 10.8505 12.315C10.9219 12.4668 10.9978 12.6052 11.0849 12.7302C11.1072 12.7569 11.1541 12.7815 11.1742 12.8105C11.1697 12.9623 11.1608 13.1989 11.1563 13.5494C11.105 13.6565 10.98 13.7882 10.6675 13.9377C10.3349 14.1007 9.86837 14.2547 9.37953 14.4556C8.89293 14.6587 8.37507 14.911 7.9465 15.3306C7.51793 15.7525 7.20096 16.3574 7.15409 17.1074C7.14516 17.2659 7.20096 17.4199 7.31034 17.5337C7.41748 17.6498 7.56703 17.7145 7.72552 17.7145H18.5827C18.7411 17.7145 18.8907 17.6498 18.9978 17.5337C19.1072 17.4199 19.163 17.2659 19.1541 17.1074C19.1072 16.3574 18.7902 15.7525 18.3617 15.3306C17.9331 14.911 17.4152 14.6587 16.9286 14.4556C16.4398 14.2547 15.9733 14.1007 15.6407 13.9377C15.3304 13.7904 15.2077 13.661 15.1541 13.5538V12.7324C15.2121 12.6453 15.2568 12.5828 15.3639 12.3864C15.4822 12.1654 15.5782 11.8685 15.6563 11.5717C15.7434 11.5136 15.8438 11.5159 15.913 11.431C16.0983 11.2056 16.2077 10.9087 16.2545 10.5315C16.2858 10.2815 16.259 10.0427 16.163 9.83283C16.1496 9.80382 16.1027 9.79265 16.0849 9.76364C16.1474 9.58507 16.259 9.42658 16.2791 9.22346C16.3193 8.83953 16.2925 8.41542 16.1742 7.99355C16.0581 7.5739 15.8438 7.1498 15.48 6.82167C15.2032 6.57167 14.8193 6.42658 14.3974 6.35515L14.2367 6.0315C14.1407 5.8373 13.9443 5.71453 13.7255 5.71453ZM3.15409 6.28596V8.00024H2.58266C2.3773 7.99801 2.18534 8.10515 2.08043 8.28373C1.97775 8.4623 1.97775 8.68105 2.08043 8.85962C2.18534 9.03819 2.3773 9.14533 2.58266 9.1431H4.86837C5.07373 9.14533 5.2657 9.03819 5.37061 8.85962C5.47328 8.68105 5.47328 8.4623 5.37061 8.28373C5.2657 8.10515 5.07373 7.99801 4.86837 8.00024H4.29694V6.28596H3.15409ZM13.4041 6.91989L13.5001 7.11185C13.5961 7.30605 13.7947 7.42882 14.0112 7.42882C14.355 7.42882 14.5514 7.5248 14.7144 7.66989C14.8751 7.81721 15.0001 8.04042 15.0737 8.30382C15.1496 8.56721 15.1675 8.86408 15.1429 9.10515C15.1184 9.34623 15.0246 9.53373 15.0246 9.53373C14.9264 9.65203 14.8818 9.80828 14.8996 9.9623C14.9175 10.1163 14.9978 10.2547 15.1206 10.3485C15.1228 10.3641 15.1251 10.3552 15.1206 10.3909C15.0938 10.5985 15.0492 10.6632 15.038 10.681C14.8103 10.7435 14.6452 10.9355 14.6184 11.1699C14.605 11.3016 14.4867 11.6074 14.3594 11.8418C14.2322 12.0761 14.1139 12.2435 14.1139 12.2435C14.0469 12.3395 14.0112 12.4534 14.0112 12.5717V13.7257C14.0112 13.7949 14.0246 13.8641 14.0469 13.9288C14.2501 14.4623 14.7054 14.7569 15.1452 14.9668C15.5827 15.1788 16.0581 15.3328 16.4911 15.5114C16.9219 15.6922 17.3036 15.8953 17.5626 16.1498C17.6697 16.2525 17.6764 16.4444 17.7478 16.5717H8.56034C8.63177 16.4444 8.63846 16.2525 8.7456 16.1498C9.00453 15.8953 9.38623 15.6922 9.81927 15.5114C10.2523 15.3328 10.7255 15.181 11.1652 14.969C11.605 14.7569 12.0581 14.4623 12.2612 13.9288C12.2836 13.8641 12.2969 13.7949 12.2969 13.7257C12.2969 13.2078 12.3215 12.5962 12.3215 12.5962C12.3304 12.373 12.2099 12.1677 12.0112 12.065C12.009 12.0605 12.0202 12.0717 12.0179 12.065C11.9822 12.0181 11.9331 11.9333 11.8862 11.8328C11.7925 11.6319 11.7099 11.3663 11.6898 11.1699C11.663 10.9355 11.4978 10.7435 11.2724 10.681C11.2612 10.6632 11.2144 10.6007 11.1876 10.3886C11.1876 10.3886 11.1876 10.3886 11.1876 10.3864C11.1831 10.3507 11.1898 10.3507 11.1943 10.3418C11.4041 10.1788 11.4711 9.89087 11.3594 9.65203C11.0447 8.98239 11.0938 8.31274 11.4554 7.79489C11.7769 7.33283 12.4309 6.99801 13.4041 6.91989ZM3.15409 9.71453V11.4288H2.58266C2.3773 11.4266 2.18534 11.5337 2.08043 11.7123C1.97775 11.8909 1.97775 12.1096 2.08043 12.2882C2.18534 12.4668 2.3773 12.5739 2.58266 12.5717H4.86837C5.07373 12.5739 5.2657 12.4668 5.37061 12.2882C5.47328 12.1096 5.47328 11.8909 5.37061 11.7123C5.2657 11.5337 5.07373 11.4266 4.86837 11.4288H4.29694V9.71453H3.15409ZM3.15409 13.1431V14.8574H2.58266C2.3773 14.8552 2.18534 14.9623 2.08043 15.1409C1.97775 15.3194 1.97775 15.5382 2.08043 15.7168C2.18534 15.8953 2.3773 16.0025 2.58266 16.0002H4.86837C5.07373 16.0025 5.2657 15.8953 5.37061 15.7168C5.47328 15.5382 5.47328 15.3194 5.37061 15.1409C5.2657 14.9623 5.07373 14.8552 4.86837 14.8574H4.29694V13.1431H3.15409ZM3.15409 16.5717V18.286H2.58266C2.3773 18.2837 2.18534 18.3909 2.08043 18.5694C1.97775 18.748 1.97775 18.9668 2.08043 19.1453C2.18534 19.3239 2.3773 19.431 2.58266 19.4288H4.86837C5.07373 19.431 5.2657 19.3239 5.37061 19.1453C5.47328 18.9668 5.47328 18.748 5.37061 18.5694C5.2657 18.3909 5.07373 18.2837 4.86837 18.286H4.29694V16.5717H3.15409Z" fill="#202734"/>
</g>
<defs>
<clipPath id="clip0_1365_158441">
<rect width="24" height="24" fill="white" transform="translate(0 0.000244141)"/>
</clipPath>
</defs>
</svg>
