<svg width="24" height="24" viewBox="0 0 24 24" fill="none" xmlns="http://www.w3.org/2000/svg">
<g clip-path="url(#clip0_1365_149906)">
<path d="M7.39043 4.8102C7.18292 4.8102 7.01464 4.97843 7.01464 5.18599C7.01464 5.64185 6.64376 6.01273 6.1879 6.01273C5.73204 6.01273 5.36117 5.64185 5.36117 5.18599C5.36117 4.73013 5.73204 4.35926 6.1879 4.35926C6.39542 4.35926 6.5637 4.19103 6.5637 3.98346C6.5637 3.7759 6.39546 3.60767 6.1879 3.60767C5.31762 3.60767 4.60962 4.31571 4.60962 5.18595C4.60962 6.05618 5.31767 6.76423 6.1879 6.76423C7.05813 6.76423 7.76618 6.05618 7.76618 5.18595C7.76623 4.97843 7.59795 4.8102 7.39043 4.8102Z" fill="black"/>
<path d="M7.39043 9.21938C7.18292 9.21938 7.01464 9.38761 7.01464 9.59517C7.01464 10.051 6.64376 10.4219 6.1879 10.4219C5.73204 10.4219 5.36117 10.051 5.36117 9.59517C5.36117 9.13931 5.73204 8.76844 6.1879 8.76844C6.39542 8.76844 6.5637 8.60021 6.5637 8.39264C6.5637 8.18508 6.39546 8.01685 6.1879 8.01685C5.31762 8.01685 4.60962 8.72489 4.60962 9.59513C4.60962 10.4654 5.31767 11.1734 6.1879 11.1734C7.05813 11.1734 7.76618 10.4654 7.76618 9.59513C7.76623 9.38766 7.59795 9.21938 7.39043 9.21938Z" fill="black"/>
<path d="M11.7996 10.0212H8.99372C8.7862 10.0212 8.61792 10.1895 8.61792 10.397C8.61792 10.6046 8.78615 10.7728 8.99372 10.7728H11.7996C12.0071 10.7728 12.1754 10.6046 12.1754 10.397C12.1754 10.1895 12.0071 10.0212 11.7996 10.0212Z" fill="black"/>
<path d="M11.7996 8.41772H8.99372C8.7862 8.41772 8.61792 8.58596 8.61792 8.79352C8.61792 9.00108 8.78615 9.16932 8.99372 9.16932H11.7996C12.0071 9.16932 12.1754 9.00108 12.1754 8.79352C12.1754 8.58596 12.0071 8.41772 11.7996 8.41772Z" fill="black"/>
<path d="M10.9979 14.4302H8.99372C8.7862 14.4302 8.61792 14.5984 8.61792 14.806C8.61792 15.0135 8.78615 15.1818 8.99372 15.1818H10.9979C11.2054 15.1818 11.3737 15.0135 11.3737 14.806C11.3737 14.5984 11.2054 14.4302 10.9979 14.4302Z" fill="black"/>
<path d="M11.7996 12.8269H8.99372C8.7862 12.8269 8.61792 12.9951 8.61792 13.2027C8.61792 13.4103 8.78615 13.5785 8.99372 13.5785H11.7996C12.0071 13.5785 12.1754 13.4103 12.1754 13.2027C12.1754 12.9951 12.0071 12.8269 11.7996 12.8269Z" fill="black"/>
<path d="M15.4071 5.61182H8.99372C8.7862 5.61182 8.61792 5.78005 8.61792 5.98761C8.61792 6.19518 8.78615 6.36341 8.99372 6.36341H15.4071C15.6146 6.36341 15.7829 6.19518 15.7829 5.98761C15.7829 5.78005 15.6146 5.61182 15.4071 5.61182Z" fill="black"/>
<path d="M13.8037 4.00854H8.99372C8.7862 4.00854 8.61792 4.17678 8.61792 4.38434C8.61792 4.5919 8.78615 4.76014 8.99372 4.76014H13.8037C14.0113 4.76014 14.1795 4.5919 14.1795 4.38434C14.1795 4.17678 14.0113 4.00854 13.8037 4.00854Z" fill="black"/>
<path d="M7.39043 13.6286C7.18292 13.6286 7.01464 13.7968 7.01464 14.0044C7.01464 14.4602 6.64376 14.8311 6.1879 14.8311C5.73204 14.8311 5.36117 14.4602 5.36117 14.0044C5.36117 13.5485 5.73204 13.1776 6.1879 13.1776C6.39542 13.1776 6.5637 13.0094 6.5637 12.8018C6.5637 12.5943 6.39546 12.426 6.1879 12.426C5.31762 12.426 4.60962 13.1341 4.60962 14.0043C4.60962 14.8745 5.31767 15.5826 6.1879 15.5826C7.05813 15.5826 7.76618 14.8745 7.76618 14.0043C7.76623 13.7968 7.59795 13.6286 7.39043 13.6286Z" fill="black"/>
<path d="M17.0104 0.000244141H3.38204C2.73282 0.000244141 2.20459 0.528432 2.20459 1.1777V18.0128C2.20459 18.662 2.73278 19.1902 3.38204 19.1902H10.1963C10.4038 19.1902 10.5721 19.022 10.5721 18.8144C10.5721 18.6069 10.4038 18.4386 10.1963 18.4386H3.38204C3.1472 18.4386 2.95614 18.2476 2.95614 18.0127V1.1777C2.95614 0.942853 3.1472 0.751791 3.38204 0.751791H17.0104C17.2453 0.751791 17.4363 0.942853 17.4363 1.1777V13.6037C17.4363 13.8112 17.6046 13.9794 17.8121 13.9794C18.0197 13.9794 18.1879 13.8112 18.1879 13.6037V1.1777C18.1879 0.528432 17.6597 0.000244141 17.0104 0.000244141Z" fill="black"/>
<path d="M20.5584 15.239C20.2092 15.2042 19.8601 15.3032 19.5838 15.513C19.3637 15.1437 18.9884 14.8817 18.5542 14.8382C18.2049 14.8034 17.8558 14.9024 17.5796 15.1121C17.3595 14.7429 16.9842 14.4809 16.55 14.4374C16.2833 14.4107 16.017 14.4621 15.7829 14.5812V9.79567C15.7829 9.40712 15.6177 9.03465 15.3293 8.77379C15.0413 8.51317 14.6531 8.38595 14.2643 8.42486C13.5706 8.49432 13.0272 9.12156 13.0272 9.85286V14.6505L11.9225 15.7552C11.3355 16.3422 11.0986 17.1751 11.2887 17.9832L12.1274 21.5474C12.4672 22.9917 13.7407 24.0003 15.2244 24.0003H18.6138C20.3682 24.0003 21.7954 22.5731 21.7954 20.8187V16.6671C21.7955 15.9357 21.2521 15.3085 20.5584 15.239ZM21.0439 20.8186C21.0439 22.1585 19.9538 23.2487 18.6139 23.2487H15.2245C14.0913 23.2487 13.1185 22.4783 12.859 21.3752L12.0203 17.8109C11.8902 17.258 12.0523 16.6881 12.454 16.2865L13.0272 15.7133V17.0107C13.0272 17.2182 13.1954 17.3865 13.403 17.3865C13.6106 17.3865 13.7788 17.2182 13.7788 17.0107V9.85281C13.7788 9.50289 14.0249 9.20411 14.3392 9.1727C14.5197 9.15456 14.6924 9.2109 14.8251 9.33109C14.9562 9.44973 15.0314 9.61909 15.0314 9.79572V16.4095C15.0314 16.617 15.1997 16.7853 15.4072 16.7853C15.6148 16.7853 15.783 16.6171 15.783 16.4095V15.8082C15.783 15.6316 15.8582 15.4622 15.9893 15.3436C16.1222 15.2234 16.2947 15.167 16.4752 15.1852C16.7895 15.2167 17.0357 15.5154 17.0357 15.8654V16.8102C17.0357 17.0177 17.2039 17.186 17.4115 17.186C17.619 17.186 17.7873 17.0178 17.7873 16.8102V16.209C17.7873 16.0323 17.8624 15.863 17.9936 15.7443C18.1264 15.6242 18.299 15.5678 18.4795 15.5859C18.7937 15.6174 19.0399 15.9162 19.0399 16.2661V17.211C19.0399 17.4185 19.2081 17.5868 19.4157 17.5868C19.6232 17.5868 19.7915 17.4186 19.7915 17.211V16.6097C19.7915 16.4331 19.8666 16.2638 19.9978 16.1451C20.1306 16.025 20.3031 15.9685 20.4837 15.9868C20.7979 16.0182 21.0441 16.317 21.0441 16.6669V20.8186H21.0439Z" fill="black"/>
</g>
<defs>
<clipPath id="clip0_1365_149906">
<rect width="24" height="24" fill="white" transform="translate(0 0.000244141)"/>
</clipPath>
</defs>
</svg>
