<svg width="24" height="24" viewBox="0 0 24 24" fill="none" xmlns="http://www.w3.org/2000/svg">
<path d="M12 0.000244141C5.40373 0.000244141 0 5.3667 0 12.0002C0 18.6338 5.40373 24.0002 12 24.0002C18.5963 24.0002 24 18.5965 24 12.0002C24 5.40397 18.5963 0.000244141 12 0.000244141ZM12 23.0686C5.8882 23.0686 0.931677 18.112 0.931677 12.0002C0.931677 5.88844 5.8882 0.931921 12 0.931921C18.1118 0.931921 23.0683 5.88844 23.0683 12.0002C23.0683 18.112 18.1118 23.0686 12 23.0686Z" fill="#202734"/>
<path d="M12.0001 9.5033C11.7392 9.5033 11.5156 9.7269 11.5156 9.98777V17.2176C11.5156 17.4785 11.7392 17.7021 12.0001 17.7021C12.261 17.7021 12.4846 17.4785 12.4846 17.2176V9.9505C12.4846 9.68963 12.261 9.5033 12.0001 9.5033Z" fill="#202734"/>
<path d="M12.0001 6.5592C11.5528 6.5592 11.1802 6.93187 11.1802 7.37908C11.1802 7.82628 11.5528 8.19895 12.0001 8.19895C12.4473 8.19895 12.8199 7.82628 12.8199 7.37908C12.8199 6.89461 12.4473 6.5592 12.0001 6.5592Z" fill="#202734"/>
</svg>
