<svg width="210" height="42" viewBox="0 0 210 42" fill="none" xmlns="http://www.w3.org/2000/svg">
<path d="M3.81696 5.50012H7.64732L12 19.0671L16.3527 5.50012H20.183L13.5536 25.0001H10.4464L3.81696 5.50012ZM1.48661 5.50012H5.45089L6.1875 20.4466V25.0001H1.48661V5.50012ZM18.5491 5.50012H22.5268V25.0001H17.8125V20.4466L18.5491 5.50012ZM42.863 14.8617V15.6519C42.863 17.143 42.6532 18.4823 42.2336 19.6698C41.8229 20.8483 41.238 21.8573 40.4791 22.6966C39.7202 23.5269 38.8229 24.1653 37.7871 24.6117C36.7514 25.0492 35.6086 25.268 34.3586 25.268C33.0996 25.268 31.9479 25.0492 30.9032 24.6117C29.8675 24.1653 28.9657 23.5269 28.1979 22.6966C27.4389 21.8573 26.8496 20.8483 26.43 19.6698C26.0193 18.4823 25.8139 17.143 25.8139 15.6519V14.8617C25.8139 13.3707 26.0193 12.0314 26.43 10.8439C26.8496 9.65637 27.4345 8.64744 28.1845 7.81709C28.9434 6.9778 29.8407 6.33941 30.8764 5.90191C31.9211 5.45548 33.0729 5.23226 34.3318 5.23226C35.5818 5.23226 36.7246 5.45548 37.7604 5.90191C38.805 6.33941 39.7068 6.9778 40.4657 7.81709C41.2246 8.64744 41.8139 9.65637 42.2336 10.8439C42.6532 12.0314 42.863 13.3707 42.863 14.8617ZM38.0952 15.6519V14.8349C38.0952 13.8707 38.0104 13.0224 37.8407 12.2903C37.68 11.5492 37.4389 10.9287 37.1175 10.4287C36.7961 9.92869 36.3988 9.55369 35.9255 9.30369C35.4613 9.04476 34.93 8.9153 34.3318 8.9153C33.7068 8.9153 33.1621 9.04476 32.6979 9.30369C32.2336 9.55369 31.8452 9.92869 31.5327 10.4287C31.2202 10.9287 30.9836 11.5492 30.8229 12.2903C30.6711 13.0224 30.5952 13.8707 30.5952 14.8349V15.6519C30.5952 16.6073 30.6711 17.4555 30.8229 18.1966C30.9836 18.9287 31.2202 19.5492 31.5327 20.0582C31.8541 20.5671 32.247 20.951 32.7113 21.2099C33.1845 21.4689 33.7336 21.5983 34.3586 21.5983C34.9568 21.5983 35.488 21.4689 35.9523 21.2099C36.4166 20.951 36.805 20.5671 37.1175 20.0582C37.4389 19.5492 37.68 18.9287 37.8407 18.1966C38.0104 17.4555 38.0952 16.6073 38.0952 15.6519ZM50.5564 17.8082L57.5609 5.50012H62.2618V25.0001H57.5609V12.7055L50.5564 25.0001H45.8555V5.50012H50.5564V17.8082ZM55.9538 0.250122H59.0475C59.0475 1.05369 58.8421 1.76798 58.4314 2.39298C58.0296 3.00905 57.4582 3.49119 56.7171 3.83941C55.9761 4.18762 55.1011 4.36173 54.0921 4.36173C52.5654 4.36173 51.3555 3.98226 50.4627 3.22334C49.5698 2.45548 49.1234 1.46441 49.1234 0.250122H52.2038C52.2038 0.687622 52.3466 1.08048 52.6323 1.42869C52.918 1.77691 53.4046 1.95101 54.0921 1.95101C54.7796 1.95101 55.2618 1.77691 55.5386 1.42869C55.8154 1.08048 55.9538 0.687622 55.9538 0.250122Z" fill="#2B3F7A"/>
<path d="M77.9598 5.50012H81.7901L86.1428 19.0671L90.4955 5.50012H94.3259L87.6964 25.0001H84.5893L77.9598 5.50012ZM75.6294 5.50012H79.5937L80.3303 20.4466V25.0001H75.6294V5.50012ZM92.6919 5.50012H96.6696V25.0001H91.9553V20.4466L92.6919 5.50012ZM109.01 9.59834L104.256 25.0001H99.2068L106.372 5.50012H109.573L109.01 9.59834ZM112.948 25.0001L108.18 9.59834L107.564 5.50012H110.805L118.01 25.0001H112.948ZM112.76 17.7278V21.3573H102.756V17.7278H112.76ZM133.405 5.50012V9.12959H124.927V25.0001H120.239V5.50012H133.405ZM141.888 9.59834L137.134 25.0001H132.085L139.25 5.50012H142.451L141.888 9.59834ZM145.826 25.0001L141.058 9.59834L140.442 5.50012H143.683L150.888 25.0001H145.826ZM145.638 17.7278V21.3573H135.634V17.7278H145.638ZM161.059 15.6653H157.698V13.3082H160.189C160.769 13.3082 161.238 13.2144 161.595 13.0269C161.952 12.8305 162.215 12.5537 162.385 12.1966C162.555 11.8305 162.64 11.4019 162.64 10.9108C162.64 10.5448 162.541 10.2055 162.345 9.89298C162.157 9.58048 161.867 9.33048 161.474 9.14298C161.082 8.95548 160.582 8.86173 159.974 8.86173C159.51 8.86173 159.086 8.93762 158.702 9.08941C158.318 9.24119 158.015 9.46441 157.791 9.75905C157.568 10.0448 157.457 10.4019 157.457 10.8305H152.769C152.769 9.95548 152.961 9.17423 153.345 8.48673C153.729 7.79923 154.251 7.21441 154.912 6.73226C155.582 6.25012 156.349 5.88405 157.215 5.63405C158.09 5.37512 159.01 5.24566 159.974 5.24566C161.09 5.24566 162.099 5.36619 163.001 5.60726C163.903 5.83941 164.675 6.18762 165.318 6.65191C165.97 7.11619 166.47 7.69655 166.818 8.39298C167.166 9.08048 167.34 9.87959 167.34 10.7903C167.34 11.4599 167.189 12.0894 166.885 12.6787C166.59 13.268 166.166 13.7858 165.613 14.2323C165.059 14.6787 164.394 15.0314 163.617 15.2903C162.849 15.5403 161.997 15.6653 161.059 15.6653ZM157.698 14.4733H161.059C162.104 14.4733 163.032 14.5849 163.845 14.8082C164.657 15.0314 165.345 15.3573 165.907 15.7858C166.479 16.2144 166.912 16.7457 167.207 17.3796C167.501 18.0046 167.649 18.7233 167.649 19.5358C167.649 20.4466 167.457 21.2591 167.073 21.9733C166.698 22.6787 166.166 23.2769 165.479 23.768C164.791 24.2591 163.979 24.6296 163.041 24.8796C162.113 25.1296 161.09 25.2546 159.974 25.2546C159.073 25.2546 158.175 25.1474 157.282 24.9332C156.399 24.7099 155.595 24.3707 154.872 23.9153C154.149 23.4599 153.568 22.8751 153.131 22.1608C152.702 21.4466 152.488 20.5894 152.488 19.5894H157.202C157.202 19.9823 157.318 20.3349 157.55 20.6474C157.791 20.9599 158.122 21.2055 158.541 21.3841C158.961 21.5626 159.439 21.6519 159.974 21.6519C160.599 21.6519 161.131 21.5537 161.568 21.3573C162.015 21.1608 162.354 20.893 162.586 20.5537C162.818 20.2144 162.934 19.8394 162.934 19.4287C162.934 18.9466 162.876 18.5403 162.76 18.2099C162.644 17.8707 162.47 17.5983 162.238 17.393C162.006 17.1787 161.715 17.0269 161.367 16.9376C161.028 16.8394 160.635 16.7903 160.189 16.7903H157.698V14.4733ZM175.677 17.8082L182.681 5.50012H187.382V25.0001H182.681V12.7055L175.677 25.0001H170.976V5.50012H175.677V17.8082ZM204.223 13.2412V16.8573H194.218V13.2412H204.223ZM195.785 5.50012V25.0001H191.084V5.50012H195.785ZM207.384 5.50012V25.0001H202.696V5.50012H207.384Z" fill="#2B3F7A"/>
<path d="M26.3778 38.6296L28.1415 32.946H29.3017L26.7587 40.2644C26.7001 40.4207 26.622 40.5886 26.5243 40.7683C26.4306 40.9519 26.3095 41.1257 26.161 41.2898C26.0126 41.4539 25.8329 41.5867 25.622 41.6882C25.4149 41.7937 25.1669 41.8464 24.8778 41.8464C24.7919 41.8464 24.6825 41.8347 24.5497 41.8113C24.4169 41.7878 24.3231 41.7683 24.2685 41.7527L24.2626 40.8738C24.2938 40.8777 24.3427 40.8816 24.4091 40.8855C24.4794 40.8933 24.5282 40.8972 24.5556 40.8972C24.8017 40.8972 25.0106 40.864 25.1825 40.7976C25.3544 40.7351 25.4989 40.6277 25.6161 40.4753C25.7372 40.3269 25.8407 40.1218 25.9267 39.8601L26.3778 38.6296ZM25.0829 32.946L26.7294 37.8679L27.0106 39.0105L26.2313 39.4089L23.8993 32.946H25.0829ZM35.7746 32.946H36.8586L36.7649 35.3191C36.7414 35.9207 36.6731 36.4402 36.5598 36.8777C36.4465 37.3152 36.302 37.6882 36.1262 37.9968C35.9504 38.3015 35.7531 38.5574 35.5344 38.7644C35.3195 38.9714 35.0969 39.1453 34.8664 39.2859H34.3274L34.3567 38.4011L34.5793 38.3953C34.7082 38.2429 34.8332 38.0867 34.9543 37.9265C35.0754 37.7625 35.1867 37.5691 35.2883 37.3464C35.3899 37.1199 35.4738 36.8445 35.5403 36.5203C35.6106 36.1921 35.6555 35.7917 35.675 35.3191L35.7746 32.946ZM36.0442 32.946H39.8586V39.2859H38.7746V33.948H36.0442V32.946ZM34.0813 38.3953H40.6731V41.155H39.5891V39.2859H35.1653V41.155H34.0754L34.0813 38.3953ZM46.2671 36.1863V36.0515C46.2671 35.5945 46.3335 35.1707 46.4663 34.78C46.5992 34.3855 46.7906 34.0437 47.0406 33.7546C47.2906 33.4617 47.5933 33.2351 47.9488 33.075C48.3042 32.9109 48.7027 32.8289 49.1441 32.8289C49.5894 32.8289 49.9898 32.9109 50.3453 33.075C50.7046 33.2351 51.0093 33.4617 51.2593 33.7546C51.5132 34.0437 51.7066 34.3855 51.8394 34.78C51.9722 35.1707 52.0386 35.5945 52.0386 36.0515V36.1863C52.0386 36.6433 51.9722 37.0671 51.8394 37.4578C51.7066 37.8484 51.5132 38.1902 51.2593 38.4832C51.0093 38.7722 50.7066 38.9988 50.3511 39.1628C49.9995 39.323 49.6011 39.4031 49.1558 39.4031C48.7105 39.4031 48.3101 39.323 47.9546 39.1628C47.5992 38.9988 47.2945 38.7722 47.0406 38.4832C46.7906 38.1902 46.5992 37.8484 46.4663 37.4578C46.3335 37.0671 46.2671 36.6433 46.2671 36.1863ZM47.3511 36.0515V36.1863C47.3511 36.5027 47.3882 36.8015 47.4624 37.0828C47.5367 37.3601 47.648 37.6062 47.7964 37.821C47.9488 38.0359 48.1382 38.2058 48.3648 38.3308C48.5913 38.4519 48.855 38.5125 49.1558 38.5125C49.4527 38.5125 49.7124 38.4519 49.9351 38.3308C50.1617 38.2058 50.3492 38.0359 50.4976 37.821C50.646 37.6062 50.7574 37.3601 50.8316 37.0828C50.9097 36.8015 50.9488 36.5027 50.9488 36.1863V36.0515C50.9488 35.739 50.9097 35.4441 50.8316 35.1667C50.7574 34.8855 50.6441 34.6375 50.4917 34.4226C50.3433 34.2039 50.1558 34.032 49.9292 33.907C49.7066 33.782 49.4449 33.7195 49.1441 33.7195C48.8472 33.7195 48.5855 33.782 48.3589 33.907C48.1363 34.032 47.9488 34.2039 47.7964 34.4226C47.648 34.6375 47.5367 34.8855 47.4624 35.1667C47.3882 35.4441 47.3511 35.739 47.3511 36.0515ZM62.1444 30.1863H63.035C63.035 30.5691 62.9764 30.8738 62.8592 31.1003C62.7421 31.323 62.5819 31.4949 62.3788 31.616C62.1796 31.7371 61.953 31.8289 61.6991 31.8914C61.4491 31.9539 61.1893 32.0144 60.9198 32.073C60.5838 32.1433 60.2713 32.2546 59.9823 32.407C59.6971 32.5554 59.451 32.7664 59.244 33.0398C59.0409 33.3132 58.8905 33.6687 58.7928 34.1062C58.6991 34.5437 58.6737 35.0847 58.7167 35.7292V36.2683H57.826V35.7292C57.826 35.0066 57.8944 34.3757 58.0311 33.8367C58.1717 33.2976 58.369 32.8425 58.6229 32.4714C58.8768 32.1003 59.1776 31.8054 59.5253 31.5867C59.8768 31.3679 60.2635 31.2175 60.6854 31.1355C60.9901 31.0769 61.2518 31.0144 61.4706 30.948C61.6893 30.8777 61.8553 30.7839 61.9686 30.6667C62.0858 30.5496 62.1444 30.3894 62.1444 30.1863ZM60.8612 33.3093C61.2753 33.3093 61.6444 33.3816 61.9686 33.5261C62.2928 33.6707 62.5682 33.8718 62.7948 34.1296C63.0213 34.3875 63.1932 34.6921 63.3104 35.0437C63.4315 35.3914 63.4921 35.7703 63.4921 36.1804V36.3093C63.4921 36.7507 63.4276 37.1609 63.2987 37.5398C63.1737 37.9148 62.9881 38.2429 62.7421 38.5242C62.4999 38.8015 62.203 39.0183 61.8514 39.1746C61.5038 39.3308 61.1073 39.4089 60.662 39.4089C60.2167 39.4089 59.8182 39.3308 59.4667 39.1746C59.119 39.0183 58.8221 38.8015 58.576 38.5242C58.3299 38.2429 58.1424 37.9148 58.0135 37.5398C57.8885 37.1609 57.826 36.7507 57.826 36.3093V36.1804C57.826 36.0828 57.8436 35.9871 57.8788 35.8933C57.9139 35.7996 57.9569 35.7039 58.0077 35.6062C58.0624 35.5085 58.1112 35.405 58.1542 35.2957C58.2987 34.9441 58.496 34.6179 58.746 34.3171C58.9999 34.0164 59.3026 33.7742 59.6542 33.5906C60.0096 33.4031 60.412 33.3093 60.8612 33.3093ZM60.6503 34.1941C60.2518 34.1941 59.9237 34.2859 59.6659 34.4695C59.412 34.6531 59.2225 34.8972 59.0975 35.2019C58.9725 35.5027 58.91 35.8289 58.91 36.1804V36.3093C58.91 36.6062 58.9452 36.8875 59.0155 37.1531C59.0858 37.4187 59.1913 37.655 59.3319 37.8621C59.4764 38.0652 59.6581 38.2253 59.8768 38.3425C60.0995 38.4597 60.3612 38.5183 60.662 38.5183C60.9628 38.5183 61.2225 38.4597 61.4413 38.3425C61.66 38.2253 61.8397 38.0652 61.9803 37.8621C62.121 37.655 62.2264 37.4187 62.2967 37.1531C62.3671 36.8875 62.4022 36.6062 62.4022 36.3093V36.1804C62.4022 35.9148 62.3671 35.6628 62.2967 35.4246C62.2264 35.1863 62.119 34.9753 61.9745 34.7917C61.8338 34.6082 61.6522 34.4636 61.4296 34.3582C61.2108 34.2488 60.951 34.1941 60.6503 34.1941ZM73.5978 35.6941V36.573H70.2463V35.6941H73.5978ZM70.4748 32.946V39.2859H69.3908V32.946H70.4748ZM74.4767 32.946V39.2859H73.3869V32.946H74.4767ZM81.7935 35.1257H83.6978C84.2095 35.1257 84.6411 35.2156 84.9927 35.3953C85.3442 35.571 85.6099 35.8152 85.7896 36.1277C85.9731 36.4363 86.0649 36.7878 86.0649 37.1824C86.0649 37.4753 86.0142 37.7507 85.9126 38.0085C85.811 38.2625 85.6587 38.4851 85.4556 38.6765C85.2563 38.8679 85.0083 39.0183 84.7114 39.1277C84.4185 39.2332 84.0806 39.2859 83.6978 39.2859H81.0024V32.946H82.0864V38.3953H83.6978C84.0103 38.3953 84.2603 38.3386 84.4478 38.2253C84.6353 38.1121 84.77 37.9656 84.8521 37.7859C84.9341 37.6062 84.9751 37.4187 84.9751 37.2234C84.9751 37.032 84.9341 36.8445 84.8521 36.6609C84.77 36.4773 84.6353 36.325 84.4478 36.2039C84.2603 36.0789 84.0103 36.0164 83.6978 36.0164H81.7935V35.1257ZM88.3208 32.946V39.2859H87.2368V32.946H88.3208ZM96.0711 37.5691L98.9949 32.946H100.085V39.2859H98.9949V34.6628L96.0711 39.2859H94.993V32.946H96.0711V37.5691ZM98.4031 30.6492H99.2821C99.2821 30.9539 99.2117 31.2253 99.0711 31.4636C98.9305 31.698 98.7293 31.8816 98.4676 32.0144C98.2059 32.1472 97.8953 32.2136 97.536 32.2136C96.993 32.2136 96.5633 32.0691 96.2469 31.78C95.9344 31.4871 95.7781 31.1101 95.7781 30.6492H96.6571C96.6571 30.8796 96.7235 31.0828 96.8563 31.2585C96.9891 31.4343 97.2156 31.5222 97.536 31.5222C97.8485 31.5222 98.0711 31.4343 98.2039 31.2585C98.3367 31.0828 98.4031 30.8796 98.4031 30.6492ZM115.339 32.946V39.2859H114.255V32.946H115.339ZM119.499 32.946L116.494 36.5789H114.976L114.812 35.6296H116.054L118.181 32.946H119.499ZM118.333 39.2859L116.001 36.4148L116.699 35.6296L119.71 39.2859H118.333ZM129.072 38.2019V34.9382C129.072 34.6882 129.021 34.4714 128.92 34.2878C128.822 34.1003 128.674 33.9558 128.474 33.8542C128.275 33.7527 128.029 33.7019 127.736 33.7019C127.463 33.7019 127.222 33.7488 127.015 33.8425C126.812 33.9363 126.652 34.0593 126.535 34.2117C126.422 34.364 126.365 34.5281 126.365 34.7039H125.281C125.281 34.4773 125.34 34.2527 125.457 34.03C125.574 33.8074 125.742 33.6062 125.961 33.4265C126.183 33.2429 126.449 33.0984 126.758 32.9929C127.07 32.8835 127.418 32.8289 127.801 32.8289C128.261 32.8289 128.668 32.907 129.019 33.0632C129.375 33.2195 129.652 33.4558 129.851 33.7722C130.054 34.0847 130.156 34.4773 130.156 34.95V37.9031C130.156 38.114 130.174 38.3386 130.209 38.5769C130.248 38.8152 130.304 39.0203 130.379 39.1921V39.2859H129.248C129.193 39.1609 129.15 38.9949 129.119 38.7878C129.088 38.5769 129.072 38.3816 129.072 38.2019ZM129.26 35.4421L129.271 36.2039H128.176C127.867 36.2039 127.592 36.2292 127.349 36.28C127.107 36.3269 126.904 36.3992 126.74 36.4968C126.576 36.5945 126.451 36.7175 126.365 36.866C126.279 37.0105 126.236 37.1804 126.236 37.3757C126.236 37.575 126.281 37.7566 126.371 37.9207C126.461 38.0847 126.595 38.2156 126.775 38.3132C126.959 38.407 127.183 38.4539 127.449 38.4539C127.781 38.4539 128.074 38.3835 128.328 38.2429C128.582 38.1023 128.783 37.9304 128.931 37.7273C129.084 37.5242 129.166 37.3269 129.178 37.1355L129.64 37.657C129.613 37.821 129.539 38.0027 129.418 38.2019C129.297 38.4011 129.135 38.5925 128.931 38.7761C128.732 38.9558 128.494 39.1062 128.217 39.2273C127.943 39.3445 127.635 39.4031 127.291 39.4031C126.861 39.4031 126.484 39.3191 126.16 39.1511C125.84 38.9832 125.59 38.7585 125.41 38.4773C125.234 38.1921 125.146 37.8738 125.146 37.5222C125.146 37.1824 125.213 36.8835 125.345 36.6257C125.478 36.364 125.67 36.1472 125.92 35.9753C126.17 35.7996 126.47 35.6667 126.822 35.5769C127.174 35.4871 127.566 35.4421 128 35.4421H129.26ZM139.031 32.946V39.2859H137.941V32.946H139.031ZM141.158 32.946V33.825H135.856V32.946H141.158ZM150.549 38.2019V34.9382C150.549 34.6882 150.498 34.4714 150.397 34.2878C150.299 34.1003 150.151 33.9558 149.952 33.8542C149.752 33.7527 149.506 33.7019 149.213 33.7019C148.94 33.7019 148.7 33.7488 148.493 33.8425C148.289 33.9363 148.129 34.0593 148.012 34.2117C147.899 34.364 147.842 34.5281 147.842 34.7039H146.758C146.758 34.4773 146.817 34.2527 146.934 34.03C147.051 33.8074 147.219 33.6062 147.438 33.4265C147.661 33.2429 147.926 33.0984 148.235 32.9929C148.547 32.8835 148.895 32.8289 149.278 32.8289C149.739 32.8289 150.145 32.907 150.496 33.0632C150.852 33.2195 151.129 33.4558 151.329 33.7722C151.532 34.0847 151.633 34.4773 151.633 34.95V37.9031C151.633 38.114 151.651 38.3386 151.686 38.5769C151.725 38.8152 151.782 39.0203 151.856 39.1921V39.2859H150.725C150.67 39.1609 150.627 38.9949 150.596 38.7878C150.565 38.5769 150.549 38.3816 150.549 38.2019ZM150.737 35.4421L150.748 36.2039H149.653C149.344 36.2039 149.069 36.2292 148.827 36.28C148.584 36.3269 148.381 36.3992 148.217 36.4968C148.053 36.5945 147.928 36.7175 147.842 36.866C147.756 37.0105 147.713 37.1804 147.713 37.3757C147.713 37.575 147.758 37.7566 147.848 37.9207C147.938 38.0847 148.073 38.2156 148.252 38.3132C148.436 38.407 148.661 38.4539 148.926 38.4539C149.258 38.4539 149.551 38.3835 149.805 38.2429C150.059 38.1023 150.26 37.9304 150.409 37.7273C150.561 37.5242 150.643 37.3269 150.655 37.1355L151.118 37.657C151.09 37.821 151.016 38.0027 150.895 38.2019C150.774 38.4011 150.612 38.5925 150.409 38.7761C150.209 38.9558 149.971 39.1062 149.694 39.2273C149.42 39.3445 149.112 39.4031 148.768 39.4031C148.338 39.4031 147.961 39.3191 147.637 39.1511C147.317 38.9832 147.067 38.7585 146.887 38.4773C146.711 38.1921 146.623 37.8738 146.623 37.5222C146.623 37.1824 146.69 36.8835 146.823 36.6257C146.955 36.364 147.147 36.1472 147.397 35.9753C147.647 35.7996 147.948 35.6667 148.299 35.5769C148.651 35.4871 149.043 35.4421 149.477 35.4421H150.737ZM162.255 32.946V33.8425H159.19V32.946H162.255ZM163.21 32.946V39.2859H162.126V32.946H163.21ZM158.927 32.946H160.016L159.852 36.0046C159.825 36.4773 159.78 36.8953 159.718 37.2585C159.659 37.6179 159.577 37.9265 159.471 38.1843C159.37 38.4421 159.241 38.6531 159.085 38.8171C158.932 38.9773 158.749 39.0964 158.534 39.1746C158.319 39.2488 158.071 39.2859 157.79 39.2859H157.45V38.3308L157.684 38.3132C157.852 38.3015 157.995 38.2625 158.112 38.196C158.233 38.1296 158.335 38.032 158.417 37.9031C158.499 37.7703 158.565 37.6003 158.616 37.3933C158.671 37.1863 158.712 36.9402 158.739 36.655C158.77 36.3699 158.794 36.0378 158.809 35.6589L158.927 32.946ZM169.349 36.1863V36.0515C169.349 35.5945 169.415 35.1707 169.548 34.78C169.681 34.3855 169.872 34.0437 170.122 33.7546C170.372 33.4617 170.675 33.2351 171.03 33.075C171.386 32.9109 171.784 32.8289 172.226 32.8289C172.671 32.8289 173.071 32.9109 173.427 33.075C173.786 33.2351 174.091 33.4617 174.341 33.7546C174.595 34.0437 174.788 34.3855 174.921 34.78C175.054 35.1707 175.12 35.5945 175.12 36.0515V36.1863C175.12 36.6433 175.054 37.0671 174.921 37.4578C174.788 37.8484 174.595 38.1902 174.341 38.4832C174.091 38.7722 173.788 38.9988 173.433 39.1628C173.081 39.323 172.683 39.4031 172.237 39.4031C171.792 39.4031 171.392 39.323 171.036 39.1628C170.681 38.9988 170.376 38.7722 170.122 38.4832C169.872 38.1902 169.681 37.8484 169.548 37.4578C169.415 37.0671 169.349 36.6433 169.349 36.1863ZM170.433 36.0515V36.1863C170.433 36.5027 170.47 36.8015 170.544 37.0828C170.618 37.3601 170.73 37.6062 170.878 37.821C171.03 38.0359 171.22 38.2058 171.446 38.3308C171.673 38.4519 171.937 38.5125 172.237 38.5125C172.534 38.5125 172.794 38.4519 173.017 38.3308C173.243 38.2058 173.431 38.0359 173.579 37.821C173.728 37.6062 173.839 37.3601 173.913 37.0828C173.991 36.8015 174.03 36.5027 174.03 36.1863V36.0515C174.03 35.739 173.991 35.4441 173.913 35.1667C173.839 34.8855 173.726 34.6375 173.573 34.4226C173.425 34.2039 173.237 34.032 173.011 33.907C172.788 33.782 172.526 33.7195 172.226 33.7195C171.929 33.7195 171.667 33.782 171.44 33.907C171.218 34.032 171.03 34.2039 170.878 34.4226C170.73 34.6375 170.618 34.8855 170.544 35.1667C170.47 35.4441 170.433 35.739 170.433 36.0515ZM185.255 32.946V33.8425H182.326V39.2859H181.242V32.946H185.255Z" fill="black"/>
</svg>
