<svg width="24" height="23" viewBox="0 0 24 23" fill="none" xmlns="http://www.w3.org/2000/svg">
<g clip-path="url(#clip0_1266_238482)">
<path d="M16.7465 20.6144L11.0807 16.9812L5.41481 20.6144C5.24357 20.7201 5.04538 20.7739 4.84421 20.7693C4.64304 20.7647 4.44751 20.7019 4.28127 20.5886C4.12062 20.4682 3.99904 20.3031 3.93172 20.1139C3.8644 19.9248 3.85435 19.72 3.90281 19.5252L5.68989 13.3461L0.352656 8.92271C0.0498864 8.67532 -0.075652 8.2544 0.0498864 7.85932C0.175425 7.46424 0.52804 7.21686 0.932348 7.16701L7.30527 6.72209L10.1742 0.56886C10.3256 0.223629 10.6782 0.000244141 11.0807 0.000244141C11.4831 0.000244141 11.8376 0.223629 11.9871 0.56886L14.8579 6.72394L21.2308 7.16886C21.6333 7.19471 21.9859 7.46424 22.1133 7.86117C22.1714 8.04853 22.1739 8.24873 22.1205 8.43748C22.0671 8.62624 21.96 8.79544 21.8123 8.92455L16.4973 13.3239L18.2843 19.503C18.3446 19.6974 18.3404 19.906 18.2721 20.0977C18.2039 20.2894 18.0754 20.4538 17.9059 20.5664C17.7297 20.6941 17.5179 20.7632 17.3004 20.7639C17.1059 20.7645 16.9148 20.7135 16.7465 20.6162V20.6144Z" fill="#D9D9D9"/>
</g>
<defs>
<clipPath id="clip0_1266_238482">
<rect width="24" height="22.1538" fill="white" transform="translate(0 0.000244141)"/>
</clipPath>
</defs>
</svg>
