<svg width="24" height="23" viewBox="0 0 24 23" fill="none" xmlns="http://www.w3.org/2000/svg">
<g clip-path="url(#clip0_1266_238473)">
<path d="M16.7464 20.6144L11.0805 16.9812L5.41469 20.6144C5.24345 20.7201 5.04526 20.7739 4.84409 20.7693C4.64292 20.7647 4.44739 20.7019 4.28115 20.5886C4.1205 20.4682 3.99891 20.3031 3.9316 20.1139C3.86428 19.9248 3.85423 19.72 3.90269 19.5252L5.68976 13.3461L0.352534 8.92271C0.0497644 8.67532 -0.0757741 8.2544 0.0497644 7.85932C0.175303 7.46424 0.527918 7.21686 0.932226 7.16701L7.30515 6.72209L10.1741 0.56886C10.3255 0.223629 10.6781 0.000244141 11.0805 0.000244141C11.483 0.000244141 11.8375 0.223629 11.987 0.56886L14.8578 6.72394L21.2307 7.16886C21.6332 7.19471 21.9858 7.46424 22.1131 7.86117C22.1713 8.04853 22.1738 8.24873 22.1204 8.43748C22.067 8.62624 21.9599 8.79544 21.8122 8.92455L16.4972 13.3239L18.2842 19.503C18.3445 19.6974 18.3402 19.906 18.272 20.0977C18.2038 20.2894 18.0753 20.4538 17.9058 20.5664C17.7296 20.6941 17.5178 20.7632 17.3002 20.7639C17.1058 20.7645 16.9147 20.7135 16.7464 20.6162V20.6144Z" fill="url(#paint0_linear_1266_238473)"/>
</g>
<defs>
<linearGradient id="paint0_linear_1266_238473" x1="28.5119" y1="20.7695" x2="28.5119" y2="-0.0016018" gradientUnits="userSpaceOnUse">
<stop stop-color="#FC8507"/>
<stop offset="1" stop-color="#FFA218"/>
</linearGradient>
<clipPath id="clip0_1266_238473">
<rect width="24" height="22.1538" fill="white" transform="translate(0 0.000244141)"/>
</clipPath>
</defs>
</svg>
