<svg width="24" height="23" viewBox="0 0 24 23" fill="none" xmlns="http://www.w3.org/2000/svg">
<g clip-path="url(#clip0_1266_238479)">
<path d="M16.7465 20.6144L11.0807 16.9812L5.41481 20.6144C5.24357 20.7201 5.04538 20.7739 4.84421 20.7693C4.64304 20.7647 4.44751 20.7019 4.28127 20.5886C4.12062 20.4682 3.99904 20.3031 3.93172 20.1139C3.8644 19.9248 3.85435 19.72 3.90281 19.5252L5.68989 13.3461L0.352656 8.92271C0.0498864 8.67532 -0.075652 8.2544 0.0498864 7.85932C0.175425 7.46424 0.52804 7.21686 0.932348 7.16701L7.30527 6.72209L10.1742 0.56886C10.3256 0.223629 10.6782 0.000244141 11.0807 0.000244141C11.4831 0.000244141 11.8376 0.223629 11.9871 0.56886L14.8579 6.72394L21.2308 7.16886C21.6333 7.19471 21.9859 7.46424 22.1133 7.86117C22.1714 8.04853 22.1739 8.24873 22.1205 8.43748C22.0671 8.62624 21.96 8.79544 21.8123 8.92455L16.4973 13.3239L18.2843 19.503C18.3446 19.6974 18.3404 19.906 18.2721 20.0977C18.2039 20.2894 18.0754 20.4538 17.9059 20.5664C17.7297 20.6941 17.5179 20.7632 17.3004 20.7639C17.1059 20.7645 16.9148 20.7135 16.7465 20.6162V20.6144Z" fill="url(#paint0_linear_1266_238479)"/>
<path fill-rule="evenodd" clip-rule="evenodd" d="M11.0769 16.983L11.0806 16.9811L16.7483 20.6162C16.9237 20.714 17.1009 20.7639 17.3021 20.7639C17.5292 20.7639 17.7304 20.69 17.9077 20.5663C18.0772 20.4538 18.2057 20.2894 18.2739 20.0976C18.3421 19.9059 18.3464 19.6973 18.2861 19.503L16.4991 13.3239L21.8123 8.92449C21.9604 8.79566 22.0677 8.62648 22.1211 8.43762C22.1746 8.24876 22.1718 8.04843 22.1132 7.86111C22.0532 7.6701 21.9368 7.50174 21.7793 7.37816C21.6218 7.25459 21.4305 7.1816 21.2308 7.1688L14.8578 6.72388L11.9889 0.568802C11.9095 0.396095 11.7815 0.250303 11.6205 0.1493C11.4595 0.0482977 11.2725 -0.003525 11.0824 0.000186251L11.0769 16.983Z" fill="#D9D9D9"/>
</g>
<defs>
<linearGradient id="paint0_linear_1266_238479" x1="28.512" y1="20.7695" x2="28.512" y2="-0.0016018" gradientUnits="userSpaceOnUse">
<stop stop-color="#FC8507"/>
<stop offset="1" stop-color="#FFA218"/>
</linearGradient>
<clipPath id="clip0_1266_238479">
<rect width="24" height="22.1538" fill="white" transform="translate(0 0.000244141)"/>
</clipPath>
</defs>
</svg>
