<svg width="882" height="518" viewBox="0 0 882 518" fill="none" xmlns="http://www.w3.org/2000/svg">
<path d="M9.10057 0.145508C3.14054 24.7895 0 50.3869 0 76.6475C0 80.6839 0.0741998 84.7047 0.221433 88.7088C0.324113 91.5013 0.462313 94.2856 0.635639 97.0614C0.47522 99.7785 0.344905 102.503 0.24499 105.234C0.0820913 109.687 0 114.159 0 118.647C0 338.733 197.337 517.147 440.765 517.147C684.193 517.147 881.53 338.733 881.53 118.647C881.53 77.3813 874.593 37.5802 861.714 0.145508H860.653C873.571 37.5767 880.53 77.3804 880.53 118.647C880.53 338.088 683.738 516.147 440.765 516.147C197.792 516.147 1 338.088 1 118.647C1 116.829 1.01351 115.014 1.04045 113.201C21.2875 293.545 189.718 434.147 394.311 434.147C612.537 434.147 789.621 274.182 789.621 76.6475C789.621 50.387 786.492 24.7905 780.552 0.145508H778.49C784.47 24.7885 787.621 50.3868 787.621 76.6475C787.621 272.892 611.627 432.147 394.311 432.147C184.58 432.147 13.3381 283.817 1.63771 97.0595C3.62644 63.4817 10.2267 31.0072 20.877 0.145508H18.7554C9.95181 25.8156 3.93313 52.5953 1.0192 80.1966C1.00641 79.0149 1 77.8318 1 76.6475C1 50.3868 4.15147 24.7885 10.1317 0.145508H9.10057Z" fill="#EFDAF5"/>
</svg>
