<svg width="24" height="24" viewBox="0 0 24 24" fill="none" xmlns="http://www.w3.org/2000/svg">
<g clip-path="url(#clip0_635_239015)">
<path d="M11.582 10.5493V15.4596C12.0031 15.5128 12.5716 15.5547 13.3295 15.5547C14.7099 15.5547 15.8352 15.2283 16.5422 14.5852C17.2175 13.9738 17.6484 13.0262 17.6484 11.7633C17.6484 10.5517 17.2263 9.70805 16.5422 9.15029C15.8902 8.60232 14.9738 8.32764 13.6466 8.32764L11.582 8.34536V9.35595L13.7608 9.34009C15.3833 9.34009 16.2894 10.235 16.2778 11.8043C16.2778 13.6063 15.2774 14.5325 13.5934 14.5222C13.3295 14.5222 13.0571 14.5222 12.8766 14.491V10.5489H11.582V10.5493Z" fill="#455999"/>
<path d="M8.44937 14.5294C7.77269 14.5294 7.10906 14.257 6.83625 14.0929L6.53125 15.1072C6.91319 15.3572 7.65423 15.5959 8.51512 15.5959C10.2686 15.5959 11.2708 14.6497 11.2708 13.4502C11.2708 12.4914 10.5741 11.8376 9.71319 11.6856V11.6636C10.5839 11.3572 11.0194 10.7486 11.0194 10.0067C11.0194 9.08003 10.2686 8.27417 8.80846 8.27417C7.95876 8.27417 7.17342 8.53626 6.77096 8.8198L7.07642 9.78889C7.37022 9.59255 7.9471 9.34119 8.52398 9.34119C9.29813 9.34119 9.65956 9.74505 9.65956 10.2254C9.65956 10.9338 8.87561 11.2169 8.25303 11.2169H7.6547V12.1981H8.27588C9.09107 12.1981 9.87501 12.5576 9.87501 13.3957C9.88854 13.9525 9.47301 14.5294 8.44937 14.5294Z" fill="#455999"/>
<path d="M4.11976 5.13503L8.00683 6.38253C8.03434 6.4217 8.07818 6.44642 8.12621 6.44642C8.14114 6.44642 8.15653 6.44409 8.17192 6.43849L8.17705 6.43709L11.8692 7.6221C11.8832 7.62676 11.8986 7.62909 11.9135 7.62909C11.9279 7.62909 11.9429 7.62676 11.9573 7.6221L15.5016 6.48513C15.5049 6.48513 15.5077 6.48652 15.5109 6.48652C15.544 6.48652 15.5767 6.4744 15.6014 6.45341L23.3933 3.95235C23.4534 3.93323 23.494 3.87727 23.494 3.81478C23.494 3.75182 23.4534 3.69586 23.3933 3.67674L11.9564 0.00699532C11.9279 -0.00233177 11.8972 -0.00233177 11.8687 0.00699532L0.432764 3.67627C0.37307 3.69539 0.332031 3.75136 0.332031 3.81431C0.332031 3.87727 0.37307 3.93277 0.432764 3.95189L4.11976 5.13503C4.1193 5.13503 4.1193 5.13503 4.11976 5.13503ZM8.17472 6.13209L4.62809 4.99419L7.89817 3.89732L11.3389 5.0716L8.17472 6.13209ZM8.35006 3.74576L11.8636 2.56821L15.3435 3.7285L11.7904 4.92004L8.35006 3.74576ZM11.913 7.33203L8.64014 6.28179L11.7904 5.22597L15.0315 6.33169L11.913 7.33203ZM15.4932 6.18293L12.2423 5.07394L15.801 3.88054L19.1686 5.00305L15.4932 6.18293ZM19.3607 2.68667L22.8742 3.81431L19.62 4.85848C19.6083 4.84915 19.5953 4.84076 19.5808 4.8361L16.2571 3.72804L19.3565 2.68853C19.3579 2.68853 19.3593 2.68713 19.3607 2.68667ZM18.8962 2.53743L15.8005 3.57554L12.3201 2.41525L15.3496 1.39953L18.8962 2.53743ZM11.913 0.296601L14.8842 1.24983L11.8631 2.26275L8.88264 1.26895L11.913 0.296601ZM8.42002 1.41725C8.42421 1.41912 8.42795 1.42285 8.43214 1.42471L11.4066 2.41618L7.89817 3.59233L4.8664 2.55749L8.42002 1.41725ZM4.42149 2.70066C4.43502 2.71185 4.45087 2.72211 4.46953 2.72864L7.44627 3.74389L4.16267 4.84496L0.950884 3.81478L4.42149 2.70066Z" fill="#455999"/>
<path d="M23.569 20.0471L12.1336 16.3135C12.1042 16.3037 12.0729 16.3037 12.0436 16.3135L0.607612 20.0471C0.547919 20.0667 0.507812 20.1227 0.507812 20.1852C0.507812 20.2486 0.548852 20.3041 0.608545 20.3232L4.19621 21.4746C4.20694 21.4798 4.21813 21.4835 4.22979 21.4849L12.044 23.9925C12.058 23.9976 12.0734 24 12.0879 24C12.1028 24 12.1177 23.9976 12.1322 23.9925L23.5676 20.3232C23.6273 20.3041 23.6679 20.2486 23.6684 20.1852C23.6684 20.1222 23.6283 20.0667 23.569 20.0471ZM15.5076 17.7205L19.0342 18.8719L15.8942 19.9371L12.4036 18.7661L15.4885 17.7317C15.4955 17.7293 15.5006 17.7238 15.5076 17.7205ZM15.4405 20.09L12.0109 21.2531L8.4876 20.0784L11.9475 18.9186L15.4405 20.09ZM12.0879 16.604L15.0525 17.5722L11.947 18.6136L8.97961 17.6184L12.0879 16.604ZM8.52025 17.769C8.52211 17.7699 8.52398 17.7713 8.52585 17.7718L11.4914 18.7661L8.03058 19.9263L5.00254 18.9172L8.52025 17.769ZM1.12293 20.1838L4.54644 19.0664C4.55297 19.0697 4.55717 19.0743 4.5637 19.0762L7.57402 20.0798L4.26057 21.1906L1.12293 20.1838ZM4.72552 21.3403L8.03104 20.2323L11.5571 21.408L8.33744 22.5002L4.72552 21.3403ZM12.0879 23.7024L8.80053 22.6475L12.0114 21.5586L15.3248 22.6638L12.0879 23.7024ZM15.7669 22.5225C15.7515 22.5072 15.7343 22.4941 15.7124 22.4876L12.4661 21.4052L15.8947 20.2421L19.3066 21.3865L15.7669 22.5225ZM19.7724 21.2373L16.3466 20.0882L19.4502 19.0356C19.4614 19.0319 19.4712 19.0244 19.4805 19.0174L23.0528 20.1833L19.7724 21.2373Z" fill="#455999"/>
<path d="M0.507812 4.97316V18.5791C0.507812 18.6588 0.572636 18.7241 0.652382 18.7241C0.733062 18.7241 0.797885 18.6593 0.797885 18.5791V4.97316C0.797885 4.89341 0.733062 4.82812 0.652382 4.82812C0.572636 4.82859 0.507812 4.89341 0.507812 4.97316Z" fill="#455999"/>
<path d="M4.32812 6.47905V17.0732C4.32812 17.1413 4.38315 17.1968 4.45171 17.1968C4.5198 17.1968 4.57483 17.1418 4.57483 17.0732V6.47905C4.57483 6.41096 4.5198 6.35547 4.45171 6.35547C4.38315 6.35547 4.32812 6.4105 4.32812 6.47905Z" fill="#455999"/>
<path d="M23.2544 4.85986C23.1742 4.85986 23.1094 4.92469 23.1094 5.0049V18.6108C23.1094 18.6915 23.1742 18.7563 23.2544 18.7563C23.3346 18.7563 23.3999 18.6915 23.3999 18.6108V5.00443C23.3994 4.92515 23.3346 4.85986 23.2544 4.85986Z" fill="#455999"/>
<path d="M19.3359 6.5103V17.1054C19.3359 17.1735 19.391 17.229 19.46 17.229C19.5281 17.229 19.5831 17.1735 19.5831 17.1054V6.5103C19.5831 6.44222 19.5281 6.38672 19.46 6.38672C19.391 6.38672 19.3359 6.44175 19.3359 6.5103Z" fill="#455999"/>
</g>
<defs>
<clipPath id="clip0_635_239015">
<rect width="24" height="24" fill="white"/>
</clipPath>
</defs>
</svg>
