<svg width="40" height="40" viewBox="0 0 40 40" fill="none" xmlns="http://www.w3.org/2000/svg">
<rect y="0.000244141" width="40" height="40" rx="8" fill="#4680C2"/>
<path fill-rule="evenodd" clip-rule="evenodd" d="M29.8215 14.881C29.9795 14.3842 29.8215 14.0228 29.1214 14.0228H26.7953C26.2082 14.0228 25.9372 14.339 25.7791 14.6777C25.7791 14.6777 24.5822 17.5683 22.9111 19.4427C22.3691 19.9847 22.1207 20.1654 21.8271 20.1654C21.669 20.1654 21.4658 19.9847 21.4658 19.4879V14.8584C21.4658 14.2712 21.2851 14.0002 20.7883 14.0002H17.1299C16.7685 14.0002 16.5427 14.2712 16.5427 14.5422C16.5427 15.1068 17.3783 15.2423 17.4686 16.8231V20.2557C17.4686 21.001 17.3331 21.1364 17.0395 21.1364C16.2491 21.1364 14.3296 18.2232 13.1779 14.9036C12.952 14.2486 12.7262 14.0002 12.139 14.0002H9.79041C9.11292 14.0002 9 14.3164 9 14.6551C9 15.2649 9.79041 18.3362 12.681 22.4011C14.6006 25.1788 17.3331 26.6692 19.7947 26.6692C21.2851 26.6692 21.4658 26.3305 21.4658 25.7659V23.6657C21.4658 22.9882 21.6013 22.8753 22.0755 22.8753C22.4143 22.8753 23.024 23.056 24.4015 24.3884C25.9823 25.9692 26.2533 26.6918 27.1341 26.6918H29.4601C30.1376 26.6918 30.4538 26.3531 30.2731 25.6982C30.0699 25.0433 29.3021 24.0948 28.3084 22.9656C27.7664 22.3333 26.9534 21.6332 26.705 21.2945C26.3663 20.8428 26.4566 20.6622 26.705 20.2557C26.6824 20.2557 29.5279 16.236 29.8215 14.881Z" fill="white"/>
</svg>
